G04 #@! TF.GenerationSoftware,KiCad,Pcbnew,(5.1.9)-1*
G04 #@! TF.CreationDate,2021-03-31T18:40:17+02:00*
G04 #@! TF.ProjectId,Schematic,53636865-6d61-4746-9963-2e6b69636164,rev?*
G04 #@! TF.SameCoordinates,Original*
G04 #@! TF.FileFunction,Copper,L1,Top*
G04 #@! TF.FilePolarity,Positive*
%FSLAX46Y46*%
G04 Gerber Fmt 4.6, Leading zero omitted, Abs format (unit mm)*
G04 Created by KiCad (PCBNEW (5.1.9)-1) date 2021-03-31 18:40:17*
%MOMM*%
%LPD*%
G01*
G04 APERTURE LIST*
G04 #@! TA.AperFunction,ComponentPad*
%ADD10R,1.700000X1.700000*%
G04 #@! TD*
G04 #@! TA.AperFunction,ComponentPad*
%ADD11O,1.700000X1.700000*%
G04 #@! TD*
G04 #@! TA.AperFunction,SMDPad,CuDef*
%ADD12R,4.500000X2.000000*%
G04 #@! TD*
G04 #@! TA.AperFunction,ComponentPad*
%ADD13R,1.600000X1.600000*%
G04 #@! TD*
G04 #@! TA.AperFunction,ComponentPad*
%ADD14O,1.600000X1.600000*%
G04 #@! TD*
G04 #@! TA.AperFunction,ViaPad*
%ADD15C,0.800000*%
G04 #@! TD*
G04 #@! TA.AperFunction,Conductor*
%ADD16C,0.250000*%
G04 #@! TD*
G04 #@! TA.AperFunction,Conductor*
%ADD17C,0.500000*%
G04 #@! TD*
G04 #@! TA.AperFunction,Conductor*
%ADD18C,0.254000*%
G04 #@! TD*
G04 #@! TA.AperFunction,Conductor*
%ADD19C,0.100000*%
G04 #@! TD*
G04 APERTURE END LIST*
D10*
X179250000Y-127500000D03*
D11*
X179250000Y-124960000D03*
X179250000Y-122420000D03*
X179250000Y-119880000D03*
X179250000Y-117340000D03*
X179250000Y-114800000D03*
X179250000Y-112260000D03*
X179250000Y-109720000D03*
X179250000Y-107180000D03*
X179250000Y-104640000D03*
X179250000Y-102100000D03*
X179250000Y-99560000D03*
X179250000Y-97020000D03*
X179250000Y-94480000D03*
X179250000Y-91940000D03*
X179250000Y-89400000D03*
D10*
X148750000Y-89500000D03*
D11*
X148750000Y-92040000D03*
X148750000Y-94580000D03*
X148750000Y-97120000D03*
X148750000Y-99660000D03*
X148750000Y-102200000D03*
X148750000Y-104740000D03*
X148750000Y-107280000D03*
X148750000Y-109820000D03*
X148750000Y-112360000D03*
X148750000Y-114900000D03*
X148750000Y-117440000D03*
X148750000Y-119980000D03*
X148750000Y-122520000D03*
X148750000Y-125060000D03*
X148750000Y-127600000D03*
G04 #@! TA.AperFunction,SMDPad,CuDef*
G36*
G01*
X148587500Y-85255000D02*
X148587500Y-84305000D01*
G75*
G02*
X148837500Y-84055000I250000J0D01*
G01*
X149512500Y-84055000D01*
G75*
G02*
X149762500Y-84305000I0J-250000D01*
G01*
X149762500Y-85255000D01*
G75*
G02*
X149512500Y-85505000I-250000J0D01*
G01*
X148837500Y-85505000D01*
G75*
G02*
X148587500Y-85255000I0J250000D01*
G01*
G37*
G04 #@! TD.AperFunction*
G04 #@! TA.AperFunction,SMDPad,CuDef*
G36*
G01*
X150662500Y-85255000D02*
X150662500Y-84305000D01*
G75*
G02*
X150912500Y-84055000I250000J0D01*
G01*
X151587500Y-84055000D01*
G75*
G02*
X151837500Y-84305000I0J-250000D01*
G01*
X151837500Y-85255000D01*
G75*
G02*
X151587500Y-85505000I-250000J0D01*
G01*
X150912500Y-85505000D01*
G75*
G02*
X150662500Y-85255000I0J250000D01*
G01*
G37*
G04 #@! TD.AperFunction*
D12*
X168250000Y-128750000D03*
X159750000Y-128750000D03*
G04 #@! TA.AperFunction,SMDPad,CuDef*
G36*
G01*
X179350000Y-84299999D02*
X179350000Y-85200001D01*
G75*
G02*
X179100001Y-85450000I-249999J0D01*
G01*
X178399999Y-85450000D01*
G75*
G02*
X178150000Y-85200001I0J249999D01*
G01*
X178150000Y-84299999D01*
G75*
G02*
X178399999Y-84050000I249999J0D01*
G01*
X179100001Y-84050000D01*
G75*
G02*
X179350000Y-84299999I0J-249999D01*
G01*
G37*
G04 #@! TD.AperFunction*
G04 #@! TA.AperFunction,SMDPad,CuDef*
G36*
G01*
X177350000Y-84299999D02*
X177350000Y-85200001D01*
G75*
G02*
X177100001Y-85450000I-249999J0D01*
G01*
X176399999Y-85450000D01*
G75*
G02*
X176150000Y-85200001I0J249999D01*
G01*
X176150000Y-84299999D01*
G75*
G02*
X176399999Y-84050000I249999J0D01*
G01*
X177100001Y-84050000D01*
G75*
G02*
X177350000Y-84299999I0J-249999D01*
G01*
G37*
G04 #@! TD.AperFunction*
G04 #@! TA.AperFunction,SMDPad,CuDef*
G36*
G01*
X148650000Y-81905001D02*
X148650000Y-81004999D01*
G75*
G02*
X148899999Y-80755000I249999J0D01*
G01*
X149600001Y-80755000D01*
G75*
G02*
X149850000Y-81004999I0J-249999D01*
G01*
X149850000Y-81905001D01*
G75*
G02*
X149600001Y-82155000I-249999J0D01*
G01*
X148899999Y-82155000D01*
G75*
G02*
X148650000Y-81905001I0J249999D01*
G01*
G37*
G04 #@! TD.AperFunction*
G04 #@! TA.AperFunction,SMDPad,CuDef*
G36*
G01*
X150650000Y-81905001D02*
X150650000Y-81004999D01*
G75*
G02*
X150899999Y-80755000I249999J0D01*
G01*
X151600001Y-80755000D01*
G75*
G02*
X151850000Y-81004999I0J-249999D01*
G01*
X151850000Y-81905001D01*
G75*
G02*
X151600001Y-82155000I-249999J0D01*
G01*
X150899999Y-82155000D01*
G75*
G02*
X150650000Y-81905001I0J249999D01*
G01*
G37*
G04 #@! TD.AperFunction*
G04 #@! TA.AperFunction,SMDPad,CuDef*
G36*
G01*
X179350000Y-81049999D02*
X179350000Y-81950001D01*
G75*
G02*
X179100001Y-82200000I-249999J0D01*
G01*
X178449999Y-82200000D01*
G75*
G02*
X178200000Y-81950001I0J249999D01*
G01*
X178200000Y-81049999D01*
G75*
G02*
X178449999Y-80800000I249999J0D01*
G01*
X179100001Y-80800000D01*
G75*
G02*
X179350000Y-81049999I0J-249999D01*
G01*
G37*
G04 #@! TD.AperFunction*
G04 #@! TA.AperFunction,SMDPad,CuDef*
G36*
G01*
X177300000Y-81049999D02*
X177300000Y-81950001D01*
G75*
G02*
X177050001Y-82200000I-249999J0D01*
G01*
X176399999Y-82200000D01*
G75*
G02*
X176150000Y-81950001I0J249999D01*
G01*
X176150000Y-81049999D01*
G75*
G02*
X176399999Y-80800000I249999J0D01*
G01*
X177050001Y-80800000D01*
G75*
G02*
X177300000Y-81049999I0J-249999D01*
G01*
G37*
G04 #@! TD.AperFunction*
G04 #@! TA.AperFunction,SMDPad,CuDef*
G36*
G01*
X154275000Y-127087500D02*
X155225000Y-127087500D01*
G75*
G02*
X155475000Y-127337500I0J-250000D01*
G01*
X155475000Y-128012500D01*
G75*
G02*
X155225000Y-128262500I-250000J0D01*
G01*
X154275000Y-128262500D01*
G75*
G02*
X154025000Y-128012500I0J250000D01*
G01*
X154025000Y-127337500D01*
G75*
G02*
X154275000Y-127087500I250000J0D01*
G01*
G37*
G04 #@! TD.AperFunction*
G04 #@! TA.AperFunction,SMDPad,CuDef*
G36*
G01*
X154275000Y-129162500D02*
X155225000Y-129162500D01*
G75*
G02*
X155475000Y-129412500I0J-250000D01*
G01*
X155475000Y-130087500D01*
G75*
G02*
X155225000Y-130337500I-250000J0D01*
G01*
X154275000Y-130337500D01*
G75*
G02*
X154025000Y-130087500I0J250000D01*
G01*
X154025000Y-129412500D01*
G75*
G02*
X154275000Y-129162500I250000J0D01*
G01*
G37*
G04 #@! TD.AperFunction*
G04 #@! TA.AperFunction,SMDPad,CuDef*
G36*
G01*
X172775000Y-127125000D02*
X173725000Y-127125000D01*
G75*
G02*
X173975000Y-127375000I0J-250000D01*
G01*
X173975000Y-128050000D01*
G75*
G02*
X173725000Y-128300000I-250000J0D01*
G01*
X172775000Y-128300000D01*
G75*
G02*
X172525000Y-128050000I0J250000D01*
G01*
X172525000Y-127375000D01*
G75*
G02*
X172775000Y-127125000I250000J0D01*
G01*
G37*
G04 #@! TD.AperFunction*
G04 #@! TA.AperFunction,SMDPad,CuDef*
G36*
G01*
X172775000Y-129200000D02*
X173725000Y-129200000D01*
G75*
G02*
X173975000Y-129450000I0J-250000D01*
G01*
X173975000Y-130125000D01*
G75*
G02*
X173725000Y-130375000I-250000J0D01*
G01*
X172775000Y-130375000D01*
G75*
G02*
X172525000Y-130125000I0J250000D01*
G01*
X172525000Y-129450000D01*
G75*
G02*
X172775000Y-129200000I250000J0D01*
G01*
G37*
G04 #@! TD.AperFunction*
D13*
X171610000Y-121500000D03*
D14*
X156370000Y-88480000D03*
X171610000Y-118960000D03*
X156370000Y-91020000D03*
X171610000Y-116420000D03*
X156370000Y-93560000D03*
X171610000Y-113880000D03*
X156370000Y-96100000D03*
X171610000Y-111340000D03*
X156370000Y-98640000D03*
X171610000Y-108800000D03*
X156370000Y-101180000D03*
X171610000Y-106260000D03*
X156370000Y-103720000D03*
X171610000Y-103720000D03*
X156370000Y-106260000D03*
X171610000Y-101180000D03*
X156370000Y-108800000D03*
X171610000Y-98640000D03*
X156370000Y-111340000D03*
X171610000Y-96100000D03*
X156370000Y-113880000D03*
X171610000Y-93560000D03*
X156370000Y-116420000D03*
X171610000Y-91020000D03*
X156370000Y-118960000D03*
X171610000Y-88480000D03*
X156370000Y-121500000D03*
X171610000Y-85940000D03*
X156370000Y-85940000D03*
D15*
X174500000Y-83000000D03*
X147500000Y-83000000D03*
X149000000Y-87000000D03*
X180500000Y-83000000D03*
X175000000Y-87000000D03*
X159500000Y-95500000D03*
X159500000Y-109000000D03*
X168500000Y-95500000D03*
X168500000Y-109000000D03*
D16*
X157495001Y-87065001D02*
X156370000Y-85940000D01*
X171860003Y-104845001D02*
X171069999Y-104845001D01*
X171069999Y-104845001D02*
X157495001Y-91270003D01*
X175370003Y-108355001D02*
X171860003Y-104845001D01*
X157495001Y-91270003D02*
X157495001Y-87065001D01*
X179624003Y-108355001D02*
X175370003Y-108355001D01*
X180425001Y-109155999D02*
X179624003Y-108355001D01*
X180425001Y-116164999D02*
X180425001Y-109155999D01*
X179250000Y-117340000D02*
X180425001Y-116164999D01*
X177529002Y-85940000D02*
X171610000Y-85940000D01*
X180875011Y-89286009D02*
X177529002Y-85940000D01*
X180875011Y-118254989D02*
X180875011Y-89286009D01*
X179250000Y-119880000D02*
X180875011Y-118254989D01*
X162045000Y-81455000D02*
X171610000Y-91020000D01*
X151250000Y-81455000D02*
X162045000Y-81455000D01*
X150087510Y-88162490D02*
X150087510Y-82617490D01*
X150087510Y-82617490D02*
X151250000Y-81455000D01*
X148750000Y-89500000D02*
X150087510Y-88162490D01*
D17*
X150400010Y-80304990D02*
X149250000Y-81455000D01*
X175529990Y-80304990D02*
X150400010Y-80304990D01*
X176725000Y-81500000D02*
X175529990Y-80304990D01*
X149175000Y-81530000D02*
X149250000Y-81455000D01*
X149175000Y-84780000D02*
X149175000Y-81530000D01*
X147449999Y-111059999D02*
X148750000Y-112360000D01*
X149175000Y-84780000D02*
X147449999Y-86505001D01*
X148750000Y-107280000D02*
X147619998Y-107280000D01*
X147449999Y-107449999D02*
X147449999Y-111059999D01*
X147619998Y-107280000D02*
X147449999Y-107449999D01*
X147449999Y-86505001D02*
X147449999Y-107449999D01*
X150270000Y-113880000D02*
X148750000Y-112360000D01*
X156370000Y-113880000D02*
X150270000Y-113880000D01*
X176340001Y-112629999D02*
X179250000Y-109720000D01*
X157620001Y-112629999D02*
X176340001Y-112629999D01*
X156370000Y-113880000D02*
X157620001Y-112629999D01*
X177079999Y-112629999D02*
X176340001Y-112629999D01*
X179250000Y-114800000D02*
X177079999Y-112629999D01*
D16*
X172212500Y-128750000D02*
X173250000Y-127712500D01*
X168250000Y-128750000D02*
X172212500Y-128750000D01*
X154224999Y-120374999D02*
X148750000Y-114900000D01*
X159874999Y-120374999D02*
X154224999Y-120374999D01*
X168250000Y-128750000D02*
X159874999Y-120374999D01*
X155825000Y-128750000D02*
X154750000Y-127675000D01*
X159750000Y-128750000D02*
X155825000Y-128750000D01*
X154750000Y-123440000D02*
X148750000Y-117440000D01*
X154750000Y-127675000D02*
X154750000Y-123440000D01*
X178750000Y-81525000D02*
X178775000Y-81500000D01*
X178750000Y-84750000D02*
X178750000Y-81525000D01*
D18*
X146710589Y-111554058D02*
X146793467Y-111655045D01*
X146793470Y-111655048D01*
X146821183Y-111688816D01*
X146854950Y-111716528D01*
X147279461Y-112141039D01*
X147265000Y-112213740D01*
X147265000Y-112506260D01*
X147322068Y-112793158D01*
X147434010Y-113063411D01*
X147596525Y-113306632D01*
X147803368Y-113513475D01*
X147977760Y-113630000D01*
X147803368Y-113746525D01*
X147596525Y-113953368D01*
X147434010Y-114196589D01*
X147322068Y-114466842D01*
X147265000Y-114753740D01*
X147265000Y-115046260D01*
X147322068Y-115333158D01*
X147434010Y-115603411D01*
X147596525Y-115846632D01*
X147803368Y-116053475D01*
X147977760Y-116170000D01*
X147803368Y-116286525D01*
X147596525Y-116493368D01*
X147434010Y-116736589D01*
X147322068Y-117006842D01*
X147265000Y-117293740D01*
X147265000Y-117586260D01*
X147322068Y-117873158D01*
X147434010Y-118143411D01*
X147596525Y-118386632D01*
X147803368Y-118593475D01*
X147977760Y-118710000D01*
X147803368Y-118826525D01*
X147596525Y-119033368D01*
X147434010Y-119276589D01*
X147322068Y-119546842D01*
X147265000Y-119833740D01*
X147265000Y-120126260D01*
X147322068Y-120413158D01*
X147434010Y-120683411D01*
X147596525Y-120926632D01*
X147803368Y-121133475D01*
X147977760Y-121250000D01*
X147803368Y-121366525D01*
X147596525Y-121573368D01*
X147434010Y-121816589D01*
X147322068Y-122086842D01*
X147265000Y-122373740D01*
X147265000Y-122666260D01*
X147322068Y-122953158D01*
X147434010Y-123223411D01*
X147596525Y-123466632D01*
X147803368Y-123673475D01*
X147977760Y-123790000D01*
X147803368Y-123906525D01*
X147596525Y-124113368D01*
X147434010Y-124356589D01*
X147322068Y-124626842D01*
X147265000Y-124913740D01*
X147265000Y-125206260D01*
X147322068Y-125493158D01*
X147434010Y-125763411D01*
X147596525Y-126006632D01*
X147803368Y-126213475D01*
X147977760Y-126330000D01*
X147803368Y-126446525D01*
X147596525Y-126653368D01*
X147434010Y-126896589D01*
X147322068Y-127166842D01*
X147265000Y-127453740D01*
X147265000Y-127746260D01*
X147322068Y-128033158D01*
X147434010Y-128303411D01*
X147596525Y-128546632D01*
X147803368Y-128753475D01*
X148046589Y-128915990D01*
X148316842Y-129027932D01*
X148603740Y-129085000D01*
X148896260Y-129085000D01*
X149183158Y-129027932D01*
X149453411Y-128915990D01*
X149696632Y-128753475D01*
X149903475Y-128546632D01*
X150065990Y-128303411D01*
X150177932Y-128033158D01*
X150235000Y-127746260D01*
X150235000Y-127453740D01*
X150177932Y-127166842D01*
X150065990Y-126896589D01*
X149903475Y-126653368D01*
X149696632Y-126446525D01*
X149522240Y-126330000D01*
X149696632Y-126213475D01*
X149903475Y-126006632D01*
X150065990Y-125763411D01*
X150177932Y-125493158D01*
X150235000Y-125206260D01*
X150235000Y-124913740D01*
X150177932Y-124626842D01*
X150065990Y-124356589D01*
X149903475Y-124113368D01*
X149696632Y-123906525D01*
X149522240Y-123790000D01*
X149696632Y-123673475D01*
X149903475Y-123466632D01*
X150065990Y-123223411D01*
X150177932Y-122953158D01*
X150235000Y-122666260D01*
X150235000Y-122373740D01*
X150177932Y-122086842D01*
X150065990Y-121816589D01*
X149903475Y-121573368D01*
X149696632Y-121366525D01*
X149522240Y-121250000D01*
X149696632Y-121133475D01*
X149903475Y-120926632D01*
X150065990Y-120683411D01*
X150177932Y-120413158D01*
X150235000Y-120126260D01*
X150235000Y-119999802D01*
X153990001Y-123754804D01*
X153990000Y-126500389D01*
X153935150Y-126517028D01*
X153781614Y-126599095D01*
X153647038Y-126709538D01*
X153536595Y-126844114D01*
X153454528Y-126997650D01*
X153403992Y-127164246D01*
X153386928Y-127337500D01*
X153386928Y-128012500D01*
X153403992Y-128185754D01*
X153454528Y-128352350D01*
X153536595Y-128505886D01*
X153647038Y-128640462D01*
X153653594Y-128645842D01*
X153573815Y-128711315D01*
X153494463Y-128808006D01*
X153435498Y-128918320D01*
X153399188Y-129038018D01*
X153386928Y-129162500D01*
X153390000Y-129464250D01*
X153548750Y-129623000D01*
X154623000Y-129623000D01*
X154623000Y-129603000D01*
X154877000Y-129603000D01*
X154877000Y-129623000D01*
X155951250Y-129623000D01*
X156064250Y-129510000D01*
X156861928Y-129510000D01*
X156861928Y-129750000D01*
X156874188Y-129874482D01*
X156910498Y-129994180D01*
X156969463Y-130104494D01*
X157048815Y-130201185D01*
X157145506Y-130280537D01*
X157255820Y-130339502D01*
X157375518Y-130375812D01*
X157500000Y-130388072D01*
X162000000Y-130388072D01*
X162124482Y-130375812D01*
X162244180Y-130339502D01*
X162354494Y-130280537D01*
X162451185Y-130201185D01*
X162530537Y-130104494D01*
X162589502Y-129994180D01*
X162625812Y-129874482D01*
X162638072Y-129750000D01*
X162638072Y-127750000D01*
X162625812Y-127625518D01*
X162589502Y-127505820D01*
X162530537Y-127395506D01*
X162451185Y-127298815D01*
X162354494Y-127219463D01*
X162244180Y-127160498D01*
X162124482Y-127124188D01*
X162000000Y-127111928D01*
X157500000Y-127111928D01*
X157375518Y-127124188D01*
X157255820Y-127160498D01*
X157145506Y-127219463D01*
X157048815Y-127298815D01*
X156969463Y-127395506D01*
X156910498Y-127505820D01*
X156874188Y-127625518D01*
X156861928Y-127750000D01*
X156861928Y-127990000D01*
X156139802Y-127990000D01*
X156113072Y-127963270D01*
X156113072Y-127337500D01*
X156096008Y-127164246D01*
X156045472Y-126997650D01*
X155963405Y-126844114D01*
X155852962Y-126709538D01*
X155718386Y-126599095D01*
X155564850Y-126517028D01*
X155510000Y-126500390D01*
X155510000Y-123477322D01*
X155513676Y-123439999D01*
X155510000Y-123402676D01*
X155510000Y-123402667D01*
X155499003Y-123291014D01*
X155455546Y-123147753D01*
X155384974Y-123015724D01*
X155371811Y-122999685D01*
X155313799Y-122928996D01*
X155313795Y-122928992D01*
X155290001Y-122899999D01*
X155261008Y-122876205D01*
X150191209Y-117806408D01*
X150235000Y-117586260D01*
X150235000Y-117459801D01*
X153661199Y-120886001D01*
X153684998Y-120915000D01*
X153800723Y-121009973D01*
X153932752Y-121080545D01*
X154076013Y-121124002D01*
X154187666Y-121134999D01*
X154187676Y-121134999D01*
X154224999Y-121138675D01*
X154262322Y-121134999D01*
X154979491Y-121134999D01*
X154935000Y-121358665D01*
X154935000Y-121641335D01*
X154990147Y-121918574D01*
X155098320Y-122179727D01*
X155255363Y-122414759D01*
X155455241Y-122614637D01*
X155690273Y-122771680D01*
X155951426Y-122879853D01*
X156228665Y-122935000D01*
X156511335Y-122935000D01*
X156788574Y-122879853D01*
X157049727Y-122771680D01*
X157284759Y-122614637D01*
X157484637Y-122414759D01*
X157641680Y-122179727D01*
X157749853Y-121918574D01*
X157805000Y-121641335D01*
X157805000Y-121358665D01*
X157760509Y-121134999D01*
X159560198Y-121134999D01*
X165645042Y-127219844D01*
X165548815Y-127298815D01*
X165469463Y-127395506D01*
X165410498Y-127505820D01*
X165374188Y-127625518D01*
X165361928Y-127750000D01*
X165361928Y-129750000D01*
X165374188Y-129874482D01*
X165410498Y-129994180D01*
X165469463Y-130104494D01*
X165548815Y-130201185D01*
X165645506Y-130280537D01*
X165755820Y-130339502D01*
X165875518Y-130375812D01*
X166000000Y-130388072D01*
X170500000Y-130388072D01*
X170624482Y-130375812D01*
X170627158Y-130375000D01*
X171886928Y-130375000D01*
X171899188Y-130499482D01*
X171935498Y-130619180D01*
X171994463Y-130729494D01*
X172073815Y-130826185D01*
X172170506Y-130905537D01*
X172280820Y-130964502D01*
X172400518Y-131000812D01*
X172525000Y-131013072D01*
X172964250Y-131010000D01*
X173123000Y-130851250D01*
X173123000Y-129914500D01*
X173377000Y-129914500D01*
X173377000Y-130851250D01*
X173535750Y-131010000D01*
X173975000Y-131013072D01*
X174099482Y-131000812D01*
X174219180Y-130964502D01*
X174329494Y-130905537D01*
X174426185Y-130826185D01*
X174505537Y-130729494D01*
X174564502Y-130619180D01*
X174600812Y-130499482D01*
X174613072Y-130375000D01*
X174610000Y-130073250D01*
X174451250Y-129914500D01*
X173377000Y-129914500D01*
X173123000Y-129914500D01*
X172048750Y-129914500D01*
X171890000Y-130073250D01*
X171886928Y-130375000D01*
X170627158Y-130375000D01*
X170744180Y-130339502D01*
X170854494Y-130280537D01*
X170951185Y-130201185D01*
X171030537Y-130104494D01*
X171089502Y-129994180D01*
X171125812Y-129874482D01*
X171138072Y-129750000D01*
X171138072Y-129510000D01*
X171898250Y-129510000D01*
X172048750Y-129660500D01*
X173123000Y-129660500D01*
X173123000Y-129640500D01*
X173377000Y-129640500D01*
X173377000Y-129660500D01*
X174451250Y-129660500D01*
X174610000Y-129501750D01*
X174613072Y-129200000D01*
X174600812Y-129075518D01*
X174564502Y-128955820D01*
X174505537Y-128845506D01*
X174426185Y-128748815D01*
X174346406Y-128683342D01*
X174352962Y-128677962D01*
X174463405Y-128543386D01*
X174545472Y-128389850D01*
X174596008Y-128223254D01*
X174613072Y-128050000D01*
X174613072Y-127375000D01*
X174596008Y-127201746D01*
X174545472Y-127035150D01*
X174463405Y-126881614D01*
X174352962Y-126747038D01*
X174218386Y-126636595D01*
X174064850Y-126554528D01*
X173898254Y-126503992D01*
X173725000Y-126486928D01*
X172775000Y-126486928D01*
X172601746Y-126503992D01*
X172435150Y-126554528D01*
X172281614Y-126636595D01*
X172147038Y-126747038D01*
X172036595Y-126881614D01*
X171954528Y-127035150D01*
X171903992Y-127201746D01*
X171886928Y-127375000D01*
X171886928Y-127990000D01*
X171138072Y-127990000D01*
X171138072Y-127750000D01*
X171125812Y-127625518D01*
X171089502Y-127505820D01*
X171030537Y-127395506D01*
X170951185Y-127298815D01*
X170854494Y-127219463D01*
X170744180Y-127160498D01*
X170624482Y-127124188D01*
X170500000Y-127111928D01*
X167686730Y-127111928D01*
X161274802Y-120700000D01*
X170171928Y-120700000D01*
X170171928Y-122300000D01*
X170184188Y-122424482D01*
X170220498Y-122544180D01*
X170279463Y-122654494D01*
X170358815Y-122751185D01*
X170455506Y-122830537D01*
X170565820Y-122889502D01*
X170685518Y-122925812D01*
X170810000Y-122938072D01*
X172410000Y-122938072D01*
X172534482Y-122925812D01*
X172654180Y-122889502D01*
X172764494Y-122830537D01*
X172861185Y-122751185D01*
X172940537Y-122654494D01*
X172999502Y-122544180D01*
X173035812Y-122424482D01*
X173048072Y-122300000D01*
X173048072Y-120700000D01*
X173035812Y-120575518D01*
X172999502Y-120455820D01*
X172940537Y-120345506D01*
X172861185Y-120248815D01*
X172764494Y-120169463D01*
X172654180Y-120110498D01*
X172534482Y-120074188D01*
X172526039Y-120073357D01*
X172724637Y-119874759D01*
X172881680Y-119639727D01*
X172989853Y-119378574D01*
X173045000Y-119101335D01*
X173045000Y-118818665D01*
X172989853Y-118541426D01*
X172881680Y-118280273D01*
X172724637Y-118045241D01*
X172524759Y-117845363D01*
X172292241Y-117690000D01*
X172524759Y-117534637D01*
X172724637Y-117334759D01*
X172881680Y-117099727D01*
X172989853Y-116838574D01*
X173045000Y-116561335D01*
X173045000Y-116278665D01*
X172989853Y-116001426D01*
X172881680Y-115740273D01*
X172724637Y-115505241D01*
X172524759Y-115305363D01*
X172289727Y-115148320D01*
X172279135Y-115143933D01*
X172465131Y-115032385D01*
X172673519Y-114843414D01*
X172841037Y-114617420D01*
X172961246Y-114363087D01*
X173001904Y-114229039D01*
X172879915Y-114007000D01*
X171737000Y-114007000D01*
X171737000Y-114027000D01*
X171483000Y-114027000D01*
X171483000Y-114007000D01*
X170340085Y-114007000D01*
X170218096Y-114229039D01*
X170258754Y-114363087D01*
X170378963Y-114617420D01*
X170546481Y-114843414D01*
X170754869Y-115032385D01*
X170940865Y-115143933D01*
X170930273Y-115148320D01*
X170695241Y-115305363D01*
X170495363Y-115505241D01*
X170338320Y-115740273D01*
X170230147Y-116001426D01*
X170175000Y-116278665D01*
X170175000Y-116561335D01*
X170230147Y-116838574D01*
X170338320Y-117099727D01*
X170495363Y-117334759D01*
X170695241Y-117534637D01*
X170927759Y-117690000D01*
X170695241Y-117845363D01*
X170495363Y-118045241D01*
X170338320Y-118280273D01*
X170230147Y-118541426D01*
X170175000Y-118818665D01*
X170175000Y-119101335D01*
X170230147Y-119378574D01*
X170338320Y-119639727D01*
X170495363Y-119874759D01*
X170693961Y-120073357D01*
X170685518Y-120074188D01*
X170565820Y-120110498D01*
X170455506Y-120169463D01*
X170358815Y-120248815D01*
X170279463Y-120345506D01*
X170220498Y-120455820D01*
X170184188Y-120575518D01*
X170171928Y-120700000D01*
X161274802Y-120700000D01*
X160438803Y-119864002D01*
X160415000Y-119834998D01*
X160299275Y-119740025D01*
X160167246Y-119669453D01*
X160023985Y-119625996D01*
X159912332Y-119614999D01*
X159912321Y-119614999D01*
X159874999Y-119611323D01*
X159837677Y-119614999D01*
X157639993Y-119614999D01*
X157721246Y-119443087D01*
X157761904Y-119309039D01*
X157639915Y-119087000D01*
X156497000Y-119087000D01*
X156497000Y-119107000D01*
X156243000Y-119107000D01*
X156243000Y-119087000D01*
X155100085Y-119087000D01*
X154978096Y-119309039D01*
X155018754Y-119443087D01*
X155100007Y-119614999D01*
X154539801Y-119614999D01*
X150191209Y-115266408D01*
X150235000Y-115046260D01*
X150235000Y-114765834D01*
X150270000Y-114769281D01*
X150313469Y-114765000D01*
X155235479Y-114765000D01*
X155255363Y-114794759D01*
X155455241Y-114994637D01*
X155687759Y-115150000D01*
X155455241Y-115305363D01*
X155255363Y-115505241D01*
X155098320Y-115740273D01*
X154990147Y-116001426D01*
X154935000Y-116278665D01*
X154935000Y-116561335D01*
X154990147Y-116838574D01*
X155098320Y-117099727D01*
X155255363Y-117334759D01*
X155455241Y-117534637D01*
X155690273Y-117691680D01*
X155700865Y-117696067D01*
X155514869Y-117807615D01*
X155306481Y-117996586D01*
X155138963Y-118222580D01*
X155018754Y-118476913D01*
X154978096Y-118610961D01*
X155100085Y-118833000D01*
X156243000Y-118833000D01*
X156243000Y-118813000D01*
X156497000Y-118813000D01*
X156497000Y-118833000D01*
X157639915Y-118833000D01*
X157761904Y-118610961D01*
X157721246Y-118476913D01*
X157601037Y-118222580D01*
X157433519Y-117996586D01*
X157225131Y-117807615D01*
X157039135Y-117696067D01*
X157049727Y-117691680D01*
X157284759Y-117534637D01*
X157484637Y-117334759D01*
X157641680Y-117099727D01*
X157749853Y-116838574D01*
X157805000Y-116561335D01*
X157805000Y-116278665D01*
X157749853Y-116001426D01*
X157641680Y-115740273D01*
X157484637Y-115505241D01*
X157284759Y-115305363D01*
X157052241Y-115150000D01*
X157284759Y-114994637D01*
X157484637Y-114794759D01*
X157641680Y-114559727D01*
X157749853Y-114298574D01*
X157805000Y-114021335D01*
X157805000Y-113738665D01*
X157798017Y-113703561D01*
X157986580Y-113514999D01*
X170222937Y-113514999D01*
X170218096Y-113530961D01*
X170340085Y-113753000D01*
X171483000Y-113753000D01*
X171483000Y-113733000D01*
X171737000Y-113733000D01*
X171737000Y-113753000D01*
X172879915Y-113753000D01*
X173001904Y-113530961D01*
X172997063Y-113514999D01*
X176296532Y-113514999D01*
X176340001Y-113519280D01*
X176383470Y-113514999D01*
X176713421Y-113514999D01*
X177779461Y-114581040D01*
X177765000Y-114653740D01*
X177765000Y-114946260D01*
X177822068Y-115233158D01*
X177934010Y-115503411D01*
X178096525Y-115746632D01*
X178303368Y-115953475D01*
X178477760Y-116070000D01*
X178303368Y-116186525D01*
X178096525Y-116393368D01*
X177934010Y-116636589D01*
X177822068Y-116906842D01*
X177765000Y-117193740D01*
X177765000Y-117486260D01*
X177822068Y-117773158D01*
X177934010Y-118043411D01*
X178096525Y-118286632D01*
X178303368Y-118493475D01*
X178477760Y-118610000D01*
X178303368Y-118726525D01*
X178096525Y-118933368D01*
X177934010Y-119176589D01*
X177822068Y-119446842D01*
X177765000Y-119733740D01*
X177765000Y-120026260D01*
X177822068Y-120313158D01*
X177934010Y-120583411D01*
X178096525Y-120826632D01*
X178303368Y-121033475D01*
X178477760Y-121150000D01*
X178303368Y-121266525D01*
X178096525Y-121473368D01*
X177934010Y-121716589D01*
X177822068Y-121986842D01*
X177765000Y-122273740D01*
X177765000Y-122566260D01*
X177822068Y-122853158D01*
X177934010Y-123123411D01*
X178096525Y-123366632D01*
X178303368Y-123573475D01*
X178477760Y-123690000D01*
X178303368Y-123806525D01*
X178096525Y-124013368D01*
X177934010Y-124256589D01*
X177822068Y-124526842D01*
X177765000Y-124813740D01*
X177765000Y-125106260D01*
X177822068Y-125393158D01*
X177934010Y-125663411D01*
X178096525Y-125906632D01*
X178228380Y-126038487D01*
X178155820Y-126060498D01*
X178045506Y-126119463D01*
X177948815Y-126198815D01*
X177869463Y-126295506D01*
X177810498Y-126405820D01*
X177774188Y-126525518D01*
X177761928Y-126650000D01*
X177761928Y-128350000D01*
X177774188Y-128474482D01*
X177810498Y-128594180D01*
X177869463Y-128704494D01*
X177948815Y-128801185D01*
X178045506Y-128880537D01*
X178155820Y-128939502D01*
X178275518Y-128975812D01*
X178400000Y-128988072D01*
X180100000Y-128988072D01*
X180224482Y-128975812D01*
X180344180Y-128939502D01*
X180454494Y-128880537D01*
X180551185Y-128801185D01*
X180630537Y-128704494D01*
X180689502Y-128594180D01*
X180725812Y-128474482D01*
X180738072Y-128350000D01*
X180738072Y-126650000D01*
X180725812Y-126525518D01*
X180689502Y-126405820D01*
X180630537Y-126295506D01*
X180551185Y-126198815D01*
X180454494Y-126119463D01*
X180344180Y-126060498D01*
X180271620Y-126038487D01*
X180403475Y-125906632D01*
X180565990Y-125663411D01*
X180677932Y-125393158D01*
X180735000Y-125106260D01*
X180735000Y-124813740D01*
X180677932Y-124526842D01*
X180565990Y-124256589D01*
X180403475Y-124013368D01*
X180196632Y-123806525D01*
X180022240Y-123690000D01*
X180196632Y-123573475D01*
X180403475Y-123366632D01*
X180565990Y-123123411D01*
X180677932Y-122853158D01*
X180735000Y-122566260D01*
X180735000Y-122273740D01*
X180677932Y-121986842D01*
X180565990Y-121716589D01*
X180403475Y-121473368D01*
X180196632Y-121266525D01*
X180022240Y-121150000D01*
X180196632Y-121033475D01*
X180403475Y-120826632D01*
X180565990Y-120583411D01*
X180677932Y-120313158D01*
X180735000Y-120026260D01*
X180735000Y-119733740D01*
X180691210Y-119513592D01*
X181315001Y-118889801D01*
X181315001Y-131315000D01*
X146685000Y-131315000D01*
X146685000Y-130337500D01*
X153386928Y-130337500D01*
X153399188Y-130461982D01*
X153435498Y-130581680D01*
X153494463Y-130691994D01*
X153573815Y-130788685D01*
X153670506Y-130868037D01*
X153780820Y-130927002D01*
X153900518Y-130963312D01*
X154025000Y-130975572D01*
X154464250Y-130972500D01*
X154623000Y-130813750D01*
X154623000Y-129877000D01*
X154877000Y-129877000D01*
X154877000Y-130813750D01*
X155035750Y-130972500D01*
X155475000Y-130975572D01*
X155599482Y-130963312D01*
X155719180Y-130927002D01*
X155829494Y-130868037D01*
X155926185Y-130788685D01*
X156005537Y-130691994D01*
X156064502Y-130581680D01*
X156100812Y-130461982D01*
X156113072Y-130337500D01*
X156110000Y-130035750D01*
X155951250Y-129877000D01*
X154877000Y-129877000D01*
X154623000Y-129877000D01*
X153548750Y-129877000D01*
X153390000Y-130035750D01*
X153386928Y-130337500D01*
X146685000Y-130337500D01*
X146685000Y-111506184D01*
X146710589Y-111554058D01*
G04 #@! TA.AperFunction,Conductor*
D19*
G36*
X146710589Y-111554058D02*
G01*
X146793467Y-111655045D01*
X146793470Y-111655048D01*
X146821183Y-111688816D01*
X146854950Y-111716528D01*
X147279461Y-112141039D01*
X147265000Y-112213740D01*
X147265000Y-112506260D01*
X147322068Y-112793158D01*
X147434010Y-113063411D01*
X147596525Y-113306632D01*
X147803368Y-113513475D01*
X147977760Y-113630000D01*
X147803368Y-113746525D01*
X147596525Y-113953368D01*
X147434010Y-114196589D01*
X147322068Y-114466842D01*
X147265000Y-114753740D01*
X147265000Y-115046260D01*
X147322068Y-115333158D01*
X147434010Y-115603411D01*
X147596525Y-115846632D01*
X147803368Y-116053475D01*
X147977760Y-116170000D01*
X147803368Y-116286525D01*
X147596525Y-116493368D01*
X147434010Y-116736589D01*
X147322068Y-117006842D01*
X147265000Y-117293740D01*
X147265000Y-117586260D01*
X147322068Y-117873158D01*
X147434010Y-118143411D01*
X147596525Y-118386632D01*
X147803368Y-118593475D01*
X147977760Y-118710000D01*
X147803368Y-118826525D01*
X147596525Y-119033368D01*
X147434010Y-119276589D01*
X147322068Y-119546842D01*
X147265000Y-119833740D01*
X147265000Y-120126260D01*
X147322068Y-120413158D01*
X147434010Y-120683411D01*
X147596525Y-120926632D01*
X147803368Y-121133475D01*
X147977760Y-121250000D01*
X147803368Y-121366525D01*
X147596525Y-121573368D01*
X147434010Y-121816589D01*
X147322068Y-122086842D01*
X147265000Y-122373740D01*
X147265000Y-122666260D01*
X147322068Y-122953158D01*
X147434010Y-123223411D01*
X147596525Y-123466632D01*
X147803368Y-123673475D01*
X147977760Y-123790000D01*
X147803368Y-123906525D01*
X147596525Y-124113368D01*
X147434010Y-124356589D01*
X147322068Y-124626842D01*
X147265000Y-124913740D01*
X147265000Y-125206260D01*
X147322068Y-125493158D01*
X147434010Y-125763411D01*
X147596525Y-126006632D01*
X147803368Y-126213475D01*
X147977760Y-126330000D01*
X147803368Y-126446525D01*
X147596525Y-126653368D01*
X147434010Y-126896589D01*
X147322068Y-127166842D01*
X147265000Y-127453740D01*
X147265000Y-127746260D01*
X147322068Y-128033158D01*
X147434010Y-128303411D01*
X147596525Y-128546632D01*
X147803368Y-128753475D01*
X148046589Y-128915990D01*
X148316842Y-129027932D01*
X148603740Y-129085000D01*
X148896260Y-129085000D01*
X149183158Y-129027932D01*
X149453411Y-128915990D01*
X149696632Y-128753475D01*
X149903475Y-128546632D01*
X150065990Y-128303411D01*
X150177932Y-128033158D01*
X150235000Y-127746260D01*
X150235000Y-127453740D01*
X150177932Y-127166842D01*
X150065990Y-126896589D01*
X149903475Y-126653368D01*
X149696632Y-126446525D01*
X149522240Y-126330000D01*
X149696632Y-126213475D01*
X149903475Y-126006632D01*
X150065990Y-125763411D01*
X150177932Y-125493158D01*
X150235000Y-125206260D01*
X150235000Y-124913740D01*
X150177932Y-124626842D01*
X150065990Y-124356589D01*
X149903475Y-124113368D01*
X149696632Y-123906525D01*
X149522240Y-123790000D01*
X149696632Y-123673475D01*
X149903475Y-123466632D01*
X150065990Y-123223411D01*
X150177932Y-122953158D01*
X150235000Y-122666260D01*
X150235000Y-122373740D01*
X150177932Y-122086842D01*
X150065990Y-121816589D01*
X149903475Y-121573368D01*
X149696632Y-121366525D01*
X149522240Y-121250000D01*
X149696632Y-121133475D01*
X149903475Y-120926632D01*
X150065990Y-120683411D01*
X150177932Y-120413158D01*
X150235000Y-120126260D01*
X150235000Y-119999802D01*
X153990001Y-123754804D01*
X153990000Y-126500389D01*
X153935150Y-126517028D01*
X153781614Y-126599095D01*
X153647038Y-126709538D01*
X153536595Y-126844114D01*
X153454528Y-126997650D01*
X153403992Y-127164246D01*
X153386928Y-127337500D01*
X153386928Y-128012500D01*
X153403992Y-128185754D01*
X153454528Y-128352350D01*
X153536595Y-128505886D01*
X153647038Y-128640462D01*
X153653594Y-128645842D01*
X153573815Y-128711315D01*
X153494463Y-128808006D01*
X153435498Y-128918320D01*
X153399188Y-129038018D01*
X153386928Y-129162500D01*
X153390000Y-129464250D01*
X153548750Y-129623000D01*
X154623000Y-129623000D01*
X154623000Y-129603000D01*
X154877000Y-129603000D01*
X154877000Y-129623000D01*
X155951250Y-129623000D01*
X156064250Y-129510000D01*
X156861928Y-129510000D01*
X156861928Y-129750000D01*
X156874188Y-129874482D01*
X156910498Y-129994180D01*
X156969463Y-130104494D01*
X157048815Y-130201185D01*
X157145506Y-130280537D01*
X157255820Y-130339502D01*
X157375518Y-130375812D01*
X157500000Y-130388072D01*
X162000000Y-130388072D01*
X162124482Y-130375812D01*
X162244180Y-130339502D01*
X162354494Y-130280537D01*
X162451185Y-130201185D01*
X162530537Y-130104494D01*
X162589502Y-129994180D01*
X162625812Y-129874482D01*
X162638072Y-129750000D01*
X162638072Y-127750000D01*
X162625812Y-127625518D01*
X162589502Y-127505820D01*
X162530537Y-127395506D01*
X162451185Y-127298815D01*
X162354494Y-127219463D01*
X162244180Y-127160498D01*
X162124482Y-127124188D01*
X162000000Y-127111928D01*
X157500000Y-127111928D01*
X157375518Y-127124188D01*
X157255820Y-127160498D01*
X157145506Y-127219463D01*
X157048815Y-127298815D01*
X156969463Y-127395506D01*
X156910498Y-127505820D01*
X156874188Y-127625518D01*
X156861928Y-127750000D01*
X156861928Y-127990000D01*
X156139802Y-127990000D01*
X156113072Y-127963270D01*
X156113072Y-127337500D01*
X156096008Y-127164246D01*
X156045472Y-126997650D01*
X155963405Y-126844114D01*
X155852962Y-126709538D01*
X155718386Y-126599095D01*
X155564850Y-126517028D01*
X155510000Y-126500390D01*
X155510000Y-123477322D01*
X155513676Y-123439999D01*
X155510000Y-123402676D01*
X155510000Y-123402667D01*
X155499003Y-123291014D01*
X155455546Y-123147753D01*
X155384974Y-123015724D01*
X155371811Y-122999685D01*
X155313799Y-122928996D01*
X155313795Y-122928992D01*
X155290001Y-122899999D01*
X155261008Y-122876205D01*
X150191209Y-117806408D01*
X150235000Y-117586260D01*
X150235000Y-117459801D01*
X153661199Y-120886001D01*
X153684998Y-120915000D01*
X153800723Y-121009973D01*
X153932752Y-121080545D01*
X154076013Y-121124002D01*
X154187666Y-121134999D01*
X154187676Y-121134999D01*
X154224999Y-121138675D01*
X154262322Y-121134999D01*
X154979491Y-121134999D01*
X154935000Y-121358665D01*
X154935000Y-121641335D01*
X154990147Y-121918574D01*
X155098320Y-122179727D01*
X155255363Y-122414759D01*
X155455241Y-122614637D01*
X155690273Y-122771680D01*
X155951426Y-122879853D01*
X156228665Y-122935000D01*
X156511335Y-122935000D01*
X156788574Y-122879853D01*
X157049727Y-122771680D01*
X157284759Y-122614637D01*
X157484637Y-122414759D01*
X157641680Y-122179727D01*
X157749853Y-121918574D01*
X157805000Y-121641335D01*
X157805000Y-121358665D01*
X157760509Y-121134999D01*
X159560198Y-121134999D01*
X165645042Y-127219844D01*
X165548815Y-127298815D01*
X165469463Y-127395506D01*
X165410498Y-127505820D01*
X165374188Y-127625518D01*
X165361928Y-127750000D01*
X165361928Y-129750000D01*
X165374188Y-129874482D01*
X165410498Y-129994180D01*
X165469463Y-130104494D01*
X165548815Y-130201185D01*
X165645506Y-130280537D01*
X165755820Y-130339502D01*
X165875518Y-130375812D01*
X166000000Y-130388072D01*
X170500000Y-130388072D01*
X170624482Y-130375812D01*
X170627158Y-130375000D01*
X171886928Y-130375000D01*
X171899188Y-130499482D01*
X171935498Y-130619180D01*
X171994463Y-130729494D01*
X172073815Y-130826185D01*
X172170506Y-130905537D01*
X172280820Y-130964502D01*
X172400518Y-131000812D01*
X172525000Y-131013072D01*
X172964250Y-131010000D01*
X173123000Y-130851250D01*
X173123000Y-129914500D01*
X173377000Y-129914500D01*
X173377000Y-130851250D01*
X173535750Y-131010000D01*
X173975000Y-131013072D01*
X174099482Y-131000812D01*
X174219180Y-130964502D01*
X174329494Y-130905537D01*
X174426185Y-130826185D01*
X174505537Y-130729494D01*
X174564502Y-130619180D01*
X174600812Y-130499482D01*
X174613072Y-130375000D01*
X174610000Y-130073250D01*
X174451250Y-129914500D01*
X173377000Y-129914500D01*
X173123000Y-129914500D01*
X172048750Y-129914500D01*
X171890000Y-130073250D01*
X171886928Y-130375000D01*
X170627158Y-130375000D01*
X170744180Y-130339502D01*
X170854494Y-130280537D01*
X170951185Y-130201185D01*
X171030537Y-130104494D01*
X171089502Y-129994180D01*
X171125812Y-129874482D01*
X171138072Y-129750000D01*
X171138072Y-129510000D01*
X171898250Y-129510000D01*
X172048750Y-129660500D01*
X173123000Y-129660500D01*
X173123000Y-129640500D01*
X173377000Y-129640500D01*
X173377000Y-129660500D01*
X174451250Y-129660500D01*
X174610000Y-129501750D01*
X174613072Y-129200000D01*
X174600812Y-129075518D01*
X174564502Y-128955820D01*
X174505537Y-128845506D01*
X174426185Y-128748815D01*
X174346406Y-128683342D01*
X174352962Y-128677962D01*
X174463405Y-128543386D01*
X174545472Y-128389850D01*
X174596008Y-128223254D01*
X174613072Y-128050000D01*
X174613072Y-127375000D01*
X174596008Y-127201746D01*
X174545472Y-127035150D01*
X174463405Y-126881614D01*
X174352962Y-126747038D01*
X174218386Y-126636595D01*
X174064850Y-126554528D01*
X173898254Y-126503992D01*
X173725000Y-126486928D01*
X172775000Y-126486928D01*
X172601746Y-126503992D01*
X172435150Y-126554528D01*
X172281614Y-126636595D01*
X172147038Y-126747038D01*
X172036595Y-126881614D01*
X171954528Y-127035150D01*
X171903992Y-127201746D01*
X171886928Y-127375000D01*
X171886928Y-127990000D01*
X171138072Y-127990000D01*
X171138072Y-127750000D01*
X171125812Y-127625518D01*
X171089502Y-127505820D01*
X171030537Y-127395506D01*
X170951185Y-127298815D01*
X170854494Y-127219463D01*
X170744180Y-127160498D01*
X170624482Y-127124188D01*
X170500000Y-127111928D01*
X167686730Y-127111928D01*
X161274802Y-120700000D01*
X170171928Y-120700000D01*
X170171928Y-122300000D01*
X170184188Y-122424482D01*
X170220498Y-122544180D01*
X170279463Y-122654494D01*
X170358815Y-122751185D01*
X170455506Y-122830537D01*
X170565820Y-122889502D01*
X170685518Y-122925812D01*
X170810000Y-122938072D01*
X172410000Y-122938072D01*
X172534482Y-122925812D01*
X172654180Y-122889502D01*
X172764494Y-122830537D01*
X172861185Y-122751185D01*
X172940537Y-122654494D01*
X172999502Y-122544180D01*
X173035812Y-122424482D01*
X173048072Y-122300000D01*
X173048072Y-120700000D01*
X173035812Y-120575518D01*
X172999502Y-120455820D01*
X172940537Y-120345506D01*
X172861185Y-120248815D01*
X172764494Y-120169463D01*
X172654180Y-120110498D01*
X172534482Y-120074188D01*
X172526039Y-120073357D01*
X172724637Y-119874759D01*
X172881680Y-119639727D01*
X172989853Y-119378574D01*
X173045000Y-119101335D01*
X173045000Y-118818665D01*
X172989853Y-118541426D01*
X172881680Y-118280273D01*
X172724637Y-118045241D01*
X172524759Y-117845363D01*
X172292241Y-117690000D01*
X172524759Y-117534637D01*
X172724637Y-117334759D01*
X172881680Y-117099727D01*
X172989853Y-116838574D01*
X173045000Y-116561335D01*
X173045000Y-116278665D01*
X172989853Y-116001426D01*
X172881680Y-115740273D01*
X172724637Y-115505241D01*
X172524759Y-115305363D01*
X172289727Y-115148320D01*
X172279135Y-115143933D01*
X172465131Y-115032385D01*
X172673519Y-114843414D01*
X172841037Y-114617420D01*
X172961246Y-114363087D01*
X173001904Y-114229039D01*
X172879915Y-114007000D01*
X171737000Y-114007000D01*
X171737000Y-114027000D01*
X171483000Y-114027000D01*
X171483000Y-114007000D01*
X170340085Y-114007000D01*
X170218096Y-114229039D01*
X170258754Y-114363087D01*
X170378963Y-114617420D01*
X170546481Y-114843414D01*
X170754869Y-115032385D01*
X170940865Y-115143933D01*
X170930273Y-115148320D01*
X170695241Y-115305363D01*
X170495363Y-115505241D01*
X170338320Y-115740273D01*
X170230147Y-116001426D01*
X170175000Y-116278665D01*
X170175000Y-116561335D01*
X170230147Y-116838574D01*
X170338320Y-117099727D01*
X170495363Y-117334759D01*
X170695241Y-117534637D01*
X170927759Y-117690000D01*
X170695241Y-117845363D01*
X170495363Y-118045241D01*
X170338320Y-118280273D01*
X170230147Y-118541426D01*
X170175000Y-118818665D01*
X170175000Y-119101335D01*
X170230147Y-119378574D01*
X170338320Y-119639727D01*
X170495363Y-119874759D01*
X170693961Y-120073357D01*
X170685518Y-120074188D01*
X170565820Y-120110498D01*
X170455506Y-120169463D01*
X170358815Y-120248815D01*
X170279463Y-120345506D01*
X170220498Y-120455820D01*
X170184188Y-120575518D01*
X170171928Y-120700000D01*
X161274802Y-120700000D01*
X160438803Y-119864002D01*
X160415000Y-119834998D01*
X160299275Y-119740025D01*
X160167246Y-119669453D01*
X160023985Y-119625996D01*
X159912332Y-119614999D01*
X159912321Y-119614999D01*
X159874999Y-119611323D01*
X159837677Y-119614999D01*
X157639993Y-119614999D01*
X157721246Y-119443087D01*
X157761904Y-119309039D01*
X157639915Y-119087000D01*
X156497000Y-119087000D01*
X156497000Y-119107000D01*
X156243000Y-119107000D01*
X156243000Y-119087000D01*
X155100085Y-119087000D01*
X154978096Y-119309039D01*
X155018754Y-119443087D01*
X155100007Y-119614999D01*
X154539801Y-119614999D01*
X150191209Y-115266408D01*
X150235000Y-115046260D01*
X150235000Y-114765834D01*
X150270000Y-114769281D01*
X150313469Y-114765000D01*
X155235479Y-114765000D01*
X155255363Y-114794759D01*
X155455241Y-114994637D01*
X155687759Y-115150000D01*
X155455241Y-115305363D01*
X155255363Y-115505241D01*
X155098320Y-115740273D01*
X154990147Y-116001426D01*
X154935000Y-116278665D01*
X154935000Y-116561335D01*
X154990147Y-116838574D01*
X155098320Y-117099727D01*
X155255363Y-117334759D01*
X155455241Y-117534637D01*
X155690273Y-117691680D01*
X155700865Y-117696067D01*
X155514869Y-117807615D01*
X155306481Y-117996586D01*
X155138963Y-118222580D01*
X155018754Y-118476913D01*
X154978096Y-118610961D01*
X155100085Y-118833000D01*
X156243000Y-118833000D01*
X156243000Y-118813000D01*
X156497000Y-118813000D01*
X156497000Y-118833000D01*
X157639915Y-118833000D01*
X157761904Y-118610961D01*
X157721246Y-118476913D01*
X157601037Y-118222580D01*
X157433519Y-117996586D01*
X157225131Y-117807615D01*
X157039135Y-117696067D01*
X157049727Y-117691680D01*
X157284759Y-117534637D01*
X157484637Y-117334759D01*
X157641680Y-117099727D01*
X157749853Y-116838574D01*
X157805000Y-116561335D01*
X157805000Y-116278665D01*
X157749853Y-116001426D01*
X157641680Y-115740273D01*
X157484637Y-115505241D01*
X157284759Y-115305363D01*
X157052241Y-115150000D01*
X157284759Y-114994637D01*
X157484637Y-114794759D01*
X157641680Y-114559727D01*
X157749853Y-114298574D01*
X157805000Y-114021335D01*
X157805000Y-113738665D01*
X157798017Y-113703561D01*
X157986580Y-113514999D01*
X170222937Y-113514999D01*
X170218096Y-113530961D01*
X170340085Y-113753000D01*
X171483000Y-113753000D01*
X171483000Y-113733000D01*
X171737000Y-113733000D01*
X171737000Y-113753000D01*
X172879915Y-113753000D01*
X173001904Y-113530961D01*
X172997063Y-113514999D01*
X176296532Y-113514999D01*
X176340001Y-113519280D01*
X176383470Y-113514999D01*
X176713421Y-113514999D01*
X177779461Y-114581040D01*
X177765000Y-114653740D01*
X177765000Y-114946260D01*
X177822068Y-115233158D01*
X177934010Y-115503411D01*
X178096525Y-115746632D01*
X178303368Y-115953475D01*
X178477760Y-116070000D01*
X178303368Y-116186525D01*
X178096525Y-116393368D01*
X177934010Y-116636589D01*
X177822068Y-116906842D01*
X177765000Y-117193740D01*
X177765000Y-117486260D01*
X177822068Y-117773158D01*
X177934010Y-118043411D01*
X178096525Y-118286632D01*
X178303368Y-118493475D01*
X178477760Y-118610000D01*
X178303368Y-118726525D01*
X178096525Y-118933368D01*
X177934010Y-119176589D01*
X177822068Y-119446842D01*
X177765000Y-119733740D01*
X177765000Y-120026260D01*
X177822068Y-120313158D01*
X177934010Y-120583411D01*
X178096525Y-120826632D01*
X178303368Y-121033475D01*
X178477760Y-121150000D01*
X178303368Y-121266525D01*
X178096525Y-121473368D01*
X177934010Y-121716589D01*
X177822068Y-121986842D01*
X177765000Y-122273740D01*
X177765000Y-122566260D01*
X177822068Y-122853158D01*
X177934010Y-123123411D01*
X178096525Y-123366632D01*
X178303368Y-123573475D01*
X178477760Y-123690000D01*
X178303368Y-123806525D01*
X178096525Y-124013368D01*
X177934010Y-124256589D01*
X177822068Y-124526842D01*
X177765000Y-124813740D01*
X177765000Y-125106260D01*
X177822068Y-125393158D01*
X177934010Y-125663411D01*
X178096525Y-125906632D01*
X178228380Y-126038487D01*
X178155820Y-126060498D01*
X178045506Y-126119463D01*
X177948815Y-126198815D01*
X177869463Y-126295506D01*
X177810498Y-126405820D01*
X177774188Y-126525518D01*
X177761928Y-126650000D01*
X177761928Y-128350000D01*
X177774188Y-128474482D01*
X177810498Y-128594180D01*
X177869463Y-128704494D01*
X177948815Y-128801185D01*
X178045506Y-128880537D01*
X178155820Y-128939502D01*
X178275518Y-128975812D01*
X178400000Y-128988072D01*
X180100000Y-128988072D01*
X180224482Y-128975812D01*
X180344180Y-128939502D01*
X180454494Y-128880537D01*
X180551185Y-128801185D01*
X180630537Y-128704494D01*
X180689502Y-128594180D01*
X180725812Y-128474482D01*
X180738072Y-128350000D01*
X180738072Y-126650000D01*
X180725812Y-126525518D01*
X180689502Y-126405820D01*
X180630537Y-126295506D01*
X180551185Y-126198815D01*
X180454494Y-126119463D01*
X180344180Y-126060498D01*
X180271620Y-126038487D01*
X180403475Y-125906632D01*
X180565990Y-125663411D01*
X180677932Y-125393158D01*
X180735000Y-125106260D01*
X180735000Y-124813740D01*
X180677932Y-124526842D01*
X180565990Y-124256589D01*
X180403475Y-124013368D01*
X180196632Y-123806525D01*
X180022240Y-123690000D01*
X180196632Y-123573475D01*
X180403475Y-123366632D01*
X180565990Y-123123411D01*
X180677932Y-122853158D01*
X180735000Y-122566260D01*
X180735000Y-122273740D01*
X180677932Y-121986842D01*
X180565990Y-121716589D01*
X180403475Y-121473368D01*
X180196632Y-121266525D01*
X180022240Y-121150000D01*
X180196632Y-121033475D01*
X180403475Y-120826632D01*
X180565990Y-120583411D01*
X180677932Y-120313158D01*
X180735000Y-120026260D01*
X180735000Y-119733740D01*
X180691210Y-119513592D01*
X181315001Y-118889801D01*
X181315001Y-131315000D01*
X146685000Y-131315000D01*
X146685000Y-130337500D01*
X153386928Y-130337500D01*
X153399188Y-130461982D01*
X153435498Y-130581680D01*
X153494463Y-130691994D01*
X153573815Y-130788685D01*
X153670506Y-130868037D01*
X153780820Y-130927002D01*
X153900518Y-130963312D01*
X154025000Y-130975572D01*
X154464250Y-130972500D01*
X154623000Y-130813750D01*
X154623000Y-129877000D01*
X154877000Y-129877000D01*
X154877000Y-130813750D01*
X155035750Y-130972500D01*
X155475000Y-130975572D01*
X155599482Y-130963312D01*
X155719180Y-130927002D01*
X155829494Y-130868037D01*
X155926185Y-130788685D01*
X156005537Y-130691994D01*
X156064502Y-130581680D01*
X156100812Y-130461982D01*
X156113072Y-130337500D01*
X156110000Y-130035750D01*
X155951250Y-129877000D01*
X154877000Y-129877000D01*
X154623000Y-129877000D01*
X153548750Y-129877000D01*
X153390000Y-130035750D01*
X153386928Y-130337500D01*
X146685000Y-130337500D01*
X146685000Y-111506184D01*
X146710589Y-111554058D01*
G37*
G04 #@! TD.AperFunction*
D18*
X170211312Y-90696114D02*
X170175000Y-90878665D01*
X170175000Y-91161335D01*
X170230147Y-91438574D01*
X170338320Y-91699727D01*
X170495363Y-91934759D01*
X170695241Y-92134637D01*
X170927759Y-92290000D01*
X170695241Y-92445363D01*
X170495363Y-92645241D01*
X170338320Y-92880273D01*
X170230147Y-93141426D01*
X170175000Y-93418665D01*
X170175000Y-93701335D01*
X170230147Y-93978574D01*
X170338320Y-94239727D01*
X170495363Y-94474759D01*
X170695241Y-94674637D01*
X170927759Y-94830000D01*
X170695241Y-94985363D01*
X170495363Y-95185241D01*
X170338320Y-95420273D01*
X170230147Y-95681426D01*
X170175000Y-95958665D01*
X170175000Y-96241335D01*
X170230147Y-96518574D01*
X170338320Y-96779727D01*
X170495363Y-97014759D01*
X170695241Y-97214637D01*
X170927759Y-97370000D01*
X170695241Y-97525363D01*
X170495363Y-97725241D01*
X170338320Y-97960273D01*
X170230147Y-98221426D01*
X170175000Y-98498665D01*
X170175000Y-98781335D01*
X170230147Y-99058574D01*
X170338320Y-99319727D01*
X170495363Y-99554759D01*
X170695241Y-99754637D01*
X170927759Y-99910000D01*
X170695241Y-100065363D01*
X170495363Y-100265241D01*
X170338320Y-100500273D01*
X170230147Y-100761426D01*
X170175000Y-101038665D01*
X170175000Y-101321335D01*
X170230147Y-101598574D01*
X170338320Y-101859727D01*
X170495363Y-102094759D01*
X170695241Y-102294637D01*
X170927759Y-102450000D01*
X170695241Y-102605363D01*
X170495363Y-102805241D01*
X170339022Y-103039222D01*
X158255001Y-90955202D01*
X158255001Y-87102326D01*
X158258677Y-87065001D01*
X158255001Y-87027676D01*
X158255001Y-87027668D01*
X158244004Y-86916015D01*
X158200547Y-86772754D01*
X158129975Y-86640725D01*
X158035002Y-86525000D01*
X158006004Y-86501202D01*
X157768688Y-86263886D01*
X157805000Y-86081335D01*
X157805000Y-85798665D01*
X157749853Y-85521426D01*
X157641680Y-85260273D01*
X157484637Y-85025241D01*
X157284759Y-84825363D01*
X157049727Y-84668320D01*
X156788574Y-84560147D01*
X156511335Y-84505000D01*
X156228665Y-84505000D01*
X155951426Y-84560147D01*
X155690273Y-84668320D01*
X155455241Y-84825363D01*
X155255363Y-85025241D01*
X155098320Y-85260273D01*
X154990147Y-85521426D01*
X154935000Y-85798665D01*
X154935000Y-86081335D01*
X154990147Y-86358574D01*
X155098320Y-86619727D01*
X155255363Y-86854759D01*
X155455241Y-87054637D01*
X155687759Y-87210000D01*
X155455241Y-87365363D01*
X155255363Y-87565241D01*
X155098320Y-87800273D01*
X154990147Y-88061426D01*
X154935000Y-88338665D01*
X154935000Y-88621335D01*
X154990147Y-88898574D01*
X155098320Y-89159727D01*
X155255363Y-89394759D01*
X155455241Y-89594637D01*
X155687759Y-89750000D01*
X155455241Y-89905363D01*
X155255363Y-90105241D01*
X155098320Y-90340273D01*
X154990147Y-90601426D01*
X154935000Y-90878665D01*
X154935000Y-91161335D01*
X154990147Y-91438574D01*
X155098320Y-91699727D01*
X155255363Y-91934759D01*
X155455241Y-92134637D01*
X155687759Y-92290000D01*
X155455241Y-92445363D01*
X155255363Y-92645241D01*
X155098320Y-92880273D01*
X154990147Y-93141426D01*
X154935000Y-93418665D01*
X154935000Y-93701335D01*
X154990147Y-93978574D01*
X155098320Y-94239727D01*
X155255363Y-94474759D01*
X155455241Y-94674637D01*
X155687759Y-94830000D01*
X155455241Y-94985363D01*
X155255363Y-95185241D01*
X155098320Y-95420273D01*
X154990147Y-95681426D01*
X154935000Y-95958665D01*
X154935000Y-96241335D01*
X154990147Y-96518574D01*
X155098320Y-96779727D01*
X155255363Y-97014759D01*
X155455241Y-97214637D01*
X155687759Y-97370000D01*
X155455241Y-97525363D01*
X155255363Y-97725241D01*
X155098320Y-97960273D01*
X154990147Y-98221426D01*
X154935000Y-98498665D01*
X154935000Y-98781335D01*
X154990147Y-99058574D01*
X155098320Y-99319727D01*
X155255363Y-99554759D01*
X155455241Y-99754637D01*
X155687759Y-99910000D01*
X155455241Y-100065363D01*
X155255363Y-100265241D01*
X155098320Y-100500273D01*
X154990147Y-100761426D01*
X154935000Y-101038665D01*
X154935000Y-101321335D01*
X154990147Y-101598574D01*
X155098320Y-101859727D01*
X155255363Y-102094759D01*
X155455241Y-102294637D01*
X155687759Y-102450000D01*
X155455241Y-102605363D01*
X155255363Y-102805241D01*
X155098320Y-103040273D01*
X154990147Y-103301426D01*
X154935000Y-103578665D01*
X154935000Y-103861335D01*
X154990147Y-104138574D01*
X155098320Y-104399727D01*
X155255363Y-104634759D01*
X155455241Y-104834637D01*
X155687759Y-104990000D01*
X155455241Y-105145363D01*
X155255363Y-105345241D01*
X155098320Y-105580273D01*
X154990147Y-105841426D01*
X154935000Y-106118665D01*
X154935000Y-106401335D01*
X154990147Y-106678574D01*
X155098320Y-106939727D01*
X155255363Y-107174759D01*
X155455241Y-107374637D01*
X155687759Y-107530000D01*
X155455241Y-107685363D01*
X155255363Y-107885241D01*
X155098320Y-108120273D01*
X154990147Y-108381426D01*
X154935000Y-108658665D01*
X154935000Y-108941335D01*
X154990147Y-109218574D01*
X155098320Y-109479727D01*
X155255363Y-109714759D01*
X155455241Y-109914637D01*
X155687759Y-110070000D01*
X155455241Y-110225363D01*
X155255363Y-110425241D01*
X155098320Y-110660273D01*
X154990147Y-110921426D01*
X154935000Y-111198665D01*
X154935000Y-111481335D01*
X154990147Y-111758574D01*
X155098320Y-112019727D01*
X155255363Y-112254759D01*
X155455241Y-112454637D01*
X155687759Y-112610000D01*
X155455241Y-112765363D01*
X155255363Y-112965241D01*
X155235479Y-112995000D01*
X150636579Y-112995000D01*
X150220539Y-112578960D01*
X150235000Y-112506260D01*
X150235000Y-112213740D01*
X150177932Y-111926842D01*
X150065990Y-111656589D01*
X149903475Y-111413368D01*
X149696632Y-111206525D01*
X149514466Y-111084805D01*
X149631355Y-111015178D01*
X149847588Y-110820269D01*
X150021641Y-110586920D01*
X150146825Y-110324099D01*
X150191476Y-110176890D01*
X150070155Y-109947000D01*
X148877000Y-109947000D01*
X148877000Y-109967000D01*
X148623000Y-109967000D01*
X148623000Y-109947000D01*
X148603000Y-109947000D01*
X148603000Y-109693000D01*
X148623000Y-109693000D01*
X148623000Y-109673000D01*
X148877000Y-109673000D01*
X148877000Y-109693000D01*
X150070155Y-109693000D01*
X150191476Y-109463110D01*
X150146825Y-109315901D01*
X150021641Y-109053080D01*
X149847588Y-108819731D01*
X149631355Y-108624822D01*
X149514466Y-108555195D01*
X149696632Y-108433475D01*
X149903475Y-108226632D01*
X150065990Y-107983411D01*
X150177932Y-107713158D01*
X150235000Y-107426260D01*
X150235000Y-107133740D01*
X150177932Y-106846842D01*
X150065990Y-106576589D01*
X149903475Y-106333368D01*
X149696632Y-106126525D01*
X149514466Y-106004805D01*
X149631355Y-105935178D01*
X149847588Y-105740269D01*
X150021641Y-105506920D01*
X150146825Y-105244099D01*
X150191476Y-105096890D01*
X150070155Y-104867000D01*
X148877000Y-104867000D01*
X148877000Y-104887000D01*
X148623000Y-104887000D01*
X148623000Y-104867000D01*
X148603000Y-104867000D01*
X148603000Y-104613000D01*
X148623000Y-104613000D01*
X148623000Y-104593000D01*
X148877000Y-104593000D01*
X148877000Y-104613000D01*
X150070155Y-104613000D01*
X150191476Y-104383110D01*
X150146825Y-104235901D01*
X150021641Y-103973080D01*
X149847588Y-103739731D01*
X149631355Y-103544822D01*
X149514466Y-103475195D01*
X149696632Y-103353475D01*
X149903475Y-103146632D01*
X150065990Y-102903411D01*
X150177932Y-102633158D01*
X150235000Y-102346260D01*
X150235000Y-102053740D01*
X150177932Y-101766842D01*
X150065990Y-101496589D01*
X149903475Y-101253368D01*
X149696632Y-101046525D01*
X149522240Y-100930000D01*
X149696632Y-100813475D01*
X149903475Y-100606632D01*
X150065990Y-100363411D01*
X150177932Y-100093158D01*
X150235000Y-99806260D01*
X150235000Y-99513740D01*
X150177932Y-99226842D01*
X150065990Y-98956589D01*
X149903475Y-98713368D01*
X149696632Y-98506525D01*
X149522240Y-98390000D01*
X149696632Y-98273475D01*
X149903475Y-98066632D01*
X150065990Y-97823411D01*
X150177932Y-97553158D01*
X150235000Y-97266260D01*
X150235000Y-96973740D01*
X150177932Y-96686842D01*
X150065990Y-96416589D01*
X149903475Y-96173368D01*
X149696632Y-95966525D01*
X149522240Y-95850000D01*
X149696632Y-95733475D01*
X149903475Y-95526632D01*
X150065990Y-95283411D01*
X150177932Y-95013158D01*
X150235000Y-94726260D01*
X150235000Y-94433740D01*
X150177932Y-94146842D01*
X150065990Y-93876589D01*
X149903475Y-93633368D01*
X149696632Y-93426525D01*
X149522240Y-93310000D01*
X149696632Y-93193475D01*
X149903475Y-92986632D01*
X150065990Y-92743411D01*
X150177932Y-92473158D01*
X150235000Y-92186260D01*
X150235000Y-91893740D01*
X150177932Y-91606842D01*
X150065990Y-91336589D01*
X149903475Y-91093368D01*
X149771620Y-90961513D01*
X149844180Y-90939502D01*
X149954494Y-90880537D01*
X150051185Y-90801185D01*
X150130537Y-90704494D01*
X150189502Y-90594180D01*
X150225812Y-90474482D01*
X150238072Y-90350000D01*
X150238072Y-89086730D01*
X150598514Y-88726288D01*
X150627511Y-88702491D01*
X150722484Y-88586766D01*
X150793056Y-88454737D01*
X150836513Y-88311476D01*
X150847510Y-88199823D01*
X150847510Y-88199815D01*
X150851186Y-88162490D01*
X150847510Y-88125165D01*
X150847510Y-86141188D01*
X150964250Y-86140000D01*
X151123000Y-85981250D01*
X151123000Y-84907000D01*
X151377000Y-84907000D01*
X151377000Y-85981250D01*
X151535750Y-86140000D01*
X151837500Y-86143072D01*
X151961982Y-86130812D01*
X152081680Y-86094502D01*
X152191994Y-86035537D01*
X152288685Y-85956185D01*
X152368037Y-85859494D01*
X152427002Y-85749180D01*
X152463312Y-85629482D01*
X152475572Y-85505000D01*
X152472500Y-85065750D01*
X152313750Y-84907000D01*
X151377000Y-84907000D01*
X151123000Y-84907000D01*
X151103000Y-84907000D01*
X151103000Y-84653000D01*
X151123000Y-84653000D01*
X151123000Y-83578750D01*
X151377000Y-83578750D01*
X151377000Y-84653000D01*
X152313750Y-84653000D01*
X152472500Y-84494250D01*
X152475572Y-84055000D01*
X152463312Y-83930518D01*
X152427002Y-83810820D01*
X152368037Y-83700506D01*
X152288685Y-83603815D01*
X152191994Y-83524463D01*
X152081680Y-83465498D01*
X151961982Y-83429188D01*
X151837500Y-83416928D01*
X151535750Y-83420000D01*
X151377000Y-83578750D01*
X151123000Y-83578750D01*
X150964250Y-83420000D01*
X150847510Y-83418812D01*
X150847510Y-82932291D01*
X150986729Y-82793072D01*
X151600001Y-82793072D01*
X151773255Y-82776008D01*
X151939851Y-82725472D01*
X152093387Y-82643405D01*
X152227962Y-82532962D01*
X152338405Y-82398387D01*
X152420472Y-82244851D01*
X152429527Y-82215000D01*
X161730199Y-82215000D01*
X170211312Y-90696114D01*
G04 #@! TA.AperFunction,Conductor*
D19*
G36*
X170211312Y-90696114D02*
G01*
X170175000Y-90878665D01*
X170175000Y-91161335D01*
X170230147Y-91438574D01*
X170338320Y-91699727D01*
X170495363Y-91934759D01*
X170695241Y-92134637D01*
X170927759Y-92290000D01*
X170695241Y-92445363D01*
X170495363Y-92645241D01*
X170338320Y-92880273D01*
X170230147Y-93141426D01*
X170175000Y-93418665D01*
X170175000Y-93701335D01*
X170230147Y-93978574D01*
X170338320Y-94239727D01*
X170495363Y-94474759D01*
X170695241Y-94674637D01*
X170927759Y-94830000D01*
X170695241Y-94985363D01*
X170495363Y-95185241D01*
X170338320Y-95420273D01*
X170230147Y-95681426D01*
X170175000Y-95958665D01*
X170175000Y-96241335D01*
X170230147Y-96518574D01*
X170338320Y-96779727D01*
X170495363Y-97014759D01*
X170695241Y-97214637D01*
X170927759Y-97370000D01*
X170695241Y-97525363D01*
X170495363Y-97725241D01*
X170338320Y-97960273D01*
X170230147Y-98221426D01*
X170175000Y-98498665D01*
X170175000Y-98781335D01*
X170230147Y-99058574D01*
X170338320Y-99319727D01*
X170495363Y-99554759D01*
X170695241Y-99754637D01*
X170927759Y-99910000D01*
X170695241Y-100065363D01*
X170495363Y-100265241D01*
X170338320Y-100500273D01*
X170230147Y-100761426D01*
X170175000Y-101038665D01*
X170175000Y-101321335D01*
X170230147Y-101598574D01*
X170338320Y-101859727D01*
X170495363Y-102094759D01*
X170695241Y-102294637D01*
X170927759Y-102450000D01*
X170695241Y-102605363D01*
X170495363Y-102805241D01*
X170339022Y-103039222D01*
X158255001Y-90955202D01*
X158255001Y-87102326D01*
X158258677Y-87065001D01*
X158255001Y-87027676D01*
X158255001Y-87027668D01*
X158244004Y-86916015D01*
X158200547Y-86772754D01*
X158129975Y-86640725D01*
X158035002Y-86525000D01*
X158006004Y-86501202D01*
X157768688Y-86263886D01*
X157805000Y-86081335D01*
X157805000Y-85798665D01*
X157749853Y-85521426D01*
X157641680Y-85260273D01*
X157484637Y-85025241D01*
X157284759Y-84825363D01*
X157049727Y-84668320D01*
X156788574Y-84560147D01*
X156511335Y-84505000D01*
X156228665Y-84505000D01*
X155951426Y-84560147D01*
X155690273Y-84668320D01*
X155455241Y-84825363D01*
X155255363Y-85025241D01*
X155098320Y-85260273D01*
X154990147Y-85521426D01*
X154935000Y-85798665D01*
X154935000Y-86081335D01*
X154990147Y-86358574D01*
X155098320Y-86619727D01*
X155255363Y-86854759D01*
X155455241Y-87054637D01*
X155687759Y-87210000D01*
X155455241Y-87365363D01*
X155255363Y-87565241D01*
X155098320Y-87800273D01*
X154990147Y-88061426D01*
X154935000Y-88338665D01*
X154935000Y-88621335D01*
X154990147Y-88898574D01*
X155098320Y-89159727D01*
X155255363Y-89394759D01*
X155455241Y-89594637D01*
X155687759Y-89750000D01*
X155455241Y-89905363D01*
X155255363Y-90105241D01*
X155098320Y-90340273D01*
X154990147Y-90601426D01*
X154935000Y-90878665D01*
X154935000Y-91161335D01*
X154990147Y-91438574D01*
X155098320Y-91699727D01*
X155255363Y-91934759D01*
X155455241Y-92134637D01*
X155687759Y-92290000D01*
X155455241Y-92445363D01*
X155255363Y-92645241D01*
X155098320Y-92880273D01*
X154990147Y-93141426D01*
X154935000Y-93418665D01*
X154935000Y-93701335D01*
X154990147Y-93978574D01*
X155098320Y-94239727D01*
X155255363Y-94474759D01*
X155455241Y-94674637D01*
X155687759Y-94830000D01*
X155455241Y-94985363D01*
X155255363Y-95185241D01*
X155098320Y-95420273D01*
X154990147Y-95681426D01*
X154935000Y-95958665D01*
X154935000Y-96241335D01*
X154990147Y-96518574D01*
X155098320Y-96779727D01*
X155255363Y-97014759D01*
X155455241Y-97214637D01*
X155687759Y-97370000D01*
X155455241Y-97525363D01*
X155255363Y-97725241D01*
X155098320Y-97960273D01*
X154990147Y-98221426D01*
X154935000Y-98498665D01*
X154935000Y-98781335D01*
X154990147Y-99058574D01*
X155098320Y-99319727D01*
X155255363Y-99554759D01*
X155455241Y-99754637D01*
X155687759Y-99910000D01*
X155455241Y-100065363D01*
X155255363Y-100265241D01*
X155098320Y-100500273D01*
X154990147Y-100761426D01*
X154935000Y-101038665D01*
X154935000Y-101321335D01*
X154990147Y-101598574D01*
X155098320Y-101859727D01*
X155255363Y-102094759D01*
X155455241Y-102294637D01*
X155687759Y-102450000D01*
X155455241Y-102605363D01*
X155255363Y-102805241D01*
X155098320Y-103040273D01*
X154990147Y-103301426D01*
X154935000Y-103578665D01*
X154935000Y-103861335D01*
X154990147Y-104138574D01*
X155098320Y-104399727D01*
X155255363Y-104634759D01*
X155455241Y-104834637D01*
X155687759Y-104990000D01*
X155455241Y-105145363D01*
X155255363Y-105345241D01*
X155098320Y-105580273D01*
X154990147Y-105841426D01*
X154935000Y-106118665D01*
X154935000Y-106401335D01*
X154990147Y-106678574D01*
X155098320Y-106939727D01*
X155255363Y-107174759D01*
X155455241Y-107374637D01*
X155687759Y-107530000D01*
X155455241Y-107685363D01*
X155255363Y-107885241D01*
X155098320Y-108120273D01*
X154990147Y-108381426D01*
X154935000Y-108658665D01*
X154935000Y-108941335D01*
X154990147Y-109218574D01*
X155098320Y-109479727D01*
X155255363Y-109714759D01*
X155455241Y-109914637D01*
X155687759Y-110070000D01*
X155455241Y-110225363D01*
X155255363Y-110425241D01*
X155098320Y-110660273D01*
X154990147Y-110921426D01*
X154935000Y-111198665D01*
X154935000Y-111481335D01*
X154990147Y-111758574D01*
X155098320Y-112019727D01*
X155255363Y-112254759D01*
X155455241Y-112454637D01*
X155687759Y-112610000D01*
X155455241Y-112765363D01*
X155255363Y-112965241D01*
X155235479Y-112995000D01*
X150636579Y-112995000D01*
X150220539Y-112578960D01*
X150235000Y-112506260D01*
X150235000Y-112213740D01*
X150177932Y-111926842D01*
X150065990Y-111656589D01*
X149903475Y-111413368D01*
X149696632Y-111206525D01*
X149514466Y-111084805D01*
X149631355Y-111015178D01*
X149847588Y-110820269D01*
X150021641Y-110586920D01*
X150146825Y-110324099D01*
X150191476Y-110176890D01*
X150070155Y-109947000D01*
X148877000Y-109947000D01*
X148877000Y-109967000D01*
X148623000Y-109967000D01*
X148623000Y-109947000D01*
X148603000Y-109947000D01*
X148603000Y-109693000D01*
X148623000Y-109693000D01*
X148623000Y-109673000D01*
X148877000Y-109673000D01*
X148877000Y-109693000D01*
X150070155Y-109693000D01*
X150191476Y-109463110D01*
X150146825Y-109315901D01*
X150021641Y-109053080D01*
X149847588Y-108819731D01*
X149631355Y-108624822D01*
X149514466Y-108555195D01*
X149696632Y-108433475D01*
X149903475Y-108226632D01*
X150065990Y-107983411D01*
X150177932Y-107713158D01*
X150235000Y-107426260D01*
X150235000Y-107133740D01*
X150177932Y-106846842D01*
X150065990Y-106576589D01*
X149903475Y-106333368D01*
X149696632Y-106126525D01*
X149514466Y-106004805D01*
X149631355Y-105935178D01*
X149847588Y-105740269D01*
X150021641Y-105506920D01*
X150146825Y-105244099D01*
X150191476Y-105096890D01*
X150070155Y-104867000D01*
X148877000Y-104867000D01*
X148877000Y-104887000D01*
X148623000Y-104887000D01*
X148623000Y-104867000D01*
X148603000Y-104867000D01*
X148603000Y-104613000D01*
X148623000Y-104613000D01*
X148623000Y-104593000D01*
X148877000Y-104593000D01*
X148877000Y-104613000D01*
X150070155Y-104613000D01*
X150191476Y-104383110D01*
X150146825Y-104235901D01*
X150021641Y-103973080D01*
X149847588Y-103739731D01*
X149631355Y-103544822D01*
X149514466Y-103475195D01*
X149696632Y-103353475D01*
X149903475Y-103146632D01*
X150065990Y-102903411D01*
X150177932Y-102633158D01*
X150235000Y-102346260D01*
X150235000Y-102053740D01*
X150177932Y-101766842D01*
X150065990Y-101496589D01*
X149903475Y-101253368D01*
X149696632Y-101046525D01*
X149522240Y-100930000D01*
X149696632Y-100813475D01*
X149903475Y-100606632D01*
X150065990Y-100363411D01*
X150177932Y-100093158D01*
X150235000Y-99806260D01*
X150235000Y-99513740D01*
X150177932Y-99226842D01*
X150065990Y-98956589D01*
X149903475Y-98713368D01*
X149696632Y-98506525D01*
X149522240Y-98390000D01*
X149696632Y-98273475D01*
X149903475Y-98066632D01*
X150065990Y-97823411D01*
X150177932Y-97553158D01*
X150235000Y-97266260D01*
X150235000Y-96973740D01*
X150177932Y-96686842D01*
X150065990Y-96416589D01*
X149903475Y-96173368D01*
X149696632Y-95966525D01*
X149522240Y-95850000D01*
X149696632Y-95733475D01*
X149903475Y-95526632D01*
X150065990Y-95283411D01*
X150177932Y-95013158D01*
X150235000Y-94726260D01*
X150235000Y-94433740D01*
X150177932Y-94146842D01*
X150065990Y-93876589D01*
X149903475Y-93633368D01*
X149696632Y-93426525D01*
X149522240Y-93310000D01*
X149696632Y-93193475D01*
X149903475Y-92986632D01*
X150065990Y-92743411D01*
X150177932Y-92473158D01*
X150235000Y-92186260D01*
X150235000Y-91893740D01*
X150177932Y-91606842D01*
X150065990Y-91336589D01*
X149903475Y-91093368D01*
X149771620Y-90961513D01*
X149844180Y-90939502D01*
X149954494Y-90880537D01*
X150051185Y-90801185D01*
X150130537Y-90704494D01*
X150189502Y-90594180D01*
X150225812Y-90474482D01*
X150238072Y-90350000D01*
X150238072Y-89086730D01*
X150598514Y-88726288D01*
X150627511Y-88702491D01*
X150722484Y-88586766D01*
X150793056Y-88454737D01*
X150836513Y-88311476D01*
X150847510Y-88199823D01*
X150847510Y-88199815D01*
X150851186Y-88162490D01*
X150847510Y-88125165D01*
X150847510Y-86141188D01*
X150964250Y-86140000D01*
X151123000Y-85981250D01*
X151123000Y-84907000D01*
X151377000Y-84907000D01*
X151377000Y-85981250D01*
X151535750Y-86140000D01*
X151837500Y-86143072D01*
X151961982Y-86130812D01*
X152081680Y-86094502D01*
X152191994Y-86035537D01*
X152288685Y-85956185D01*
X152368037Y-85859494D01*
X152427002Y-85749180D01*
X152463312Y-85629482D01*
X152475572Y-85505000D01*
X152472500Y-85065750D01*
X152313750Y-84907000D01*
X151377000Y-84907000D01*
X151123000Y-84907000D01*
X151103000Y-84907000D01*
X151103000Y-84653000D01*
X151123000Y-84653000D01*
X151123000Y-83578750D01*
X151377000Y-83578750D01*
X151377000Y-84653000D01*
X152313750Y-84653000D01*
X152472500Y-84494250D01*
X152475572Y-84055000D01*
X152463312Y-83930518D01*
X152427002Y-83810820D01*
X152368037Y-83700506D01*
X152288685Y-83603815D01*
X152191994Y-83524463D01*
X152081680Y-83465498D01*
X151961982Y-83429188D01*
X151837500Y-83416928D01*
X151535750Y-83420000D01*
X151377000Y-83578750D01*
X151123000Y-83578750D01*
X150964250Y-83420000D01*
X150847510Y-83418812D01*
X150847510Y-82932291D01*
X150986729Y-82793072D01*
X151600001Y-82793072D01*
X151773255Y-82776008D01*
X151939851Y-82725472D01*
X152093387Y-82643405D01*
X152227962Y-82532962D01*
X152338405Y-82398387D01*
X152420472Y-82244851D01*
X152429527Y-82215000D01*
X161730199Y-82215000D01*
X170211312Y-90696114D01*
G37*
G04 #@! TD.AperFunction*
D18*
X170495400Y-105345204D02*
X170495363Y-105345241D01*
X170338320Y-105580273D01*
X170230147Y-105841426D01*
X170175000Y-106118665D01*
X170175000Y-106401335D01*
X170230147Y-106678574D01*
X170338320Y-106939727D01*
X170495363Y-107174759D01*
X170695241Y-107374637D01*
X170927759Y-107530000D01*
X170695241Y-107685363D01*
X170495363Y-107885241D01*
X170338320Y-108120273D01*
X170230147Y-108381426D01*
X170175000Y-108658665D01*
X170175000Y-108941335D01*
X170230147Y-109218574D01*
X170338320Y-109479727D01*
X170495363Y-109714759D01*
X170695241Y-109914637D01*
X170927759Y-110070000D01*
X170695241Y-110225363D01*
X170495363Y-110425241D01*
X170338320Y-110660273D01*
X170230147Y-110921426D01*
X170175000Y-111198665D01*
X170175000Y-111481335D01*
X170227447Y-111744999D01*
X157752553Y-111744999D01*
X157805000Y-111481335D01*
X157805000Y-111198665D01*
X157749853Y-110921426D01*
X157641680Y-110660273D01*
X157484637Y-110425241D01*
X157284759Y-110225363D01*
X157052241Y-110070000D01*
X157284759Y-109914637D01*
X157484637Y-109714759D01*
X157641680Y-109479727D01*
X157749853Y-109218574D01*
X157805000Y-108941335D01*
X157805000Y-108658665D01*
X157749853Y-108381426D01*
X157641680Y-108120273D01*
X157484637Y-107885241D01*
X157284759Y-107685363D01*
X157052241Y-107530000D01*
X157284759Y-107374637D01*
X157484637Y-107174759D01*
X157641680Y-106939727D01*
X157749853Y-106678574D01*
X157805000Y-106401335D01*
X157805000Y-106118665D01*
X157749853Y-105841426D01*
X157641680Y-105580273D01*
X157484637Y-105345241D01*
X157284759Y-105145363D01*
X157052241Y-104990000D01*
X157284759Y-104834637D01*
X157484637Y-104634759D01*
X157641680Y-104399727D01*
X157749853Y-104138574D01*
X157805000Y-103861335D01*
X157805000Y-103578665D01*
X157749853Y-103301426D01*
X157641680Y-103040273D01*
X157484637Y-102805241D01*
X157284759Y-102605363D01*
X157052241Y-102450000D01*
X157284759Y-102294637D01*
X157484637Y-102094759D01*
X157641680Y-101859727D01*
X157749853Y-101598574D01*
X157805000Y-101321335D01*
X157805000Y-101038665D01*
X157749853Y-100761426D01*
X157641680Y-100500273D01*
X157484637Y-100265241D01*
X157284759Y-100065363D01*
X157052241Y-99910000D01*
X157284759Y-99754637D01*
X157484637Y-99554759D01*
X157641680Y-99319727D01*
X157749853Y-99058574D01*
X157805000Y-98781335D01*
X157805000Y-98498665D01*
X157749853Y-98221426D01*
X157641680Y-97960273D01*
X157484637Y-97725241D01*
X157284759Y-97525363D01*
X157052241Y-97370000D01*
X157284759Y-97214637D01*
X157484637Y-97014759D01*
X157641680Y-96779727D01*
X157749853Y-96518574D01*
X157805000Y-96241335D01*
X157805000Y-95958665D01*
X157749853Y-95681426D01*
X157641680Y-95420273D01*
X157484637Y-95185241D01*
X157284759Y-94985363D01*
X157052241Y-94830000D01*
X157284759Y-94674637D01*
X157484637Y-94474759D01*
X157641680Y-94239727D01*
X157749853Y-93978574D01*
X157805000Y-93701335D01*
X157805000Y-93418665D01*
X157749853Y-93141426D01*
X157641680Y-92880273D01*
X157484637Y-92645241D01*
X157284759Y-92445363D01*
X157052241Y-92290000D01*
X157284759Y-92134637D01*
X157284796Y-92134600D01*
X170495400Y-105345204D01*
G04 #@! TA.AperFunction,Conductor*
D19*
G36*
X170495400Y-105345204D02*
G01*
X170495363Y-105345241D01*
X170338320Y-105580273D01*
X170230147Y-105841426D01*
X170175000Y-106118665D01*
X170175000Y-106401335D01*
X170230147Y-106678574D01*
X170338320Y-106939727D01*
X170495363Y-107174759D01*
X170695241Y-107374637D01*
X170927759Y-107530000D01*
X170695241Y-107685363D01*
X170495363Y-107885241D01*
X170338320Y-108120273D01*
X170230147Y-108381426D01*
X170175000Y-108658665D01*
X170175000Y-108941335D01*
X170230147Y-109218574D01*
X170338320Y-109479727D01*
X170495363Y-109714759D01*
X170695241Y-109914637D01*
X170927759Y-110070000D01*
X170695241Y-110225363D01*
X170495363Y-110425241D01*
X170338320Y-110660273D01*
X170230147Y-110921426D01*
X170175000Y-111198665D01*
X170175000Y-111481335D01*
X170227447Y-111744999D01*
X157752553Y-111744999D01*
X157805000Y-111481335D01*
X157805000Y-111198665D01*
X157749853Y-110921426D01*
X157641680Y-110660273D01*
X157484637Y-110425241D01*
X157284759Y-110225363D01*
X157052241Y-110070000D01*
X157284759Y-109914637D01*
X157484637Y-109714759D01*
X157641680Y-109479727D01*
X157749853Y-109218574D01*
X157805000Y-108941335D01*
X157805000Y-108658665D01*
X157749853Y-108381426D01*
X157641680Y-108120273D01*
X157484637Y-107885241D01*
X157284759Y-107685363D01*
X157052241Y-107530000D01*
X157284759Y-107374637D01*
X157484637Y-107174759D01*
X157641680Y-106939727D01*
X157749853Y-106678574D01*
X157805000Y-106401335D01*
X157805000Y-106118665D01*
X157749853Y-105841426D01*
X157641680Y-105580273D01*
X157484637Y-105345241D01*
X157284759Y-105145363D01*
X157052241Y-104990000D01*
X157284759Y-104834637D01*
X157484637Y-104634759D01*
X157641680Y-104399727D01*
X157749853Y-104138574D01*
X157805000Y-103861335D01*
X157805000Y-103578665D01*
X157749853Y-103301426D01*
X157641680Y-103040273D01*
X157484637Y-102805241D01*
X157284759Y-102605363D01*
X157052241Y-102450000D01*
X157284759Y-102294637D01*
X157484637Y-102094759D01*
X157641680Y-101859727D01*
X157749853Y-101598574D01*
X157805000Y-101321335D01*
X157805000Y-101038665D01*
X157749853Y-100761426D01*
X157641680Y-100500273D01*
X157484637Y-100265241D01*
X157284759Y-100065363D01*
X157052241Y-99910000D01*
X157284759Y-99754637D01*
X157484637Y-99554759D01*
X157641680Y-99319727D01*
X157749853Y-99058574D01*
X157805000Y-98781335D01*
X157805000Y-98498665D01*
X157749853Y-98221426D01*
X157641680Y-97960273D01*
X157484637Y-97725241D01*
X157284759Y-97525363D01*
X157052241Y-97370000D01*
X157284759Y-97214637D01*
X157484637Y-97014759D01*
X157641680Y-96779727D01*
X157749853Y-96518574D01*
X157805000Y-96241335D01*
X157805000Y-95958665D01*
X157749853Y-95681426D01*
X157641680Y-95420273D01*
X157484637Y-95185241D01*
X157284759Y-94985363D01*
X157052241Y-94830000D01*
X157284759Y-94674637D01*
X157484637Y-94474759D01*
X157641680Y-94239727D01*
X157749853Y-93978574D01*
X157805000Y-93701335D01*
X157805000Y-93418665D01*
X157749853Y-93141426D01*
X157641680Y-92880273D01*
X157484637Y-92645241D01*
X157284759Y-92445363D01*
X157052241Y-92290000D01*
X157284759Y-92134637D01*
X157284796Y-92134600D01*
X170495400Y-105345204D01*
G37*
G04 #@! TD.AperFunction*
D18*
X178583091Y-88068890D02*
X178546589Y-88084010D01*
X178303368Y-88246525D01*
X178096525Y-88453368D01*
X177934010Y-88696589D01*
X177822068Y-88966842D01*
X177765000Y-89253740D01*
X177765000Y-89546260D01*
X177822068Y-89833158D01*
X177934010Y-90103411D01*
X178096525Y-90346632D01*
X178303368Y-90553475D01*
X178477760Y-90670000D01*
X178303368Y-90786525D01*
X178096525Y-90993368D01*
X177934010Y-91236589D01*
X177822068Y-91506842D01*
X177765000Y-91793740D01*
X177765000Y-92086260D01*
X177822068Y-92373158D01*
X177934010Y-92643411D01*
X178096525Y-92886632D01*
X178303368Y-93093475D01*
X178477760Y-93210000D01*
X178303368Y-93326525D01*
X178096525Y-93533368D01*
X177934010Y-93776589D01*
X177822068Y-94046842D01*
X177765000Y-94333740D01*
X177765000Y-94626260D01*
X177822068Y-94913158D01*
X177934010Y-95183411D01*
X178096525Y-95426632D01*
X178303368Y-95633475D01*
X178477760Y-95750000D01*
X178303368Y-95866525D01*
X178096525Y-96073368D01*
X177934010Y-96316589D01*
X177822068Y-96586842D01*
X177765000Y-96873740D01*
X177765000Y-97166260D01*
X177822068Y-97453158D01*
X177934010Y-97723411D01*
X178096525Y-97966632D01*
X178303368Y-98173475D01*
X178477760Y-98290000D01*
X178303368Y-98406525D01*
X178096525Y-98613368D01*
X177934010Y-98856589D01*
X177822068Y-99126842D01*
X177765000Y-99413740D01*
X177765000Y-99706260D01*
X177822068Y-99993158D01*
X177934010Y-100263411D01*
X178096525Y-100506632D01*
X178303368Y-100713475D01*
X178477760Y-100830000D01*
X178303368Y-100946525D01*
X178096525Y-101153368D01*
X177934010Y-101396589D01*
X177822068Y-101666842D01*
X177765000Y-101953740D01*
X177765000Y-102246260D01*
X177822068Y-102533158D01*
X177934010Y-102803411D01*
X178096525Y-103046632D01*
X178303368Y-103253475D01*
X178477760Y-103370000D01*
X178303368Y-103486525D01*
X178096525Y-103693368D01*
X177934010Y-103936589D01*
X177822068Y-104206842D01*
X177765000Y-104493740D01*
X177765000Y-104786260D01*
X177822068Y-105073158D01*
X177934010Y-105343411D01*
X178096525Y-105586632D01*
X178303368Y-105793475D01*
X178485534Y-105915195D01*
X178368645Y-105984822D01*
X178152412Y-106179731D01*
X177978359Y-106413080D01*
X177853175Y-106675901D01*
X177808524Y-106823110D01*
X177929845Y-107053000D01*
X179123000Y-107053000D01*
X179123000Y-107033000D01*
X179377000Y-107033000D01*
X179377000Y-107053000D01*
X179397000Y-107053000D01*
X179397000Y-107307000D01*
X179377000Y-107307000D01*
X179377000Y-107327000D01*
X179123000Y-107327000D01*
X179123000Y-107307000D01*
X177929845Y-107307000D01*
X177808524Y-107536890D01*
X177826150Y-107595001D01*
X175684805Y-107595001D01*
X172724600Y-104634796D01*
X172724637Y-104634759D01*
X172881680Y-104399727D01*
X172989853Y-104138574D01*
X173045000Y-103861335D01*
X173045000Y-103578665D01*
X172989853Y-103301426D01*
X172881680Y-103040273D01*
X172724637Y-102805241D01*
X172524759Y-102605363D01*
X172292241Y-102450000D01*
X172524759Y-102294637D01*
X172724637Y-102094759D01*
X172881680Y-101859727D01*
X172989853Y-101598574D01*
X173045000Y-101321335D01*
X173045000Y-101038665D01*
X172989853Y-100761426D01*
X172881680Y-100500273D01*
X172724637Y-100265241D01*
X172524759Y-100065363D01*
X172292241Y-99910000D01*
X172524759Y-99754637D01*
X172724637Y-99554759D01*
X172881680Y-99319727D01*
X172989853Y-99058574D01*
X173045000Y-98781335D01*
X173045000Y-98498665D01*
X172989853Y-98221426D01*
X172881680Y-97960273D01*
X172724637Y-97725241D01*
X172524759Y-97525363D01*
X172292241Y-97370000D01*
X172524759Y-97214637D01*
X172724637Y-97014759D01*
X172881680Y-96779727D01*
X172989853Y-96518574D01*
X173045000Y-96241335D01*
X173045000Y-95958665D01*
X172989853Y-95681426D01*
X172881680Y-95420273D01*
X172724637Y-95185241D01*
X172524759Y-94985363D01*
X172292241Y-94830000D01*
X172524759Y-94674637D01*
X172724637Y-94474759D01*
X172881680Y-94239727D01*
X172989853Y-93978574D01*
X173045000Y-93701335D01*
X173045000Y-93418665D01*
X172989853Y-93141426D01*
X172881680Y-92880273D01*
X172724637Y-92645241D01*
X172524759Y-92445363D01*
X172292241Y-92290000D01*
X172524759Y-92134637D01*
X172724637Y-91934759D01*
X172881680Y-91699727D01*
X172989853Y-91438574D01*
X173045000Y-91161335D01*
X173045000Y-90878665D01*
X172989853Y-90601426D01*
X172881680Y-90340273D01*
X172724637Y-90105241D01*
X172524759Y-89905363D01*
X172292241Y-89750000D01*
X172524759Y-89594637D01*
X172724637Y-89394759D01*
X172881680Y-89159727D01*
X172989853Y-88898574D01*
X173045000Y-88621335D01*
X173045000Y-88338665D01*
X172989853Y-88061426D01*
X172881680Y-87800273D01*
X172724637Y-87565241D01*
X172524759Y-87365363D01*
X172292241Y-87210000D01*
X172524759Y-87054637D01*
X172724637Y-86854759D01*
X172828043Y-86700000D01*
X177214201Y-86700000D01*
X178583091Y-88068890D01*
G04 #@! TA.AperFunction,Conductor*
D19*
G36*
X178583091Y-88068890D02*
G01*
X178546589Y-88084010D01*
X178303368Y-88246525D01*
X178096525Y-88453368D01*
X177934010Y-88696589D01*
X177822068Y-88966842D01*
X177765000Y-89253740D01*
X177765000Y-89546260D01*
X177822068Y-89833158D01*
X177934010Y-90103411D01*
X178096525Y-90346632D01*
X178303368Y-90553475D01*
X178477760Y-90670000D01*
X178303368Y-90786525D01*
X178096525Y-90993368D01*
X177934010Y-91236589D01*
X177822068Y-91506842D01*
X177765000Y-91793740D01*
X177765000Y-92086260D01*
X177822068Y-92373158D01*
X177934010Y-92643411D01*
X178096525Y-92886632D01*
X178303368Y-93093475D01*
X178477760Y-93210000D01*
X178303368Y-93326525D01*
X178096525Y-93533368D01*
X177934010Y-93776589D01*
X177822068Y-94046842D01*
X177765000Y-94333740D01*
X177765000Y-94626260D01*
X177822068Y-94913158D01*
X177934010Y-95183411D01*
X178096525Y-95426632D01*
X178303368Y-95633475D01*
X178477760Y-95750000D01*
X178303368Y-95866525D01*
X178096525Y-96073368D01*
X177934010Y-96316589D01*
X177822068Y-96586842D01*
X177765000Y-96873740D01*
X177765000Y-97166260D01*
X177822068Y-97453158D01*
X177934010Y-97723411D01*
X178096525Y-97966632D01*
X178303368Y-98173475D01*
X178477760Y-98290000D01*
X178303368Y-98406525D01*
X178096525Y-98613368D01*
X177934010Y-98856589D01*
X177822068Y-99126842D01*
X177765000Y-99413740D01*
X177765000Y-99706260D01*
X177822068Y-99993158D01*
X177934010Y-100263411D01*
X178096525Y-100506632D01*
X178303368Y-100713475D01*
X178477760Y-100830000D01*
X178303368Y-100946525D01*
X178096525Y-101153368D01*
X177934010Y-101396589D01*
X177822068Y-101666842D01*
X177765000Y-101953740D01*
X177765000Y-102246260D01*
X177822068Y-102533158D01*
X177934010Y-102803411D01*
X178096525Y-103046632D01*
X178303368Y-103253475D01*
X178477760Y-103370000D01*
X178303368Y-103486525D01*
X178096525Y-103693368D01*
X177934010Y-103936589D01*
X177822068Y-104206842D01*
X177765000Y-104493740D01*
X177765000Y-104786260D01*
X177822068Y-105073158D01*
X177934010Y-105343411D01*
X178096525Y-105586632D01*
X178303368Y-105793475D01*
X178485534Y-105915195D01*
X178368645Y-105984822D01*
X178152412Y-106179731D01*
X177978359Y-106413080D01*
X177853175Y-106675901D01*
X177808524Y-106823110D01*
X177929845Y-107053000D01*
X179123000Y-107053000D01*
X179123000Y-107033000D01*
X179377000Y-107033000D01*
X179377000Y-107053000D01*
X179397000Y-107053000D01*
X179397000Y-107307000D01*
X179377000Y-107307000D01*
X179377000Y-107327000D01*
X179123000Y-107327000D01*
X179123000Y-107307000D01*
X177929845Y-107307000D01*
X177808524Y-107536890D01*
X177826150Y-107595001D01*
X175684805Y-107595001D01*
X172724600Y-104634796D01*
X172724637Y-104634759D01*
X172881680Y-104399727D01*
X172989853Y-104138574D01*
X173045000Y-103861335D01*
X173045000Y-103578665D01*
X172989853Y-103301426D01*
X172881680Y-103040273D01*
X172724637Y-102805241D01*
X172524759Y-102605363D01*
X172292241Y-102450000D01*
X172524759Y-102294637D01*
X172724637Y-102094759D01*
X172881680Y-101859727D01*
X172989853Y-101598574D01*
X173045000Y-101321335D01*
X173045000Y-101038665D01*
X172989853Y-100761426D01*
X172881680Y-100500273D01*
X172724637Y-100265241D01*
X172524759Y-100065363D01*
X172292241Y-99910000D01*
X172524759Y-99754637D01*
X172724637Y-99554759D01*
X172881680Y-99319727D01*
X172989853Y-99058574D01*
X173045000Y-98781335D01*
X173045000Y-98498665D01*
X172989853Y-98221426D01*
X172881680Y-97960273D01*
X172724637Y-97725241D01*
X172524759Y-97525363D01*
X172292241Y-97370000D01*
X172524759Y-97214637D01*
X172724637Y-97014759D01*
X172881680Y-96779727D01*
X172989853Y-96518574D01*
X173045000Y-96241335D01*
X173045000Y-95958665D01*
X172989853Y-95681426D01*
X172881680Y-95420273D01*
X172724637Y-95185241D01*
X172524759Y-94985363D01*
X172292241Y-94830000D01*
X172524759Y-94674637D01*
X172724637Y-94474759D01*
X172881680Y-94239727D01*
X172989853Y-93978574D01*
X173045000Y-93701335D01*
X173045000Y-93418665D01*
X172989853Y-93141426D01*
X172881680Y-92880273D01*
X172724637Y-92645241D01*
X172524759Y-92445363D01*
X172292241Y-92290000D01*
X172524759Y-92134637D01*
X172724637Y-91934759D01*
X172881680Y-91699727D01*
X172989853Y-91438574D01*
X173045000Y-91161335D01*
X173045000Y-90878665D01*
X172989853Y-90601426D01*
X172881680Y-90340273D01*
X172724637Y-90105241D01*
X172524759Y-89905363D01*
X172292241Y-89750000D01*
X172524759Y-89594637D01*
X172724637Y-89394759D01*
X172881680Y-89159727D01*
X172989853Y-88898574D01*
X173045000Y-88621335D01*
X173045000Y-88338665D01*
X172989853Y-88061426D01*
X172881680Y-87800273D01*
X172724637Y-87565241D01*
X172524759Y-87365363D01*
X172292241Y-87210000D01*
X172524759Y-87054637D01*
X172724637Y-86854759D01*
X172828043Y-86700000D01*
X177214201Y-86700000D01*
X178583091Y-88068890D01*
G37*
G04 #@! TD.AperFunction*
D18*
X181315000Y-88651196D02*
X178751875Y-86088072D01*
X179100001Y-86088072D01*
X179273255Y-86071008D01*
X179439851Y-86020472D01*
X179593387Y-85938405D01*
X179727962Y-85827962D01*
X179838405Y-85693387D01*
X179920472Y-85539851D01*
X179971008Y-85373255D01*
X179988072Y-85200001D01*
X179988072Y-84299999D01*
X179971008Y-84126745D01*
X179920472Y-83960149D01*
X179838405Y-83806613D01*
X179727962Y-83672038D01*
X179593387Y-83561595D01*
X179510000Y-83517024D01*
X179510000Y-82732976D01*
X179593387Y-82688405D01*
X179727962Y-82577962D01*
X179838405Y-82443387D01*
X179920472Y-82289851D01*
X179971008Y-82123255D01*
X179988072Y-81950001D01*
X179988072Y-81049999D01*
X179971008Y-80876745D01*
X179920472Y-80710149D01*
X179838405Y-80556613D01*
X179727962Y-80422038D01*
X179593387Y-80311595D01*
X179439851Y-80229528D01*
X179273255Y-80178992D01*
X179100001Y-80161928D01*
X178449999Y-80161928D01*
X178276745Y-80178992D01*
X178110149Y-80229528D01*
X177956613Y-80311595D01*
X177822038Y-80422038D01*
X177750000Y-80509816D01*
X177677962Y-80422038D01*
X177543387Y-80311595D01*
X177389851Y-80229528D01*
X177223255Y-80178992D01*
X177050001Y-80161928D01*
X176638506Y-80161928D01*
X176186524Y-79709946D01*
X176166051Y-79685000D01*
X181315000Y-79685000D01*
X181315000Y-88651196D01*
G04 #@! TA.AperFunction,Conductor*
D19*
G36*
X181315000Y-88651196D02*
G01*
X178751875Y-86088072D01*
X179100001Y-86088072D01*
X179273255Y-86071008D01*
X179439851Y-86020472D01*
X179593387Y-85938405D01*
X179727962Y-85827962D01*
X179838405Y-85693387D01*
X179920472Y-85539851D01*
X179971008Y-85373255D01*
X179988072Y-85200001D01*
X179988072Y-84299999D01*
X179971008Y-84126745D01*
X179920472Y-83960149D01*
X179838405Y-83806613D01*
X179727962Y-83672038D01*
X179593387Y-83561595D01*
X179510000Y-83517024D01*
X179510000Y-82732976D01*
X179593387Y-82688405D01*
X179727962Y-82577962D01*
X179838405Y-82443387D01*
X179920472Y-82289851D01*
X179971008Y-82123255D01*
X179988072Y-81950001D01*
X179988072Y-81049999D01*
X179971008Y-80876745D01*
X179920472Y-80710149D01*
X179838405Y-80556613D01*
X179727962Y-80422038D01*
X179593387Y-80311595D01*
X179439851Y-80229528D01*
X179273255Y-80178992D01*
X179100001Y-80161928D01*
X178449999Y-80161928D01*
X178276745Y-80178992D01*
X178110149Y-80229528D01*
X177956613Y-80311595D01*
X177822038Y-80422038D01*
X177750000Y-80509816D01*
X177677962Y-80422038D01*
X177543387Y-80311595D01*
X177389851Y-80229528D01*
X177223255Y-80178992D01*
X177050001Y-80161928D01*
X176638506Y-80161928D01*
X176186524Y-79709946D01*
X176166051Y-79685000D01*
X181315000Y-79685000D01*
X181315000Y-88651196D01*
G37*
G04 #@! TD.AperFunction*
D18*
X175511928Y-81538507D02*
X175511928Y-81950001D01*
X175528992Y-82123255D01*
X175579528Y-82289851D01*
X175661595Y-82443387D01*
X175772038Y-82577962D01*
X175906613Y-82688405D01*
X176060149Y-82770472D01*
X176226745Y-82821008D01*
X176399999Y-82838072D01*
X177050001Y-82838072D01*
X177223255Y-82821008D01*
X177389851Y-82770472D01*
X177543387Y-82688405D01*
X177677962Y-82577962D01*
X177750000Y-82490184D01*
X177822038Y-82577962D01*
X177956613Y-82688405D01*
X177990001Y-82706251D01*
X177990000Y-83517023D01*
X177906613Y-83561595D01*
X177825363Y-83628276D01*
X177801185Y-83598815D01*
X177704494Y-83519463D01*
X177594180Y-83460498D01*
X177474482Y-83424188D01*
X177350000Y-83411928D01*
X177035750Y-83415000D01*
X176877000Y-83573750D01*
X176877000Y-84623000D01*
X176897000Y-84623000D01*
X176897000Y-84877000D01*
X176877000Y-84877000D01*
X176877000Y-84897000D01*
X176623000Y-84897000D01*
X176623000Y-84877000D01*
X175673750Y-84877000D01*
X175515000Y-85035750D01*
X175513930Y-85180000D01*
X172828043Y-85180000D01*
X172724637Y-85025241D01*
X172524759Y-84825363D01*
X172289727Y-84668320D01*
X172028574Y-84560147D01*
X171751335Y-84505000D01*
X171468665Y-84505000D01*
X171191426Y-84560147D01*
X170930273Y-84668320D01*
X170695241Y-84825363D01*
X170495363Y-85025241D01*
X170338320Y-85260273D01*
X170230147Y-85521426D01*
X170175000Y-85798665D01*
X170175000Y-86081335D01*
X170230147Y-86358574D01*
X170338320Y-86619727D01*
X170495363Y-86854759D01*
X170695241Y-87054637D01*
X170927759Y-87210000D01*
X170695241Y-87365363D01*
X170495363Y-87565241D01*
X170338320Y-87800273D01*
X170230147Y-88061426D01*
X170175000Y-88338665D01*
X170175000Y-88510198D01*
X165714802Y-84050000D01*
X175511928Y-84050000D01*
X175515000Y-84464250D01*
X175673750Y-84623000D01*
X176623000Y-84623000D01*
X176623000Y-83573750D01*
X176464250Y-83415000D01*
X176150000Y-83411928D01*
X176025518Y-83424188D01*
X175905820Y-83460498D01*
X175795506Y-83519463D01*
X175698815Y-83598815D01*
X175619463Y-83695506D01*
X175560498Y-83805820D01*
X175524188Y-83925518D01*
X175511928Y-84050000D01*
X165714802Y-84050000D01*
X162854791Y-81189990D01*
X175163412Y-81189990D01*
X175511928Y-81538507D01*
G04 #@! TA.AperFunction,Conductor*
D19*
G36*
X175511928Y-81538507D02*
G01*
X175511928Y-81950001D01*
X175528992Y-82123255D01*
X175579528Y-82289851D01*
X175661595Y-82443387D01*
X175772038Y-82577962D01*
X175906613Y-82688405D01*
X176060149Y-82770472D01*
X176226745Y-82821008D01*
X176399999Y-82838072D01*
X177050001Y-82838072D01*
X177223255Y-82821008D01*
X177389851Y-82770472D01*
X177543387Y-82688405D01*
X177677962Y-82577962D01*
X177750000Y-82490184D01*
X177822038Y-82577962D01*
X177956613Y-82688405D01*
X177990001Y-82706251D01*
X177990000Y-83517023D01*
X177906613Y-83561595D01*
X177825363Y-83628276D01*
X177801185Y-83598815D01*
X177704494Y-83519463D01*
X177594180Y-83460498D01*
X177474482Y-83424188D01*
X177350000Y-83411928D01*
X177035750Y-83415000D01*
X176877000Y-83573750D01*
X176877000Y-84623000D01*
X176897000Y-84623000D01*
X176897000Y-84877000D01*
X176877000Y-84877000D01*
X176877000Y-84897000D01*
X176623000Y-84897000D01*
X176623000Y-84877000D01*
X175673750Y-84877000D01*
X175515000Y-85035750D01*
X175513930Y-85180000D01*
X172828043Y-85180000D01*
X172724637Y-85025241D01*
X172524759Y-84825363D01*
X172289727Y-84668320D01*
X172028574Y-84560147D01*
X171751335Y-84505000D01*
X171468665Y-84505000D01*
X171191426Y-84560147D01*
X170930273Y-84668320D01*
X170695241Y-84825363D01*
X170495363Y-85025241D01*
X170338320Y-85260273D01*
X170230147Y-85521426D01*
X170175000Y-85798665D01*
X170175000Y-86081335D01*
X170230147Y-86358574D01*
X170338320Y-86619727D01*
X170495363Y-86854759D01*
X170695241Y-87054637D01*
X170927759Y-87210000D01*
X170695241Y-87365363D01*
X170495363Y-87565241D01*
X170338320Y-87800273D01*
X170230147Y-88061426D01*
X170175000Y-88338665D01*
X170175000Y-88510198D01*
X165714802Y-84050000D01*
X175511928Y-84050000D01*
X175515000Y-84464250D01*
X175673750Y-84623000D01*
X176623000Y-84623000D01*
X176623000Y-83573750D01*
X176464250Y-83415000D01*
X176150000Y-83411928D01*
X176025518Y-83424188D01*
X175905820Y-83460498D01*
X175795506Y-83519463D01*
X175698815Y-83598815D01*
X175619463Y-83695506D01*
X175560498Y-83805820D01*
X175524188Y-83925518D01*
X175511928Y-84050000D01*
X165714802Y-84050000D01*
X162854791Y-81189990D01*
X175163412Y-81189990D01*
X175511928Y-81538507D01*
G37*
G04 #@! TD.AperFunction*
D18*
X149327510Y-87847688D02*
X149163270Y-88011928D01*
X148334999Y-88011928D01*
X148334999Y-86871579D01*
X149063507Y-86143072D01*
X149327510Y-86143072D01*
X149327510Y-87847688D01*
G04 #@! TA.AperFunction,Conductor*
D19*
G36*
X149327510Y-87847688D02*
G01*
X149163270Y-88011928D01*
X148334999Y-88011928D01*
X148334999Y-86871579D01*
X149063507Y-86143072D01*
X149327510Y-86143072D01*
X149327510Y-87847688D01*
G37*
G04 #@! TD.AperFunction*
D18*
X149743480Y-79709941D02*
X149336493Y-80116928D01*
X148899999Y-80116928D01*
X148726745Y-80133992D01*
X148560149Y-80184528D01*
X148406613Y-80266595D01*
X148272038Y-80377038D01*
X148161595Y-80511613D01*
X148079528Y-80665149D01*
X148028992Y-80831745D01*
X148011928Y-81004999D01*
X148011928Y-81905001D01*
X148028992Y-82078255D01*
X148079528Y-82244851D01*
X148161595Y-82398387D01*
X148272038Y-82532962D01*
X148290001Y-82547704D01*
X148290000Y-83611005D01*
X148209538Y-83677038D01*
X148099095Y-83811614D01*
X148017028Y-83965150D01*
X147966492Y-84131746D01*
X147949428Y-84305000D01*
X147949428Y-84753993D01*
X146854955Y-85848467D01*
X146821182Y-85876184D01*
X146710588Y-86010943D01*
X146685000Y-86058815D01*
X146685000Y-79685000D01*
X149763949Y-79685000D01*
X149743480Y-79709941D01*
G04 #@! TA.AperFunction,Conductor*
D19*
G36*
X149743480Y-79709941D02*
G01*
X149336493Y-80116928D01*
X148899999Y-80116928D01*
X148726745Y-80133992D01*
X148560149Y-80184528D01*
X148406613Y-80266595D01*
X148272038Y-80377038D01*
X148161595Y-80511613D01*
X148079528Y-80665149D01*
X148028992Y-80831745D01*
X148011928Y-81004999D01*
X148011928Y-81905001D01*
X148028992Y-82078255D01*
X148079528Y-82244851D01*
X148161595Y-82398387D01*
X148272038Y-82532962D01*
X148290001Y-82547704D01*
X148290000Y-83611005D01*
X148209538Y-83677038D01*
X148099095Y-83811614D01*
X148017028Y-83965150D01*
X147966492Y-84131746D01*
X147949428Y-84305000D01*
X147949428Y-84753993D01*
X146854955Y-85848467D01*
X146821182Y-85876184D01*
X146710588Y-86010943D01*
X146685000Y-86058815D01*
X146685000Y-79685000D01*
X149763949Y-79685000D01*
X149743480Y-79709941D01*
G37*
G04 #@! TD.AperFunction*
M02*
