G04 #@! TF.GenerationSoftware,KiCad,Pcbnew,(5.1.9)-1*
G04 #@! TF.CreationDate,2021-03-31T18:40:17+02:00*
G04 #@! TF.ProjectId,Schematic,53636865-6d61-4746-9963-2e6b69636164,rev?*
G04 #@! TF.SameCoordinates,Original*
G04 #@! TF.FileFunction,Copper,L2,Bot*
G04 #@! TF.FilePolarity,Positive*
%FSLAX46Y46*%
G04 Gerber Fmt 4.6, Leading zero omitted, Abs format (unit mm)*
G04 Created by KiCad (PCBNEW (5.1.9)-1) date 2021-03-31 18:40:17*
%MOMM*%
%LPD*%
G01*
G04 APERTURE LIST*
G04 #@! TA.AperFunction,ComponentPad*
%ADD10R,1.700000X1.700000*%
G04 #@! TD*
G04 #@! TA.AperFunction,ComponentPad*
%ADD11O,1.700000X1.700000*%
G04 #@! TD*
G04 #@! TA.AperFunction,ComponentPad*
%ADD12R,1.600000X1.600000*%
G04 #@! TD*
G04 #@! TA.AperFunction,ComponentPad*
%ADD13O,1.600000X1.600000*%
G04 #@! TD*
G04 #@! TA.AperFunction,ViaPad*
%ADD14C,0.800000*%
G04 #@! TD*
G04 #@! TA.AperFunction,Conductor*
%ADD15C,0.250000*%
G04 #@! TD*
G04 #@! TA.AperFunction,Conductor*
%ADD16C,0.254000*%
G04 #@! TD*
G04 #@! TA.AperFunction,Conductor*
%ADD17C,0.100000*%
G04 #@! TD*
G04 APERTURE END LIST*
D10*
X179250000Y-127500000D03*
D11*
X179250000Y-124960000D03*
X179250000Y-122420000D03*
X179250000Y-119880000D03*
X179250000Y-117340000D03*
X179250000Y-114800000D03*
X179250000Y-112260000D03*
X179250000Y-109720000D03*
X179250000Y-107180000D03*
X179250000Y-104640000D03*
X179250000Y-102100000D03*
X179250000Y-99560000D03*
X179250000Y-97020000D03*
X179250000Y-94480000D03*
X179250000Y-91940000D03*
X179250000Y-89400000D03*
D10*
X148750000Y-89500000D03*
D11*
X148750000Y-92040000D03*
X148750000Y-94580000D03*
X148750000Y-97120000D03*
X148750000Y-99660000D03*
X148750000Y-102200000D03*
X148750000Y-104740000D03*
X148750000Y-107280000D03*
X148750000Y-109820000D03*
X148750000Y-112360000D03*
X148750000Y-114900000D03*
X148750000Y-117440000D03*
X148750000Y-119980000D03*
X148750000Y-122520000D03*
X148750000Y-125060000D03*
X148750000Y-127600000D03*
D12*
X171610000Y-121500000D03*
D13*
X156370000Y-88480000D03*
X171610000Y-118960000D03*
X156370000Y-91020000D03*
X171610000Y-116420000D03*
X156370000Y-93560000D03*
X171610000Y-113880000D03*
X156370000Y-96100000D03*
X171610000Y-111340000D03*
X156370000Y-98640000D03*
X171610000Y-108800000D03*
X156370000Y-101180000D03*
X171610000Y-106260000D03*
X156370000Y-103720000D03*
X171610000Y-103720000D03*
X156370000Y-106260000D03*
X171610000Y-101180000D03*
X156370000Y-108800000D03*
X171610000Y-98640000D03*
X156370000Y-111340000D03*
X171610000Y-96100000D03*
X156370000Y-113880000D03*
X171610000Y-93560000D03*
X156370000Y-116420000D03*
X171610000Y-91020000D03*
X156370000Y-118960000D03*
X171610000Y-88480000D03*
X156370000Y-121500000D03*
X171610000Y-85940000D03*
X156370000Y-85940000D03*
D14*
X174500000Y-83000000D03*
X147500000Y-83000000D03*
X149000000Y-87000000D03*
X180500000Y-83000000D03*
X175000000Y-87000000D03*
X159500000Y-95500000D03*
X159500000Y-109000000D03*
X168500000Y-95500000D03*
X168500000Y-109000000D03*
D15*
X171610000Y-88480000D02*
X175000000Y-91870000D01*
X175000000Y-118170000D02*
X179250000Y-122420000D01*
X175000000Y-91870000D02*
X175000000Y-118170000D01*
D16*
X181315001Y-131315000D02*
X146685000Y-131315000D01*
X146685000Y-112213740D01*
X147265000Y-112213740D01*
X147265000Y-112506260D01*
X147322068Y-112793158D01*
X147434010Y-113063411D01*
X147596525Y-113306632D01*
X147803368Y-113513475D01*
X147977760Y-113630000D01*
X147803368Y-113746525D01*
X147596525Y-113953368D01*
X147434010Y-114196589D01*
X147322068Y-114466842D01*
X147265000Y-114753740D01*
X147265000Y-115046260D01*
X147322068Y-115333158D01*
X147434010Y-115603411D01*
X147596525Y-115846632D01*
X147803368Y-116053475D01*
X147977760Y-116170000D01*
X147803368Y-116286525D01*
X147596525Y-116493368D01*
X147434010Y-116736589D01*
X147322068Y-117006842D01*
X147265000Y-117293740D01*
X147265000Y-117586260D01*
X147322068Y-117873158D01*
X147434010Y-118143411D01*
X147596525Y-118386632D01*
X147803368Y-118593475D01*
X147977760Y-118710000D01*
X147803368Y-118826525D01*
X147596525Y-119033368D01*
X147434010Y-119276589D01*
X147322068Y-119546842D01*
X147265000Y-119833740D01*
X147265000Y-120126260D01*
X147322068Y-120413158D01*
X147434010Y-120683411D01*
X147596525Y-120926632D01*
X147803368Y-121133475D01*
X147977760Y-121250000D01*
X147803368Y-121366525D01*
X147596525Y-121573368D01*
X147434010Y-121816589D01*
X147322068Y-122086842D01*
X147265000Y-122373740D01*
X147265000Y-122666260D01*
X147322068Y-122953158D01*
X147434010Y-123223411D01*
X147596525Y-123466632D01*
X147803368Y-123673475D01*
X147977760Y-123790000D01*
X147803368Y-123906525D01*
X147596525Y-124113368D01*
X147434010Y-124356589D01*
X147322068Y-124626842D01*
X147265000Y-124913740D01*
X147265000Y-125206260D01*
X147322068Y-125493158D01*
X147434010Y-125763411D01*
X147596525Y-126006632D01*
X147803368Y-126213475D01*
X147977760Y-126330000D01*
X147803368Y-126446525D01*
X147596525Y-126653368D01*
X147434010Y-126896589D01*
X147322068Y-127166842D01*
X147265000Y-127453740D01*
X147265000Y-127746260D01*
X147322068Y-128033158D01*
X147434010Y-128303411D01*
X147596525Y-128546632D01*
X147803368Y-128753475D01*
X148046589Y-128915990D01*
X148316842Y-129027932D01*
X148603740Y-129085000D01*
X148896260Y-129085000D01*
X149183158Y-129027932D01*
X149453411Y-128915990D01*
X149696632Y-128753475D01*
X149903475Y-128546632D01*
X150065990Y-128303411D01*
X150177932Y-128033158D01*
X150235000Y-127746260D01*
X150235000Y-127453740D01*
X150177932Y-127166842D01*
X150065990Y-126896589D01*
X149903475Y-126653368D01*
X149696632Y-126446525D01*
X149522240Y-126330000D01*
X149696632Y-126213475D01*
X149903475Y-126006632D01*
X150065990Y-125763411D01*
X150177932Y-125493158D01*
X150235000Y-125206260D01*
X150235000Y-124913740D01*
X150177932Y-124626842D01*
X150065990Y-124356589D01*
X149903475Y-124113368D01*
X149696632Y-123906525D01*
X149522240Y-123790000D01*
X149696632Y-123673475D01*
X149903475Y-123466632D01*
X150065990Y-123223411D01*
X150177932Y-122953158D01*
X150235000Y-122666260D01*
X150235000Y-122373740D01*
X150177932Y-122086842D01*
X150065990Y-121816589D01*
X149903475Y-121573368D01*
X149696632Y-121366525D01*
X149684869Y-121358665D01*
X154935000Y-121358665D01*
X154935000Y-121641335D01*
X154990147Y-121918574D01*
X155098320Y-122179727D01*
X155255363Y-122414759D01*
X155455241Y-122614637D01*
X155690273Y-122771680D01*
X155951426Y-122879853D01*
X156228665Y-122935000D01*
X156511335Y-122935000D01*
X156788574Y-122879853D01*
X157049727Y-122771680D01*
X157284759Y-122614637D01*
X157484637Y-122414759D01*
X157641680Y-122179727D01*
X157749853Y-121918574D01*
X157805000Y-121641335D01*
X157805000Y-121358665D01*
X157749853Y-121081426D01*
X157641680Y-120820273D01*
X157561317Y-120700000D01*
X170171928Y-120700000D01*
X170171928Y-122300000D01*
X170184188Y-122424482D01*
X170220498Y-122544180D01*
X170279463Y-122654494D01*
X170358815Y-122751185D01*
X170455506Y-122830537D01*
X170565820Y-122889502D01*
X170685518Y-122925812D01*
X170810000Y-122938072D01*
X172410000Y-122938072D01*
X172534482Y-122925812D01*
X172654180Y-122889502D01*
X172764494Y-122830537D01*
X172861185Y-122751185D01*
X172940537Y-122654494D01*
X172999502Y-122544180D01*
X173035812Y-122424482D01*
X173048072Y-122300000D01*
X173048072Y-120700000D01*
X173035812Y-120575518D01*
X172999502Y-120455820D01*
X172940537Y-120345506D01*
X172861185Y-120248815D01*
X172764494Y-120169463D01*
X172654180Y-120110498D01*
X172534482Y-120074188D01*
X172526039Y-120073357D01*
X172724637Y-119874759D01*
X172881680Y-119639727D01*
X172989853Y-119378574D01*
X173045000Y-119101335D01*
X173045000Y-118818665D01*
X172989853Y-118541426D01*
X172881680Y-118280273D01*
X172724637Y-118045241D01*
X172524759Y-117845363D01*
X172292241Y-117690000D01*
X172524759Y-117534637D01*
X172724637Y-117334759D01*
X172881680Y-117099727D01*
X172989853Y-116838574D01*
X173045000Y-116561335D01*
X173045000Y-116278665D01*
X172989853Y-116001426D01*
X172881680Y-115740273D01*
X172724637Y-115505241D01*
X172524759Y-115305363D01*
X172289727Y-115148320D01*
X172279135Y-115143933D01*
X172465131Y-115032385D01*
X172673519Y-114843414D01*
X172841037Y-114617420D01*
X172961246Y-114363087D01*
X173001904Y-114229039D01*
X172879915Y-114007000D01*
X171737000Y-114007000D01*
X171737000Y-114027000D01*
X171483000Y-114027000D01*
X171483000Y-114007000D01*
X170340085Y-114007000D01*
X170218096Y-114229039D01*
X170258754Y-114363087D01*
X170378963Y-114617420D01*
X170546481Y-114843414D01*
X170754869Y-115032385D01*
X170940865Y-115143933D01*
X170930273Y-115148320D01*
X170695241Y-115305363D01*
X170495363Y-115505241D01*
X170338320Y-115740273D01*
X170230147Y-116001426D01*
X170175000Y-116278665D01*
X170175000Y-116561335D01*
X170230147Y-116838574D01*
X170338320Y-117099727D01*
X170495363Y-117334759D01*
X170695241Y-117534637D01*
X170927759Y-117690000D01*
X170695241Y-117845363D01*
X170495363Y-118045241D01*
X170338320Y-118280273D01*
X170230147Y-118541426D01*
X170175000Y-118818665D01*
X170175000Y-119101335D01*
X170230147Y-119378574D01*
X170338320Y-119639727D01*
X170495363Y-119874759D01*
X170693961Y-120073357D01*
X170685518Y-120074188D01*
X170565820Y-120110498D01*
X170455506Y-120169463D01*
X170358815Y-120248815D01*
X170279463Y-120345506D01*
X170220498Y-120455820D01*
X170184188Y-120575518D01*
X170171928Y-120700000D01*
X157561317Y-120700000D01*
X157484637Y-120585241D01*
X157284759Y-120385363D01*
X157049727Y-120228320D01*
X157039135Y-120223933D01*
X157225131Y-120112385D01*
X157433519Y-119923414D01*
X157601037Y-119697420D01*
X157721246Y-119443087D01*
X157761904Y-119309039D01*
X157639915Y-119087000D01*
X156497000Y-119087000D01*
X156497000Y-119107000D01*
X156243000Y-119107000D01*
X156243000Y-119087000D01*
X155100085Y-119087000D01*
X154978096Y-119309039D01*
X155018754Y-119443087D01*
X155138963Y-119697420D01*
X155306481Y-119923414D01*
X155514869Y-120112385D01*
X155700865Y-120223933D01*
X155690273Y-120228320D01*
X155455241Y-120385363D01*
X155255363Y-120585241D01*
X155098320Y-120820273D01*
X154990147Y-121081426D01*
X154935000Y-121358665D01*
X149684869Y-121358665D01*
X149522240Y-121250000D01*
X149696632Y-121133475D01*
X149903475Y-120926632D01*
X150065990Y-120683411D01*
X150177932Y-120413158D01*
X150235000Y-120126260D01*
X150235000Y-119833740D01*
X150177932Y-119546842D01*
X150065990Y-119276589D01*
X149903475Y-119033368D01*
X149696632Y-118826525D01*
X149522240Y-118710000D01*
X149696632Y-118593475D01*
X149903475Y-118386632D01*
X150065990Y-118143411D01*
X150177932Y-117873158D01*
X150235000Y-117586260D01*
X150235000Y-117293740D01*
X150177932Y-117006842D01*
X150065990Y-116736589D01*
X149903475Y-116493368D01*
X149696632Y-116286525D01*
X149522240Y-116170000D01*
X149696632Y-116053475D01*
X149903475Y-115846632D01*
X150065990Y-115603411D01*
X150177932Y-115333158D01*
X150235000Y-115046260D01*
X150235000Y-114753740D01*
X150177932Y-114466842D01*
X150065990Y-114196589D01*
X149903475Y-113953368D01*
X149696632Y-113746525D01*
X149522240Y-113630000D01*
X149696632Y-113513475D01*
X149903475Y-113306632D01*
X150065990Y-113063411D01*
X150177932Y-112793158D01*
X150235000Y-112506260D01*
X150235000Y-112213740D01*
X150177932Y-111926842D01*
X150065990Y-111656589D01*
X149903475Y-111413368D01*
X149696632Y-111206525D01*
X149514466Y-111084805D01*
X149631355Y-111015178D01*
X149847588Y-110820269D01*
X150021641Y-110586920D01*
X150146825Y-110324099D01*
X150191476Y-110176890D01*
X150070155Y-109947000D01*
X148877000Y-109947000D01*
X148877000Y-109967000D01*
X148623000Y-109967000D01*
X148623000Y-109947000D01*
X147429845Y-109947000D01*
X147308524Y-110176890D01*
X147353175Y-110324099D01*
X147478359Y-110586920D01*
X147652412Y-110820269D01*
X147868645Y-111015178D01*
X147985534Y-111084805D01*
X147803368Y-111206525D01*
X147596525Y-111413368D01*
X147434010Y-111656589D01*
X147322068Y-111926842D01*
X147265000Y-112213740D01*
X146685000Y-112213740D01*
X146685000Y-107133740D01*
X147265000Y-107133740D01*
X147265000Y-107426260D01*
X147322068Y-107713158D01*
X147434010Y-107983411D01*
X147596525Y-108226632D01*
X147803368Y-108433475D01*
X147985534Y-108555195D01*
X147868645Y-108624822D01*
X147652412Y-108819731D01*
X147478359Y-109053080D01*
X147353175Y-109315901D01*
X147308524Y-109463110D01*
X147429845Y-109693000D01*
X148623000Y-109693000D01*
X148623000Y-109673000D01*
X148877000Y-109673000D01*
X148877000Y-109693000D01*
X150070155Y-109693000D01*
X150191476Y-109463110D01*
X150146825Y-109315901D01*
X150021641Y-109053080D01*
X149847588Y-108819731D01*
X149631355Y-108624822D01*
X149514466Y-108555195D01*
X149696632Y-108433475D01*
X149903475Y-108226632D01*
X150065990Y-107983411D01*
X150177932Y-107713158D01*
X150235000Y-107426260D01*
X150235000Y-107133740D01*
X150177932Y-106846842D01*
X150065990Y-106576589D01*
X149903475Y-106333368D01*
X149696632Y-106126525D01*
X149514466Y-106004805D01*
X149631355Y-105935178D01*
X149847588Y-105740269D01*
X150021641Y-105506920D01*
X150146825Y-105244099D01*
X150191476Y-105096890D01*
X150070155Y-104867000D01*
X148877000Y-104867000D01*
X148877000Y-104887000D01*
X148623000Y-104887000D01*
X148623000Y-104867000D01*
X147429845Y-104867000D01*
X147308524Y-105096890D01*
X147353175Y-105244099D01*
X147478359Y-105506920D01*
X147652412Y-105740269D01*
X147868645Y-105935178D01*
X147985534Y-106004805D01*
X147803368Y-106126525D01*
X147596525Y-106333368D01*
X147434010Y-106576589D01*
X147322068Y-106846842D01*
X147265000Y-107133740D01*
X146685000Y-107133740D01*
X146685000Y-88650000D01*
X147261928Y-88650000D01*
X147261928Y-90350000D01*
X147274188Y-90474482D01*
X147310498Y-90594180D01*
X147369463Y-90704494D01*
X147448815Y-90801185D01*
X147545506Y-90880537D01*
X147655820Y-90939502D01*
X147728380Y-90961513D01*
X147596525Y-91093368D01*
X147434010Y-91336589D01*
X147322068Y-91606842D01*
X147265000Y-91893740D01*
X147265000Y-92186260D01*
X147322068Y-92473158D01*
X147434010Y-92743411D01*
X147596525Y-92986632D01*
X147803368Y-93193475D01*
X147977760Y-93310000D01*
X147803368Y-93426525D01*
X147596525Y-93633368D01*
X147434010Y-93876589D01*
X147322068Y-94146842D01*
X147265000Y-94433740D01*
X147265000Y-94726260D01*
X147322068Y-95013158D01*
X147434010Y-95283411D01*
X147596525Y-95526632D01*
X147803368Y-95733475D01*
X147977760Y-95850000D01*
X147803368Y-95966525D01*
X147596525Y-96173368D01*
X147434010Y-96416589D01*
X147322068Y-96686842D01*
X147265000Y-96973740D01*
X147265000Y-97266260D01*
X147322068Y-97553158D01*
X147434010Y-97823411D01*
X147596525Y-98066632D01*
X147803368Y-98273475D01*
X147977760Y-98390000D01*
X147803368Y-98506525D01*
X147596525Y-98713368D01*
X147434010Y-98956589D01*
X147322068Y-99226842D01*
X147265000Y-99513740D01*
X147265000Y-99806260D01*
X147322068Y-100093158D01*
X147434010Y-100363411D01*
X147596525Y-100606632D01*
X147803368Y-100813475D01*
X147977760Y-100930000D01*
X147803368Y-101046525D01*
X147596525Y-101253368D01*
X147434010Y-101496589D01*
X147322068Y-101766842D01*
X147265000Y-102053740D01*
X147265000Y-102346260D01*
X147322068Y-102633158D01*
X147434010Y-102903411D01*
X147596525Y-103146632D01*
X147803368Y-103353475D01*
X147985534Y-103475195D01*
X147868645Y-103544822D01*
X147652412Y-103739731D01*
X147478359Y-103973080D01*
X147353175Y-104235901D01*
X147308524Y-104383110D01*
X147429845Y-104613000D01*
X148623000Y-104613000D01*
X148623000Y-104593000D01*
X148877000Y-104593000D01*
X148877000Y-104613000D01*
X150070155Y-104613000D01*
X150191476Y-104383110D01*
X150146825Y-104235901D01*
X150021641Y-103973080D01*
X149847588Y-103739731D01*
X149631355Y-103544822D01*
X149514466Y-103475195D01*
X149696632Y-103353475D01*
X149903475Y-103146632D01*
X150065990Y-102903411D01*
X150177932Y-102633158D01*
X150235000Y-102346260D01*
X150235000Y-102053740D01*
X150177932Y-101766842D01*
X150065990Y-101496589D01*
X149903475Y-101253368D01*
X149696632Y-101046525D01*
X149522240Y-100930000D01*
X149696632Y-100813475D01*
X149903475Y-100606632D01*
X150065990Y-100363411D01*
X150177932Y-100093158D01*
X150235000Y-99806260D01*
X150235000Y-99513740D01*
X150177932Y-99226842D01*
X150065990Y-98956589D01*
X149903475Y-98713368D01*
X149696632Y-98506525D01*
X149522240Y-98390000D01*
X149696632Y-98273475D01*
X149903475Y-98066632D01*
X150065990Y-97823411D01*
X150177932Y-97553158D01*
X150235000Y-97266260D01*
X150235000Y-96973740D01*
X150177932Y-96686842D01*
X150065990Y-96416589D01*
X149903475Y-96173368D01*
X149696632Y-95966525D01*
X149522240Y-95850000D01*
X149696632Y-95733475D01*
X149903475Y-95526632D01*
X150065990Y-95283411D01*
X150177932Y-95013158D01*
X150235000Y-94726260D01*
X150235000Y-94433740D01*
X150177932Y-94146842D01*
X150065990Y-93876589D01*
X149903475Y-93633368D01*
X149696632Y-93426525D01*
X149522240Y-93310000D01*
X149696632Y-93193475D01*
X149903475Y-92986632D01*
X150065990Y-92743411D01*
X150177932Y-92473158D01*
X150235000Y-92186260D01*
X150235000Y-91893740D01*
X150177932Y-91606842D01*
X150065990Y-91336589D01*
X149903475Y-91093368D01*
X149771620Y-90961513D01*
X149844180Y-90939502D01*
X149954494Y-90880537D01*
X150051185Y-90801185D01*
X150130537Y-90704494D01*
X150189502Y-90594180D01*
X150225812Y-90474482D01*
X150238072Y-90350000D01*
X150238072Y-88650000D01*
X150225812Y-88525518D01*
X150189502Y-88405820D01*
X150130537Y-88295506D01*
X150051185Y-88198815D01*
X149954494Y-88119463D01*
X149844180Y-88060498D01*
X149724482Y-88024188D01*
X149600000Y-88011928D01*
X147900000Y-88011928D01*
X147775518Y-88024188D01*
X147655820Y-88060498D01*
X147545506Y-88119463D01*
X147448815Y-88198815D01*
X147369463Y-88295506D01*
X147310498Y-88405820D01*
X147274188Y-88525518D01*
X147261928Y-88650000D01*
X146685000Y-88650000D01*
X146685000Y-85798665D01*
X154935000Y-85798665D01*
X154935000Y-86081335D01*
X154990147Y-86358574D01*
X155098320Y-86619727D01*
X155255363Y-86854759D01*
X155455241Y-87054637D01*
X155687759Y-87210000D01*
X155455241Y-87365363D01*
X155255363Y-87565241D01*
X155098320Y-87800273D01*
X154990147Y-88061426D01*
X154935000Y-88338665D01*
X154935000Y-88621335D01*
X154990147Y-88898574D01*
X155098320Y-89159727D01*
X155255363Y-89394759D01*
X155455241Y-89594637D01*
X155687759Y-89750000D01*
X155455241Y-89905363D01*
X155255363Y-90105241D01*
X155098320Y-90340273D01*
X154990147Y-90601426D01*
X154935000Y-90878665D01*
X154935000Y-91161335D01*
X154990147Y-91438574D01*
X155098320Y-91699727D01*
X155255363Y-91934759D01*
X155455241Y-92134637D01*
X155687759Y-92290000D01*
X155455241Y-92445363D01*
X155255363Y-92645241D01*
X155098320Y-92880273D01*
X154990147Y-93141426D01*
X154935000Y-93418665D01*
X154935000Y-93701335D01*
X154990147Y-93978574D01*
X155098320Y-94239727D01*
X155255363Y-94474759D01*
X155455241Y-94674637D01*
X155687759Y-94830000D01*
X155455241Y-94985363D01*
X155255363Y-95185241D01*
X155098320Y-95420273D01*
X154990147Y-95681426D01*
X154935000Y-95958665D01*
X154935000Y-96241335D01*
X154990147Y-96518574D01*
X155098320Y-96779727D01*
X155255363Y-97014759D01*
X155455241Y-97214637D01*
X155687759Y-97370000D01*
X155455241Y-97525363D01*
X155255363Y-97725241D01*
X155098320Y-97960273D01*
X154990147Y-98221426D01*
X154935000Y-98498665D01*
X154935000Y-98781335D01*
X154990147Y-99058574D01*
X155098320Y-99319727D01*
X155255363Y-99554759D01*
X155455241Y-99754637D01*
X155687759Y-99910000D01*
X155455241Y-100065363D01*
X155255363Y-100265241D01*
X155098320Y-100500273D01*
X154990147Y-100761426D01*
X154935000Y-101038665D01*
X154935000Y-101321335D01*
X154990147Y-101598574D01*
X155098320Y-101859727D01*
X155255363Y-102094759D01*
X155455241Y-102294637D01*
X155687759Y-102450000D01*
X155455241Y-102605363D01*
X155255363Y-102805241D01*
X155098320Y-103040273D01*
X154990147Y-103301426D01*
X154935000Y-103578665D01*
X154935000Y-103861335D01*
X154990147Y-104138574D01*
X155098320Y-104399727D01*
X155255363Y-104634759D01*
X155455241Y-104834637D01*
X155687759Y-104990000D01*
X155455241Y-105145363D01*
X155255363Y-105345241D01*
X155098320Y-105580273D01*
X154990147Y-105841426D01*
X154935000Y-106118665D01*
X154935000Y-106401335D01*
X154990147Y-106678574D01*
X155098320Y-106939727D01*
X155255363Y-107174759D01*
X155455241Y-107374637D01*
X155687759Y-107530000D01*
X155455241Y-107685363D01*
X155255363Y-107885241D01*
X155098320Y-108120273D01*
X154990147Y-108381426D01*
X154935000Y-108658665D01*
X154935000Y-108941335D01*
X154990147Y-109218574D01*
X155098320Y-109479727D01*
X155255363Y-109714759D01*
X155455241Y-109914637D01*
X155687759Y-110070000D01*
X155455241Y-110225363D01*
X155255363Y-110425241D01*
X155098320Y-110660273D01*
X154990147Y-110921426D01*
X154935000Y-111198665D01*
X154935000Y-111481335D01*
X154990147Y-111758574D01*
X155098320Y-112019727D01*
X155255363Y-112254759D01*
X155455241Y-112454637D01*
X155687759Y-112610000D01*
X155455241Y-112765363D01*
X155255363Y-112965241D01*
X155098320Y-113200273D01*
X154990147Y-113461426D01*
X154935000Y-113738665D01*
X154935000Y-114021335D01*
X154990147Y-114298574D01*
X155098320Y-114559727D01*
X155255363Y-114794759D01*
X155455241Y-114994637D01*
X155687759Y-115150000D01*
X155455241Y-115305363D01*
X155255363Y-115505241D01*
X155098320Y-115740273D01*
X154990147Y-116001426D01*
X154935000Y-116278665D01*
X154935000Y-116561335D01*
X154990147Y-116838574D01*
X155098320Y-117099727D01*
X155255363Y-117334759D01*
X155455241Y-117534637D01*
X155690273Y-117691680D01*
X155700865Y-117696067D01*
X155514869Y-117807615D01*
X155306481Y-117996586D01*
X155138963Y-118222580D01*
X155018754Y-118476913D01*
X154978096Y-118610961D01*
X155100085Y-118833000D01*
X156243000Y-118833000D01*
X156243000Y-118813000D01*
X156497000Y-118813000D01*
X156497000Y-118833000D01*
X157639915Y-118833000D01*
X157761904Y-118610961D01*
X157721246Y-118476913D01*
X157601037Y-118222580D01*
X157433519Y-117996586D01*
X157225131Y-117807615D01*
X157039135Y-117696067D01*
X157049727Y-117691680D01*
X157284759Y-117534637D01*
X157484637Y-117334759D01*
X157641680Y-117099727D01*
X157749853Y-116838574D01*
X157805000Y-116561335D01*
X157805000Y-116278665D01*
X157749853Y-116001426D01*
X157641680Y-115740273D01*
X157484637Y-115505241D01*
X157284759Y-115305363D01*
X157052241Y-115150000D01*
X157284759Y-114994637D01*
X157484637Y-114794759D01*
X157641680Y-114559727D01*
X157749853Y-114298574D01*
X157805000Y-114021335D01*
X157805000Y-113738665D01*
X157749853Y-113461426D01*
X157641680Y-113200273D01*
X157484637Y-112965241D01*
X157284759Y-112765363D01*
X157052241Y-112610000D01*
X157284759Y-112454637D01*
X157484637Y-112254759D01*
X157641680Y-112019727D01*
X157749853Y-111758574D01*
X157805000Y-111481335D01*
X157805000Y-111198665D01*
X157749853Y-110921426D01*
X157641680Y-110660273D01*
X157484637Y-110425241D01*
X157284759Y-110225363D01*
X157052241Y-110070000D01*
X157284759Y-109914637D01*
X157484637Y-109714759D01*
X157641680Y-109479727D01*
X157749853Y-109218574D01*
X157805000Y-108941335D01*
X157805000Y-108658665D01*
X157749853Y-108381426D01*
X157641680Y-108120273D01*
X157484637Y-107885241D01*
X157284759Y-107685363D01*
X157052241Y-107530000D01*
X157284759Y-107374637D01*
X157484637Y-107174759D01*
X157641680Y-106939727D01*
X157749853Y-106678574D01*
X157805000Y-106401335D01*
X157805000Y-106118665D01*
X157749853Y-105841426D01*
X157641680Y-105580273D01*
X157484637Y-105345241D01*
X157284759Y-105145363D01*
X157052241Y-104990000D01*
X157284759Y-104834637D01*
X157484637Y-104634759D01*
X157641680Y-104399727D01*
X157749853Y-104138574D01*
X157805000Y-103861335D01*
X157805000Y-103578665D01*
X157749853Y-103301426D01*
X157641680Y-103040273D01*
X157484637Y-102805241D01*
X157284759Y-102605363D01*
X157052241Y-102450000D01*
X157284759Y-102294637D01*
X157484637Y-102094759D01*
X157641680Y-101859727D01*
X157749853Y-101598574D01*
X157805000Y-101321335D01*
X157805000Y-101038665D01*
X157749853Y-100761426D01*
X157641680Y-100500273D01*
X157484637Y-100265241D01*
X157284759Y-100065363D01*
X157052241Y-99910000D01*
X157284759Y-99754637D01*
X157484637Y-99554759D01*
X157641680Y-99319727D01*
X157749853Y-99058574D01*
X157805000Y-98781335D01*
X157805000Y-98498665D01*
X157749853Y-98221426D01*
X157641680Y-97960273D01*
X157484637Y-97725241D01*
X157284759Y-97525363D01*
X157052241Y-97370000D01*
X157284759Y-97214637D01*
X157484637Y-97014759D01*
X157641680Y-96779727D01*
X157749853Y-96518574D01*
X157805000Y-96241335D01*
X157805000Y-95958665D01*
X157749853Y-95681426D01*
X157641680Y-95420273D01*
X157484637Y-95185241D01*
X157284759Y-94985363D01*
X157052241Y-94830000D01*
X157284759Y-94674637D01*
X157484637Y-94474759D01*
X157641680Y-94239727D01*
X157749853Y-93978574D01*
X157805000Y-93701335D01*
X157805000Y-93418665D01*
X157749853Y-93141426D01*
X157641680Y-92880273D01*
X157484637Y-92645241D01*
X157284759Y-92445363D01*
X157052241Y-92290000D01*
X157284759Y-92134637D01*
X157484637Y-91934759D01*
X157641680Y-91699727D01*
X157749853Y-91438574D01*
X157805000Y-91161335D01*
X157805000Y-90878665D01*
X157749853Y-90601426D01*
X157641680Y-90340273D01*
X157484637Y-90105241D01*
X157284759Y-89905363D01*
X157052241Y-89750000D01*
X157284759Y-89594637D01*
X157484637Y-89394759D01*
X157641680Y-89159727D01*
X157749853Y-88898574D01*
X157805000Y-88621335D01*
X157805000Y-88338665D01*
X157749853Y-88061426D01*
X157641680Y-87800273D01*
X157484637Y-87565241D01*
X157284759Y-87365363D01*
X157052241Y-87210000D01*
X157284759Y-87054637D01*
X157484637Y-86854759D01*
X157641680Y-86619727D01*
X157749853Y-86358574D01*
X157805000Y-86081335D01*
X157805000Y-85798665D01*
X170175000Y-85798665D01*
X170175000Y-86081335D01*
X170230147Y-86358574D01*
X170338320Y-86619727D01*
X170495363Y-86854759D01*
X170695241Y-87054637D01*
X170927759Y-87210000D01*
X170695241Y-87365363D01*
X170495363Y-87565241D01*
X170338320Y-87800273D01*
X170230147Y-88061426D01*
X170175000Y-88338665D01*
X170175000Y-88621335D01*
X170230147Y-88898574D01*
X170338320Y-89159727D01*
X170495363Y-89394759D01*
X170695241Y-89594637D01*
X170927759Y-89750000D01*
X170695241Y-89905363D01*
X170495363Y-90105241D01*
X170338320Y-90340273D01*
X170230147Y-90601426D01*
X170175000Y-90878665D01*
X170175000Y-91161335D01*
X170230147Y-91438574D01*
X170338320Y-91699727D01*
X170495363Y-91934759D01*
X170695241Y-92134637D01*
X170927759Y-92290000D01*
X170695241Y-92445363D01*
X170495363Y-92645241D01*
X170338320Y-92880273D01*
X170230147Y-93141426D01*
X170175000Y-93418665D01*
X170175000Y-93701335D01*
X170230147Y-93978574D01*
X170338320Y-94239727D01*
X170495363Y-94474759D01*
X170695241Y-94674637D01*
X170927759Y-94830000D01*
X170695241Y-94985363D01*
X170495363Y-95185241D01*
X170338320Y-95420273D01*
X170230147Y-95681426D01*
X170175000Y-95958665D01*
X170175000Y-96241335D01*
X170230147Y-96518574D01*
X170338320Y-96779727D01*
X170495363Y-97014759D01*
X170695241Y-97214637D01*
X170927759Y-97370000D01*
X170695241Y-97525363D01*
X170495363Y-97725241D01*
X170338320Y-97960273D01*
X170230147Y-98221426D01*
X170175000Y-98498665D01*
X170175000Y-98781335D01*
X170230147Y-99058574D01*
X170338320Y-99319727D01*
X170495363Y-99554759D01*
X170695241Y-99754637D01*
X170927759Y-99910000D01*
X170695241Y-100065363D01*
X170495363Y-100265241D01*
X170338320Y-100500273D01*
X170230147Y-100761426D01*
X170175000Y-101038665D01*
X170175000Y-101321335D01*
X170230147Y-101598574D01*
X170338320Y-101859727D01*
X170495363Y-102094759D01*
X170695241Y-102294637D01*
X170927759Y-102450000D01*
X170695241Y-102605363D01*
X170495363Y-102805241D01*
X170338320Y-103040273D01*
X170230147Y-103301426D01*
X170175000Y-103578665D01*
X170175000Y-103861335D01*
X170230147Y-104138574D01*
X170338320Y-104399727D01*
X170495363Y-104634759D01*
X170695241Y-104834637D01*
X170927759Y-104990000D01*
X170695241Y-105145363D01*
X170495363Y-105345241D01*
X170338320Y-105580273D01*
X170230147Y-105841426D01*
X170175000Y-106118665D01*
X170175000Y-106401335D01*
X170230147Y-106678574D01*
X170338320Y-106939727D01*
X170495363Y-107174759D01*
X170695241Y-107374637D01*
X170927759Y-107530000D01*
X170695241Y-107685363D01*
X170495363Y-107885241D01*
X170338320Y-108120273D01*
X170230147Y-108381426D01*
X170175000Y-108658665D01*
X170175000Y-108941335D01*
X170230147Y-109218574D01*
X170338320Y-109479727D01*
X170495363Y-109714759D01*
X170695241Y-109914637D01*
X170927759Y-110070000D01*
X170695241Y-110225363D01*
X170495363Y-110425241D01*
X170338320Y-110660273D01*
X170230147Y-110921426D01*
X170175000Y-111198665D01*
X170175000Y-111481335D01*
X170230147Y-111758574D01*
X170338320Y-112019727D01*
X170495363Y-112254759D01*
X170695241Y-112454637D01*
X170930273Y-112611680D01*
X170940865Y-112616067D01*
X170754869Y-112727615D01*
X170546481Y-112916586D01*
X170378963Y-113142580D01*
X170258754Y-113396913D01*
X170218096Y-113530961D01*
X170340085Y-113753000D01*
X171483000Y-113753000D01*
X171483000Y-113733000D01*
X171737000Y-113733000D01*
X171737000Y-113753000D01*
X172879915Y-113753000D01*
X173001904Y-113530961D01*
X172961246Y-113396913D01*
X172841037Y-113142580D01*
X172673519Y-112916586D01*
X172465131Y-112727615D01*
X172279135Y-112616067D01*
X172289727Y-112611680D01*
X172524759Y-112454637D01*
X172724637Y-112254759D01*
X172881680Y-112019727D01*
X172989853Y-111758574D01*
X173045000Y-111481335D01*
X173045000Y-111198665D01*
X172989853Y-110921426D01*
X172881680Y-110660273D01*
X172724637Y-110425241D01*
X172524759Y-110225363D01*
X172292241Y-110070000D01*
X172524759Y-109914637D01*
X172724637Y-109714759D01*
X172881680Y-109479727D01*
X172989853Y-109218574D01*
X173045000Y-108941335D01*
X173045000Y-108658665D01*
X172989853Y-108381426D01*
X172881680Y-108120273D01*
X172724637Y-107885241D01*
X172524759Y-107685363D01*
X172292241Y-107530000D01*
X172524759Y-107374637D01*
X172724637Y-107174759D01*
X172881680Y-106939727D01*
X172989853Y-106678574D01*
X173045000Y-106401335D01*
X173045000Y-106118665D01*
X172989853Y-105841426D01*
X172881680Y-105580273D01*
X172724637Y-105345241D01*
X172524759Y-105145363D01*
X172292241Y-104990000D01*
X172524759Y-104834637D01*
X172724637Y-104634759D01*
X172881680Y-104399727D01*
X172989853Y-104138574D01*
X173045000Y-103861335D01*
X173045000Y-103578665D01*
X172989853Y-103301426D01*
X172881680Y-103040273D01*
X172724637Y-102805241D01*
X172524759Y-102605363D01*
X172292241Y-102450000D01*
X172524759Y-102294637D01*
X172724637Y-102094759D01*
X172881680Y-101859727D01*
X172989853Y-101598574D01*
X173045000Y-101321335D01*
X173045000Y-101038665D01*
X172989853Y-100761426D01*
X172881680Y-100500273D01*
X172724637Y-100265241D01*
X172524759Y-100065363D01*
X172292241Y-99910000D01*
X172524759Y-99754637D01*
X172724637Y-99554759D01*
X172881680Y-99319727D01*
X172989853Y-99058574D01*
X173045000Y-98781335D01*
X173045000Y-98498665D01*
X172989853Y-98221426D01*
X172881680Y-97960273D01*
X172724637Y-97725241D01*
X172524759Y-97525363D01*
X172292241Y-97370000D01*
X172524759Y-97214637D01*
X172724637Y-97014759D01*
X172881680Y-96779727D01*
X172989853Y-96518574D01*
X173045000Y-96241335D01*
X173045000Y-95958665D01*
X172989853Y-95681426D01*
X172881680Y-95420273D01*
X172724637Y-95185241D01*
X172524759Y-94985363D01*
X172292241Y-94830000D01*
X172524759Y-94674637D01*
X172724637Y-94474759D01*
X172881680Y-94239727D01*
X172989853Y-93978574D01*
X173045000Y-93701335D01*
X173045000Y-93418665D01*
X172989853Y-93141426D01*
X172881680Y-92880273D01*
X172724637Y-92645241D01*
X172524759Y-92445363D01*
X172292241Y-92290000D01*
X172524759Y-92134637D01*
X172724637Y-91934759D01*
X172881680Y-91699727D01*
X172989853Y-91438574D01*
X173045000Y-91161335D01*
X173045000Y-90989802D01*
X174240000Y-92184802D01*
X174240001Y-118132667D01*
X174236324Y-118170000D01*
X174250998Y-118318985D01*
X174294454Y-118462246D01*
X174365026Y-118594276D01*
X174415674Y-118655990D01*
X174460000Y-118710001D01*
X174488998Y-118733799D01*
X177808790Y-122053592D01*
X177765000Y-122273740D01*
X177765000Y-122566260D01*
X177822068Y-122853158D01*
X177934010Y-123123411D01*
X178096525Y-123366632D01*
X178303368Y-123573475D01*
X178477760Y-123690000D01*
X178303368Y-123806525D01*
X178096525Y-124013368D01*
X177934010Y-124256589D01*
X177822068Y-124526842D01*
X177765000Y-124813740D01*
X177765000Y-125106260D01*
X177822068Y-125393158D01*
X177934010Y-125663411D01*
X178096525Y-125906632D01*
X178228380Y-126038487D01*
X178155820Y-126060498D01*
X178045506Y-126119463D01*
X177948815Y-126198815D01*
X177869463Y-126295506D01*
X177810498Y-126405820D01*
X177774188Y-126525518D01*
X177761928Y-126650000D01*
X177761928Y-128350000D01*
X177774188Y-128474482D01*
X177810498Y-128594180D01*
X177869463Y-128704494D01*
X177948815Y-128801185D01*
X178045506Y-128880537D01*
X178155820Y-128939502D01*
X178275518Y-128975812D01*
X178400000Y-128988072D01*
X180100000Y-128988072D01*
X180224482Y-128975812D01*
X180344180Y-128939502D01*
X180454494Y-128880537D01*
X180551185Y-128801185D01*
X180630537Y-128704494D01*
X180689502Y-128594180D01*
X180725812Y-128474482D01*
X180738072Y-128350000D01*
X180738072Y-126650000D01*
X180725812Y-126525518D01*
X180689502Y-126405820D01*
X180630537Y-126295506D01*
X180551185Y-126198815D01*
X180454494Y-126119463D01*
X180344180Y-126060498D01*
X180271620Y-126038487D01*
X180403475Y-125906632D01*
X180565990Y-125663411D01*
X180677932Y-125393158D01*
X180735000Y-125106260D01*
X180735000Y-124813740D01*
X180677932Y-124526842D01*
X180565990Y-124256589D01*
X180403475Y-124013368D01*
X180196632Y-123806525D01*
X180022240Y-123690000D01*
X180196632Y-123573475D01*
X180403475Y-123366632D01*
X180565990Y-123123411D01*
X180677932Y-122853158D01*
X180735000Y-122566260D01*
X180735000Y-122273740D01*
X180677932Y-121986842D01*
X180565990Y-121716589D01*
X180403475Y-121473368D01*
X180196632Y-121266525D01*
X180022240Y-121150000D01*
X180196632Y-121033475D01*
X180403475Y-120826632D01*
X180565990Y-120583411D01*
X180677932Y-120313158D01*
X180735000Y-120026260D01*
X180735000Y-119733740D01*
X180677932Y-119446842D01*
X180565990Y-119176589D01*
X180403475Y-118933368D01*
X180196632Y-118726525D01*
X180022240Y-118610000D01*
X180196632Y-118493475D01*
X180403475Y-118286632D01*
X180565990Y-118043411D01*
X180677932Y-117773158D01*
X180735000Y-117486260D01*
X180735000Y-117193740D01*
X180677932Y-116906842D01*
X180565990Y-116636589D01*
X180403475Y-116393368D01*
X180196632Y-116186525D01*
X180022240Y-116070000D01*
X180196632Y-115953475D01*
X180403475Y-115746632D01*
X180565990Y-115503411D01*
X180677932Y-115233158D01*
X180735000Y-114946260D01*
X180735000Y-114653740D01*
X180677932Y-114366842D01*
X180565990Y-114096589D01*
X180403475Y-113853368D01*
X180196632Y-113646525D01*
X180022240Y-113530000D01*
X180196632Y-113413475D01*
X180403475Y-113206632D01*
X180565990Y-112963411D01*
X180677932Y-112693158D01*
X180735000Y-112406260D01*
X180735000Y-112113740D01*
X180677932Y-111826842D01*
X180565990Y-111556589D01*
X180403475Y-111313368D01*
X180196632Y-111106525D01*
X180022240Y-110990000D01*
X180196632Y-110873475D01*
X180403475Y-110666632D01*
X180565990Y-110423411D01*
X180677932Y-110153158D01*
X180735000Y-109866260D01*
X180735000Y-109573740D01*
X180677932Y-109286842D01*
X180565990Y-109016589D01*
X180403475Y-108773368D01*
X180196632Y-108566525D01*
X180014466Y-108444805D01*
X180131355Y-108375178D01*
X180347588Y-108180269D01*
X180521641Y-107946920D01*
X180646825Y-107684099D01*
X180691476Y-107536890D01*
X180570155Y-107307000D01*
X179377000Y-107307000D01*
X179377000Y-107327000D01*
X179123000Y-107327000D01*
X179123000Y-107307000D01*
X177929845Y-107307000D01*
X177808524Y-107536890D01*
X177853175Y-107684099D01*
X177978359Y-107946920D01*
X178152412Y-108180269D01*
X178368645Y-108375178D01*
X178485534Y-108444805D01*
X178303368Y-108566525D01*
X178096525Y-108773368D01*
X177934010Y-109016589D01*
X177822068Y-109286842D01*
X177765000Y-109573740D01*
X177765000Y-109866260D01*
X177822068Y-110153158D01*
X177934010Y-110423411D01*
X178096525Y-110666632D01*
X178303368Y-110873475D01*
X178477760Y-110990000D01*
X178303368Y-111106525D01*
X178096525Y-111313368D01*
X177934010Y-111556589D01*
X177822068Y-111826842D01*
X177765000Y-112113740D01*
X177765000Y-112406260D01*
X177822068Y-112693158D01*
X177934010Y-112963411D01*
X178096525Y-113206632D01*
X178303368Y-113413475D01*
X178477760Y-113530000D01*
X178303368Y-113646525D01*
X178096525Y-113853368D01*
X177934010Y-114096589D01*
X177822068Y-114366842D01*
X177765000Y-114653740D01*
X177765000Y-114946260D01*
X177822068Y-115233158D01*
X177934010Y-115503411D01*
X178096525Y-115746632D01*
X178303368Y-115953475D01*
X178477760Y-116070000D01*
X178303368Y-116186525D01*
X178096525Y-116393368D01*
X177934010Y-116636589D01*
X177822068Y-116906842D01*
X177765000Y-117193740D01*
X177765000Y-117486260D01*
X177822068Y-117773158D01*
X177934010Y-118043411D01*
X178096525Y-118286632D01*
X178303368Y-118493475D01*
X178477760Y-118610000D01*
X178303368Y-118726525D01*
X178096525Y-118933368D01*
X177934010Y-119176589D01*
X177822068Y-119446842D01*
X177765000Y-119733740D01*
X177765000Y-119860198D01*
X175760000Y-117855199D01*
X175760000Y-91907323D01*
X175763676Y-91870000D01*
X175760000Y-91832677D01*
X175760000Y-91832667D01*
X175749003Y-91721014D01*
X175705546Y-91577753D01*
X175634975Y-91445725D01*
X175634974Y-91445723D01*
X175563799Y-91358997D01*
X175540001Y-91329999D01*
X175511004Y-91306202D01*
X173458542Y-89253740D01*
X177765000Y-89253740D01*
X177765000Y-89546260D01*
X177822068Y-89833158D01*
X177934010Y-90103411D01*
X178096525Y-90346632D01*
X178303368Y-90553475D01*
X178477760Y-90670000D01*
X178303368Y-90786525D01*
X178096525Y-90993368D01*
X177934010Y-91236589D01*
X177822068Y-91506842D01*
X177765000Y-91793740D01*
X177765000Y-92086260D01*
X177822068Y-92373158D01*
X177934010Y-92643411D01*
X178096525Y-92886632D01*
X178303368Y-93093475D01*
X178477760Y-93210000D01*
X178303368Y-93326525D01*
X178096525Y-93533368D01*
X177934010Y-93776589D01*
X177822068Y-94046842D01*
X177765000Y-94333740D01*
X177765000Y-94626260D01*
X177822068Y-94913158D01*
X177934010Y-95183411D01*
X178096525Y-95426632D01*
X178303368Y-95633475D01*
X178477760Y-95750000D01*
X178303368Y-95866525D01*
X178096525Y-96073368D01*
X177934010Y-96316589D01*
X177822068Y-96586842D01*
X177765000Y-96873740D01*
X177765000Y-97166260D01*
X177822068Y-97453158D01*
X177934010Y-97723411D01*
X178096525Y-97966632D01*
X178303368Y-98173475D01*
X178477760Y-98290000D01*
X178303368Y-98406525D01*
X178096525Y-98613368D01*
X177934010Y-98856589D01*
X177822068Y-99126842D01*
X177765000Y-99413740D01*
X177765000Y-99706260D01*
X177822068Y-99993158D01*
X177934010Y-100263411D01*
X178096525Y-100506632D01*
X178303368Y-100713475D01*
X178477760Y-100830000D01*
X178303368Y-100946525D01*
X178096525Y-101153368D01*
X177934010Y-101396589D01*
X177822068Y-101666842D01*
X177765000Y-101953740D01*
X177765000Y-102246260D01*
X177822068Y-102533158D01*
X177934010Y-102803411D01*
X178096525Y-103046632D01*
X178303368Y-103253475D01*
X178477760Y-103370000D01*
X178303368Y-103486525D01*
X178096525Y-103693368D01*
X177934010Y-103936589D01*
X177822068Y-104206842D01*
X177765000Y-104493740D01*
X177765000Y-104786260D01*
X177822068Y-105073158D01*
X177934010Y-105343411D01*
X178096525Y-105586632D01*
X178303368Y-105793475D01*
X178485534Y-105915195D01*
X178368645Y-105984822D01*
X178152412Y-106179731D01*
X177978359Y-106413080D01*
X177853175Y-106675901D01*
X177808524Y-106823110D01*
X177929845Y-107053000D01*
X179123000Y-107053000D01*
X179123000Y-107033000D01*
X179377000Y-107033000D01*
X179377000Y-107053000D01*
X180570155Y-107053000D01*
X180691476Y-106823110D01*
X180646825Y-106675901D01*
X180521641Y-106413080D01*
X180347588Y-106179731D01*
X180131355Y-105984822D01*
X180014466Y-105915195D01*
X180196632Y-105793475D01*
X180403475Y-105586632D01*
X180565990Y-105343411D01*
X180677932Y-105073158D01*
X180735000Y-104786260D01*
X180735000Y-104493740D01*
X180677932Y-104206842D01*
X180565990Y-103936589D01*
X180403475Y-103693368D01*
X180196632Y-103486525D01*
X180022240Y-103370000D01*
X180196632Y-103253475D01*
X180403475Y-103046632D01*
X180565990Y-102803411D01*
X180677932Y-102533158D01*
X180735000Y-102246260D01*
X180735000Y-101953740D01*
X180677932Y-101666842D01*
X180565990Y-101396589D01*
X180403475Y-101153368D01*
X180196632Y-100946525D01*
X180022240Y-100830000D01*
X180196632Y-100713475D01*
X180403475Y-100506632D01*
X180565990Y-100263411D01*
X180677932Y-99993158D01*
X180735000Y-99706260D01*
X180735000Y-99413740D01*
X180677932Y-99126842D01*
X180565990Y-98856589D01*
X180403475Y-98613368D01*
X180196632Y-98406525D01*
X180022240Y-98290000D01*
X180196632Y-98173475D01*
X180403475Y-97966632D01*
X180565990Y-97723411D01*
X180677932Y-97453158D01*
X180735000Y-97166260D01*
X180735000Y-96873740D01*
X180677932Y-96586842D01*
X180565990Y-96316589D01*
X180403475Y-96073368D01*
X180196632Y-95866525D01*
X180022240Y-95750000D01*
X180196632Y-95633475D01*
X180403475Y-95426632D01*
X180565990Y-95183411D01*
X180677932Y-94913158D01*
X180735000Y-94626260D01*
X180735000Y-94333740D01*
X180677932Y-94046842D01*
X180565990Y-93776589D01*
X180403475Y-93533368D01*
X180196632Y-93326525D01*
X180022240Y-93210000D01*
X180196632Y-93093475D01*
X180403475Y-92886632D01*
X180565990Y-92643411D01*
X180677932Y-92373158D01*
X180735000Y-92086260D01*
X180735000Y-91793740D01*
X180677932Y-91506842D01*
X180565990Y-91236589D01*
X180403475Y-90993368D01*
X180196632Y-90786525D01*
X180022240Y-90670000D01*
X180196632Y-90553475D01*
X180403475Y-90346632D01*
X180565990Y-90103411D01*
X180677932Y-89833158D01*
X180735000Y-89546260D01*
X180735000Y-89253740D01*
X180677932Y-88966842D01*
X180565990Y-88696589D01*
X180403475Y-88453368D01*
X180196632Y-88246525D01*
X179953411Y-88084010D01*
X179683158Y-87972068D01*
X179396260Y-87915000D01*
X179103740Y-87915000D01*
X178816842Y-87972068D01*
X178546589Y-88084010D01*
X178303368Y-88246525D01*
X178096525Y-88453368D01*
X177934010Y-88696589D01*
X177822068Y-88966842D01*
X177765000Y-89253740D01*
X173458542Y-89253740D01*
X173008688Y-88803887D01*
X173045000Y-88621335D01*
X173045000Y-88338665D01*
X172989853Y-88061426D01*
X172881680Y-87800273D01*
X172724637Y-87565241D01*
X172524759Y-87365363D01*
X172292241Y-87210000D01*
X172524759Y-87054637D01*
X172724637Y-86854759D01*
X172881680Y-86619727D01*
X172989853Y-86358574D01*
X173045000Y-86081335D01*
X173045000Y-85798665D01*
X172989853Y-85521426D01*
X172881680Y-85260273D01*
X172724637Y-85025241D01*
X172524759Y-84825363D01*
X172289727Y-84668320D01*
X172028574Y-84560147D01*
X171751335Y-84505000D01*
X171468665Y-84505000D01*
X171191426Y-84560147D01*
X170930273Y-84668320D01*
X170695241Y-84825363D01*
X170495363Y-85025241D01*
X170338320Y-85260273D01*
X170230147Y-85521426D01*
X170175000Y-85798665D01*
X157805000Y-85798665D01*
X157749853Y-85521426D01*
X157641680Y-85260273D01*
X157484637Y-85025241D01*
X157284759Y-84825363D01*
X157049727Y-84668320D01*
X156788574Y-84560147D01*
X156511335Y-84505000D01*
X156228665Y-84505000D01*
X155951426Y-84560147D01*
X155690273Y-84668320D01*
X155455241Y-84825363D01*
X155255363Y-85025241D01*
X155098320Y-85260273D01*
X154990147Y-85521426D01*
X154935000Y-85798665D01*
X146685000Y-85798665D01*
X146685000Y-79685000D01*
X181315000Y-79685000D01*
X181315001Y-131315000D01*
G04 #@! TA.AperFunction,Conductor*
D17*
G36*
X181315001Y-131315000D02*
G01*
X146685000Y-131315000D01*
X146685000Y-112213740D01*
X147265000Y-112213740D01*
X147265000Y-112506260D01*
X147322068Y-112793158D01*
X147434010Y-113063411D01*
X147596525Y-113306632D01*
X147803368Y-113513475D01*
X147977760Y-113630000D01*
X147803368Y-113746525D01*
X147596525Y-113953368D01*
X147434010Y-114196589D01*
X147322068Y-114466842D01*
X147265000Y-114753740D01*
X147265000Y-115046260D01*
X147322068Y-115333158D01*
X147434010Y-115603411D01*
X147596525Y-115846632D01*
X147803368Y-116053475D01*
X147977760Y-116170000D01*
X147803368Y-116286525D01*
X147596525Y-116493368D01*
X147434010Y-116736589D01*
X147322068Y-117006842D01*
X147265000Y-117293740D01*
X147265000Y-117586260D01*
X147322068Y-117873158D01*
X147434010Y-118143411D01*
X147596525Y-118386632D01*
X147803368Y-118593475D01*
X147977760Y-118710000D01*
X147803368Y-118826525D01*
X147596525Y-119033368D01*
X147434010Y-119276589D01*
X147322068Y-119546842D01*
X147265000Y-119833740D01*
X147265000Y-120126260D01*
X147322068Y-120413158D01*
X147434010Y-120683411D01*
X147596525Y-120926632D01*
X147803368Y-121133475D01*
X147977760Y-121250000D01*
X147803368Y-121366525D01*
X147596525Y-121573368D01*
X147434010Y-121816589D01*
X147322068Y-122086842D01*
X147265000Y-122373740D01*
X147265000Y-122666260D01*
X147322068Y-122953158D01*
X147434010Y-123223411D01*
X147596525Y-123466632D01*
X147803368Y-123673475D01*
X147977760Y-123790000D01*
X147803368Y-123906525D01*
X147596525Y-124113368D01*
X147434010Y-124356589D01*
X147322068Y-124626842D01*
X147265000Y-124913740D01*
X147265000Y-125206260D01*
X147322068Y-125493158D01*
X147434010Y-125763411D01*
X147596525Y-126006632D01*
X147803368Y-126213475D01*
X147977760Y-126330000D01*
X147803368Y-126446525D01*
X147596525Y-126653368D01*
X147434010Y-126896589D01*
X147322068Y-127166842D01*
X147265000Y-127453740D01*
X147265000Y-127746260D01*
X147322068Y-128033158D01*
X147434010Y-128303411D01*
X147596525Y-128546632D01*
X147803368Y-128753475D01*
X148046589Y-128915990D01*
X148316842Y-129027932D01*
X148603740Y-129085000D01*
X148896260Y-129085000D01*
X149183158Y-129027932D01*
X149453411Y-128915990D01*
X149696632Y-128753475D01*
X149903475Y-128546632D01*
X150065990Y-128303411D01*
X150177932Y-128033158D01*
X150235000Y-127746260D01*
X150235000Y-127453740D01*
X150177932Y-127166842D01*
X150065990Y-126896589D01*
X149903475Y-126653368D01*
X149696632Y-126446525D01*
X149522240Y-126330000D01*
X149696632Y-126213475D01*
X149903475Y-126006632D01*
X150065990Y-125763411D01*
X150177932Y-125493158D01*
X150235000Y-125206260D01*
X150235000Y-124913740D01*
X150177932Y-124626842D01*
X150065990Y-124356589D01*
X149903475Y-124113368D01*
X149696632Y-123906525D01*
X149522240Y-123790000D01*
X149696632Y-123673475D01*
X149903475Y-123466632D01*
X150065990Y-123223411D01*
X150177932Y-122953158D01*
X150235000Y-122666260D01*
X150235000Y-122373740D01*
X150177932Y-122086842D01*
X150065990Y-121816589D01*
X149903475Y-121573368D01*
X149696632Y-121366525D01*
X149684869Y-121358665D01*
X154935000Y-121358665D01*
X154935000Y-121641335D01*
X154990147Y-121918574D01*
X155098320Y-122179727D01*
X155255363Y-122414759D01*
X155455241Y-122614637D01*
X155690273Y-122771680D01*
X155951426Y-122879853D01*
X156228665Y-122935000D01*
X156511335Y-122935000D01*
X156788574Y-122879853D01*
X157049727Y-122771680D01*
X157284759Y-122614637D01*
X157484637Y-122414759D01*
X157641680Y-122179727D01*
X157749853Y-121918574D01*
X157805000Y-121641335D01*
X157805000Y-121358665D01*
X157749853Y-121081426D01*
X157641680Y-120820273D01*
X157561317Y-120700000D01*
X170171928Y-120700000D01*
X170171928Y-122300000D01*
X170184188Y-122424482D01*
X170220498Y-122544180D01*
X170279463Y-122654494D01*
X170358815Y-122751185D01*
X170455506Y-122830537D01*
X170565820Y-122889502D01*
X170685518Y-122925812D01*
X170810000Y-122938072D01*
X172410000Y-122938072D01*
X172534482Y-122925812D01*
X172654180Y-122889502D01*
X172764494Y-122830537D01*
X172861185Y-122751185D01*
X172940537Y-122654494D01*
X172999502Y-122544180D01*
X173035812Y-122424482D01*
X173048072Y-122300000D01*
X173048072Y-120700000D01*
X173035812Y-120575518D01*
X172999502Y-120455820D01*
X172940537Y-120345506D01*
X172861185Y-120248815D01*
X172764494Y-120169463D01*
X172654180Y-120110498D01*
X172534482Y-120074188D01*
X172526039Y-120073357D01*
X172724637Y-119874759D01*
X172881680Y-119639727D01*
X172989853Y-119378574D01*
X173045000Y-119101335D01*
X173045000Y-118818665D01*
X172989853Y-118541426D01*
X172881680Y-118280273D01*
X172724637Y-118045241D01*
X172524759Y-117845363D01*
X172292241Y-117690000D01*
X172524759Y-117534637D01*
X172724637Y-117334759D01*
X172881680Y-117099727D01*
X172989853Y-116838574D01*
X173045000Y-116561335D01*
X173045000Y-116278665D01*
X172989853Y-116001426D01*
X172881680Y-115740273D01*
X172724637Y-115505241D01*
X172524759Y-115305363D01*
X172289727Y-115148320D01*
X172279135Y-115143933D01*
X172465131Y-115032385D01*
X172673519Y-114843414D01*
X172841037Y-114617420D01*
X172961246Y-114363087D01*
X173001904Y-114229039D01*
X172879915Y-114007000D01*
X171737000Y-114007000D01*
X171737000Y-114027000D01*
X171483000Y-114027000D01*
X171483000Y-114007000D01*
X170340085Y-114007000D01*
X170218096Y-114229039D01*
X170258754Y-114363087D01*
X170378963Y-114617420D01*
X170546481Y-114843414D01*
X170754869Y-115032385D01*
X170940865Y-115143933D01*
X170930273Y-115148320D01*
X170695241Y-115305363D01*
X170495363Y-115505241D01*
X170338320Y-115740273D01*
X170230147Y-116001426D01*
X170175000Y-116278665D01*
X170175000Y-116561335D01*
X170230147Y-116838574D01*
X170338320Y-117099727D01*
X170495363Y-117334759D01*
X170695241Y-117534637D01*
X170927759Y-117690000D01*
X170695241Y-117845363D01*
X170495363Y-118045241D01*
X170338320Y-118280273D01*
X170230147Y-118541426D01*
X170175000Y-118818665D01*
X170175000Y-119101335D01*
X170230147Y-119378574D01*
X170338320Y-119639727D01*
X170495363Y-119874759D01*
X170693961Y-120073357D01*
X170685518Y-120074188D01*
X170565820Y-120110498D01*
X170455506Y-120169463D01*
X170358815Y-120248815D01*
X170279463Y-120345506D01*
X170220498Y-120455820D01*
X170184188Y-120575518D01*
X170171928Y-120700000D01*
X157561317Y-120700000D01*
X157484637Y-120585241D01*
X157284759Y-120385363D01*
X157049727Y-120228320D01*
X157039135Y-120223933D01*
X157225131Y-120112385D01*
X157433519Y-119923414D01*
X157601037Y-119697420D01*
X157721246Y-119443087D01*
X157761904Y-119309039D01*
X157639915Y-119087000D01*
X156497000Y-119087000D01*
X156497000Y-119107000D01*
X156243000Y-119107000D01*
X156243000Y-119087000D01*
X155100085Y-119087000D01*
X154978096Y-119309039D01*
X155018754Y-119443087D01*
X155138963Y-119697420D01*
X155306481Y-119923414D01*
X155514869Y-120112385D01*
X155700865Y-120223933D01*
X155690273Y-120228320D01*
X155455241Y-120385363D01*
X155255363Y-120585241D01*
X155098320Y-120820273D01*
X154990147Y-121081426D01*
X154935000Y-121358665D01*
X149684869Y-121358665D01*
X149522240Y-121250000D01*
X149696632Y-121133475D01*
X149903475Y-120926632D01*
X150065990Y-120683411D01*
X150177932Y-120413158D01*
X150235000Y-120126260D01*
X150235000Y-119833740D01*
X150177932Y-119546842D01*
X150065990Y-119276589D01*
X149903475Y-119033368D01*
X149696632Y-118826525D01*
X149522240Y-118710000D01*
X149696632Y-118593475D01*
X149903475Y-118386632D01*
X150065990Y-118143411D01*
X150177932Y-117873158D01*
X150235000Y-117586260D01*
X150235000Y-117293740D01*
X150177932Y-117006842D01*
X150065990Y-116736589D01*
X149903475Y-116493368D01*
X149696632Y-116286525D01*
X149522240Y-116170000D01*
X149696632Y-116053475D01*
X149903475Y-115846632D01*
X150065990Y-115603411D01*
X150177932Y-115333158D01*
X150235000Y-115046260D01*
X150235000Y-114753740D01*
X150177932Y-114466842D01*
X150065990Y-114196589D01*
X149903475Y-113953368D01*
X149696632Y-113746525D01*
X149522240Y-113630000D01*
X149696632Y-113513475D01*
X149903475Y-113306632D01*
X150065990Y-113063411D01*
X150177932Y-112793158D01*
X150235000Y-112506260D01*
X150235000Y-112213740D01*
X150177932Y-111926842D01*
X150065990Y-111656589D01*
X149903475Y-111413368D01*
X149696632Y-111206525D01*
X149514466Y-111084805D01*
X149631355Y-111015178D01*
X149847588Y-110820269D01*
X150021641Y-110586920D01*
X150146825Y-110324099D01*
X150191476Y-110176890D01*
X150070155Y-109947000D01*
X148877000Y-109947000D01*
X148877000Y-109967000D01*
X148623000Y-109967000D01*
X148623000Y-109947000D01*
X147429845Y-109947000D01*
X147308524Y-110176890D01*
X147353175Y-110324099D01*
X147478359Y-110586920D01*
X147652412Y-110820269D01*
X147868645Y-111015178D01*
X147985534Y-111084805D01*
X147803368Y-111206525D01*
X147596525Y-111413368D01*
X147434010Y-111656589D01*
X147322068Y-111926842D01*
X147265000Y-112213740D01*
X146685000Y-112213740D01*
X146685000Y-107133740D01*
X147265000Y-107133740D01*
X147265000Y-107426260D01*
X147322068Y-107713158D01*
X147434010Y-107983411D01*
X147596525Y-108226632D01*
X147803368Y-108433475D01*
X147985534Y-108555195D01*
X147868645Y-108624822D01*
X147652412Y-108819731D01*
X147478359Y-109053080D01*
X147353175Y-109315901D01*
X147308524Y-109463110D01*
X147429845Y-109693000D01*
X148623000Y-109693000D01*
X148623000Y-109673000D01*
X148877000Y-109673000D01*
X148877000Y-109693000D01*
X150070155Y-109693000D01*
X150191476Y-109463110D01*
X150146825Y-109315901D01*
X150021641Y-109053080D01*
X149847588Y-108819731D01*
X149631355Y-108624822D01*
X149514466Y-108555195D01*
X149696632Y-108433475D01*
X149903475Y-108226632D01*
X150065990Y-107983411D01*
X150177932Y-107713158D01*
X150235000Y-107426260D01*
X150235000Y-107133740D01*
X150177932Y-106846842D01*
X150065990Y-106576589D01*
X149903475Y-106333368D01*
X149696632Y-106126525D01*
X149514466Y-106004805D01*
X149631355Y-105935178D01*
X149847588Y-105740269D01*
X150021641Y-105506920D01*
X150146825Y-105244099D01*
X150191476Y-105096890D01*
X150070155Y-104867000D01*
X148877000Y-104867000D01*
X148877000Y-104887000D01*
X148623000Y-104887000D01*
X148623000Y-104867000D01*
X147429845Y-104867000D01*
X147308524Y-105096890D01*
X147353175Y-105244099D01*
X147478359Y-105506920D01*
X147652412Y-105740269D01*
X147868645Y-105935178D01*
X147985534Y-106004805D01*
X147803368Y-106126525D01*
X147596525Y-106333368D01*
X147434010Y-106576589D01*
X147322068Y-106846842D01*
X147265000Y-107133740D01*
X146685000Y-107133740D01*
X146685000Y-88650000D01*
X147261928Y-88650000D01*
X147261928Y-90350000D01*
X147274188Y-90474482D01*
X147310498Y-90594180D01*
X147369463Y-90704494D01*
X147448815Y-90801185D01*
X147545506Y-90880537D01*
X147655820Y-90939502D01*
X147728380Y-90961513D01*
X147596525Y-91093368D01*
X147434010Y-91336589D01*
X147322068Y-91606842D01*
X147265000Y-91893740D01*
X147265000Y-92186260D01*
X147322068Y-92473158D01*
X147434010Y-92743411D01*
X147596525Y-92986632D01*
X147803368Y-93193475D01*
X147977760Y-93310000D01*
X147803368Y-93426525D01*
X147596525Y-93633368D01*
X147434010Y-93876589D01*
X147322068Y-94146842D01*
X147265000Y-94433740D01*
X147265000Y-94726260D01*
X147322068Y-95013158D01*
X147434010Y-95283411D01*
X147596525Y-95526632D01*
X147803368Y-95733475D01*
X147977760Y-95850000D01*
X147803368Y-95966525D01*
X147596525Y-96173368D01*
X147434010Y-96416589D01*
X147322068Y-96686842D01*
X147265000Y-96973740D01*
X147265000Y-97266260D01*
X147322068Y-97553158D01*
X147434010Y-97823411D01*
X147596525Y-98066632D01*
X147803368Y-98273475D01*
X147977760Y-98390000D01*
X147803368Y-98506525D01*
X147596525Y-98713368D01*
X147434010Y-98956589D01*
X147322068Y-99226842D01*
X147265000Y-99513740D01*
X147265000Y-99806260D01*
X147322068Y-100093158D01*
X147434010Y-100363411D01*
X147596525Y-100606632D01*
X147803368Y-100813475D01*
X147977760Y-100930000D01*
X147803368Y-101046525D01*
X147596525Y-101253368D01*
X147434010Y-101496589D01*
X147322068Y-101766842D01*
X147265000Y-102053740D01*
X147265000Y-102346260D01*
X147322068Y-102633158D01*
X147434010Y-102903411D01*
X147596525Y-103146632D01*
X147803368Y-103353475D01*
X147985534Y-103475195D01*
X147868645Y-103544822D01*
X147652412Y-103739731D01*
X147478359Y-103973080D01*
X147353175Y-104235901D01*
X147308524Y-104383110D01*
X147429845Y-104613000D01*
X148623000Y-104613000D01*
X148623000Y-104593000D01*
X148877000Y-104593000D01*
X148877000Y-104613000D01*
X150070155Y-104613000D01*
X150191476Y-104383110D01*
X150146825Y-104235901D01*
X150021641Y-103973080D01*
X149847588Y-103739731D01*
X149631355Y-103544822D01*
X149514466Y-103475195D01*
X149696632Y-103353475D01*
X149903475Y-103146632D01*
X150065990Y-102903411D01*
X150177932Y-102633158D01*
X150235000Y-102346260D01*
X150235000Y-102053740D01*
X150177932Y-101766842D01*
X150065990Y-101496589D01*
X149903475Y-101253368D01*
X149696632Y-101046525D01*
X149522240Y-100930000D01*
X149696632Y-100813475D01*
X149903475Y-100606632D01*
X150065990Y-100363411D01*
X150177932Y-100093158D01*
X150235000Y-99806260D01*
X150235000Y-99513740D01*
X150177932Y-99226842D01*
X150065990Y-98956589D01*
X149903475Y-98713368D01*
X149696632Y-98506525D01*
X149522240Y-98390000D01*
X149696632Y-98273475D01*
X149903475Y-98066632D01*
X150065990Y-97823411D01*
X150177932Y-97553158D01*
X150235000Y-97266260D01*
X150235000Y-96973740D01*
X150177932Y-96686842D01*
X150065990Y-96416589D01*
X149903475Y-96173368D01*
X149696632Y-95966525D01*
X149522240Y-95850000D01*
X149696632Y-95733475D01*
X149903475Y-95526632D01*
X150065990Y-95283411D01*
X150177932Y-95013158D01*
X150235000Y-94726260D01*
X150235000Y-94433740D01*
X150177932Y-94146842D01*
X150065990Y-93876589D01*
X149903475Y-93633368D01*
X149696632Y-93426525D01*
X149522240Y-93310000D01*
X149696632Y-93193475D01*
X149903475Y-92986632D01*
X150065990Y-92743411D01*
X150177932Y-92473158D01*
X150235000Y-92186260D01*
X150235000Y-91893740D01*
X150177932Y-91606842D01*
X150065990Y-91336589D01*
X149903475Y-91093368D01*
X149771620Y-90961513D01*
X149844180Y-90939502D01*
X149954494Y-90880537D01*
X150051185Y-90801185D01*
X150130537Y-90704494D01*
X150189502Y-90594180D01*
X150225812Y-90474482D01*
X150238072Y-90350000D01*
X150238072Y-88650000D01*
X150225812Y-88525518D01*
X150189502Y-88405820D01*
X150130537Y-88295506D01*
X150051185Y-88198815D01*
X149954494Y-88119463D01*
X149844180Y-88060498D01*
X149724482Y-88024188D01*
X149600000Y-88011928D01*
X147900000Y-88011928D01*
X147775518Y-88024188D01*
X147655820Y-88060498D01*
X147545506Y-88119463D01*
X147448815Y-88198815D01*
X147369463Y-88295506D01*
X147310498Y-88405820D01*
X147274188Y-88525518D01*
X147261928Y-88650000D01*
X146685000Y-88650000D01*
X146685000Y-85798665D01*
X154935000Y-85798665D01*
X154935000Y-86081335D01*
X154990147Y-86358574D01*
X155098320Y-86619727D01*
X155255363Y-86854759D01*
X155455241Y-87054637D01*
X155687759Y-87210000D01*
X155455241Y-87365363D01*
X155255363Y-87565241D01*
X155098320Y-87800273D01*
X154990147Y-88061426D01*
X154935000Y-88338665D01*
X154935000Y-88621335D01*
X154990147Y-88898574D01*
X155098320Y-89159727D01*
X155255363Y-89394759D01*
X155455241Y-89594637D01*
X155687759Y-89750000D01*
X155455241Y-89905363D01*
X155255363Y-90105241D01*
X155098320Y-90340273D01*
X154990147Y-90601426D01*
X154935000Y-90878665D01*
X154935000Y-91161335D01*
X154990147Y-91438574D01*
X155098320Y-91699727D01*
X155255363Y-91934759D01*
X155455241Y-92134637D01*
X155687759Y-92290000D01*
X155455241Y-92445363D01*
X155255363Y-92645241D01*
X155098320Y-92880273D01*
X154990147Y-93141426D01*
X154935000Y-93418665D01*
X154935000Y-93701335D01*
X154990147Y-93978574D01*
X155098320Y-94239727D01*
X155255363Y-94474759D01*
X155455241Y-94674637D01*
X155687759Y-94830000D01*
X155455241Y-94985363D01*
X155255363Y-95185241D01*
X155098320Y-95420273D01*
X154990147Y-95681426D01*
X154935000Y-95958665D01*
X154935000Y-96241335D01*
X154990147Y-96518574D01*
X155098320Y-96779727D01*
X155255363Y-97014759D01*
X155455241Y-97214637D01*
X155687759Y-97370000D01*
X155455241Y-97525363D01*
X155255363Y-97725241D01*
X155098320Y-97960273D01*
X154990147Y-98221426D01*
X154935000Y-98498665D01*
X154935000Y-98781335D01*
X154990147Y-99058574D01*
X155098320Y-99319727D01*
X155255363Y-99554759D01*
X155455241Y-99754637D01*
X155687759Y-99910000D01*
X155455241Y-100065363D01*
X155255363Y-100265241D01*
X155098320Y-100500273D01*
X154990147Y-100761426D01*
X154935000Y-101038665D01*
X154935000Y-101321335D01*
X154990147Y-101598574D01*
X155098320Y-101859727D01*
X155255363Y-102094759D01*
X155455241Y-102294637D01*
X155687759Y-102450000D01*
X155455241Y-102605363D01*
X155255363Y-102805241D01*
X155098320Y-103040273D01*
X154990147Y-103301426D01*
X154935000Y-103578665D01*
X154935000Y-103861335D01*
X154990147Y-104138574D01*
X155098320Y-104399727D01*
X155255363Y-104634759D01*
X155455241Y-104834637D01*
X155687759Y-104990000D01*
X155455241Y-105145363D01*
X155255363Y-105345241D01*
X155098320Y-105580273D01*
X154990147Y-105841426D01*
X154935000Y-106118665D01*
X154935000Y-106401335D01*
X154990147Y-106678574D01*
X155098320Y-106939727D01*
X155255363Y-107174759D01*
X155455241Y-107374637D01*
X155687759Y-107530000D01*
X155455241Y-107685363D01*
X155255363Y-107885241D01*
X155098320Y-108120273D01*
X154990147Y-108381426D01*
X154935000Y-108658665D01*
X154935000Y-108941335D01*
X154990147Y-109218574D01*
X155098320Y-109479727D01*
X155255363Y-109714759D01*
X155455241Y-109914637D01*
X155687759Y-110070000D01*
X155455241Y-110225363D01*
X155255363Y-110425241D01*
X155098320Y-110660273D01*
X154990147Y-110921426D01*
X154935000Y-111198665D01*
X154935000Y-111481335D01*
X154990147Y-111758574D01*
X155098320Y-112019727D01*
X155255363Y-112254759D01*
X155455241Y-112454637D01*
X155687759Y-112610000D01*
X155455241Y-112765363D01*
X155255363Y-112965241D01*
X155098320Y-113200273D01*
X154990147Y-113461426D01*
X154935000Y-113738665D01*
X154935000Y-114021335D01*
X154990147Y-114298574D01*
X155098320Y-114559727D01*
X155255363Y-114794759D01*
X155455241Y-114994637D01*
X155687759Y-115150000D01*
X155455241Y-115305363D01*
X155255363Y-115505241D01*
X155098320Y-115740273D01*
X154990147Y-116001426D01*
X154935000Y-116278665D01*
X154935000Y-116561335D01*
X154990147Y-116838574D01*
X155098320Y-117099727D01*
X155255363Y-117334759D01*
X155455241Y-117534637D01*
X155690273Y-117691680D01*
X155700865Y-117696067D01*
X155514869Y-117807615D01*
X155306481Y-117996586D01*
X155138963Y-118222580D01*
X155018754Y-118476913D01*
X154978096Y-118610961D01*
X155100085Y-118833000D01*
X156243000Y-118833000D01*
X156243000Y-118813000D01*
X156497000Y-118813000D01*
X156497000Y-118833000D01*
X157639915Y-118833000D01*
X157761904Y-118610961D01*
X157721246Y-118476913D01*
X157601037Y-118222580D01*
X157433519Y-117996586D01*
X157225131Y-117807615D01*
X157039135Y-117696067D01*
X157049727Y-117691680D01*
X157284759Y-117534637D01*
X157484637Y-117334759D01*
X157641680Y-117099727D01*
X157749853Y-116838574D01*
X157805000Y-116561335D01*
X157805000Y-116278665D01*
X157749853Y-116001426D01*
X157641680Y-115740273D01*
X157484637Y-115505241D01*
X157284759Y-115305363D01*
X157052241Y-115150000D01*
X157284759Y-114994637D01*
X157484637Y-114794759D01*
X157641680Y-114559727D01*
X157749853Y-114298574D01*
X157805000Y-114021335D01*
X157805000Y-113738665D01*
X157749853Y-113461426D01*
X157641680Y-113200273D01*
X157484637Y-112965241D01*
X157284759Y-112765363D01*
X157052241Y-112610000D01*
X157284759Y-112454637D01*
X157484637Y-112254759D01*
X157641680Y-112019727D01*
X157749853Y-111758574D01*
X157805000Y-111481335D01*
X157805000Y-111198665D01*
X157749853Y-110921426D01*
X157641680Y-110660273D01*
X157484637Y-110425241D01*
X157284759Y-110225363D01*
X157052241Y-110070000D01*
X157284759Y-109914637D01*
X157484637Y-109714759D01*
X157641680Y-109479727D01*
X157749853Y-109218574D01*
X157805000Y-108941335D01*
X157805000Y-108658665D01*
X157749853Y-108381426D01*
X157641680Y-108120273D01*
X157484637Y-107885241D01*
X157284759Y-107685363D01*
X157052241Y-107530000D01*
X157284759Y-107374637D01*
X157484637Y-107174759D01*
X157641680Y-106939727D01*
X157749853Y-106678574D01*
X157805000Y-106401335D01*
X157805000Y-106118665D01*
X157749853Y-105841426D01*
X157641680Y-105580273D01*
X157484637Y-105345241D01*
X157284759Y-105145363D01*
X157052241Y-104990000D01*
X157284759Y-104834637D01*
X157484637Y-104634759D01*
X157641680Y-104399727D01*
X157749853Y-104138574D01*
X157805000Y-103861335D01*
X157805000Y-103578665D01*
X157749853Y-103301426D01*
X157641680Y-103040273D01*
X157484637Y-102805241D01*
X157284759Y-102605363D01*
X157052241Y-102450000D01*
X157284759Y-102294637D01*
X157484637Y-102094759D01*
X157641680Y-101859727D01*
X157749853Y-101598574D01*
X157805000Y-101321335D01*
X157805000Y-101038665D01*
X157749853Y-100761426D01*
X157641680Y-100500273D01*
X157484637Y-100265241D01*
X157284759Y-100065363D01*
X157052241Y-99910000D01*
X157284759Y-99754637D01*
X157484637Y-99554759D01*
X157641680Y-99319727D01*
X157749853Y-99058574D01*
X157805000Y-98781335D01*
X157805000Y-98498665D01*
X157749853Y-98221426D01*
X157641680Y-97960273D01*
X157484637Y-97725241D01*
X157284759Y-97525363D01*
X157052241Y-97370000D01*
X157284759Y-97214637D01*
X157484637Y-97014759D01*
X157641680Y-96779727D01*
X157749853Y-96518574D01*
X157805000Y-96241335D01*
X157805000Y-95958665D01*
X157749853Y-95681426D01*
X157641680Y-95420273D01*
X157484637Y-95185241D01*
X157284759Y-94985363D01*
X157052241Y-94830000D01*
X157284759Y-94674637D01*
X157484637Y-94474759D01*
X157641680Y-94239727D01*
X157749853Y-93978574D01*
X157805000Y-93701335D01*
X157805000Y-93418665D01*
X157749853Y-93141426D01*
X157641680Y-92880273D01*
X157484637Y-92645241D01*
X157284759Y-92445363D01*
X157052241Y-92290000D01*
X157284759Y-92134637D01*
X157484637Y-91934759D01*
X157641680Y-91699727D01*
X157749853Y-91438574D01*
X157805000Y-91161335D01*
X157805000Y-90878665D01*
X157749853Y-90601426D01*
X157641680Y-90340273D01*
X157484637Y-90105241D01*
X157284759Y-89905363D01*
X157052241Y-89750000D01*
X157284759Y-89594637D01*
X157484637Y-89394759D01*
X157641680Y-89159727D01*
X157749853Y-88898574D01*
X157805000Y-88621335D01*
X157805000Y-88338665D01*
X157749853Y-88061426D01*
X157641680Y-87800273D01*
X157484637Y-87565241D01*
X157284759Y-87365363D01*
X157052241Y-87210000D01*
X157284759Y-87054637D01*
X157484637Y-86854759D01*
X157641680Y-86619727D01*
X157749853Y-86358574D01*
X157805000Y-86081335D01*
X157805000Y-85798665D01*
X170175000Y-85798665D01*
X170175000Y-86081335D01*
X170230147Y-86358574D01*
X170338320Y-86619727D01*
X170495363Y-86854759D01*
X170695241Y-87054637D01*
X170927759Y-87210000D01*
X170695241Y-87365363D01*
X170495363Y-87565241D01*
X170338320Y-87800273D01*
X170230147Y-88061426D01*
X170175000Y-88338665D01*
X170175000Y-88621335D01*
X170230147Y-88898574D01*
X170338320Y-89159727D01*
X170495363Y-89394759D01*
X170695241Y-89594637D01*
X170927759Y-89750000D01*
X170695241Y-89905363D01*
X170495363Y-90105241D01*
X170338320Y-90340273D01*
X170230147Y-90601426D01*
X170175000Y-90878665D01*
X170175000Y-91161335D01*
X170230147Y-91438574D01*
X170338320Y-91699727D01*
X170495363Y-91934759D01*
X170695241Y-92134637D01*
X170927759Y-92290000D01*
X170695241Y-92445363D01*
X170495363Y-92645241D01*
X170338320Y-92880273D01*
X170230147Y-93141426D01*
X170175000Y-93418665D01*
X170175000Y-93701335D01*
X170230147Y-93978574D01*
X170338320Y-94239727D01*
X170495363Y-94474759D01*
X170695241Y-94674637D01*
X170927759Y-94830000D01*
X170695241Y-94985363D01*
X170495363Y-95185241D01*
X170338320Y-95420273D01*
X170230147Y-95681426D01*
X170175000Y-95958665D01*
X170175000Y-96241335D01*
X170230147Y-96518574D01*
X170338320Y-96779727D01*
X170495363Y-97014759D01*
X170695241Y-97214637D01*
X170927759Y-97370000D01*
X170695241Y-97525363D01*
X170495363Y-97725241D01*
X170338320Y-97960273D01*
X170230147Y-98221426D01*
X170175000Y-98498665D01*
X170175000Y-98781335D01*
X170230147Y-99058574D01*
X170338320Y-99319727D01*
X170495363Y-99554759D01*
X170695241Y-99754637D01*
X170927759Y-99910000D01*
X170695241Y-100065363D01*
X170495363Y-100265241D01*
X170338320Y-100500273D01*
X170230147Y-100761426D01*
X170175000Y-101038665D01*
X170175000Y-101321335D01*
X170230147Y-101598574D01*
X170338320Y-101859727D01*
X170495363Y-102094759D01*
X170695241Y-102294637D01*
X170927759Y-102450000D01*
X170695241Y-102605363D01*
X170495363Y-102805241D01*
X170338320Y-103040273D01*
X170230147Y-103301426D01*
X170175000Y-103578665D01*
X170175000Y-103861335D01*
X170230147Y-104138574D01*
X170338320Y-104399727D01*
X170495363Y-104634759D01*
X170695241Y-104834637D01*
X170927759Y-104990000D01*
X170695241Y-105145363D01*
X170495363Y-105345241D01*
X170338320Y-105580273D01*
X170230147Y-105841426D01*
X170175000Y-106118665D01*
X170175000Y-106401335D01*
X170230147Y-106678574D01*
X170338320Y-106939727D01*
X170495363Y-107174759D01*
X170695241Y-107374637D01*
X170927759Y-107530000D01*
X170695241Y-107685363D01*
X170495363Y-107885241D01*
X170338320Y-108120273D01*
X170230147Y-108381426D01*
X170175000Y-108658665D01*
X170175000Y-108941335D01*
X170230147Y-109218574D01*
X170338320Y-109479727D01*
X170495363Y-109714759D01*
X170695241Y-109914637D01*
X170927759Y-110070000D01*
X170695241Y-110225363D01*
X170495363Y-110425241D01*
X170338320Y-110660273D01*
X170230147Y-110921426D01*
X170175000Y-111198665D01*
X170175000Y-111481335D01*
X170230147Y-111758574D01*
X170338320Y-112019727D01*
X170495363Y-112254759D01*
X170695241Y-112454637D01*
X170930273Y-112611680D01*
X170940865Y-112616067D01*
X170754869Y-112727615D01*
X170546481Y-112916586D01*
X170378963Y-113142580D01*
X170258754Y-113396913D01*
X170218096Y-113530961D01*
X170340085Y-113753000D01*
X171483000Y-113753000D01*
X171483000Y-113733000D01*
X171737000Y-113733000D01*
X171737000Y-113753000D01*
X172879915Y-113753000D01*
X173001904Y-113530961D01*
X172961246Y-113396913D01*
X172841037Y-113142580D01*
X172673519Y-112916586D01*
X172465131Y-112727615D01*
X172279135Y-112616067D01*
X172289727Y-112611680D01*
X172524759Y-112454637D01*
X172724637Y-112254759D01*
X172881680Y-112019727D01*
X172989853Y-111758574D01*
X173045000Y-111481335D01*
X173045000Y-111198665D01*
X172989853Y-110921426D01*
X172881680Y-110660273D01*
X172724637Y-110425241D01*
X172524759Y-110225363D01*
X172292241Y-110070000D01*
X172524759Y-109914637D01*
X172724637Y-109714759D01*
X172881680Y-109479727D01*
X172989853Y-109218574D01*
X173045000Y-108941335D01*
X173045000Y-108658665D01*
X172989853Y-108381426D01*
X172881680Y-108120273D01*
X172724637Y-107885241D01*
X172524759Y-107685363D01*
X172292241Y-107530000D01*
X172524759Y-107374637D01*
X172724637Y-107174759D01*
X172881680Y-106939727D01*
X172989853Y-106678574D01*
X173045000Y-106401335D01*
X173045000Y-106118665D01*
X172989853Y-105841426D01*
X172881680Y-105580273D01*
X172724637Y-105345241D01*
X172524759Y-105145363D01*
X172292241Y-104990000D01*
X172524759Y-104834637D01*
X172724637Y-104634759D01*
X172881680Y-104399727D01*
X172989853Y-104138574D01*
X173045000Y-103861335D01*
X173045000Y-103578665D01*
X172989853Y-103301426D01*
X172881680Y-103040273D01*
X172724637Y-102805241D01*
X172524759Y-102605363D01*
X172292241Y-102450000D01*
X172524759Y-102294637D01*
X172724637Y-102094759D01*
X172881680Y-101859727D01*
X172989853Y-101598574D01*
X173045000Y-101321335D01*
X173045000Y-101038665D01*
X172989853Y-100761426D01*
X172881680Y-100500273D01*
X172724637Y-100265241D01*
X172524759Y-100065363D01*
X172292241Y-99910000D01*
X172524759Y-99754637D01*
X172724637Y-99554759D01*
X172881680Y-99319727D01*
X172989853Y-99058574D01*
X173045000Y-98781335D01*
X173045000Y-98498665D01*
X172989853Y-98221426D01*
X172881680Y-97960273D01*
X172724637Y-97725241D01*
X172524759Y-97525363D01*
X172292241Y-97370000D01*
X172524759Y-97214637D01*
X172724637Y-97014759D01*
X172881680Y-96779727D01*
X172989853Y-96518574D01*
X173045000Y-96241335D01*
X173045000Y-95958665D01*
X172989853Y-95681426D01*
X172881680Y-95420273D01*
X172724637Y-95185241D01*
X172524759Y-94985363D01*
X172292241Y-94830000D01*
X172524759Y-94674637D01*
X172724637Y-94474759D01*
X172881680Y-94239727D01*
X172989853Y-93978574D01*
X173045000Y-93701335D01*
X173045000Y-93418665D01*
X172989853Y-93141426D01*
X172881680Y-92880273D01*
X172724637Y-92645241D01*
X172524759Y-92445363D01*
X172292241Y-92290000D01*
X172524759Y-92134637D01*
X172724637Y-91934759D01*
X172881680Y-91699727D01*
X172989853Y-91438574D01*
X173045000Y-91161335D01*
X173045000Y-90989802D01*
X174240000Y-92184802D01*
X174240001Y-118132667D01*
X174236324Y-118170000D01*
X174250998Y-118318985D01*
X174294454Y-118462246D01*
X174365026Y-118594276D01*
X174415674Y-118655990D01*
X174460000Y-118710001D01*
X174488998Y-118733799D01*
X177808790Y-122053592D01*
X177765000Y-122273740D01*
X177765000Y-122566260D01*
X177822068Y-122853158D01*
X177934010Y-123123411D01*
X178096525Y-123366632D01*
X178303368Y-123573475D01*
X178477760Y-123690000D01*
X178303368Y-123806525D01*
X178096525Y-124013368D01*
X177934010Y-124256589D01*
X177822068Y-124526842D01*
X177765000Y-124813740D01*
X177765000Y-125106260D01*
X177822068Y-125393158D01*
X177934010Y-125663411D01*
X178096525Y-125906632D01*
X178228380Y-126038487D01*
X178155820Y-126060498D01*
X178045506Y-126119463D01*
X177948815Y-126198815D01*
X177869463Y-126295506D01*
X177810498Y-126405820D01*
X177774188Y-126525518D01*
X177761928Y-126650000D01*
X177761928Y-128350000D01*
X177774188Y-128474482D01*
X177810498Y-128594180D01*
X177869463Y-128704494D01*
X177948815Y-128801185D01*
X178045506Y-128880537D01*
X178155820Y-128939502D01*
X178275518Y-128975812D01*
X178400000Y-128988072D01*
X180100000Y-128988072D01*
X180224482Y-128975812D01*
X180344180Y-128939502D01*
X180454494Y-128880537D01*
X180551185Y-128801185D01*
X180630537Y-128704494D01*
X180689502Y-128594180D01*
X180725812Y-128474482D01*
X180738072Y-128350000D01*
X180738072Y-126650000D01*
X180725812Y-126525518D01*
X180689502Y-126405820D01*
X180630537Y-126295506D01*
X180551185Y-126198815D01*
X180454494Y-126119463D01*
X180344180Y-126060498D01*
X180271620Y-126038487D01*
X180403475Y-125906632D01*
X180565990Y-125663411D01*
X180677932Y-125393158D01*
X180735000Y-125106260D01*
X180735000Y-124813740D01*
X180677932Y-124526842D01*
X180565990Y-124256589D01*
X180403475Y-124013368D01*
X180196632Y-123806525D01*
X180022240Y-123690000D01*
X180196632Y-123573475D01*
X180403475Y-123366632D01*
X180565990Y-123123411D01*
X180677932Y-122853158D01*
X180735000Y-122566260D01*
X180735000Y-122273740D01*
X180677932Y-121986842D01*
X180565990Y-121716589D01*
X180403475Y-121473368D01*
X180196632Y-121266525D01*
X180022240Y-121150000D01*
X180196632Y-121033475D01*
X180403475Y-120826632D01*
X180565990Y-120583411D01*
X180677932Y-120313158D01*
X180735000Y-120026260D01*
X180735000Y-119733740D01*
X180677932Y-119446842D01*
X180565990Y-119176589D01*
X180403475Y-118933368D01*
X180196632Y-118726525D01*
X180022240Y-118610000D01*
X180196632Y-118493475D01*
X180403475Y-118286632D01*
X180565990Y-118043411D01*
X180677932Y-117773158D01*
X180735000Y-117486260D01*
X180735000Y-117193740D01*
X180677932Y-116906842D01*
X180565990Y-116636589D01*
X180403475Y-116393368D01*
X180196632Y-116186525D01*
X180022240Y-116070000D01*
X180196632Y-115953475D01*
X180403475Y-115746632D01*
X180565990Y-115503411D01*
X180677932Y-115233158D01*
X180735000Y-114946260D01*
X180735000Y-114653740D01*
X180677932Y-114366842D01*
X180565990Y-114096589D01*
X180403475Y-113853368D01*
X180196632Y-113646525D01*
X180022240Y-113530000D01*
X180196632Y-113413475D01*
X180403475Y-113206632D01*
X180565990Y-112963411D01*
X180677932Y-112693158D01*
X180735000Y-112406260D01*
X180735000Y-112113740D01*
X180677932Y-111826842D01*
X180565990Y-111556589D01*
X180403475Y-111313368D01*
X180196632Y-111106525D01*
X180022240Y-110990000D01*
X180196632Y-110873475D01*
X180403475Y-110666632D01*
X180565990Y-110423411D01*
X180677932Y-110153158D01*
X180735000Y-109866260D01*
X180735000Y-109573740D01*
X180677932Y-109286842D01*
X180565990Y-109016589D01*
X180403475Y-108773368D01*
X180196632Y-108566525D01*
X180014466Y-108444805D01*
X180131355Y-108375178D01*
X180347588Y-108180269D01*
X180521641Y-107946920D01*
X180646825Y-107684099D01*
X180691476Y-107536890D01*
X180570155Y-107307000D01*
X179377000Y-107307000D01*
X179377000Y-107327000D01*
X179123000Y-107327000D01*
X179123000Y-107307000D01*
X177929845Y-107307000D01*
X177808524Y-107536890D01*
X177853175Y-107684099D01*
X177978359Y-107946920D01*
X178152412Y-108180269D01*
X178368645Y-108375178D01*
X178485534Y-108444805D01*
X178303368Y-108566525D01*
X178096525Y-108773368D01*
X177934010Y-109016589D01*
X177822068Y-109286842D01*
X177765000Y-109573740D01*
X177765000Y-109866260D01*
X177822068Y-110153158D01*
X177934010Y-110423411D01*
X178096525Y-110666632D01*
X178303368Y-110873475D01*
X178477760Y-110990000D01*
X178303368Y-111106525D01*
X178096525Y-111313368D01*
X177934010Y-111556589D01*
X177822068Y-111826842D01*
X177765000Y-112113740D01*
X177765000Y-112406260D01*
X177822068Y-112693158D01*
X177934010Y-112963411D01*
X178096525Y-113206632D01*
X178303368Y-113413475D01*
X178477760Y-113530000D01*
X178303368Y-113646525D01*
X178096525Y-113853368D01*
X177934010Y-114096589D01*
X177822068Y-114366842D01*
X177765000Y-114653740D01*
X177765000Y-114946260D01*
X177822068Y-115233158D01*
X177934010Y-115503411D01*
X178096525Y-115746632D01*
X178303368Y-115953475D01*
X178477760Y-116070000D01*
X178303368Y-116186525D01*
X178096525Y-116393368D01*
X177934010Y-116636589D01*
X177822068Y-116906842D01*
X177765000Y-117193740D01*
X177765000Y-117486260D01*
X177822068Y-117773158D01*
X177934010Y-118043411D01*
X178096525Y-118286632D01*
X178303368Y-118493475D01*
X178477760Y-118610000D01*
X178303368Y-118726525D01*
X178096525Y-118933368D01*
X177934010Y-119176589D01*
X177822068Y-119446842D01*
X177765000Y-119733740D01*
X177765000Y-119860198D01*
X175760000Y-117855199D01*
X175760000Y-91907323D01*
X175763676Y-91870000D01*
X175760000Y-91832677D01*
X175760000Y-91832667D01*
X175749003Y-91721014D01*
X175705546Y-91577753D01*
X175634975Y-91445725D01*
X175634974Y-91445723D01*
X175563799Y-91358997D01*
X175540001Y-91329999D01*
X175511004Y-91306202D01*
X173458542Y-89253740D01*
X177765000Y-89253740D01*
X177765000Y-89546260D01*
X177822068Y-89833158D01*
X177934010Y-90103411D01*
X178096525Y-90346632D01*
X178303368Y-90553475D01*
X178477760Y-90670000D01*
X178303368Y-90786525D01*
X178096525Y-90993368D01*
X177934010Y-91236589D01*
X177822068Y-91506842D01*
X177765000Y-91793740D01*
X177765000Y-92086260D01*
X177822068Y-92373158D01*
X177934010Y-92643411D01*
X178096525Y-92886632D01*
X178303368Y-93093475D01*
X178477760Y-93210000D01*
X178303368Y-93326525D01*
X178096525Y-93533368D01*
X177934010Y-93776589D01*
X177822068Y-94046842D01*
X177765000Y-94333740D01*
X177765000Y-94626260D01*
X177822068Y-94913158D01*
X177934010Y-95183411D01*
X178096525Y-95426632D01*
X178303368Y-95633475D01*
X178477760Y-95750000D01*
X178303368Y-95866525D01*
X178096525Y-96073368D01*
X177934010Y-96316589D01*
X177822068Y-96586842D01*
X177765000Y-96873740D01*
X177765000Y-97166260D01*
X177822068Y-97453158D01*
X177934010Y-97723411D01*
X178096525Y-97966632D01*
X178303368Y-98173475D01*
X178477760Y-98290000D01*
X178303368Y-98406525D01*
X178096525Y-98613368D01*
X177934010Y-98856589D01*
X177822068Y-99126842D01*
X177765000Y-99413740D01*
X177765000Y-99706260D01*
X177822068Y-99993158D01*
X177934010Y-100263411D01*
X178096525Y-100506632D01*
X178303368Y-100713475D01*
X178477760Y-100830000D01*
X178303368Y-100946525D01*
X178096525Y-101153368D01*
X177934010Y-101396589D01*
X177822068Y-101666842D01*
X177765000Y-101953740D01*
X177765000Y-102246260D01*
X177822068Y-102533158D01*
X177934010Y-102803411D01*
X178096525Y-103046632D01*
X178303368Y-103253475D01*
X178477760Y-103370000D01*
X178303368Y-103486525D01*
X178096525Y-103693368D01*
X177934010Y-103936589D01*
X177822068Y-104206842D01*
X177765000Y-104493740D01*
X177765000Y-104786260D01*
X177822068Y-105073158D01*
X177934010Y-105343411D01*
X178096525Y-105586632D01*
X178303368Y-105793475D01*
X178485534Y-105915195D01*
X178368645Y-105984822D01*
X178152412Y-106179731D01*
X177978359Y-106413080D01*
X177853175Y-106675901D01*
X177808524Y-106823110D01*
X177929845Y-107053000D01*
X179123000Y-107053000D01*
X179123000Y-107033000D01*
X179377000Y-107033000D01*
X179377000Y-107053000D01*
X180570155Y-107053000D01*
X180691476Y-106823110D01*
X180646825Y-106675901D01*
X180521641Y-106413080D01*
X180347588Y-106179731D01*
X180131355Y-105984822D01*
X180014466Y-105915195D01*
X180196632Y-105793475D01*
X180403475Y-105586632D01*
X180565990Y-105343411D01*
X180677932Y-105073158D01*
X180735000Y-104786260D01*
X180735000Y-104493740D01*
X180677932Y-104206842D01*
X180565990Y-103936589D01*
X180403475Y-103693368D01*
X180196632Y-103486525D01*
X180022240Y-103370000D01*
X180196632Y-103253475D01*
X180403475Y-103046632D01*
X180565990Y-102803411D01*
X180677932Y-102533158D01*
X180735000Y-102246260D01*
X180735000Y-101953740D01*
X180677932Y-101666842D01*
X180565990Y-101396589D01*
X180403475Y-101153368D01*
X180196632Y-100946525D01*
X180022240Y-100830000D01*
X180196632Y-100713475D01*
X180403475Y-100506632D01*
X180565990Y-100263411D01*
X180677932Y-99993158D01*
X180735000Y-99706260D01*
X180735000Y-99413740D01*
X180677932Y-99126842D01*
X180565990Y-98856589D01*
X180403475Y-98613368D01*
X180196632Y-98406525D01*
X180022240Y-98290000D01*
X180196632Y-98173475D01*
X180403475Y-97966632D01*
X180565990Y-97723411D01*
X180677932Y-97453158D01*
X180735000Y-97166260D01*
X180735000Y-96873740D01*
X180677932Y-96586842D01*
X180565990Y-96316589D01*
X180403475Y-96073368D01*
X180196632Y-95866525D01*
X180022240Y-95750000D01*
X180196632Y-95633475D01*
X180403475Y-95426632D01*
X180565990Y-95183411D01*
X180677932Y-94913158D01*
X180735000Y-94626260D01*
X180735000Y-94333740D01*
X180677932Y-94046842D01*
X180565990Y-93776589D01*
X180403475Y-93533368D01*
X180196632Y-93326525D01*
X180022240Y-93210000D01*
X180196632Y-93093475D01*
X180403475Y-92886632D01*
X180565990Y-92643411D01*
X180677932Y-92373158D01*
X180735000Y-92086260D01*
X180735000Y-91793740D01*
X180677932Y-91506842D01*
X180565990Y-91236589D01*
X180403475Y-90993368D01*
X180196632Y-90786525D01*
X180022240Y-90670000D01*
X180196632Y-90553475D01*
X180403475Y-90346632D01*
X180565990Y-90103411D01*
X180677932Y-89833158D01*
X180735000Y-89546260D01*
X180735000Y-89253740D01*
X180677932Y-88966842D01*
X180565990Y-88696589D01*
X180403475Y-88453368D01*
X180196632Y-88246525D01*
X179953411Y-88084010D01*
X179683158Y-87972068D01*
X179396260Y-87915000D01*
X179103740Y-87915000D01*
X178816842Y-87972068D01*
X178546589Y-88084010D01*
X178303368Y-88246525D01*
X178096525Y-88453368D01*
X177934010Y-88696589D01*
X177822068Y-88966842D01*
X177765000Y-89253740D01*
X173458542Y-89253740D01*
X173008688Y-88803887D01*
X173045000Y-88621335D01*
X173045000Y-88338665D01*
X172989853Y-88061426D01*
X172881680Y-87800273D01*
X172724637Y-87565241D01*
X172524759Y-87365363D01*
X172292241Y-87210000D01*
X172524759Y-87054637D01*
X172724637Y-86854759D01*
X172881680Y-86619727D01*
X172989853Y-86358574D01*
X173045000Y-86081335D01*
X173045000Y-85798665D01*
X172989853Y-85521426D01*
X172881680Y-85260273D01*
X172724637Y-85025241D01*
X172524759Y-84825363D01*
X172289727Y-84668320D01*
X172028574Y-84560147D01*
X171751335Y-84505000D01*
X171468665Y-84505000D01*
X171191426Y-84560147D01*
X170930273Y-84668320D01*
X170695241Y-84825363D01*
X170495363Y-85025241D01*
X170338320Y-85260273D01*
X170230147Y-85521426D01*
X170175000Y-85798665D01*
X157805000Y-85798665D01*
X157749853Y-85521426D01*
X157641680Y-85260273D01*
X157484637Y-85025241D01*
X157284759Y-84825363D01*
X157049727Y-84668320D01*
X156788574Y-84560147D01*
X156511335Y-84505000D01*
X156228665Y-84505000D01*
X155951426Y-84560147D01*
X155690273Y-84668320D01*
X155455241Y-84825363D01*
X155255363Y-85025241D01*
X155098320Y-85260273D01*
X154990147Y-85521426D01*
X154935000Y-85798665D01*
X146685000Y-85798665D01*
X146685000Y-79685000D01*
X181315000Y-79685000D01*
X181315001Y-131315000D01*
G37*
G04 #@! TD.AperFunction*
M02*
