M48
; DRILL file {KiCad (5.1.9)-1} date 03/31/21 18:40:20
; FORMAT={-:-/ absolute / inch / decimal}
; #@! TF.CreationDate,2021-03-31T18:40:20+02:00
; #@! TF.GenerationSoftware,Kicad,Pcbnew,(5.1.9)-1
; #@! TF.FileFunction,Plated,1,2,PTH
FMAT,2
INCH
T1C0.0157
T2C0.0394
%
G90
G05
T1
X5.8071Y-3.2677
X5.8661Y-3.4252
X6.2795Y-3.7598
X6.2795Y-4.2913
X6.6339Y-3.7598
X6.6339Y-4.2913
X6.8701Y-3.2677
X6.8898Y-3.4252
X7.1063Y-3.2677
T2
X5.8563Y-3.5236
X5.8563Y-3.6236
X5.8563Y-3.7236
X5.8563Y-3.8236
X5.8563Y-3.9236
X5.8563Y-4.0236
X5.8563Y-4.1236
X5.8563Y-4.2236
X5.8563Y-4.3236
X5.8563Y-4.4236
X5.8563Y-4.5236
X5.8563Y-4.6236
X5.8563Y-4.7236
X5.8563Y-4.8236
X5.8563Y-4.9236
X5.8563Y-5.0236
X6.1563Y-3.3835
X6.1563Y-3.4835
X6.1563Y-3.5835
X6.1563Y-3.6835
X6.1563Y-3.7835
X6.1563Y-3.8835
X6.1563Y-3.9835
X6.1563Y-4.0835
X6.1563Y-4.1835
X6.1563Y-4.2835
X6.1563Y-4.3835
X6.1563Y-4.4835
X6.1563Y-4.5835
X6.1563Y-4.6835
X6.1563Y-4.7835
X6.7563Y-3.3835
X6.7563Y-3.4835
X6.7563Y-3.5835
X6.7563Y-3.6835
X6.7563Y-3.7835
X6.7563Y-3.8835
X6.7563Y-3.9835
X6.7563Y-4.0835
X6.7563Y-4.1835
X6.7563Y-4.2835
X6.7563Y-4.3835
X6.7563Y-4.4835
X6.7563Y-4.5835
X6.7563Y-4.6835
X6.7563Y-4.7835
X7.0571Y-3.5197
X7.0571Y-3.6197
X7.0571Y-3.7197
X7.0571Y-3.8197
X7.0571Y-3.9197
X7.0571Y-4.0197
X7.0571Y-4.1197
X7.0571Y-4.2197
X7.0571Y-4.3197
X7.0571Y-4.4197
X7.0571Y-4.5197
X7.0571Y-4.6197
X7.0571Y-4.7197
X7.0571Y-4.8197
X7.0571Y-4.9197
X7.0571Y-5.0197
T0
M30
