M48
; DRILL file {KiCad (6.0.11)} date Sat Mar  4 17:47:12 2023
; FORMAT={-:-/ absolute / metric / decimal}
; #@! TF.CreationDate,2023-03-04T17:47:12+01:00
; #@! TF.GenerationSoftware,Kicad,Pcbnew,(6.0.11)
; #@! TF.FileFunction,Plated,1,2,PTH
FMAT,2
METRIC
; #@! TA.AperFunction,Plated,PTH,ViaDrill
T1C0.400
; #@! TA.AperFunction,Plated,PTH,ComponentDrill
T2C1.000
%
G90
G05
T1
X158.525Y-73.675
X159.05Y-91.35
X163.275Y-75.575
X166.85Y-87.9
X167.1Y-74.3
X167.5Y-82.3
X169.8Y-84.6
X169.9Y-79.75
X169.9Y-88.2
X170.8Y-76.6
X171.8Y-78.06
X172.5Y-82.15
X172.7Y-84.25
X172.75Y-79.83
X173.135Y-81.24
X173.15Y-76.0
X173.444Y-88.568
X174.597Y-83.049
X175.15Y-76.5
X175.375Y-80.186
X175.375Y-81.4
X175.7Y-79.02
X175.98Y-83.87
X180.1Y-74.2
X180.82Y-83.87
X181.325Y-76.625
X183.9Y-75.7
X184.95Y-84.7
X185.65Y-81.6
X188.4Y-87.55
X190.25Y-88.2
X192.575Y-80.825
X194.45Y-88.1
X195.1Y-75.1
X195.2Y-74.0
T2
X159.8Y-75.54
X159.8Y-78.08
X159.8Y-80.62
X159.8Y-83.16
X159.8Y-88.24
X163.52Y-73.0
X163.55Y-90.78
X166.06Y-73.0
X166.09Y-90.78
X168.6Y-73.0
X168.63Y-90.78
X171.14Y-73.0
X171.17Y-90.78
X173.68Y-73.0
X173.71Y-90.78
X176.22Y-73.0
X176.25Y-90.78
X178.76Y-73.0
X178.79Y-90.78
X181.3Y-73.0
X181.33Y-90.78
X183.84Y-73.0
X183.87Y-90.78
X186.38Y-73.0
X186.41Y-90.78
X188.92Y-73.0
X188.95Y-90.78
X191.46Y-73.0
X191.49Y-90.78
X194.0Y-73.0
X194.03Y-90.78
T0
M30
