G04 #@! TF.GenerationSoftware,KiCad,Pcbnew,(6.0.11)*
G04 #@! TF.CreationDate,2023-03-04T17:47:10+01:00*
G04 #@! TF.ProjectId,ATMEGA328P_AU_BreadboardAdapter,41544d45-4741-4333-9238-505f41555f42,rev?*
G04 #@! TF.SameCoordinates,Original*
G04 #@! TF.FileFunction,Soldermask,Bot*
G04 #@! TF.FilePolarity,Negative*
%FSLAX46Y46*%
G04 Gerber Fmt 4.6, Leading zero omitted, Abs format (unit mm)*
G04 Created by KiCad (PCBNEW (6.0.11)) date 2023-03-04 17:47:10*
%MOMM*%
%LPD*%
G01*
G04 APERTURE LIST*
G04 Aperture macros list*
%AMRoundRect*
0 Rectangle with rounded corners*
0 $1 Rounding radius*
0 $2 $3 $4 $5 $6 $7 $8 $9 X,Y pos of 4 corners*
0 Add a 4 corners polygon primitive as box body*
4,1,4,$2,$3,$4,$5,$6,$7,$8,$9,$2,$3,0*
0 Add four circle primitives for the rounded corners*
1,1,$1+$1,$2,$3*
1,1,$1+$1,$4,$5*
1,1,$1+$1,$6,$7*
1,1,$1+$1,$8,$9*
0 Add four rect primitives between the rounded corners*
20,1,$1+$1,$2,$3,$4,$5,0*
20,1,$1+$1,$4,$5,$6,$7,0*
20,1,$1+$1,$6,$7,$8,$9,0*
20,1,$1+$1,$8,$9,$2,$3,0*%
G04 Aperture macros list end*
%ADD10R,1.650000X2.000000*%
%ADD11R,0.400000X1.000000*%
%ADD12O,1.700000X1.700000*%
%ADD13R,0.650000X1.560000*%
%ADD14RoundRect,0.237500X-0.237500X0.250000X-0.237500X-0.250000X0.237500X-0.250000X0.237500X0.250000X0*%
%ADD15RoundRect,0.237500X0.250000X0.237500X-0.250000X0.237500X-0.250000X-0.237500X0.250000X-0.237500X0*%
%ADD16RoundRect,0.237500X0.237500X-0.250000X0.237500X0.250000X-0.237500X0.250000X-0.237500X-0.250000X0*%
%ADD17RoundRect,0.237500X-0.250000X-0.237500X0.250000X-0.237500X0.250000X0.237500X-0.250000X0.237500X0*%
%ADD18R,0.550000X1.050000*%
%ADD19RoundRect,0.237500X0.287500X0.237500X-0.287500X0.237500X-0.287500X-0.237500X0.287500X-0.237500X0*%
%ADD20RoundRect,0.237500X0.300000X0.237500X-0.300000X0.237500X-0.300000X-0.237500X0.300000X-0.237500X0*%
%ADD21RoundRect,0.237500X-0.300000X-0.237500X0.300000X-0.237500X0.300000X0.237500X-0.300000X0.237500X0*%
%ADD22RoundRect,0.237500X-0.237500X0.300000X-0.237500X-0.300000X0.237500X-0.300000X0.237500X0.300000X0*%
%ADD23C,0.700000*%
%ADD24R,1.700000X1.700000*%
G04 APERTURE END LIST*
D10*
X186675000Y-79150000D03*
X184325000Y-79150000D03*
D11*
X178250000Y-78800000D03*
X177600000Y-78800000D03*
X176950000Y-78800000D03*
X176950000Y-76600000D03*
X177600000Y-76600000D03*
X178250000Y-76600000D03*
D12*
X194030000Y-90780000D03*
X191490000Y-90780000D03*
X188950000Y-90780000D03*
X186410000Y-90780000D03*
X183870000Y-90780000D03*
X181330000Y-90780000D03*
X178790000Y-90780000D03*
X176250000Y-90780000D03*
X173710000Y-90780000D03*
X171170000Y-90780000D03*
X168630000Y-90780000D03*
X166090000Y-90780000D03*
X163550000Y-90780000D03*
X194000000Y-73000000D03*
X191460000Y-73000000D03*
X188920000Y-73000000D03*
X186380000Y-73000000D03*
X183840000Y-73000000D03*
X181300000Y-73000000D03*
X178760000Y-73000000D03*
X176220000Y-73000000D03*
X173680000Y-73000000D03*
X171140000Y-73000000D03*
X168600000Y-73000000D03*
X166060000Y-73000000D03*
X163520000Y-73000000D03*
D13*
X189050000Y-80550000D03*
X190000000Y-80550000D03*
X190950000Y-80550000D03*
X190950000Y-83250000D03*
X190000000Y-83250000D03*
X189050000Y-83250000D03*
D14*
X180550000Y-81362500D03*
X180550000Y-79537500D03*
X180550000Y-77862500D03*
X180550000Y-76037500D03*
D15*
X189087500Y-85900000D03*
X190912500Y-85900000D03*
D16*
X194500000Y-77987500D03*
X194500000Y-76162500D03*
D17*
X185387500Y-85900000D03*
X187212500Y-85900000D03*
X183512500Y-85900000D03*
X181687500Y-85900000D03*
D18*
X176950000Y-81350000D03*
X177900000Y-81350000D03*
X178850000Y-81350000D03*
X178850000Y-83950000D03*
X177900000Y-83950000D03*
X176950000Y-83950000D03*
D19*
X179575000Y-85900000D03*
X177825000Y-85900000D03*
D20*
X185437500Y-87550000D03*
X187162500Y-87550000D03*
D21*
X190862500Y-78300000D03*
X189137500Y-78300000D03*
X190862500Y-75900000D03*
X189137500Y-75900000D03*
D20*
X184462500Y-81700000D03*
X182737500Y-81700000D03*
X182737500Y-83600000D03*
X184462500Y-83600000D03*
D22*
X187100000Y-81837500D03*
X187100000Y-83562500D03*
D23*
X195162000Y-81890000D03*
X192558500Y-81890000D03*
D24*
X159800000Y-88240000D03*
D12*
X159800000Y-83160000D03*
X159800000Y-80620000D03*
X159800000Y-78080000D03*
X159800000Y-75540000D03*
M02*
