G04 #@! TF.GenerationSoftware,KiCad,Pcbnew,(6.0.11)*
G04 #@! TF.CreationDate,2023-03-04T17:47:10+01:00*
G04 #@! TF.ProjectId,ATMEGA328P_AU_BreadboardAdapter,41544d45-4741-4333-9238-505f41555f42,rev?*
G04 #@! TF.SameCoordinates,Original*
G04 #@! TF.FileFunction,Paste,Top*
G04 #@! TF.FilePolarity,Positive*
%FSLAX46Y46*%
G04 Gerber Fmt 4.6, Leading zero omitted, Abs format (unit mm)*
G04 Created by KiCad (PCBNEW (6.0.11)) date 2023-03-04 17:47:10*
%MOMM*%
%LPD*%
G01*
G04 APERTURE LIST*
G04 Aperture macros list*
%AMRoundRect*
0 Rectangle with rounded corners*
0 $1 Rounding radius*
0 $2 $3 $4 $5 $6 $7 $8 $9 X,Y pos of 4 corners*
0 Add a 4 corners polygon primitive as box body*
4,1,4,$2,$3,$4,$5,$6,$7,$8,$9,$2,$3,0*
0 Add four circle primitives for the rounded corners*
1,1,$1+$1,$2,$3*
1,1,$1+$1,$4,$5*
1,1,$1+$1,$6,$7*
1,1,$1+$1,$8,$9*
0 Add four rect primitives between the rounded corners*
20,1,$1+$1,$2,$3,$4,$5,0*
20,1,$1+$1,$4,$5,$6,$7,0*
20,1,$1+$1,$6,$7,$8,$9,0*
20,1,$1+$1,$8,$9,$2,$3,0*%
G04 Aperture macros list end*
%ADD10RoundRect,0.237500X-0.237500X0.250000X-0.237500X-0.250000X0.237500X-0.250000X0.237500X0.250000X0*%
%ADD11RoundRect,0.237500X0.237500X-0.287500X0.237500X0.287500X-0.237500X0.287500X-0.237500X-0.287500X0*%
%ADD12RoundRect,0.237500X0.237500X-0.300000X0.237500X0.300000X-0.237500X0.300000X-0.237500X-0.300000X0*%
%ADD13R,1.725000X2.100000*%
%ADD14RoundRect,0.237500X-0.237500X0.300000X-0.237500X-0.300000X0.237500X-0.300000X0.237500X0.300000X0*%
%ADD15RoundRect,0.237500X0.237500X-0.250000X0.237500X0.250000X-0.237500X0.250000X-0.237500X-0.250000X0*%
%ADD16RoundRect,0.237500X-0.300000X-0.237500X0.300000X-0.237500X0.300000X0.237500X-0.300000X0.237500X0*%
%ADD17R,1.200000X1.600000*%
%ADD18R,1.500000X0.550000*%
%ADD19R,0.550000X1.500000*%
G04 APERTURE END LIST*
D10*
X188900000Y-81212500D03*
X188900000Y-79387500D03*
D11*
X191500000Y-75800000D03*
X191500000Y-77550000D03*
X194100000Y-75800000D03*
X194100000Y-77550000D03*
D10*
X188900000Y-83187500D03*
X188900000Y-85012500D03*
X188900000Y-75785000D03*
X188900000Y-77610000D03*
D12*
X168600000Y-84012500D03*
X168600000Y-82287500D03*
D13*
X165725000Y-85500000D03*
X165725000Y-82600000D03*
X163550000Y-82600000D03*
X163550000Y-85500000D03*
D14*
X182650000Y-80032500D03*
X182650000Y-81757500D03*
D15*
X166900000Y-77825000D03*
X166900000Y-76000000D03*
D16*
X159387500Y-72600000D03*
X161112500Y-72600000D03*
D17*
X194802500Y-79540500D03*
X194802500Y-84239500D03*
X192918000Y-79540500D03*
X192918000Y-84239500D03*
D14*
X168600000Y-85787500D03*
X168600000Y-87512500D03*
D12*
X182650000Y-85337500D03*
X182650000Y-83612500D03*
D16*
X166887500Y-79750000D03*
X168612500Y-79750000D03*
D18*
X171300000Y-79070000D03*
X171300000Y-79870000D03*
X171300000Y-80670000D03*
X171300000Y-81470000D03*
X171300000Y-82270000D03*
X171300000Y-83070000D03*
X171300000Y-83870000D03*
X171300000Y-84670000D03*
D19*
X172700000Y-86070000D03*
X173500000Y-86070000D03*
X174300000Y-86070000D03*
X175100000Y-86070000D03*
X175900000Y-86070000D03*
X176700000Y-86070000D03*
X177500000Y-86070000D03*
X178300000Y-86070000D03*
D18*
X179700000Y-84670000D03*
X179700000Y-83870000D03*
X179700000Y-83070000D03*
X179700000Y-82270000D03*
X179700000Y-81470000D03*
X179700000Y-80670000D03*
X179700000Y-79870000D03*
X179700000Y-79070000D03*
D19*
X178300000Y-77670000D03*
X177500000Y-77670000D03*
X176700000Y-77670000D03*
X175900000Y-77670000D03*
X175100000Y-77670000D03*
X174300000Y-77670000D03*
X173500000Y-77670000D03*
X172700000Y-77670000D03*
D10*
X168600000Y-76000000D03*
X168600000Y-77825000D03*
D11*
X186350000Y-75800000D03*
X186350000Y-77550000D03*
M02*
