G04 #@! TF.GenerationSoftware,KiCad,Pcbnew,(6.0.11)*
G04 #@! TF.CreationDate,2023-03-04T17:47:10+01:00*
G04 #@! TF.ProjectId,ATMEGA328P_AU_BreadboardAdapter,41544d45-4741-4333-9238-505f41555f42,rev?*
G04 #@! TF.SameCoordinates,Original*
G04 #@! TF.FileFunction,Paste,Bot*
G04 #@! TF.FilePolarity,Positive*
%FSLAX46Y46*%
G04 Gerber Fmt 4.6, Leading zero omitted, Abs format (unit mm)*
G04 Created by KiCad (PCBNEW (6.0.11)) date 2023-03-04 17:47:10*
%MOMM*%
%LPD*%
G01*
G04 APERTURE LIST*
G04 Aperture macros list*
%AMRoundRect*
0 Rectangle with rounded corners*
0 $1 Rounding radius*
0 $2 $3 $4 $5 $6 $7 $8 $9 X,Y pos of 4 corners*
0 Add a 4 corners polygon primitive as box body*
4,1,4,$2,$3,$4,$5,$6,$7,$8,$9,$2,$3,0*
0 Add four circle primitives for the rounded corners*
1,1,$1+$1,$2,$3*
1,1,$1+$1,$4,$5*
1,1,$1+$1,$6,$7*
1,1,$1+$1,$8,$9*
0 Add four rect primitives between the rounded corners*
20,1,$1+$1,$2,$3,$4,$5,0*
20,1,$1+$1,$4,$5,$6,$7,0*
20,1,$1+$1,$6,$7,$8,$9,0*
20,1,$1+$1,$8,$9,$2,$3,0*%
G04 Aperture macros list end*
%ADD10R,1.650000X2.000000*%
%ADD11R,0.400000X1.000000*%
%ADD12R,0.650000X1.560000*%
%ADD13RoundRect,0.237500X-0.237500X0.250000X-0.237500X-0.250000X0.237500X-0.250000X0.237500X0.250000X0*%
%ADD14RoundRect,0.237500X0.250000X0.237500X-0.250000X0.237500X-0.250000X-0.237500X0.250000X-0.237500X0*%
%ADD15RoundRect,0.237500X0.237500X-0.250000X0.237500X0.250000X-0.237500X0.250000X-0.237500X-0.250000X0*%
%ADD16RoundRect,0.237500X-0.250000X-0.237500X0.250000X-0.237500X0.250000X0.237500X-0.250000X0.237500X0*%
%ADD17R,0.550000X1.050000*%
%ADD18RoundRect,0.237500X0.287500X0.237500X-0.287500X0.237500X-0.287500X-0.237500X0.287500X-0.237500X0*%
%ADD19RoundRect,0.237500X0.300000X0.237500X-0.300000X0.237500X-0.300000X-0.237500X0.300000X-0.237500X0*%
%ADD20RoundRect,0.237500X-0.300000X-0.237500X0.300000X-0.237500X0.300000X0.237500X-0.300000X0.237500X0*%
%ADD21RoundRect,0.237500X-0.237500X0.300000X-0.237500X-0.300000X0.237500X-0.300000X0.237500X0.300000X0*%
G04 APERTURE END LIST*
D10*
X186675000Y-79150000D03*
X184325000Y-79150000D03*
D11*
X178250000Y-78800000D03*
X177600000Y-78800000D03*
X176950000Y-78800000D03*
X176950000Y-76600000D03*
X177600000Y-76600000D03*
X178250000Y-76600000D03*
D12*
X189050000Y-80550000D03*
X190000000Y-80550000D03*
X190950000Y-80550000D03*
X190950000Y-83250000D03*
X190000000Y-83250000D03*
X189050000Y-83250000D03*
D13*
X180550000Y-81362500D03*
X180550000Y-79537500D03*
X180550000Y-77862500D03*
X180550000Y-76037500D03*
D14*
X189087500Y-85900000D03*
X190912500Y-85900000D03*
D15*
X194500000Y-77987500D03*
X194500000Y-76162500D03*
D16*
X185387500Y-85900000D03*
X187212500Y-85900000D03*
X183512500Y-85900000D03*
X181687500Y-85900000D03*
D17*
X176950000Y-81350000D03*
X177900000Y-81350000D03*
X178850000Y-81350000D03*
X178850000Y-83950000D03*
X177900000Y-83950000D03*
X176950000Y-83950000D03*
D18*
X179575000Y-85900000D03*
X177825000Y-85900000D03*
D19*
X185437500Y-87550000D03*
X187162500Y-87550000D03*
D20*
X190862500Y-78300000D03*
X189137500Y-78300000D03*
X190862500Y-75900000D03*
X189137500Y-75900000D03*
D19*
X184462500Y-81700000D03*
X182737500Y-81700000D03*
X182737500Y-83600000D03*
X184462500Y-83600000D03*
D21*
X187100000Y-81837500D03*
X187100000Y-83562500D03*
M02*
