G04 #@! TF.GenerationSoftware,KiCad,Pcbnew,(6.0.11)*
G04 #@! TF.CreationDate,2023-03-04T17:47:10+01:00*
G04 #@! TF.ProjectId,ATMEGA328P_AU_BreadboardAdapter,41544d45-4741-4333-9238-505f41555f42,rev?*
G04 #@! TF.SameCoordinates,Original*
G04 #@! TF.FileFunction,Copper,L2,Bot*
G04 #@! TF.FilePolarity,Positive*
%FSLAX46Y46*%
G04 Gerber Fmt 4.6, Leading zero omitted, Abs format (unit mm)*
G04 Created by KiCad (PCBNEW (6.0.11)) date 2023-03-04 17:47:10*
%MOMM*%
%LPD*%
G01*
G04 APERTURE LIST*
G04 Aperture macros list*
%AMRoundRect*
0 Rectangle with rounded corners*
0 $1 Rounding radius*
0 $2 $3 $4 $5 $6 $7 $8 $9 X,Y pos of 4 corners*
0 Add a 4 corners polygon primitive as box body*
4,1,4,$2,$3,$4,$5,$6,$7,$8,$9,$2,$3,0*
0 Add four circle primitives for the rounded corners*
1,1,$1+$1,$2,$3*
1,1,$1+$1,$4,$5*
1,1,$1+$1,$6,$7*
1,1,$1+$1,$8,$9*
0 Add four rect primitives between the rounded corners*
20,1,$1+$1,$2,$3,$4,$5,0*
20,1,$1+$1,$4,$5,$6,$7,0*
20,1,$1+$1,$6,$7,$8,$9,0*
20,1,$1+$1,$8,$9,$2,$3,0*%
G04 Aperture macros list end*
G04 #@! TA.AperFunction,SMDPad,CuDef*
%ADD10R,1.650000X2.000000*%
G04 #@! TD*
G04 #@! TA.AperFunction,SMDPad,CuDef*
%ADD11R,0.400000X1.000000*%
G04 #@! TD*
G04 #@! TA.AperFunction,ComponentPad*
%ADD12O,1.700000X1.700000*%
G04 #@! TD*
G04 #@! TA.AperFunction,SMDPad,CuDef*
%ADD13R,0.650000X1.560000*%
G04 #@! TD*
G04 #@! TA.AperFunction,SMDPad,CuDef*
%ADD14RoundRect,0.237500X-0.237500X0.250000X-0.237500X-0.250000X0.237500X-0.250000X0.237500X0.250000X0*%
G04 #@! TD*
G04 #@! TA.AperFunction,SMDPad,CuDef*
%ADD15RoundRect,0.237500X0.250000X0.237500X-0.250000X0.237500X-0.250000X-0.237500X0.250000X-0.237500X0*%
G04 #@! TD*
G04 #@! TA.AperFunction,SMDPad,CuDef*
%ADD16RoundRect,0.237500X0.237500X-0.250000X0.237500X0.250000X-0.237500X0.250000X-0.237500X-0.250000X0*%
G04 #@! TD*
G04 #@! TA.AperFunction,SMDPad,CuDef*
%ADD17RoundRect,0.237500X-0.250000X-0.237500X0.250000X-0.237500X0.250000X0.237500X-0.250000X0.237500X0*%
G04 #@! TD*
G04 #@! TA.AperFunction,SMDPad,CuDef*
%ADD18R,0.550000X1.050000*%
G04 #@! TD*
G04 #@! TA.AperFunction,SMDPad,CuDef*
%ADD19RoundRect,0.237500X0.287500X0.237500X-0.287500X0.237500X-0.287500X-0.237500X0.287500X-0.237500X0*%
G04 #@! TD*
G04 #@! TA.AperFunction,SMDPad,CuDef*
%ADD20RoundRect,0.237500X0.300000X0.237500X-0.300000X0.237500X-0.300000X-0.237500X0.300000X-0.237500X0*%
G04 #@! TD*
G04 #@! TA.AperFunction,SMDPad,CuDef*
%ADD21RoundRect,0.237500X-0.300000X-0.237500X0.300000X-0.237500X0.300000X0.237500X-0.300000X0.237500X0*%
G04 #@! TD*
G04 #@! TA.AperFunction,SMDPad,CuDef*
%ADD22RoundRect,0.237500X-0.237500X0.300000X-0.237500X-0.300000X0.237500X-0.300000X0.237500X0.300000X0*%
G04 #@! TD*
G04 #@! TA.AperFunction,ComponentPad*
%ADD23R,1.700000X1.700000*%
G04 #@! TD*
G04 #@! TA.AperFunction,ViaPad*
%ADD24C,0.800000*%
G04 #@! TD*
G04 #@! TA.AperFunction,Conductor*
%ADD25C,0.250000*%
G04 #@! TD*
G04 #@! TA.AperFunction,Conductor*
%ADD26C,0.400000*%
G04 #@! TD*
G04 APERTURE END LIST*
D10*
X186675000Y-79150000D03*
X184325000Y-79150000D03*
D11*
X178250000Y-78800000D03*
X177600000Y-78800000D03*
X176950000Y-78800000D03*
X176950000Y-76600000D03*
X177600000Y-76600000D03*
X178250000Y-76600000D03*
D12*
X194030000Y-90780000D03*
X191490000Y-90780000D03*
X188950000Y-90780000D03*
X186410000Y-90780000D03*
X183870000Y-90780000D03*
X181330000Y-90780000D03*
X178790000Y-90780000D03*
X176250000Y-90780000D03*
X173710000Y-90780000D03*
X171170000Y-90780000D03*
X168630000Y-90780000D03*
X166090000Y-90780000D03*
X163550000Y-90780000D03*
X194000000Y-73000000D03*
X191460000Y-73000000D03*
X188920000Y-73000000D03*
X186380000Y-73000000D03*
X183840000Y-73000000D03*
X181300000Y-73000000D03*
X178760000Y-73000000D03*
X176220000Y-73000000D03*
X173680000Y-73000000D03*
X171140000Y-73000000D03*
X168600000Y-73000000D03*
X166060000Y-73000000D03*
X163520000Y-73000000D03*
D13*
X189050000Y-80550000D03*
X190000000Y-80550000D03*
X190950000Y-80550000D03*
X190950000Y-83250000D03*
X190000000Y-83250000D03*
X189050000Y-83250000D03*
D14*
X180550000Y-81362500D03*
X180550000Y-79537500D03*
X180550000Y-77862500D03*
X180550000Y-76037500D03*
D15*
X189087500Y-85900000D03*
X190912500Y-85900000D03*
D16*
X194500000Y-77987500D03*
X194500000Y-76162500D03*
D17*
X185387500Y-85900000D03*
X187212500Y-85900000D03*
X183512500Y-85900000D03*
X181687500Y-85900000D03*
D18*
X176950000Y-81350000D03*
X177900000Y-81350000D03*
X178850000Y-81350000D03*
X178850000Y-83950000D03*
X177900000Y-83950000D03*
X176950000Y-83950000D03*
D19*
X179575000Y-85900000D03*
X177825000Y-85900000D03*
D20*
X185437500Y-87550000D03*
X187162500Y-87550000D03*
D21*
X190862500Y-78300000D03*
X189137500Y-78300000D03*
X190862500Y-75900000D03*
X189137500Y-75900000D03*
D20*
X184462500Y-81700000D03*
X182737500Y-81700000D03*
X182737500Y-83600000D03*
X184462500Y-83600000D03*
D22*
X187100000Y-81837500D03*
X187100000Y-83562500D03*
D23*
X159800000Y-88240000D03*
D12*
X159800000Y-83160000D03*
X159800000Y-80620000D03*
X159800000Y-78080000D03*
X159800000Y-75540000D03*
D24*
X169900000Y-88200000D03*
X192575000Y-80825000D03*
X195200000Y-74000000D03*
X158525000Y-73675000D03*
X163275000Y-75575000D03*
X181325498Y-76625000D03*
X180100000Y-74200000D03*
X183900000Y-75700000D03*
X184950000Y-84700000D03*
X185650000Y-81600000D03*
X190250000Y-88200000D03*
X188400000Y-87550000D03*
X194450000Y-88100000D03*
X173150000Y-76000000D03*
X170800000Y-76600000D03*
X159050000Y-91350000D03*
X166850000Y-87900000D03*
X169800000Y-84600000D03*
X172500000Y-82150000D03*
X172700000Y-84250000D03*
X175375500Y-81400000D03*
X174596870Y-83048583D03*
X173443511Y-88568109D03*
X169900000Y-79750000D03*
X167500000Y-82300000D03*
X175150000Y-76500000D03*
X175980000Y-83870000D03*
X180820000Y-83870000D03*
X195100000Y-75100000D03*
X175700000Y-79019502D03*
X167100000Y-74300000D03*
X175375500Y-80185819D03*
X171800000Y-78060000D03*
X173135451Y-81240049D03*
X172750000Y-79830000D03*
D25*
X185437500Y-87550000D02*
X185437500Y-85950000D01*
X185437500Y-85950000D02*
X185387500Y-85900000D01*
X188600000Y-88450000D02*
X189100000Y-87950000D01*
X180375000Y-88450000D02*
X188600000Y-88450000D01*
X177825000Y-85900000D02*
X180375000Y-88450000D01*
D26*
X189650000Y-87400000D02*
X189100000Y-87950000D01*
X190801561Y-87400000D02*
X189650000Y-87400000D01*
X193475000Y-84726561D02*
X190801561Y-87400000D01*
X193475000Y-82450000D02*
X193475000Y-84726561D01*
X194500000Y-81425000D02*
X193475000Y-82450000D01*
X194500000Y-77987500D02*
X194500000Y-81425000D01*
D25*
X185650000Y-84000000D02*
X184950000Y-84700000D01*
X185650000Y-81600000D02*
X185650000Y-84000000D01*
D26*
X182600000Y-81837500D02*
X182737500Y-81700000D01*
X182600000Y-84987500D02*
X182600000Y-81837500D01*
X184325000Y-79150000D02*
X184325000Y-80112500D01*
X184325000Y-80112500D02*
X182737500Y-81700000D01*
X186675000Y-81412500D02*
X187100000Y-81837500D01*
X186675000Y-79150000D02*
X186675000Y-81412500D01*
D25*
X179287500Y-76600000D02*
X180550000Y-77862500D01*
X178250000Y-76600000D02*
X179287500Y-76600000D01*
X177600000Y-76600000D02*
X178250000Y-76600000D01*
X177600000Y-78800000D02*
X177600000Y-76600000D01*
X181350000Y-82100000D02*
X180700000Y-82750000D01*
X181350000Y-80879505D02*
X181350000Y-82100000D01*
X181020495Y-80550000D02*
X181350000Y-80879505D01*
X180700000Y-82750000D02*
X176950000Y-82750000D01*
X180049753Y-80579753D02*
X180079505Y-80550000D01*
X178250000Y-78780000D02*
X180049753Y-80579753D01*
X180079505Y-80550000D02*
X181020495Y-80550000D01*
X176950000Y-77450000D02*
X176425000Y-77975000D01*
X176950000Y-76750000D02*
X176950000Y-77450000D01*
X187162500Y-85950000D02*
X187212500Y-85900000D01*
X187162500Y-87550000D02*
X187162500Y-85950000D01*
X178850000Y-80600000D02*
X178850000Y-81350000D01*
X178600000Y-80350000D02*
X178850000Y-80600000D01*
X176950000Y-79950000D02*
X177350000Y-80350000D01*
X176950000Y-79030000D02*
X176950000Y-79950000D01*
X177350000Y-80350000D02*
X178600000Y-80350000D01*
X176425000Y-79319807D02*
X176425000Y-77975000D01*
X181615000Y-75225000D02*
X183840000Y-73000000D01*
X176425000Y-75225000D02*
X181615000Y-75225000D01*
X175150000Y-76500000D02*
X176425000Y-75225000D01*
X171750000Y-90200000D02*
X171170000Y-90780000D01*
X171750000Y-87050000D02*
X171750000Y-90200000D01*
X173500000Y-85300000D02*
X171750000Y-87050000D01*
X173421870Y-83535284D02*
X173500000Y-83613414D01*
X173421870Y-82561882D02*
X173421870Y-83535284D01*
X173500000Y-82483752D02*
X173421870Y-82561882D01*
X173500000Y-83613414D02*
X173500000Y-85300000D01*
X173500000Y-81604598D02*
X173500000Y-82483752D01*
X173135451Y-81240049D02*
X173500000Y-81604598D01*
X172600000Y-89670000D02*
X173710000Y-90780000D01*
X173871870Y-83348888D02*
X173950000Y-83427018D01*
X173871870Y-82748278D02*
X173871870Y-83348888D01*
X173950000Y-82670148D02*
X173871870Y-82748278D01*
X173950000Y-81030000D02*
X173950000Y-82670148D01*
X173950000Y-86700000D02*
X172600000Y-88050000D01*
X172600000Y-88050000D02*
X172600000Y-89670000D01*
X172750000Y-79830000D02*
X173950000Y-81030000D01*
X173950000Y-83427018D02*
X173950000Y-86700000D01*
X174750000Y-87261620D02*
X173443511Y-88568109D01*
X174750000Y-83201713D02*
X174750000Y-87261620D01*
X174596870Y-83048583D02*
X174750000Y-83201713D01*
X164770000Y-92000000D02*
X163550000Y-90780000D01*
X174885000Y-91465000D02*
X174350000Y-92000000D01*
X175200000Y-89978299D02*
X174885000Y-90293299D01*
X174885000Y-90293299D02*
X174885000Y-91465000D01*
X174350000Y-92000000D02*
X164770000Y-92000000D01*
X175375500Y-83274500D02*
X175200000Y-83450000D01*
X175200000Y-83450000D02*
X175200000Y-89978299D01*
X175375500Y-81400000D02*
X175375500Y-83274500D01*
X171300000Y-88110000D02*
X171300000Y-78560000D01*
X168630000Y-90780000D02*
X171300000Y-88110000D01*
X171300000Y-78560000D02*
X171800000Y-78060000D01*
X162030000Y-78080000D02*
X159800000Y-78080000D01*
X163850000Y-79900000D02*
X162030000Y-78080000D01*
X163850000Y-88540000D02*
X163850000Y-79900000D01*
X166090000Y-90780000D02*
X163850000Y-88540000D01*
X175980000Y-83870000D02*
X176100000Y-83750000D01*
X176100000Y-79644807D02*
X176425000Y-79319807D01*
X176100000Y-83750000D02*
X176100000Y-79644807D01*
X166060000Y-74660000D02*
X166060000Y-73000000D01*
X168735000Y-77335000D02*
X166060000Y-74660000D01*
X175375500Y-80185819D02*
X174951124Y-80185819D01*
X174951124Y-80185819D02*
X172100305Y-77335000D01*
X172100305Y-77335000D02*
X168735000Y-77335000D01*
X172185000Y-76885000D02*
X169600000Y-74300000D01*
X172286701Y-76885000D02*
X172185000Y-76885000D01*
X169600000Y-74300000D02*
X167100000Y-74300000D01*
X174421203Y-79019502D02*
X172286701Y-76885000D01*
X175700000Y-79019502D02*
X174421203Y-79019502D01*
X180550000Y-81362500D02*
X178862500Y-81362500D01*
D26*
X176950000Y-82750000D02*
X176950000Y-81350000D01*
X176950000Y-83950000D02*
X176950000Y-82750000D01*
X180740000Y-83950000D02*
X180820000Y-83870000D01*
X178850000Y-83950000D02*
X180740000Y-83950000D01*
D25*
X177900000Y-83950000D02*
X176950000Y-83950000D01*
D26*
X176950000Y-81350000D02*
X177900000Y-81350000D01*
D25*
X177825000Y-84025000D02*
X177900000Y-83950000D01*
X177825000Y-85900000D02*
X177825000Y-84025000D01*
D26*
X182600000Y-84987500D02*
X181687500Y-85900000D01*
X179575000Y-85900000D02*
X181687500Y-85900000D01*
D25*
X188462500Y-84650000D02*
X190950000Y-84650000D01*
X190950000Y-84650000D02*
X190950000Y-83250000D01*
X187212500Y-85900000D02*
X188462500Y-84650000D01*
X190950000Y-85862500D02*
X190950000Y-84650000D01*
X190912500Y-85900000D02*
X190950000Y-85862500D01*
X183512500Y-85900000D02*
X185387500Y-85900000D01*
D26*
X189892500Y-81837500D02*
X187100000Y-81837500D01*
X190000000Y-81730000D02*
X189892500Y-81837500D01*
X190000000Y-80550000D02*
X190000000Y-81730000D01*
D25*
X187100000Y-83562500D02*
X188737500Y-83562500D01*
X188737500Y-83562500D02*
X189050000Y-83250000D01*
X195100000Y-75812500D02*
X195012500Y-75900000D01*
X195100000Y-75100000D02*
X195100000Y-75812500D01*
D26*
X191100000Y-75900000D02*
X194000000Y-73000000D01*
X190862500Y-75900000D02*
X191100000Y-75900000D01*
X190950000Y-75987500D02*
X190862500Y-75900000D01*
X190950000Y-80550000D02*
X190950000Y-75987500D01*
G04 #@! TA.AperFunction,Conductor*
G36*
X194581156Y-82069335D02*
G01*
X194594704Y-82089611D01*
X194634369Y-82185368D01*
X194637464Y-82192841D01*
X194733718Y-82318282D01*
X194859159Y-82414536D01*
X194862942Y-82416103D01*
X195001452Y-82473476D01*
X195001453Y-82473476D01*
X195005238Y-82475044D01*
X195009300Y-82475579D01*
X195009301Y-82475579D01*
X195120608Y-82490233D01*
X195120614Y-82490233D01*
X195122639Y-82490500D01*
X195201361Y-82490500D01*
X195203386Y-82490233D01*
X195203392Y-82490233D01*
X195314699Y-82475579D01*
X195314700Y-82475579D01*
X195318762Y-82475044D01*
X195322547Y-82473476D01*
X195322548Y-82473476D01*
X195461058Y-82416103D01*
X195464841Y-82414536D01*
X195468087Y-82412045D01*
X195468091Y-82412043D01*
X195548953Y-82349996D01*
X195595158Y-82337616D01*
X195636585Y-82361534D01*
X195649500Y-82399581D01*
X195649500Y-90469171D01*
X195648299Y-90481364D01*
X195644592Y-90500000D01*
X195646560Y-90509896D01*
X195647602Y-90526541D01*
X195643675Y-90581446D01*
X195632012Y-90744522D01*
X195630743Y-90753345D01*
X195586729Y-90955677D01*
X195579583Y-90988525D01*
X195577070Y-90997082D01*
X195492963Y-91222580D01*
X195489259Y-91230691D01*
X195373916Y-91441926D01*
X195369095Y-91449428D01*
X195224861Y-91642103D01*
X195219021Y-91648842D01*
X195048842Y-91819021D01*
X195042103Y-91824861D01*
X194849428Y-91969095D01*
X194841926Y-91973916D01*
X194630691Y-92089259D01*
X194622580Y-92092963D01*
X194397082Y-92177070D01*
X194388528Y-92179582D01*
X194153345Y-92230743D01*
X194144524Y-92232012D01*
X193926541Y-92247602D01*
X193909896Y-92246560D01*
X193900000Y-92244592D01*
X193881852Y-92248202D01*
X193881364Y-92248299D01*
X193869171Y-92249500D01*
X174782425Y-92249500D01*
X174738231Y-92231194D01*
X174719925Y-92187000D01*
X174738231Y-92142806D01*
X175117468Y-91763569D01*
X175127760Y-91755257D01*
X175136870Y-91749375D01*
X175136873Y-91749373D01*
X175141210Y-91746572D01*
X175164049Y-91717601D01*
X175168937Y-91712100D01*
X175172575Y-91708462D01*
X175184526Y-91691738D01*
X175186295Y-91689382D01*
X175215403Y-91652459D01*
X175218603Y-91648400D01*
X175220315Y-91643524D01*
X175222175Y-91640141D01*
X175223869Y-91636682D01*
X175226872Y-91632481D01*
X175241828Y-91582473D01*
X175242736Y-91579679D01*
X175258720Y-91534164D01*
X175258721Y-91534160D01*
X175260023Y-91530452D01*
X175260500Y-91524945D01*
X175260500Y-91524631D01*
X175260844Y-91520566D01*
X175261211Y-91517659D01*
X175262690Y-91512714D01*
X175261705Y-91487642D01*
X175278262Y-91442763D01*
X175321703Y-91422736D01*
X175366582Y-91439293D01*
X175375195Y-91449115D01*
X175409588Y-91497780D01*
X175411642Y-91499781D01*
X175411643Y-91499782D01*
X175472748Y-91559307D01*
X175554466Y-91638913D01*
X175722637Y-91751282D01*
X175823889Y-91794783D01*
X175905830Y-91829988D01*
X175905832Y-91829989D01*
X175908470Y-91831122D01*
X176008502Y-91853757D01*
X176102950Y-91875129D01*
X176102953Y-91875129D01*
X176105740Y-91875760D01*
X176194802Y-91879259D01*
X176304982Y-91883588D01*
X176304986Y-91883588D01*
X176307842Y-91883700D01*
X176508007Y-91854678D01*
X176699531Y-91789664D01*
X176876001Y-91690837D01*
X176922146Y-91652459D01*
X177029307Y-91563333D01*
X177031505Y-91561505D01*
X177060589Y-91526536D01*
X177159006Y-91408203D01*
X177159008Y-91408200D01*
X177160837Y-91406001D01*
X177259664Y-91229531D01*
X177324678Y-91038007D01*
X177353700Y-90837842D01*
X177355215Y-90780000D01*
X177354459Y-90771764D01*
X177352557Y-90751069D01*
X177685164Y-90751069D01*
X177698392Y-90952894D01*
X177699099Y-90955677D01*
X177719288Y-91035171D01*
X177748178Y-91148928D01*
X177832856Y-91332607D01*
X177949588Y-91497780D01*
X177951642Y-91499781D01*
X177951643Y-91499782D01*
X178012748Y-91559307D01*
X178094466Y-91638913D01*
X178262637Y-91751282D01*
X178363889Y-91794783D01*
X178445830Y-91829988D01*
X178445832Y-91829989D01*
X178448470Y-91831122D01*
X178548502Y-91853757D01*
X178642950Y-91875129D01*
X178642953Y-91875129D01*
X178645740Y-91875760D01*
X178734802Y-91879259D01*
X178844982Y-91883588D01*
X178844986Y-91883588D01*
X178847842Y-91883700D01*
X179048007Y-91854678D01*
X179239531Y-91789664D01*
X179416001Y-91690837D01*
X179462146Y-91652459D01*
X179569307Y-91563333D01*
X179571505Y-91561505D01*
X179600589Y-91526536D01*
X179699006Y-91408203D01*
X179699008Y-91408200D01*
X179700837Y-91406001D01*
X179799664Y-91229531D01*
X179864678Y-91038007D01*
X179893700Y-90837842D01*
X179895215Y-90780000D01*
X179894459Y-90771764D01*
X179892557Y-90751069D01*
X180225164Y-90751069D01*
X180238392Y-90952894D01*
X180239099Y-90955677D01*
X180259288Y-91035171D01*
X180288178Y-91148928D01*
X180372856Y-91332607D01*
X180489588Y-91497780D01*
X180491642Y-91499781D01*
X180491643Y-91499782D01*
X180552748Y-91559307D01*
X180634466Y-91638913D01*
X180802637Y-91751282D01*
X180903889Y-91794783D01*
X180985830Y-91829988D01*
X180985832Y-91829989D01*
X180988470Y-91831122D01*
X181088502Y-91853757D01*
X181182950Y-91875129D01*
X181182953Y-91875129D01*
X181185740Y-91875760D01*
X181274802Y-91879259D01*
X181384982Y-91883588D01*
X181384986Y-91883588D01*
X181387842Y-91883700D01*
X181588007Y-91854678D01*
X181779531Y-91789664D01*
X181956001Y-91690837D01*
X182002146Y-91652459D01*
X182109307Y-91563333D01*
X182111505Y-91561505D01*
X182140589Y-91526536D01*
X182239006Y-91408203D01*
X182239008Y-91408200D01*
X182240837Y-91406001D01*
X182339664Y-91229531D01*
X182404678Y-91038007D01*
X182433700Y-90837842D01*
X182435215Y-90780000D01*
X182434459Y-90771764D01*
X182432557Y-90751069D01*
X182765164Y-90751069D01*
X182778392Y-90952894D01*
X182779099Y-90955677D01*
X182799288Y-91035171D01*
X182828178Y-91148928D01*
X182912856Y-91332607D01*
X183029588Y-91497780D01*
X183031642Y-91499781D01*
X183031643Y-91499782D01*
X183092748Y-91559307D01*
X183174466Y-91638913D01*
X183342637Y-91751282D01*
X183443889Y-91794783D01*
X183525830Y-91829988D01*
X183525832Y-91829989D01*
X183528470Y-91831122D01*
X183628502Y-91853757D01*
X183722950Y-91875129D01*
X183722953Y-91875129D01*
X183725740Y-91875760D01*
X183814802Y-91879259D01*
X183924982Y-91883588D01*
X183924986Y-91883588D01*
X183927842Y-91883700D01*
X184128007Y-91854678D01*
X184319531Y-91789664D01*
X184496001Y-91690837D01*
X184542146Y-91652459D01*
X184649307Y-91563333D01*
X184651505Y-91561505D01*
X184680589Y-91526536D01*
X184779006Y-91408203D01*
X184779008Y-91408200D01*
X184780837Y-91406001D01*
X184879664Y-91229531D01*
X184944678Y-91038007D01*
X184973700Y-90837842D01*
X184975215Y-90780000D01*
X184974459Y-90771764D01*
X184972557Y-90751069D01*
X185305164Y-90751069D01*
X185318392Y-90952894D01*
X185319099Y-90955677D01*
X185339288Y-91035171D01*
X185368178Y-91148928D01*
X185452856Y-91332607D01*
X185569588Y-91497780D01*
X185571642Y-91499781D01*
X185571643Y-91499782D01*
X185632748Y-91559307D01*
X185714466Y-91638913D01*
X185882637Y-91751282D01*
X185983889Y-91794783D01*
X186065830Y-91829988D01*
X186065832Y-91829989D01*
X186068470Y-91831122D01*
X186168502Y-91853757D01*
X186262950Y-91875129D01*
X186262953Y-91875129D01*
X186265740Y-91875760D01*
X186354802Y-91879259D01*
X186464982Y-91883588D01*
X186464986Y-91883588D01*
X186467842Y-91883700D01*
X186668007Y-91854678D01*
X186859531Y-91789664D01*
X187036001Y-91690837D01*
X187082146Y-91652459D01*
X187189307Y-91563333D01*
X187191505Y-91561505D01*
X187220589Y-91526536D01*
X187319006Y-91408203D01*
X187319008Y-91408200D01*
X187320837Y-91406001D01*
X187419664Y-91229531D01*
X187484678Y-91038007D01*
X187513700Y-90837842D01*
X187515215Y-90780000D01*
X187514459Y-90771764D01*
X187512557Y-90751069D01*
X187845164Y-90751069D01*
X187858392Y-90952894D01*
X187859099Y-90955677D01*
X187879288Y-91035171D01*
X187908178Y-91148928D01*
X187992856Y-91332607D01*
X188109588Y-91497780D01*
X188111642Y-91499781D01*
X188111643Y-91499782D01*
X188172748Y-91559307D01*
X188254466Y-91638913D01*
X188422637Y-91751282D01*
X188523889Y-91794783D01*
X188605830Y-91829988D01*
X188605832Y-91829989D01*
X188608470Y-91831122D01*
X188708502Y-91853757D01*
X188802950Y-91875129D01*
X188802953Y-91875129D01*
X188805740Y-91875760D01*
X188894802Y-91879259D01*
X189004982Y-91883588D01*
X189004986Y-91883588D01*
X189007842Y-91883700D01*
X189208007Y-91854678D01*
X189399531Y-91789664D01*
X189576001Y-91690837D01*
X189622146Y-91652459D01*
X189729307Y-91563333D01*
X189731505Y-91561505D01*
X189760589Y-91526536D01*
X189859006Y-91408203D01*
X189859008Y-91408200D01*
X189860837Y-91406001D01*
X189959664Y-91229531D01*
X190024678Y-91038007D01*
X190053700Y-90837842D01*
X190055215Y-90780000D01*
X190054459Y-90771764D01*
X190052557Y-90751069D01*
X190385164Y-90751069D01*
X190398392Y-90952894D01*
X190399099Y-90955677D01*
X190419288Y-91035171D01*
X190448178Y-91148928D01*
X190532856Y-91332607D01*
X190649588Y-91497780D01*
X190651642Y-91499781D01*
X190651643Y-91499782D01*
X190712748Y-91559307D01*
X190794466Y-91638913D01*
X190962637Y-91751282D01*
X191063889Y-91794783D01*
X191145830Y-91829988D01*
X191145832Y-91829989D01*
X191148470Y-91831122D01*
X191248502Y-91853757D01*
X191342950Y-91875129D01*
X191342953Y-91875129D01*
X191345740Y-91875760D01*
X191434802Y-91879259D01*
X191544982Y-91883588D01*
X191544986Y-91883588D01*
X191547842Y-91883700D01*
X191748007Y-91854678D01*
X191939531Y-91789664D01*
X192116001Y-91690837D01*
X192162146Y-91652459D01*
X192269307Y-91563333D01*
X192271505Y-91561505D01*
X192300589Y-91526536D01*
X192399006Y-91408203D01*
X192399008Y-91408200D01*
X192400837Y-91406001D01*
X192499664Y-91229531D01*
X192564678Y-91038007D01*
X192593700Y-90837842D01*
X192595215Y-90780000D01*
X192594459Y-90771764D01*
X192592557Y-90751069D01*
X192925164Y-90751069D01*
X192938392Y-90952894D01*
X192939099Y-90955677D01*
X192959288Y-91035171D01*
X192988178Y-91148928D01*
X193072856Y-91332607D01*
X193189588Y-91497780D01*
X193191642Y-91499781D01*
X193191643Y-91499782D01*
X193252748Y-91559307D01*
X193334466Y-91638913D01*
X193502637Y-91751282D01*
X193603889Y-91794783D01*
X193685830Y-91829988D01*
X193685832Y-91829989D01*
X193688470Y-91831122D01*
X193788502Y-91853757D01*
X193882950Y-91875129D01*
X193882953Y-91875129D01*
X193885740Y-91875760D01*
X193974802Y-91879259D01*
X194084982Y-91883588D01*
X194084986Y-91883588D01*
X194087842Y-91883700D01*
X194288007Y-91854678D01*
X194479531Y-91789664D01*
X194656001Y-91690837D01*
X194702146Y-91652459D01*
X194809307Y-91563333D01*
X194811505Y-91561505D01*
X194840589Y-91526536D01*
X194939006Y-91408203D01*
X194939008Y-91408200D01*
X194940837Y-91406001D01*
X195039664Y-91229531D01*
X195104678Y-91038007D01*
X195133700Y-90837842D01*
X195135215Y-90780000D01*
X195134459Y-90771764D01*
X195116970Y-90581446D01*
X195116708Y-90578591D01*
X195108705Y-90550213D01*
X195062585Y-90386683D01*
X195062583Y-90386679D01*
X195061807Y-90383926D01*
X195010818Y-90280531D01*
X194973619Y-90205098D01*
X194973618Y-90205097D01*
X194972351Y-90202527D01*
X194970633Y-90200226D01*
X194853052Y-90042766D01*
X194853051Y-90042764D01*
X194851335Y-90040467D01*
X194702812Y-89903174D01*
X194531757Y-89795246D01*
X194350498Y-89722931D01*
X194346555Y-89721358D01*
X194343898Y-89720298D01*
X194341092Y-89719740D01*
X194341089Y-89719739D01*
X194148332Y-89681397D01*
X194148330Y-89681397D01*
X194145526Y-89680839D01*
X194050350Y-89679593D01*
X193946148Y-89678229D01*
X193946143Y-89678229D01*
X193943286Y-89678192D01*
X193940465Y-89678677D01*
X193940461Y-89678677D01*
X193824884Y-89698537D01*
X193743949Y-89712444D01*
X193741263Y-89713435D01*
X193741256Y-89713437D01*
X193556881Y-89781457D01*
X193556878Y-89781459D01*
X193554193Y-89782449D01*
X193380371Y-89885862D01*
X193289416Y-89965627D01*
X193246753Y-90003042D01*
X193228305Y-90019220D01*
X193103089Y-90178057D01*
X193008914Y-90357053D01*
X193008067Y-90359780D01*
X193008066Y-90359783D01*
X192974101Y-90469171D01*
X192948937Y-90550213D01*
X192925164Y-90751069D01*
X192592557Y-90751069D01*
X192576970Y-90581446D01*
X192576708Y-90578591D01*
X192568705Y-90550213D01*
X192522585Y-90386683D01*
X192522583Y-90386679D01*
X192521807Y-90383926D01*
X192470818Y-90280531D01*
X192433619Y-90205098D01*
X192433618Y-90205097D01*
X192432351Y-90202527D01*
X192430633Y-90200226D01*
X192313052Y-90042766D01*
X192313051Y-90042764D01*
X192311335Y-90040467D01*
X192162812Y-89903174D01*
X191991757Y-89795246D01*
X191810498Y-89722931D01*
X191806555Y-89721358D01*
X191803898Y-89720298D01*
X191801092Y-89719740D01*
X191801089Y-89719739D01*
X191608332Y-89681397D01*
X191608330Y-89681397D01*
X191605526Y-89680839D01*
X191510350Y-89679593D01*
X191406148Y-89678229D01*
X191406143Y-89678229D01*
X191403286Y-89678192D01*
X191400465Y-89678677D01*
X191400461Y-89678677D01*
X191284884Y-89698537D01*
X191203949Y-89712444D01*
X191201263Y-89713435D01*
X191201256Y-89713437D01*
X191016881Y-89781457D01*
X191016878Y-89781459D01*
X191014193Y-89782449D01*
X190840371Y-89885862D01*
X190749416Y-89965627D01*
X190706753Y-90003042D01*
X190688305Y-90019220D01*
X190563089Y-90178057D01*
X190468914Y-90357053D01*
X190468067Y-90359780D01*
X190468066Y-90359783D01*
X190434101Y-90469171D01*
X190408937Y-90550213D01*
X190385164Y-90751069D01*
X190052557Y-90751069D01*
X190036970Y-90581446D01*
X190036708Y-90578591D01*
X190028705Y-90550213D01*
X189982585Y-90386683D01*
X189982583Y-90386679D01*
X189981807Y-90383926D01*
X189930818Y-90280531D01*
X189893619Y-90205098D01*
X189893618Y-90205097D01*
X189892351Y-90202527D01*
X189890633Y-90200226D01*
X189773052Y-90042766D01*
X189773051Y-90042764D01*
X189771335Y-90040467D01*
X189622812Y-89903174D01*
X189451757Y-89795246D01*
X189270498Y-89722931D01*
X189266555Y-89721358D01*
X189263898Y-89720298D01*
X189261092Y-89719740D01*
X189261089Y-89719739D01*
X189068332Y-89681397D01*
X189068330Y-89681397D01*
X189065526Y-89680839D01*
X188970350Y-89679593D01*
X188866148Y-89678229D01*
X188866143Y-89678229D01*
X188863286Y-89678192D01*
X188860465Y-89678677D01*
X188860461Y-89678677D01*
X188744884Y-89698537D01*
X188663949Y-89712444D01*
X188661263Y-89713435D01*
X188661256Y-89713437D01*
X188476881Y-89781457D01*
X188476878Y-89781459D01*
X188474193Y-89782449D01*
X188300371Y-89885862D01*
X188209416Y-89965627D01*
X188166753Y-90003042D01*
X188148305Y-90019220D01*
X188023089Y-90178057D01*
X187928914Y-90357053D01*
X187928067Y-90359780D01*
X187928066Y-90359783D01*
X187894101Y-90469171D01*
X187868937Y-90550213D01*
X187845164Y-90751069D01*
X187512557Y-90751069D01*
X187496970Y-90581446D01*
X187496708Y-90578591D01*
X187488705Y-90550213D01*
X187442585Y-90386683D01*
X187442583Y-90386679D01*
X187441807Y-90383926D01*
X187390818Y-90280531D01*
X187353619Y-90205098D01*
X187353618Y-90205097D01*
X187352351Y-90202527D01*
X187350633Y-90200226D01*
X187233052Y-90042766D01*
X187233051Y-90042764D01*
X187231335Y-90040467D01*
X187082812Y-89903174D01*
X186911757Y-89795246D01*
X186730498Y-89722931D01*
X186726555Y-89721358D01*
X186723898Y-89720298D01*
X186721092Y-89719740D01*
X186721089Y-89719739D01*
X186528332Y-89681397D01*
X186528330Y-89681397D01*
X186525526Y-89680839D01*
X186430350Y-89679593D01*
X186326148Y-89678229D01*
X186326143Y-89678229D01*
X186323286Y-89678192D01*
X186320465Y-89678677D01*
X186320461Y-89678677D01*
X186204884Y-89698537D01*
X186123949Y-89712444D01*
X186121263Y-89713435D01*
X186121256Y-89713437D01*
X185936881Y-89781457D01*
X185936878Y-89781459D01*
X185934193Y-89782449D01*
X185760371Y-89885862D01*
X185669416Y-89965627D01*
X185626753Y-90003042D01*
X185608305Y-90019220D01*
X185483089Y-90178057D01*
X185388914Y-90357053D01*
X185388067Y-90359780D01*
X185388066Y-90359783D01*
X185354101Y-90469171D01*
X185328937Y-90550213D01*
X185305164Y-90751069D01*
X184972557Y-90751069D01*
X184956970Y-90581446D01*
X184956708Y-90578591D01*
X184948705Y-90550213D01*
X184902585Y-90386683D01*
X184902583Y-90386679D01*
X184901807Y-90383926D01*
X184850818Y-90280531D01*
X184813619Y-90205098D01*
X184813618Y-90205097D01*
X184812351Y-90202527D01*
X184810633Y-90200226D01*
X184693052Y-90042766D01*
X184693051Y-90042764D01*
X184691335Y-90040467D01*
X184542812Y-89903174D01*
X184371757Y-89795246D01*
X184190498Y-89722931D01*
X184186555Y-89721358D01*
X184183898Y-89720298D01*
X184181092Y-89719740D01*
X184181089Y-89719739D01*
X183988332Y-89681397D01*
X183988330Y-89681397D01*
X183985526Y-89680839D01*
X183890350Y-89679593D01*
X183786148Y-89678229D01*
X183786143Y-89678229D01*
X183783286Y-89678192D01*
X183780465Y-89678677D01*
X183780461Y-89678677D01*
X183664884Y-89698537D01*
X183583949Y-89712444D01*
X183581263Y-89713435D01*
X183581256Y-89713437D01*
X183396881Y-89781457D01*
X183396878Y-89781459D01*
X183394193Y-89782449D01*
X183220371Y-89885862D01*
X183129416Y-89965627D01*
X183086753Y-90003042D01*
X183068305Y-90019220D01*
X182943089Y-90178057D01*
X182848914Y-90357053D01*
X182848067Y-90359780D01*
X182848066Y-90359783D01*
X182814101Y-90469171D01*
X182788937Y-90550213D01*
X182765164Y-90751069D01*
X182432557Y-90751069D01*
X182416970Y-90581446D01*
X182416708Y-90578591D01*
X182408705Y-90550213D01*
X182362585Y-90386683D01*
X182362583Y-90386679D01*
X182361807Y-90383926D01*
X182310818Y-90280531D01*
X182273619Y-90205098D01*
X182273618Y-90205097D01*
X182272351Y-90202527D01*
X182270633Y-90200226D01*
X182153052Y-90042766D01*
X182153051Y-90042764D01*
X182151335Y-90040467D01*
X182002812Y-89903174D01*
X181831757Y-89795246D01*
X181650498Y-89722931D01*
X181646555Y-89721358D01*
X181643898Y-89720298D01*
X181641092Y-89719740D01*
X181641089Y-89719739D01*
X181448332Y-89681397D01*
X181448330Y-89681397D01*
X181445526Y-89680839D01*
X181350350Y-89679593D01*
X181246148Y-89678229D01*
X181246143Y-89678229D01*
X181243286Y-89678192D01*
X181240465Y-89678677D01*
X181240461Y-89678677D01*
X181124884Y-89698537D01*
X181043949Y-89712444D01*
X181041263Y-89713435D01*
X181041256Y-89713437D01*
X180856881Y-89781457D01*
X180856878Y-89781459D01*
X180854193Y-89782449D01*
X180680371Y-89885862D01*
X180589416Y-89965627D01*
X180546753Y-90003042D01*
X180528305Y-90019220D01*
X180403089Y-90178057D01*
X180308914Y-90357053D01*
X180308067Y-90359780D01*
X180308066Y-90359783D01*
X180274101Y-90469171D01*
X180248937Y-90550213D01*
X180225164Y-90751069D01*
X179892557Y-90751069D01*
X179876970Y-90581446D01*
X179876708Y-90578591D01*
X179868705Y-90550213D01*
X179822585Y-90386683D01*
X179822583Y-90386679D01*
X179821807Y-90383926D01*
X179770818Y-90280531D01*
X179733619Y-90205098D01*
X179733618Y-90205097D01*
X179732351Y-90202527D01*
X179730633Y-90200226D01*
X179613052Y-90042766D01*
X179613051Y-90042764D01*
X179611335Y-90040467D01*
X179462812Y-89903174D01*
X179291757Y-89795246D01*
X179110498Y-89722931D01*
X179106555Y-89721358D01*
X179103898Y-89720298D01*
X179101092Y-89719740D01*
X179101089Y-89719739D01*
X178908332Y-89681397D01*
X178908330Y-89681397D01*
X178905526Y-89680839D01*
X178810350Y-89679593D01*
X178706148Y-89678229D01*
X178706143Y-89678229D01*
X178703286Y-89678192D01*
X178700465Y-89678677D01*
X178700461Y-89678677D01*
X178584884Y-89698537D01*
X178503949Y-89712444D01*
X178501263Y-89713435D01*
X178501256Y-89713437D01*
X178316881Y-89781457D01*
X178316878Y-89781459D01*
X178314193Y-89782449D01*
X178140371Y-89885862D01*
X178049416Y-89965627D01*
X178006753Y-90003042D01*
X177988305Y-90019220D01*
X177863089Y-90178057D01*
X177768914Y-90357053D01*
X177768067Y-90359780D01*
X177768066Y-90359783D01*
X177734101Y-90469171D01*
X177708937Y-90550213D01*
X177685164Y-90751069D01*
X177352557Y-90751069D01*
X177336970Y-90581446D01*
X177336708Y-90578591D01*
X177328705Y-90550213D01*
X177282585Y-90386683D01*
X177282583Y-90386679D01*
X177281807Y-90383926D01*
X177230818Y-90280531D01*
X177193619Y-90205098D01*
X177193618Y-90205097D01*
X177192351Y-90202527D01*
X177190633Y-90200226D01*
X177073052Y-90042766D01*
X177073051Y-90042764D01*
X177071335Y-90040467D01*
X176922812Y-89903174D01*
X176751757Y-89795246D01*
X176570498Y-89722931D01*
X176566555Y-89721358D01*
X176563898Y-89720298D01*
X176561092Y-89719740D01*
X176561089Y-89719739D01*
X176368332Y-89681397D01*
X176368330Y-89681397D01*
X176365526Y-89680839D01*
X176270350Y-89679593D01*
X176166148Y-89678229D01*
X176166143Y-89678229D01*
X176163286Y-89678192D01*
X176160465Y-89678677D01*
X176160461Y-89678677D01*
X176044884Y-89698537D01*
X175963949Y-89712444D01*
X175961263Y-89713435D01*
X175961256Y-89713437D01*
X175776881Y-89781457D01*
X175776878Y-89781459D01*
X175774193Y-89782449D01*
X175771733Y-89783912D01*
X175771732Y-89783913D01*
X175669956Y-89844463D01*
X175622615Y-89851327D01*
X175584287Y-89822706D01*
X175575500Y-89790750D01*
X175575500Y-84495663D01*
X175593806Y-84451469D01*
X175638000Y-84433163D01*
X175667821Y-84440737D01*
X175738776Y-84479262D01*
X175742423Y-84480219D01*
X175742426Y-84480220D01*
X175871457Y-84514070D01*
X175891069Y-84519215D01*
X175975067Y-84520535D01*
X176044726Y-84521629D01*
X176044728Y-84521629D01*
X176048495Y-84521688D01*
X176201968Y-84486538D01*
X176205332Y-84484846D01*
X176205335Y-84484845D01*
X176298815Y-84437829D01*
X176333918Y-84420174D01*
X176381625Y-84416671D01*
X176417836Y-84447928D01*
X176424500Y-84476010D01*
X176424500Y-84499674D01*
X176439034Y-84572740D01*
X176494399Y-84655601D01*
X176577260Y-84710966D01*
X176625084Y-84720479D01*
X176647314Y-84724901D01*
X176647315Y-84724901D01*
X176650326Y-84725500D01*
X177249674Y-84725500D01*
X177252685Y-84724901D01*
X177252686Y-84724901D01*
X177274916Y-84720479D01*
X177322740Y-84710966D01*
X177327858Y-84707547D01*
X177327859Y-84707546D01*
X177349422Y-84693138D01*
X177352278Y-84691230D01*
X177399193Y-84681898D01*
X177438967Y-84708474D01*
X177449500Y-84743197D01*
X177449500Y-85130967D01*
X177431194Y-85175161D01*
X177408939Y-85189490D01*
X177304912Y-85228487D01*
X177304910Y-85228488D01*
X177300741Y-85230051D01*
X177188884Y-85313884D01*
X177105051Y-85425741D01*
X177103488Y-85429910D01*
X177103487Y-85429912D01*
X177057358Y-85552964D01*
X177055983Y-85556632D01*
X177049500Y-85616309D01*
X177049501Y-86183690D01*
X177049683Y-86185363D01*
X177049683Y-86185368D01*
X177049867Y-86187064D01*
X177055983Y-86243368D01*
X177057358Y-86247036D01*
X177057359Y-86247040D01*
X177103487Y-86370088D01*
X177105051Y-86374259D01*
X177188884Y-86486116D01*
X177300741Y-86569949D01*
X177304910Y-86571512D01*
X177304912Y-86571513D01*
X177394932Y-86605259D01*
X177431632Y-86619017D01*
X177491309Y-86625500D01*
X177523621Y-86625500D01*
X177993574Y-86625499D01*
X178037768Y-86643805D01*
X179065167Y-87671205D01*
X180076434Y-88682472D01*
X180084743Y-88692760D01*
X180093428Y-88706210D01*
X180097482Y-88709406D01*
X180097484Y-88709408D01*
X180122400Y-88729050D01*
X180127900Y-88733938D01*
X180131538Y-88737576D01*
X180133632Y-88739073D01*
X180133634Y-88739074D01*
X180148272Y-88749534D01*
X180150628Y-88751303D01*
X180183019Y-88776838D01*
X180191600Y-88783603D01*
X180196473Y-88785314D01*
X180199863Y-88787178D01*
X180203319Y-88788871D01*
X180207519Y-88791872D01*
X180212468Y-88793352D01*
X180257500Y-88806820D01*
X180260300Y-88807729D01*
X180305841Y-88823722D01*
X180305847Y-88823723D01*
X180309548Y-88825023D01*
X180313460Y-88825362D01*
X180313461Y-88825362D01*
X180313726Y-88825385D01*
X180313729Y-88825385D01*
X180315055Y-88825500D01*
X180315370Y-88825500D01*
X180319436Y-88825844D01*
X180322336Y-88826210D01*
X180327287Y-88827691D01*
X180381828Y-88825548D01*
X180384281Y-88825500D01*
X188553263Y-88825500D01*
X188566417Y-88826900D01*
X188582066Y-88830269D01*
X188587196Y-88829662D01*
X188587198Y-88829662D01*
X188618702Y-88825933D01*
X188626048Y-88825500D01*
X188631193Y-88825500D01*
X188651495Y-88822121D01*
X188654377Y-88821711D01*
X188706210Y-88815576D01*
X188710869Y-88813339D01*
X188714575Y-88812262D01*
X188718219Y-88811015D01*
X188723313Y-88810167D01*
X188727856Y-88807716D01*
X188727858Y-88807715D01*
X188769247Y-88785382D01*
X188771872Y-88784045D01*
X188786881Y-88776838D01*
X188818900Y-88761463D01*
X188821949Y-88758900D01*
X188822097Y-88758776D01*
X188822106Y-88758768D01*
X188823131Y-88757906D01*
X188823357Y-88757680D01*
X188826469Y-88755053D01*
X188828780Y-88753260D01*
X188833329Y-88750806D01*
X188870371Y-88710734D01*
X188872072Y-88708965D01*
X189175599Y-88405438D01*
X189208565Y-88388149D01*
X189219206Y-88386206D01*
X189242975Y-88381865D01*
X189242977Y-88381864D01*
X189247573Y-88381025D01*
X189367788Y-88318579D01*
X189370493Y-88316269D01*
X189370496Y-88316267D01*
X189371889Y-88315077D01*
X189371891Y-88315075D01*
X189372828Y-88314275D01*
X189818297Y-87868806D01*
X189862491Y-87850500D01*
X190771087Y-87850500D01*
X190778432Y-87850933D01*
X190815871Y-87855364D01*
X190820465Y-87854525D01*
X190820466Y-87854525D01*
X190874562Y-87844645D01*
X190876499Y-87844323D01*
X190935523Y-87835449D01*
X190939740Y-87833424D01*
X190941680Y-87832827D01*
X190941986Y-87832752D01*
X190942320Y-87832644D01*
X190942620Y-87832521D01*
X190944539Y-87831864D01*
X190949134Y-87831025D01*
X190961773Y-87824460D01*
X190992239Y-87808634D01*
X191002057Y-87803534D01*
X191003802Y-87802662D01*
X191053428Y-87778832D01*
X191053430Y-87778831D01*
X191057640Y-87776809D01*
X191061071Y-87773638D01*
X191062755Y-87772493D01*
X191063285Y-87772177D01*
X191066187Y-87770221D01*
X191069349Y-87768579D01*
X191074389Y-87764275D01*
X191112513Y-87726151D01*
X191114282Y-87724450D01*
X191121090Y-87718157D01*
X191157117Y-87684854D01*
X191159464Y-87680814D01*
X191162384Y-87677169D01*
X191162685Y-87677410D01*
X191167459Y-87671205D01*
X193772000Y-85066664D01*
X193777500Y-85061776D01*
X193803444Y-85041323D01*
X193807110Y-85038433D01*
X193841037Y-84989345D01*
X193842171Y-84987758D01*
X193874859Y-84943503D01*
X193874860Y-84943501D01*
X193877635Y-84939744D01*
X193879184Y-84935334D01*
X193880136Y-84933535D01*
X193880296Y-84933273D01*
X193880461Y-84932948D01*
X193880582Y-84932659D01*
X193881477Y-84930832D01*
X193884131Y-84926992D01*
X193902110Y-84870144D01*
X193902731Y-84868281D01*
X193920973Y-84816336D01*
X193920973Y-84816334D01*
X193922520Y-84811930D01*
X193922704Y-84807263D01*
X193923088Y-84805248D01*
X193923239Y-84804651D01*
X193923906Y-84801228D01*
X193924980Y-84797831D01*
X193925260Y-84794278D01*
X193925403Y-84792463D01*
X193925404Y-84792450D01*
X193925500Y-84791224D01*
X193925500Y-84737310D01*
X193925548Y-84734856D01*
X193927655Y-84681236D01*
X193927655Y-84681233D01*
X193927838Y-84676567D01*
X193926641Y-84672053D01*
X193926128Y-84667406D01*
X193926511Y-84667364D01*
X193925500Y-84659602D01*
X193925500Y-82662491D01*
X193943806Y-82618297D01*
X194492768Y-82069335D01*
X194536962Y-82051029D01*
X194581156Y-82069335D01*
G37*
G04 #@! TD.AperFunction*
G04 #@! TA.AperFunction,Conductor*
G36*
X193881364Y-71501701D02*
G01*
X193900000Y-71505408D01*
X193909896Y-71503440D01*
X193926541Y-71502398D01*
X194144524Y-71517988D01*
X194153345Y-71519257D01*
X194388528Y-71570418D01*
X194397082Y-71572930D01*
X194622580Y-71657037D01*
X194630691Y-71660741D01*
X194841926Y-71776084D01*
X194849428Y-71780905D01*
X195042103Y-71925139D01*
X195048842Y-71930979D01*
X195219021Y-72101158D01*
X195224861Y-72107897D01*
X195369095Y-72300572D01*
X195373916Y-72308074D01*
X195489259Y-72519309D01*
X195492963Y-72527420D01*
X195522527Y-72606683D01*
X195573072Y-72742198D01*
X195577070Y-72752918D01*
X195579582Y-72761472D01*
X195588278Y-72801446D01*
X195630743Y-72996652D01*
X195632012Y-73005476D01*
X195644855Y-73185045D01*
X195647602Y-73223456D01*
X195646560Y-73240104D01*
X195644592Y-73250000D01*
X195645793Y-73256038D01*
X195648299Y-73268636D01*
X195649500Y-73280829D01*
X195649500Y-74578911D01*
X195631194Y-74623105D01*
X195587000Y-74641411D01*
X195545423Y-74625576D01*
X195493047Y-74578911D01*
X195473976Y-74561919D01*
X195334831Y-74488245D01*
X195182128Y-74449889D01*
X195178363Y-74449869D01*
X195178361Y-74449869D01*
X195100550Y-74449462D01*
X195024684Y-74449065D01*
X195021020Y-74449945D01*
X195021017Y-74449945D01*
X194948136Y-74467443D01*
X194871588Y-74485820D01*
X194835468Y-74504463D01*
X194735024Y-74556305D01*
X194735021Y-74556307D01*
X194731679Y-74558032D01*
X194728843Y-74560506D01*
X194641142Y-74637013D01*
X194613034Y-74661533D01*
X194610868Y-74664615D01*
X194610867Y-74664616D01*
X194590400Y-74693738D01*
X194522501Y-74790348D01*
X194493461Y-74864833D01*
X194468602Y-74928594D01*
X194465309Y-74937039D01*
X194464817Y-74940776D01*
X194446903Y-75076847D01*
X194444758Y-75093138D01*
X194462035Y-75249633D01*
X194463329Y-75253170D01*
X194463330Y-75253173D01*
X194495295Y-75340521D01*
X194493292Y-75388315D01*
X194458081Y-75420693D01*
X194436602Y-75424500D01*
X194221727Y-75424501D01*
X194216310Y-75424501D01*
X194214637Y-75424683D01*
X194214632Y-75424683D01*
X194188562Y-75427515D01*
X194156632Y-75430983D01*
X194152964Y-75432358D01*
X194152960Y-75432359D01*
X194029912Y-75478487D01*
X194029910Y-75478488D01*
X194025741Y-75480051D01*
X194022177Y-75482722D01*
X193989709Y-75507056D01*
X193913884Y-75563884D01*
X193830051Y-75675741D01*
X193828488Y-75679910D01*
X193828487Y-75679912D01*
X193789655Y-75783500D01*
X193780983Y-75806632D01*
X193774500Y-75866309D01*
X193774501Y-76458690D01*
X193774683Y-76460363D01*
X193774683Y-76460368D01*
X193776274Y-76475014D01*
X193780983Y-76518368D01*
X193782358Y-76522036D01*
X193782359Y-76522040D01*
X193827813Y-76643289D01*
X193830051Y-76649259D01*
X193913884Y-76761116D01*
X194025741Y-76844949D01*
X194029910Y-76846512D01*
X194029912Y-76846513D01*
X194152961Y-76892641D01*
X194156632Y-76894017D01*
X194216309Y-76900500D01*
X194499580Y-76900500D01*
X194783690Y-76900499D01*
X194785363Y-76900317D01*
X194785368Y-76900317D01*
X194815904Y-76897000D01*
X194843368Y-76894017D01*
X194847036Y-76892642D01*
X194847040Y-76892641D01*
X194970088Y-76846513D01*
X194970090Y-76846512D01*
X194974259Y-76844949D01*
X195086116Y-76761116D01*
X195169949Y-76649259D01*
X195172581Y-76642240D01*
X195217642Y-76522036D01*
X195219017Y-76518368D01*
X195225500Y-76458691D01*
X195225500Y-76243925D01*
X195243806Y-76199731D01*
X195332470Y-76111068D01*
X195342761Y-76102756D01*
X195351869Y-76096875D01*
X195356210Y-76094072D01*
X195379050Y-76065100D01*
X195383938Y-76059600D01*
X195387576Y-76055962D01*
X195399534Y-76039228D01*
X195401303Y-76036872D01*
X195430405Y-75999957D01*
X195430406Y-75999956D01*
X195433603Y-75995900D01*
X195435314Y-75991027D01*
X195437178Y-75987637D01*
X195438871Y-75984181D01*
X195441872Y-75979981D01*
X195456820Y-75930000D01*
X195457729Y-75927200D01*
X195473722Y-75881659D01*
X195473723Y-75881653D01*
X195475023Y-75877952D01*
X195475500Y-75872445D01*
X195475500Y-75872130D01*
X195475844Y-75868064D01*
X195476210Y-75865164D01*
X195477691Y-75860213D01*
X195475548Y-75805672D01*
X195475500Y-75803219D01*
X195475500Y-75663612D01*
X195497409Y-75616087D01*
X195546409Y-75574237D01*
X195591904Y-75559455D01*
X195634525Y-75581171D01*
X195649500Y-75621762D01*
X195649500Y-81380419D01*
X195631194Y-81424613D01*
X195587000Y-81442919D01*
X195548953Y-81430004D01*
X195468091Y-81367957D01*
X195468087Y-81367955D01*
X195464841Y-81365464D01*
X195461058Y-81363897D01*
X195322548Y-81306524D01*
X195322547Y-81306524D01*
X195318762Y-81304956D01*
X195314700Y-81304421D01*
X195314699Y-81304421D01*
X195203392Y-81289767D01*
X195203386Y-81289767D01*
X195201361Y-81289500D01*
X195122639Y-81289500D01*
X195120614Y-81289767D01*
X195120608Y-81289767D01*
X195021158Y-81302860D01*
X194974952Y-81290480D01*
X194951035Y-81249053D01*
X194950500Y-81240895D01*
X194950500Y-78719019D01*
X194968806Y-78674825D01*
X194975517Y-78669006D01*
X195008880Y-78644002D01*
X195086116Y-78586116D01*
X195169949Y-78474259D01*
X195172123Y-78468462D01*
X195217642Y-78347036D01*
X195219017Y-78343368D01*
X195225500Y-78283691D01*
X195225499Y-77691310D01*
X195225317Y-77689628D01*
X195219440Y-77635529D01*
X195219440Y-77635528D01*
X195219017Y-77631632D01*
X195217642Y-77627964D01*
X195217641Y-77627960D01*
X195171513Y-77504912D01*
X195171512Y-77504910D01*
X195169949Y-77500741D01*
X195086116Y-77388884D01*
X194996171Y-77321473D01*
X194977823Y-77307722D01*
X194974259Y-77305051D01*
X194970090Y-77303488D01*
X194970088Y-77303487D01*
X194847036Y-77257358D01*
X194843368Y-77255983D01*
X194783691Y-77249500D01*
X194500420Y-77249500D01*
X194216310Y-77249501D01*
X194214637Y-77249683D01*
X194214632Y-77249683D01*
X194188562Y-77252515D01*
X194156632Y-77255983D01*
X194152964Y-77257358D01*
X194152960Y-77257359D01*
X194029912Y-77303487D01*
X194029910Y-77303488D01*
X194025741Y-77305051D01*
X194022177Y-77307722D01*
X194003829Y-77321473D01*
X193913884Y-77388884D01*
X193830051Y-77500741D01*
X193828488Y-77504910D01*
X193828487Y-77504912D01*
X193782358Y-77627964D01*
X193780983Y-77631632D01*
X193774500Y-77691309D01*
X193774501Y-78283690D01*
X193774683Y-78285363D01*
X193774683Y-78285368D01*
X193775765Y-78295326D01*
X193780983Y-78343368D01*
X193782358Y-78347036D01*
X193782359Y-78347040D01*
X193828487Y-78470088D01*
X193830051Y-78474259D01*
X193913884Y-78586116D01*
X193991121Y-78644002D01*
X194024483Y-78669006D01*
X194048869Y-78710159D01*
X194049500Y-78719019D01*
X194049500Y-81212509D01*
X194031194Y-81256703D01*
X193258939Y-82028958D01*
X193214745Y-82047264D01*
X193170551Y-82028958D01*
X193152245Y-81984764D01*
X193152780Y-81976606D01*
X193158372Y-81934135D01*
X193164182Y-81890000D01*
X193158269Y-81845088D01*
X193144079Y-81737301D01*
X193144079Y-81737300D01*
X193143544Y-81733238D01*
X193136305Y-81715760D01*
X193084603Y-81590942D01*
X193083036Y-81587159D01*
X192986782Y-81461718D01*
X192861341Y-81365464D01*
X192857558Y-81363897D01*
X192719048Y-81306524D01*
X192719047Y-81306524D01*
X192715262Y-81304956D01*
X192711200Y-81304421D01*
X192711199Y-81304421D01*
X192599892Y-81289767D01*
X192599886Y-81289767D01*
X192597861Y-81289500D01*
X192519139Y-81289500D01*
X192517114Y-81289767D01*
X192517108Y-81289767D01*
X192405801Y-81304421D01*
X192405800Y-81304421D01*
X192401738Y-81304956D01*
X192397953Y-81306524D01*
X192397952Y-81306524D01*
X192259442Y-81363897D01*
X192255659Y-81365464D01*
X192130218Y-81461718D01*
X192033964Y-81587159D01*
X192032397Y-81590942D01*
X191980696Y-81715760D01*
X191973456Y-81733238D01*
X191972921Y-81737300D01*
X191972921Y-81737301D01*
X191958731Y-81845088D01*
X191952818Y-81890000D01*
X191953353Y-81894064D01*
X191966141Y-81991195D01*
X191973456Y-82046762D01*
X191975024Y-82050547D01*
X191975024Y-82050548D01*
X192030869Y-82185368D01*
X192033964Y-82192841D01*
X192130218Y-82318282D01*
X192255659Y-82414536D01*
X192259442Y-82416103D01*
X192397952Y-82473476D01*
X192397953Y-82473476D01*
X192401738Y-82475044D01*
X192405800Y-82475579D01*
X192405801Y-82475579D01*
X192517108Y-82490233D01*
X192517114Y-82490233D01*
X192519139Y-82490500D01*
X192597861Y-82490500D01*
X192599886Y-82490233D01*
X192599892Y-82490233D01*
X192711199Y-82475579D01*
X192711200Y-82475579D01*
X192715262Y-82475044D01*
X192719047Y-82473476D01*
X192719048Y-82473476D01*
X192857558Y-82416103D01*
X192861341Y-82414536D01*
X192923952Y-82366493D01*
X192970158Y-82354113D01*
X193011585Y-82378030D01*
X193024500Y-82416078D01*
X193024500Y-82439262D01*
X193024452Y-82441716D01*
X193022448Y-82492718D01*
X193022162Y-82499994D01*
X193023359Y-82504508D01*
X193023872Y-82509155D01*
X193023489Y-82509197D01*
X193024500Y-82516959D01*
X193024500Y-84514070D01*
X193006194Y-84558264D01*
X191757193Y-85807265D01*
X191712999Y-85825571D01*
X191668805Y-85807265D01*
X191650499Y-85763071D01*
X191650499Y-85616310D01*
X191650317Y-85614628D01*
X191644440Y-85560529D01*
X191644440Y-85560528D01*
X191644017Y-85556632D01*
X191642642Y-85552964D01*
X191642641Y-85552960D01*
X191596513Y-85429912D01*
X191596512Y-85429910D01*
X191594949Y-85425741D01*
X191511116Y-85313884D01*
X191399259Y-85230051D01*
X191366060Y-85217605D01*
X191331105Y-85184952D01*
X191325500Y-85159083D01*
X191325500Y-84669229D01*
X191325733Y-84663836D01*
X191329073Y-84625275D01*
X191329073Y-84625272D01*
X191329518Y-84620131D01*
X191327343Y-84611374D01*
X191325500Y-84596308D01*
X191325500Y-84325995D01*
X191343806Y-84281801D01*
X191364082Y-84268253D01*
X191366705Y-84267166D01*
X191372740Y-84265966D01*
X191455601Y-84210601D01*
X191510966Y-84127740D01*
X191525500Y-84054674D01*
X191525500Y-82445326D01*
X191510966Y-82372260D01*
X191455601Y-82289399D01*
X191372740Y-82234034D01*
X191324916Y-82224521D01*
X191302686Y-82220099D01*
X191302685Y-82220099D01*
X191299674Y-82219500D01*
X190600326Y-82219500D01*
X190597315Y-82220099D01*
X190597314Y-82220099D01*
X190533297Y-82232833D01*
X190533296Y-82232833D01*
X190527260Y-82234034D01*
X190509720Y-82245753D01*
X190462806Y-82255084D01*
X190440281Y-82245754D01*
X190422740Y-82234034D01*
X190416704Y-82232833D01*
X190416703Y-82232833D01*
X190352686Y-82220099D01*
X190352685Y-82220099D01*
X190349674Y-82219500D01*
X190299493Y-82219500D01*
X190255299Y-82201194D01*
X190236993Y-82157000D01*
X190248973Y-82122886D01*
X190248056Y-82122353D01*
X190248550Y-82121503D01*
X190250221Y-82119332D01*
X190250716Y-82117922D01*
X190253323Y-82114668D01*
X190253624Y-82114909D01*
X190258398Y-82108705D01*
X190297000Y-82070103D01*
X190302500Y-82065215D01*
X190328444Y-82044762D01*
X190332110Y-82041872D01*
X190366046Y-81992771D01*
X190367173Y-81991195D01*
X190399859Y-81946940D01*
X190402634Y-81943183D01*
X190404181Y-81938777D01*
X190405136Y-81936974D01*
X190405294Y-81936714D01*
X190405460Y-81936387D01*
X190405580Y-81936102D01*
X190406477Y-81934271D01*
X190409131Y-81930431D01*
X190427130Y-81873520D01*
X190427750Y-81871662D01*
X190445970Y-81819781D01*
X190445970Y-81819779D01*
X190447519Y-81815369D01*
X190447702Y-81810700D01*
X190448084Y-81808698D01*
X190448238Y-81808092D01*
X190448905Y-81804668D01*
X190449980Y-81801270D01*
X190450260Y-81797714D01*
X190450403Y-81795902D01*
X190450404Y-81795889D01*
X190450500Y-81794663D01*
X190450500Y-81740738D01*
X190450548Y-81738284D01*
X190452655Y-81684675D01*
X190452655Y-81684672D01*
X190452838Y-81680006D01*
X190451641Y-81675492D01*
X190451128Y-81670845D01*
X190451511Y-81670803D01*
X190450500Y-81663041D01*
X190450500Y-81626409D01*
X190468806Y-81582215D01*
X190513000Y-81563909D01*
X190527111Y-81566715D01*
X190527260Y-81565966D01*
X190597314Y-81579901D01*
X190597315Y-81579901D01*
X190600326Y-81580500D01*
X191299674Y-81580500D01*
X191302685Y-81579901D01*
X191302686Y-81579901D01*
X191324916Y-81575479D01*
X191372740Y-81565966D01*
X191455601Y-81510601D01*
X191510966Y-81427740D01*
X191525500Y-81354674D01*
X191525500Y-79745326D01*
X191524768Y-79741643D01*
X191512167Y-79678299D01*
X191510966Y-79672260D01*
X191455601Y-79589399D01*
X191428277Y-79571142D01*
X191401701Y-79531369D01*
X191400500Y-79519175D01*
X191400500Y-79000283D01*
X191418806Y-78956089D01*
X191425517Y-78950270D01*
X191507556Y-78888784D01*
X191511116Y-78886116D01*
X191594949Y-78774259D01*
X191618406Y-78711688D01*
X191642642Y-78647036D01*
X191644017Y-78643368D01*
X191650500Y-78583691D01*
X191650499Y-78016310D01*
X191650310Y-78014565D01*
X191644440Y-77960529D01*
X191644017Y-77956632D01*
X191642642Y-77952964D01*
X191642641Y-77952960D01*
X191596513Y-77829912D01*
X191596512Y-77829910D01*
X191594949Y-77825741D01*
X191571854Y-77794925D01*
X191538647Y-77750618D01*
X191511116Y-77713884D01*
X191467421Y-77681136D01*
X191425517Y-77649730D01*
X191401131Y-77608577D01*
X191400500Y-77599717D01*
X191400500Y-76600283D01*
X191418806Y-76556089D01*
X191425517Y-76550270D01*
X191507556Y-76488784D01*
X191511116Y-76486116D01*
X191594949Y-76374259D01*
X191597422Y-76367664D01*
X191642642Y-76247036D01*
X191644017Y-76243368D01*
X191650500Y-76183691D01*
X191650500Y-76012491D01*
X191668806Y-75968297D01*
X193577815Y-74059288D01*
X193622009Y-74040982D01*
X193646679Y-74046057D01*
X193655838Y-74049992D01*
X193655845Y-74049994D01*
X193658470Y-74051122D01*
X193757105Y-74073441D01*
X193852950Y-74095129D01*
X193852953Y-74095129D01*
X193855740Y-74095760D01*
X193944802Y-74099259D01*
X194054982Y-74103588D01*
X194054986Y-74103588D01*
X194057842Y-74103700D01*
X194258007Y-74074678D01*
X194449531Y-74009664D01*
X194626001Y-73910837D01*
X194632284Y-73905612D01*
X194779307Y-73783333D01*
X194781505Y-73781505D01*
X194849696Y-73699515D01*
X194909006Y-73628203D01*
X194909008Y-73628200D01*
X194910837Y-73626001D01*
X195009664Y-73449531D01*
X195074678Y-73258007D01*
X195103700Y-73057842D01*
X195105215Y-73000000D01*
X195104908Y-72996652D01*
X195096169Y-72901558D01*
X195086708Y-72798591D01*
X195078705Y-72770213D01*
X195032585Y-72606683D01*
X195032583Y-72606679D01*
X195031807Y-72603926D01*
X194942351Y-72422527D01*
X194925972Y-72400593D01*
X194823052Y-72262766D01*
X194823051Y-72262764D01*
X194821335Y-72260467D01*
X194672812Y-72123174D01*
X194501757Y-72015246D01*
X194313898Y-71940298D01*
X194311092Y-71939740D01*
X194311089Y-71939739D01*
X194118332Y-71901397D01*
X194118330Y-71901397D01*
X194115526Y-71900839D01*
X194020350Y-71899593D01*
X193916148Y-71898229D01*
X193916143Y-71898229D01*
X193913286Y-71898192D01*
X193910465Y-71898677D01*
X193910461Y-71898677D01*
X193794035Y-71918683D01*
X193713949Y-71932444D01*
X193711261Y-71933436D01*
X193711256Y-71933437D01*
X193526881Y-72001457D01*
X193526878Y-72001459D01*
X193524193Y-72002449D01*
X193521733Y-72003912D01*
X193521732Y-72003913D01*
X193504465Y-72014186D01*
X193350371Y-72105862D01*
X193198305Y-72239220D01*
X193073089Y-72398057D01*
X193071755Y-72400593D01*
X192986124Y-72563350D01*
X192978914Y-72577053D01*
X192978067Y-72579780D01*
X192978066Y-72579783D01*
X192937498Y-72710436D01*
X192918937Y-72770213D01*
X192895164Y-72971069D01*
X192908392Y-73172894D01*
X192921233Y-73223456D01*
X192956678Y-73363024D01*
X192949814Y-73410364D01*
X192940295Y-73422602D01*
X191206703Y-75156194D01*
X191162509Y-75174500D01*
X190557542Y-75174501D01*
X190516310Y-75174501D01*
X190514637Y-75174683D01*
X190514632Y-75174683D01*
X190488562Y-75177515D01*
X190456632Y-75180983D01*
X190452964Y-75182358D01*
X190452960Y-75182359D01*
X190329912Y-75228487D01*
X190329910Y-75228488D01*
X190325741Y-75230051D01*
X190213884Y-75313884D01*
X190211216Y-75317444D01*
X190205628Y-75324900D01*
X190164475Y-75349286D01*
X190118132Y-75337430D01*
X190102468Y-75320305D01*
X190027632Y-75199370D01*
X190023153Y-75193719D01*
X189905259Y-75076030D01*
X189899598Y-75071559D01*
X189757797Y-74984153D01*
X189751263Y-74981106D01*
X189592944Y-74928594D01*
X189586316Y-74927173D01*
X189488616Y-74917162D01*
X189485435Y-74917000D01*
X189403931Y-74917000D01*
X189395141Y-74920641D01*
X189391500Y-74929431D01*
X189391500Y-76870569D01*
X189395141Y-76879359D01*
X189403931Y-76883000D01*
X189485422Y-76883000D01*
X189488635Y-76882834D01*
X189587589Y-76872566D01*
X189594235Y-76871131D01*
X189752448Y-76818346D01*
X189758981Y-76815286D01*
X189900630Y-76727632D01*
X189906281Y-76723153D01*
X190023970Y-76605259D01*
X190028438Y-76599601D01*
X190102346Y-76479700D01*
X190141119Y-76451685D01*
X190188346Y-76459292D01*
X190205562Y-76475012D01*
X190213884Y-76486116D01*
X190325741Y-76569949D01*
X190329910Y-76571512D01*
X190329912Y-76571513D01*
X190456632Y-76619017D01*
X190456038Y-76620601D01*
X190490211Y-76645304D01*
X190499500Y-76678088D01*
X190499500Y-77521911D01*
X190481194Y-77566105D01*
X190456274Y-77580028D01*
X190456632Y-77580983D01*
X190329912Y-77628487D01*
X190329910Y-77628488D01*
X190325741Y-77630051D01*
X190213884Y-77713884D01*
X190207236Y-77722755D01*
X190205628Y-77724900D01*
X190164475Y-77749286D01*
X190118132Y-77737430D01*
X190102468Y-77720305D01*
X190027632Y-77599370D01*
X190023153Y-77593719D01*
X189905259Y-77476030D01*
X189899598Y-77471559D01*
X189757797Y-77384153D01*
X189751263Y-77381106D01*
X189592944Y-77328594D01*
X189586316Y-77327173D01*
X189488616Y-77317162D01*
X189485435Y-77317000D01*
X189403931Y-77317000D01*
X189395141Y-77320641D01*
X189391500Y-77329431D01*
X189391500Y-79260500D01*
X189373194Y-79304694D01*
X189329000Y-79323000D01*
X189316431Y-79323000D01*
X189307641Y-79326641D01*
X189304000Y-79335431D01*
X189304000Y-80741500D01*
X189285694Y-80785694D01*
X189241500Y-80804000D01*
X188229432Y-80804000D01*
X188220642Y-80807641D01*
X188217001Y-80816431D01*
X188217001Y-81324500D01*
X188198695Y-81368694D01*
X188154501Y-81387000D01*
X187845603Y-81387000D01*
X187801409Y-81368694D01*
X187787080Y-81346439D01*
X187771513Y-81304912D01*
X187771512Y-81304910D01*
X187769949Y-81300741D01*
X187686116Y-81188884D01*
X187574259Y-81105051D01*
X187570090Y-81103488D01*
X187570088Y-81103487D01*
X187447036Y-81057358D01*
X187443368Y-81055983D01*
X187383691Y-81049500D01*
X187188000Y-81049500D01*
X187143806Y-81031194D01*
X187125500Y-80987000D01*
X187125500Y-80463000D01*
X187143806Y-80418806D01*
X187188000Y-80400500D01*
X187524674Y-80400500D01*
X187527685Y-80399901D01*
X187527686Y-80399901D01*
X187562112Y-80393053D01*
X187597740Y-80385966D01*
X187680601Y-80330601D01*
X187735966Y-80247740D01*
X187750500Y-80174674D01*
X187750500Y-78585422D01*
X188092000Y-78585422D01*
X188092166Y-78588635D01*
X188102434Y-78687589D01*
X188103869Y-78694235D01*
X188156654Y-78852448D01*
X188159714Y-78858981D01*
X188247368Y-79000630D01*
X188251847Y-79006281D01*
X188369741Y-79123970D01*
X188375402Y-79128441D01*
X188498872Y-79204548D01*
X188526888Y-79243321D01*
X188519281Y-79290547D01*
X188488015Y-79316275D01*
X188482711Y-79318263D01*
X188474974Y-79322499D01*
X188365656Y-79404428D01*
X188359428Y-79410656D01*
X188277499Y-79519974D01*
X188273264Y-79527709D01*
X188225123Y-79656125D01*
X188223325Y-79663689D01*
X188217183Y-79720230D01*
X188217000Y-79723598D01*
X188217000Y-80283569D01*
X188220641Y-80292359D01*
X188229431Y-80296000D01*
X188783569Y-80296000D01*
X188792359Y-80292359D01*
X188796000Y-80283569D01*
X188796000Y-79284500D01*
X188814306Y-79240306D01*
X188858500Y-79222000D01*
X188871069Y-79222000D01*
X188879859Y-79218359D01*
X188883500Y-79209569D01*
X188883500Y-78566431D01*
X188879859Y-78557641D01*
X188871069Y-78554000D01*
X188104431Y-78554000D01*
X188095641Y-78557641D01*
X188092000Y-78566431D01*
X188092000Y-78585422D01*
X187750500Y-78585422D01*
X187750500Y-78125326D01*
X187735966Y-78052260D01*
X187723477Y-78033569D01*
X188092000Y-78033569D01*
X188095641Y-78042359D01*
X188104431Y-78046000D01*
X188871069Y-78046000D01*
X188879859Y-78042359D01*
X188883500Y-78033569D01*
X188883500Y-77329431D01*
X188879859Y-77320641D01*
X188871069Y-77317000D01*
X188789578Y-77317000D01*
X188786365Y-77317166D01*
X188687411Y-77327434D01*
X188680765Y-77328869D01*
X188522552Y-77381654D01*
X188516019Y-77384714D01*
X188374370Y-77472368D01*
X188368719Y-77476847D01*
X188251030Y-77594741D01*
X188246559Y-77600402D01*
X188159156Y-77742197D01*
X188156106Y-77748737D01*
X188103594Y-77907056D01*
X188102173Y-77913684D01*
X188092162Y-78011384D01*
X188092000Y-78014565D01*
X188092000Y-78033569D01*
X187723477Y-78033569D01*
X187680601Y-77969399D01*
X187597740Y-77914034D01*
X187531089Y-77900776D01*
X187527686Y-77900099D01*
X187527685Y-77900099D01*
X187524674Y-77899500D01*
X185825326Y-77899500D01*
X185822315Y-77900099D01*
X185822314Y-77900099D01*
X185818911Y-77900776D01*
X185752260Y-77914034D01*
X185669399Y-77969399D01*
X185614034Y-78052260D01*
X185599500Y-78125326D01*
X185599500Y-80174674D01*
X185614034Y-80247740D01*
X185669399Y-80330601D01*
X185752260Y-80385966D01*
X185787888Y-80393053D01*
X185822314Y-80399901D01*
X185822315Y-80399901D01*
X185825326Y-80400500D01*
X186162000Y-80400500D01*
X186206194Y-80418806D01*
X186224500Y-80463000D01*
X186224500Y-81101185D01*
X186206194Y-81145379D01*
X186162000Y-81163685D01*
X186120423Y-81147850D01*
X186052420Y-81087262D01*
X186023976Y-81061919D01*
X185884831Y-80988245D01*
X185732128Y-80949889D01*
X185728363Y-80949869D01*
X185728361Y-80949869D01*
X185650550Y-80949462D01*
X185574684Y-80949065D01*
X185571020Y-80949945D01*
X185571017Y-80949945D01*
X185509909Y-80964616D01*
X185421588Y-80985820D01*
X185418238Y-80987549D01*
X185408502Y-80992574D01*
X185360834Y-80996576D01*
X185335681Y-80981268D01*
X185230259Y-80876030D01*
X185224598Y-80871559D01*
X185082797Y-80784153D01*
X185076263Y-80781106D01*
X184917944Y-80728594D01*
X184911316Y-80727173D01*
X184813616Y-80717162D01*
X184810435Y-80717000D01*
X184728931Y-80717000D01*
X184720141Y-80720641D01*
X184716500Y-80729431D01*
X184716500Y-83791500D01*
X184698194Y-83835694D01*
X184654000Y-83854000D01*
X184271000Y-83854000D01*
X184226806Y-83835694D01*
X184208500Y-83791500D01*
X184208500Y-80891991D01*
X184226806Y-80847797D01*
X184622000Y-80452603D01*
X184627500Y-80447715D01*
X184640218Y-80437689D01*
X184657110Y-80424372D01*
X184659763Y-80420533D01*
X184660061Y-80420216D01*
X184705621Y-80400500D01*
X185174674Y-80400500D01*
X185177685Y-80399901D01*
X185177686Y-80399901D01*
X185212112Y-80393053D01*
X185247740Y-80385966D01*
X185330601Y-80330601D01*
X185385966Y-80247740D01*
X185400500Y-80174674D01*
X185400500Y-78125326D01*
X185385966Y-78052260D01*
X185330601Y-77969399D01*
X185247740Y-77914034D01*
X185181089Y-77900776D01*
X185177686Y-77900099D01*
X185177685Y-77900099D01*
X185174674Y-77899500D01*
X183475326Y-77899500D01*
X183472315Y-77900099D01*
X183472314Y-77900099D01*
X183468911Y-77900776D01*
X183402260Y-77914034D01*
X183319399Y-77969399D01*
X183264034Y-78052260D01*
X183249500Y-78125326D01*
X183249500Y-80174674D01*
X183264034Y-80247740D01*
X183319399Y-80330601D01*
X183324516Y-80334020D01*
X183324518Y-80334022D01*
X183346233Y-80348531D01*
X183372810Y-80388304D01*
X183363478Y-80435220D01*
X183355705Y-80444692D01*
X182844203Y-80956194D01*
X182800009Y-80974500D01*
X182417971Y-80974501D01*
X182391310Y-80974501D01*
X182389637Y-80974683D01*
X182389632Y-80974683D01*
X182367658Y-80977070D01*
X182331632Y-80980983D01*
X182327964Y-80982358D01*
X182327960Y-80982359D01*
X182204912Y-81028487D01*
X182204910Y-81028488D01*
X182200741Y-81030051D01*
X182197177Y-81032722D01*
X182166705Y-81055560D01*
X182088884Y-81113884D01*
X182005051Y-81225741D01*
X182003488Y-81229910D01*
X182003487Y-81229912D01*
X181963930Y-81335434D01*
X181955983Y-81356632D01*
X181949500Y-81416309D01*
X181949501Y-81983690D01*
X181949683Y-81985363D01*
X181949683Y-81985368D01*
X181952515Y-82011438D01*
X181955983Y-82043368D01*
X181957358Y-82047036D01*
X181957359Y-82047040D01*
X182001749Y-82165452D01*
X182005051Y-82174259D01*
X182007722Y-82177823D01*
X182046538Y-82229615D01*
X182088884Y-82286116D01*
X182124483Y-82312797D01*
X182148869Y-82353949D01*
X182149500Y-82362809D01*
X182149500Y-82937191D01*
X182131194Y-82981385D01*
X182124487Y-82987201D01*
X182088884Y-83013884D01*
X182079998Y-83025741D01*
X182014763Y-83112783D01*
X182005051Y-83125741D01*
X182003488Y-83129910D01*
X182003487Y-83129912D01*
X181961846Y-83240991D01*
X181955983Y-83256632D01*
X181949500Y-83316309D01*
X181949501Y-83883690D01*
X181949683Y-83885363D01*
X181949683Y-83885368D01*
X181952033Y-83906998D01*
X181955983Y-83943368D01*
X181957358Y-83947036D01*
X181957359Y-83947040D01*
X182003141Y-84069164D01*
X182005051Y-84074259D01*
X182007722Y-84077823D01*
X182020662Y-84095088D01*
X182088884Y-84186116D01*
X182124483Y-84212797D01*
X182148869Y-84253949D01*
X182149500Y-84262809D01*
X182149500Y-84775009D01*
X182131194Y-84819203D01*
X181794203Y-85156194D01*
X181750009Y-85174500D01*
X181414904Y-85174501D01*
X181391310Y-85174501D01*
X181389637Y-85174683D01*
X181389632Y-85174683D01*
X181363562Y-85177515D01*
X181331632Y-85180983D01*
X181327964Y-85182358D01*
X181327960Y-85182359D01*
X181204912Y-85228487D01*
X181204910Y-85228488D01*
X181200741Y-85230051D01*
X181088884Y-85313884D01*
X181080558Y-85324994D01*
X181005994Y-85424483D01*
X180964841Y-85448869D01*
X180955981Y-85449500D01*
X180344019Y-85449500D01*
X180299825Y-85431194D01*
X180294006Y-85424483D01*
X180219443Y-85324994D01*
X180211116Y-85313884D01*
X180099259Y-85230051D01*
X180095090Y-85228488D01*
X180095088Y-85228487D01*
X179972036Y-85182358D01*
X179968368Y-85180983D01*
X179908691Y-85174500D01*
X179575494Y-85174500D01*
X179241310Y-85174501D01*
X179239637Y-85174683D01*
X179239632Y-85174683D01*
X179213562Y-85177515D01*
X179181632Y-85180983D01*
X179177964Y-85182358D01*
X179177960Y-85182359D01*
X179054912Y-85228487D01*
X179054910Y-85228488D01*
X179050741Y-85230051D01*
X178938884Y-85313884D01*
X178855051Y-85425741D01*
X178853488Y-85429910D01*
X178853487Y-85429912D01*
X178807358Y-85552964D01*
X178805983Y-85556632D01*
X178799500Y-85616309D01*
X178799501Y-86183690D01*
X178799683Y-86185368D01*
X178799684Y-86185381D01*
X178799805Y-86186495D01*
X178799754Y-86186670D01*
X178799775Y-86187064D01*
X178799636Y-86187071D01*
X178786380Y-86232408D01*
X178744422Y-86255380D01*
X178698509Y-86241955D01*
X178693477Y-86237440D01*
X178618806Y-86162769D01*
X178600500Y-86118575D01*
X178600499Y-85618002D01*
X178600499Y-85616310D01*
X178600317Y-85614628D01*
X178594440Y-85560529D01*
X178594440Y-85560528D01*
X178594017Y-85556632D01*
X178592642Y-85552964D01*
X178592641Y-85552960D01*
X178546513Y-85429912D01*
X178546512Y-85429910D01*
X178544949Y-85425741D01*
X178461116Y-85313884D01*
X178349259Y-85230051D01*
X178345090Y-85228488D01*
X178345088Y-85228487D01*
X178241061Y-85189490D01*
X178206105Y-85156836D01*
X178200500Y-85130967D01*
X178200500Y-84776628D01*
X178218806Y-84732434D01*
X178250807Y-84715329D01*
X178266704Y-84712167D01*
X178266705Y-84712166D01*
X178272740Y-84710966D01*
X178340277Y-84665840D01*
X178387194Y-84656508D01*
X178409723Y-84665840D01*
X178477260Y-84710966D01*
X178525084Y-84720479D01*
X178547314Y-84724901D01*
X178547315Y-84724901D01*
X178550326Y-84725500D01*
X179149674Y-84725500D01*
X179152685Y-84724901D01*
X179152686Y-84724901D01*
X179174916Y-84720479D01*
X179222740Y-84710966D01*
X179305601Y-84655601D01*
X179360966Y-84572740D01*
X179375500Y-84499674D01*
X179375500Y-84463000D01*
X179393806Y-84418806D01*
X179438000Y-84400500D01*
X180417842Y-84400500D01*
X180447664Y-84408074D01*
X180578776Y-84479262D01*
X180582423Y-84480219D01*
X180582426Y-84480220D01*
X180711457Y-84514070D01*
X180731069Y-84519215D01*
X180815067Y-84520535D01*
X180884726Y-84521629D01*
X180884728Y-84521629D01*
X180888495Y-84521688D01*
X181041968Y-84486538D01*
X181045332Y-84484846D01*
X181045335Y-84484845D01*
X181179259Y-84417488D01*
X181179260Y-84417488D01*
X181182625Y-84415795D01*
X181185489Y-84413349D01*
X181185492Y-84413347D01*
X181299483Y-84315989D01*
X181302348Y-84313542D01*
X181373862Y-84214020D01*
X181392024Y-84188745D01*
X181392025Y-84188743D01*
X181394224Y-84185683D01*
X181427534Y-84102823D01*
X181451546Y-84043092D01*
X181451547Y-84043088D01*
X181452950Y-84039598D01*
X181458514Y-84000500D01*
X181474846Y-83885748D01*
X181474846Y-83885745D01*
X181475134Y-83883723D01*
X181475278Y-83870000D01*
X181475033Y-83867979D01*
X181475033Y-83867971D01*
X181456816Y-83717439D01*
X181456363Y-83713694D01*
X181454969Y-83710003D01*
X181427142Y-83636363D01*
X181400710Y-83566412D01*
X181311531Y-83436657D01*
X181193976Y-83331919D01*
X181054831Y-83258245D01*
X180902128Y-83219889D01*
X180898363Y-83219869D01*
X180898361Y-83219869D01*
X180867421Y-83219707D01*
X180823324Y-83201170D01*
X180805250Y-83156880D01*
X180823787Y-83112783D01*
X180838071Y-83102204D01*
X180869248Y-83085382D01*
X180871872Y-83084045D01*
X180915353Y-83063166D01*
X180918900Y-83061463D01*
X180921912Y-83058931D01*
X180922097Y-83058776D01*
X180922106Y-83058768D01*
X180923131Y-83057906D01*
X180923357Y-83057680D01*
X180926469Y-83055053D01*
X180928780Y-83053260D01*
X180933329Y-83050806D01*
X180970371Y-83010734D01*
X180972072Y-83008965D01*
X181582470Y-82398567D01*
X181592763Y-82390254D01*
X181601871Y-82384374D01*
X181601873Y-82384372D01*
X181606210Y-82381572D01*
X181611786Y-82374500D01*
X181629050Y-82352600D01*
X181633938Y-82347100D01*
X181637576Y-82343462D01*
X181641754Y-82337616D01*
X181649534Y-82326728D01*
X181651303Y-82324372D01*
X181680405Y-82287457D01*
X181680406Y-82287456D01*
X181683603Y-82283400D01*
X181685314Y-82278527D01*
X181687178Y-82275137D01*
X181688871Y-82271681D01*
X181691872Y-82267481D01*
X181698370Y-82245753D01*
X181706820Y-82217500D01*
X181707729Y-82214700D01*
X181723722Y-82169159D01*
X181723723Y-82169153D01*
X181725023Y-82165452D01*
X181725500Y-82159945D01*
X181725500Y-82159630D01*
X181725844Y-82155564D01*
X181726210Y-82152664D01*
X181727691Y-82147713D01*
X181725548Y-82093172D01*
X181725500Y-82090719D01*
X181725500Y-80926241D01*
X181726900Y-80913086D01*
X181729181Y-80902490D01*
X181730269Y-80897438D01*
X181729625Y-80891991D01*
X181725933Y-80860802D01*
X181725500Y-80853456D01*
X181725500Y-80848312D01*
X181722124Y-80828027D01*
X181721709Y-80825112D01*
X181717809Y-80792164D01*
X181715576Y-80773295D01*
X181713339Y-80768636D01*
X181712262Y-80764930D01*
X181711015Y-80761286D01*
X181710167Y-80756192D01*
X181697815Y-80733299D01*
X181685382Y-80710258D01*
X181684045Y-80707633D01*
X181669740Y-80677842D01*
X181661463Y-80660605D01*
X181658931Y-80657593D01*
X181658776Y-80657408D01*
X181658768Y-80657399D01*
X181657906Y-80656374D01*
X181657680Y-80656148D01*
X181655053Y-80653036D01*
X181653260Y-80650725D01*
X181650806Y-80646176D01*
X181610733Y-80609133D01*
X181608964Y-80607432D01*
X181359587Y-80358055D01*
X181341281Y-80313861D01*
X181359549Y-80269705D01*
X181373965Y-80255265D01*
X181378443Y-80249593D01*
X181465847Y-80107797D01*
X181468894Y-80101263D01*
X181521406Y-79942944D01*
X181522827Y-79936316D01*
X181532838Y-79838616D01*
X181533000Y-79835435D01*
X181533000Y-79803931D01*
X181529359Y-79795141D01*
X181520569Y-79791500D01*
X180358500Y-79791500D01*
X180314306Y-79773194D01*
X180296000Y-79729000D01*
X180296000Y-79346000D01*
X180314306Y-79301806D01*
X180358500Y-79283500D01*
X181520569Y-79283500D01*
X181529359Y-79279859D01*
X181533000Y-79271069D01*
X181533000Y-79239578D01*
X181532834Y-79236365D01*
X181522566Y-79137411D01*
X181521131Y-79130765D01*
X181468346Y-78972552D01*
X181465286Y-78966019D01*
X181377632Y-78824370D01*
X181373153Y-78818719D01*
X181255259Y-78701030D01*
X181249598Y-78696559D01*
X181107800Y-78609155D01*
X181098040Y-78604603D01*
X181065724Y-78569334D01*
X181067813Y-78521544D01*
X181086973Y-78497947D01*
X181116514Y-78475807D01*
X181136116Y-78461116D01*
X181219949Y-78349259D01*
X181222158Y-78343368D01*
X181267642Y-78222036D01*
X181269017Y-78218368D01*
X181275500Y-78158691D01*
X181275499Y-77566310D01*
X181269017Y-77506632D01*
X181267642Y-77502964D01*
X181267641Y-77502960D01*
X181221513Y-77379912D01*
X181221512Y-77379910D01*
X181219949Y-77375741D01*
X181214752Y-77368806D01*
X181138784Y-77267444D01*
X181136116Y-77263884D01*
X181047861Y-77197740D01*
X181027823Y-77182722D01*
X181024259Y-77180051D01*
X180925235Y-77142929D01*
X180890280Y-77110276D01*
X180888652Y-77062468D01*
X180921306Y-77027512D01*
X180934389Y-77023950D01*
X180934246Y-77023288D01*
X180944235Y-77021131D01*
X181102448Y-76968346D01*
X181108981Y-76965286D01*
X181250630Y-76877632D01*
X181256281Y-76873153D01*
X181373970Y-76755259D01*
X181378441Y-76749598D01*
X181465847Y-76607797D01*
X181468894Y-76601263D01*
X181521406Y-76442944D01*
X181522827Y-76436316D01*
X181532838Y-76338616D01*
X181533000Y-76335435D01*
X181533000Y-76303931D01*
X181529359Y-76295141D01*
X181520569Y-76291500D01*
X179579432Y-76291500D01*
X179563001Y-76298306D01*
X179515166Y-76298305D01*
X179500391Y-76289645D01*
X179474963Y-76269599D01*
X179474959Y-76269597D01*
X179470900Y-76266397D01*
X179466024Y-76264685D01*
X179462641Y-76262825D01*
X179459182Y-76261131D01*
X179454981Y-76258128D01*
X179450034Y-76256649D01*
X179450033Y-76256648D01*
X179426513Y-76249614D01*
X179404976Y-76243173D01*
X179402182Y-76242265D01*
X179356664Y-76226280D01*
X179356660Y-76226279D01*
X179352952Y-76224977D01*
X179347445Y-76224500D01*
X179347121Y-76224500D01*
X179343063Y-76224156D01*
X179340160Y-76223789D01*
X179335213Y-76222310D01*
X179280698Y-76224452D01*
X179278244Y-76224500D01*
X178763000Y-76224500D01*
X178718806Y-76206194D01*
X178710202Y-76185422D01*
X188092000Y-76185422D01*
X188092166Y-76188635D01*
X188102434Y-76287589D01*
X188103869Y-76294235D01*
X188156654Y-76452448D01*
X188159714Y-76458981D01*
X188247368Y-76600630D01*
X188251847Y-76606281D01*
X188369741Y-76723970D01*
X188375402Y-76728441D01*
X188517203Y-76815847D01*
X188523737Y-76818894D01*
X188682056Y-76871406D01*
X188688684Y-76872827D01*
X188786384Y-76882838D01*
X188789565Y-76883000D01*
X188871069Y-76883000D01*
X188879859Y-76879359D01*
X188883500Y-76870569D01*
X188883500Y-76166431D01*
X188879859Y-76157641D01*
X188871069Y-76154000D01*
X188104431Y-76154000D01*
X188095641Y-76157641D01*
X188092000Y-76166431D01*
X188092000Y-76185422D01*
X178710202Y-76185422D01*
X178700500Y-76162000D01*
X178700500Y-76075326D01*
X178685966Y-76002260D01*
X178630601Y-75919399D01*
X178547740Y-75864034D01*
X178499916Y-75854521D01*
X178477686Y-75850099D01*
X178477685Y-75850099D01*
X178474674Y-75849500D01*
X178025326Y-75849500D01*
X178022315Y-75850099D01*
X178022314Y-75850099D01*
X177958297Y-75862833D01*
X177958296Y-75862833D01*
X177952260Y-75864034D01*
X177948243Y-75866718D01*
X177901757Y-75866718D01*
X177897740Y-75864034D01*
X177891704Y-75862833D01*
X177891703Y-75862833D01*
X177827686Y-75850099D01*
X177827685Y-75850099D01*
X177824674Y-75849500D01*
X177375326Y-75849500D01*
X177372315Y-75850099D01*
X177372314Y-75850099D01*
X177308297Y-75862833D01*
X177308296Y-75862833D01*
X177302260Y-75864034D01*
X177298243Y-75866718D01*
X177251757Y-75866718D01*
X177247740Y-75864034D01*
X177241704Y-75862833D01*
X177241703Y-75862833D01*
X177177686Y-75850099D01*
X177177685Y-75850099D01*
X177174674Y-75849500D01*
X176725326Y-75849500D01*
X176722315Y-75850099D01*
X176722314Y-75850099D01*
X176700084Y-75854521D01*
X176652260Y-75864034D01*
X176569399Y-75919399D01*
X176514034Y-76002260D01*
X176499500Y-76075326D01*
X176499500Y-77124674D01*
X176514034Y-77197740D01*
X176517455Y-77202861D01*
X176517456Y-77202862D01*
X176548498Y-77249322D01*
X176557830Y-77296238D01*
X176540725Y-77328238D01*
X176192532Y-77676431D01*
X176182240Y-77684743D01*
X176173130Y-77690625D01*
X176173127Y-77690627D01*
X176168790Y-77693428D01*
X176155294Y-77710548D01*
X176145951Y-77722399D01*
X176141063Y-77727900D01*
X176137425Y-77731538D01*
X176135928Y-77733632D01*
X176135927Y-77733634D01*
X176125474Y-77748262D01*
X176123705Y-77750618D01*
X176091397Y-77791600D01*
X176089685Y-77796476D01*
X176087825Y-77799859D01*
X176086131Y-77803318D01*
X176083128Y-77807519D01*
X176069511Y-77853053D01*
X176068176Y-77857516D01*
X176067265Y-77860318D01*
X176051280Y-77905836D01*
X176051279Y-77905840D01*
X176049977Y-77909548D01*
X176049500Y-77915055D01*
X176049500Y-77915379D01*
X176049156Y-77919437D01*
X176048789Y-77922340D01*
X176047310Y-77927287D01*
X176047513Y-77932446D01*
X176049452Y-77981802D01*
X176049500Y-77984256D01*
X176049500Y-78364649D01*
X176031194Y-78408843D01*
X175987000Y-78427149D01*
X175957755Y-78419884D01*
X175938163Y-78409511D01*
X175938161Y-78409510D01*
X175934831Y-78407747D01*
X175782128Y-78369391D01*
X175778363Y-78369371D01*
X175778361Y-78369371D01*
X175700550Y-78368964D01*
X175624684Y-78368567D01*
X175621020Y-78369447D01*
X175621017Y-78369447D01*
X175582289Y-78378745D01*
X175471588Y-78405322D01*
X175429299Y-78427149D01*
X175335024Y-78475807D01*
X175335021Y-78475809D01*
X175331679Y-78477534D01*
X175328843Y-78480008D01*
X175227949Y-78568024D01*
X175213034Y-78581035D01*
X175210868Y-78584117D01*
X175210867Y-78584118D01*
X175187448Y-78617440D01*
X175147059Y-78643071D01*
X175136314Y-78644002D01*
X174602628Y-78644002D01*
X174558434Y-78625696D01*
X172585270Y-76652532D01*
X172576958Y-76642240D01*
X172571076Y-76633130D01*
X172571074Y-76633127D01*
X172568273Y-76628790D01*
X172539302Y-76605951D01*
X172533801Y-76601063D01*
X172530163Y-76597425D01*
X172522229Y-76591755D01*
X172513439Y-76585474D01*
X172511083Y-76583705D01*
X172474160Y-76554597D01*
X172470101Y-76551397D01*
X172465225Y-76549685D01*
X172461842Y-76547825D01*
X172458383Y-76546131D01*
X172454182Y-76543128D01*
X172449235Y-76541649D01*
X172449234Y-76541648D01*
X172425714Y-76534614D01*
X172404177Y-76528173D01*
X172401383Y-76527265D01*
X172352152Y-76509976D01*
X172352437Y-76509165D01*
X172325572Y-76494535D01*
X172324175Y-76493138D01*
X174494758Y-76493138D01*
X174512035Y-76649633D01*
X174513329Y-76653170D01*
X174513330Y-76653173D01*
X174540875Y-76728441D01*
X174566143Y-76797490D01*
X174598034Y-76844949D01*
X174631007Y-76894017D01*
X174653958Y-76928172D01*
X174770410Y-77034135D01*
X174773719Y-77035932D01*
X174773721Y-77035933D01*
X174857566Y-77081457D01*
X174908776Y-77109262D01*
X174912423Y-77110219D01*
X174912426Y-77110220D01*
X175057421Y-77148258D01*
X175061069Y-77149215D01*
X175145067Y-77150535D01*
X175214726Y-77151629D01*
X175214728Y-77151629D01*
X175218495Y-77151688D01*
X175371968Y-77116538D01*
X175375332Y-77114846D01*
X175375335Y-77114845D01*
X175509259Y-77047488D01*
X175509260Y-77047488D01*
X175512625Y-77045795D01*
X175515489Y-77043349D01*
X175515492Y-77043347D01*
X175629483Y-76945989D01*
X175632348Y-76943542D01*
X175683162Y-76872827D01*
X175722024Y-76818745D01*
X175722025Y-76818743D01*
X175724224Y-76815683D01*
X175759295Y-76728441D01*
X175781546Y-76673092D01*
X175781547Y-76673088D01*
X175782950Y-76669598D01*
X175790897Y-76613757D01*
X175804846Y-76515748D01*
X175804846Y-76515745D01*
X175805134Y-76513723D01*
X175805278Y-76500000D01*
X175805033Y-76497979D01*
X175805033Y-76497971D01*
X175795520Y-76419367D01*
X175808383Y-76373293D01*
X175813373Y-76367664D01*
X176562231Y-75618806D01*
X176606425Y-75600500D01*
X179511853Y-75600500D01*
X179556047Y-75618806D01*
X179574353Y-75663000D01*
X179574028Y-75669370D01*
X179567162Y-75736383D01*
X179567000Y-75739565D01*
X179567000Y-75771069D01*
X179570641Y-75779859D01*
X179579431Y-75783500D01*
X181520569Y-75783500D01*
X181529359Y-75779859D01*
X181533000Y-75771069D01*
X181533000Y-75739578D01*
X181532834Y-75736365D01*
X181526262Y-75673033D01*
X181538009Y-75633569D01*
X188092000Y-75633569D01*
X188095641Y-75642359D01*
X188104431Y-75646000D01*
X188871069Y-75646000D01*
X188879859Y-75642359D01*
X188883500Y-75633569D01*
X188883500Y-74929431D01*
X188879859Y-74920641D01*
X188871069Y-74917000D01*
X188789578Y-74917000D01*
X188786365Y-74917166D01*
X188687411Y-74927434D01*
X188680765Y-74928869D01*
X188522552Y-74981654D01*
X188516019Y-74984714D01*
X188374370Y-75072368D01*
X188368719Y-75076847D01*
X188251030Y-75194741D01*
X188246559Y-75200402D01*
X188159153Y-75342203D01*
X188156106Y-75348737D01*
X188103594Y-75507056D01*
X188102173Y-75513684D01*
X188092162Y-75611384D01*
X188092000Y-75614565D01*
X188092000Y-75633569D01*
X181538009Y-75633569D01*
X181539909Y-75627185D01*
X181581977Y-75604416D01*
X181591373Y-75604151D01*
X181592013Y-75604181D01*
X181597066Y-75605269D01*
X181602196Y-75604662D01*
X181602198Y-75604662D01*
X181633702Y-75600933D01*
X181641048Y-75600500D01*
X181646193Y-75600500D01*
X181666495Y-75597121D01*
X181669377Y-75596711D01*
X181721210Y-75590576D01*
X181725869Y-75588339D01*
X181729575Y-75587262D01*
X181733219Y-75586015D01*
X181738313Y-75585167D01*
X181742856Y-75582716D01*
X181742858Y-75582715D01*
X181784247Y-75560382D01*
X181786872Y-75559045D01*
X181791897Y-75556632D01*
X181833900Y-75536463D01*
X181836912Y-75533931D01*
X181837097Y-75533776D01*
X181837106Y-75533768D01*
X181838131Y-75532906D01*
X181838357Y-75532680D01*
X181841469Y-75530053D01*
X181843780Y-75528260D01*
X181848329Y-75525806D01*
X181885372Y-75485733D01*
X181887073Y-75483964D01*
X183343624Y-74027413D01*
X183387818Y-74009107D01*
X183412489Y-74014182D01*
X183498470Y-74051122D01*
X183597105Y-74073441D01*
X183692950Y-74095129D01*
X183692953Y-74095129D01*
X183695740Y-74095760D01*
X183784802Y-74099259D01*
X183894982Y-74103588D01*
X183894986Y-74103588D01*
X183897842Y-74103700D01*
X184098007Y-74074678D01*
X184289531Y-74009664D01*
X184466001Y-73910837D01*
X184472284Y-73905612D01*
X184619307Y-73783333D01*
X184621505Y-73781505D01*
X184689696Y-73699515D01*
X184749006Y-73628203D01*
X184749008Y-73628200D01*
X184750837Y-73626001D01*
X184849664Y-73449531D01*
X184914678Y-73258007D01*
X184943700Y-73057842D01*
X184945215Y-73000000D01*
X184944908Y-72996652D01*
X184942557Y-72971069D01*
X185275164Y-72971069D01*
X185288392Y-73172894D01*
X185301233Y-73223456D01*
X185337472Y-73366148D01*
X185338178Y-73368928D01*
X185339375Y-73371525D01*
X185339376Y-73371527D01*
X185349471Y-73393425D01*
X185422856Y-73552607D01*
X185539588Y-73717780D01*
X185684466Y-73858913D01*
X185852637Y-73971282D01*
X185948400Y-74012425D01*
X186035830Y-74049988D01*
X186035832Y-74049989D01*
X186038470Y-74051122D01*
X186138502Y-74073757D01*
X186232950Y-74095129D01*
X186232953Y-74095129D01*
X186235740Y-74095760D01*
X186324802Y-74099259D01*
X186434982Y-74103588D01*
X186434986Y-74103588D01*
X186437842Y-74103700D01*
X186638007Y-74074678D01*
X186829531Y-74009664D01*
X187006001Y-73910837D01*
X187012284Y-73905612D01*
X187159307Y-73783333D01*
X187161505Y-73781505D01*
X187229696Y-73699515D01*
X187289006Y-73628203D01*
X187289008Y-73628200D01*
X187290837Y-73626001D01*
X187389664Y-73449531D01*
X187454678Y-73258007D01*
X187457589Y-73237930D01*
X187482047Y-73196820D01*
X187528410Y-73185045D01*
X187569520Y-73209503D01*
X187580413Y-73233157D01*
X187619139Y-73404994D01*
X187620664Y-73409861D01*
X187702747Y-73612008D01*
X187705057Y-73616582D01*
X187819051Y-73802602D01*
X187822072Y-73806731D01*
X187964917Y-73971635D01*
X187968580Y-73975222D01*
X188136437Y-74114580D01*
X188140631Y-74117517D01*
X188328999Y-74227590D01*
X188333615Y-74229802D01*
X188537442Y-74307635D01*
X188542343Y-74309059D01*
X188653817Y-74331738D01*
X188663158Y-74329923D01*
X188666000Y-74325709D01*
X188666000Y-74324201D01*
X189174000Y-74324201D01*
X189177641Y-74332991D01*
X189183495Y-74335416D01*
X189200762Y-74333204D01*
X189205772Y-74332139D01*
X189414749Y-74269443D01*
X189419499Y-74267581D01*
X189615436Y-74171592D01*
X189619824Y-74168976D01*
X189797449Y-74042278D01*
X189801352Y-74038980D01*
X189955897Y-73884973D01*
X189959210Y-73881080D01*
X190086522Y-73703906D01*
X190089161Y-73699515D01*
X190185825Y-73503930D01*
X190187710Y-73499170D01*
X190251135Y-73290415D01*
X190252215Y-73285419D01*
X190259172Y-73232575D01*
X190283089Y-73191148D01*
X190329295Y-73178768D01*
X190370722Y-73202685D01*
X190381714Y-73225349D01*
X190417472Y-73366148D01*
X190418178Y-73368928D01*
X190419375Y-73371525D01*
X190419376Y-73371527D01*
X190429471Y-73393425D01*
X190502856Y-73552607D01*
X190619588Y-73717780D01*
X190764466Y-73858913D01*
X190932637Y-73971282D01*
X191028400Y-74012425D01*
X191115830Y-74049988D01*
X191115832Y-74049989D01*
X191118470Y-74051122D01*
X191218502Y-74073757D01*
X191312950Y-74095129D01*
X191312953Y-74095129D01*
X191315740Y-74095760D01*
X191404802Y-74099259D01*
X191514982Y-74103588D01*
X191514986Y-74103588D01*
X191517842Y-74103700D01*
X191718007Y-74074678D01*
X191909531Y-74009664D01*
X192086001Y-73910837D01*
X192092284Y-73905612D01*
X192239307Y-73783333D01*
X192241505Y-73781505D01*
X192309696Y-73699515D01*
X192369006Y-73628203D01*
X192369008Y-73628200D01*
X192370837Y-73626001D01*
X192469664Y-73449531D01*
X192534678Y-73258007D01*
X192563700Y-73057842D01*
X192565215Y-73000000D01*
X192564908Y-72996652D01*
X192556169Y-72901558D01*
X192546708Y-72798591D01*
X192538705Y-72770213D01*
X192492585Y-72606683D01*
X192492583Y-72606679D01*
X192491807Y-72603926D01*
X192402351Y-72422527D01*
X192385972Y-72400593D01*
X192283052Y-72262766D01*
X192283051Y-72262764D01*
X192281335Y-72260467D01*
X192132812Y-72123174D01*
X191961757Y-72015246D01*
X191773898Y-71940298D01*
X191771092Y-71939740D01*
X191771089Y-71939739D01*
X191578332Y-71901397D01*
X191578330Y-71901397D01*
X191575526Y-71900839D01*
X191480350Y-71899593D01*
X191376148Y-71898229D01*
X191376143Y-71898229D01*
X191373286Y-71898192D01*
X191370465Y-71898677D01*
X191370461Y-71898677D01*
X191254035Y-71918683D01*
X191173949Y-71932444D01*
X191171261Y-71933436D01*
X191171256Y-71933437D01*
X190986881Y-72001457D01*
X190986878Y-72001459D01*
X190984193Y-72002449D01*
X190981733Y-72003912D01*
X190981732Y-72003913D01*
X190964465Y-72014186D01*
X190810371Y-72105862D01*
X190658305Y-72239220D01*
X190533089Y-72398057D01*
X190531755Y-72400593D01*
X190446124Y-72563350D01*
X190438914Y-72577053D01*
X190438067Y-72579780D01*
X190438066Y-72579783D01*
X190380639Y-72764731D01*
X190350051Y-72801509D01*
X190302416Y-72805886D01*
X190265638Y-72775298D01*
X190260333Y-72761423D01*
X190210580Y-72563350D01*
X190208932Y-72558510D01*
X190121937Y-72358435D01*
X190119514Y-72353917D01*
X190001013Y-72170741D01*
X189997889Y-72166684D01*
X189851057Y-72005318D01*
X189847314Y-72001827D01*
X189676091Y-71866605D01*
X189671834Y-71863777D01*
X189480831Y-71758337D01*
X189476166Y-71756240D01*
X189270503Y-71683411D01*
X189265555Y-71682103D01*
X189186239Y-71667975D01*
X189176947Y-71670018D01*
X189174000Y-71674626D01*
X189174000Y-74324201D01*
X188666000Y-74324201D01*
X188666000Y-71677418D01*
X188662359Y-71668628D01*
X188656922Y-71666376D01*
X188606745Y-71674055D01*
X188601766Y-71675241D01*
X188394394Y-71743020D01*
X188389669Y-71745006D01*
X188196153Y-71845744D01*
X188191819Y-71848474D01*
X188017348Y-71979471D01*
X188013527Y-71982863D01*
X187862793Y-72140598D01*
X187859572Y-72144575D01*
X187736629Y-72324802D01*
X187734096Y-72329261D01*
X187642240Y-72527149D01*
X187640473Y-72531950D01*
X187582166Y-72742198D01*
X187581210Y-72747211D01*
X187580171Y-72756934D01*
X187557274Y-72798933D01*
X187511385Y-72812440D01*
X187469386Y-72789543D01*
X187457872Y-72767259D01*
X187412585Y-72606683D01*
X187412583Y-72606679D01*
X187411807Y-72603926D01*
X187322351Y-72422527D01*
X187305972Y-72400593D01*
X187203052Y-72262766D01*
X187203051Y-72262764D01*
X187201335Y-72260467D01*
X187052812Y-72123174D01*
X186881757Y-72015246D01*
X186693898Y-71940298D01*
X186691092Y-71939740D01*
X186691089Y-71939739D01*
X186498332Y-71901397D01*
X186498330Y-71901397D01*
X186495526Y-71900839D01*
X186400350Y-71899593D01*
X186296148Y-71898229D01*
X186296143Y-71898229D01*
X186293286Y-71898192D01*
X186290465Y-71898677D01*
X186290461Y-71898677D01*
X186174035Y-71918683D01*
X186093949Y-71932444D01*
X186091261Y-71933436D01*
X186091256Y-71933437D01*
X185906881Y-72001457D01*
X185906878Y-72001459D01*
X185904193Y-72002449D01*
X185901733Y-72003912D01*
X185901732Y-72003913D01*
X185884465Y-72014186D01*
X185730371Y-72105862D01*
X185578305Y-72239220D01*
X185453089Y-72398057D01*
X185451755Y-72400593D01*
X185366124Y-72563350D01*
X185358914Y-72577053D01*
X185358067Y-72579780D01*
X185358066Y-72579783D01*
X185317498Y-72710436D01*
X185298937Y-72770213D01*
X185275164Y-72971069D01*
X184942557Y-72971069D01*
X184936169Y-72901558D01*
X184926708Y-72798591D01*
X184918705Y-72770213D01*
X184872585Y-72606683D01*
X184872583Y-72606679D01*
X184871807Y-72603926D01*
X184782351Y-72422527D01*
X184765972Y-72400593D01*
X184663052Y-72262766D01*
X184663051Y-72262764D01*
X184661335Y-72260467D01*
X184512812Y-72123174D01*
X184341757Y-72015246D01*
X184153898Y-71940298D01*
X184151092Y-71939740D01*
X184151089Y-71939739D01*
X183958332Y-71901397D01*
X183958330Y-71901397D01*
X183955526Y-71900839D01*
X183860350Y-71899593D01*
X183756148Y-71898229D01*
X183756143Y-71898229D01*
X183753286Y-71898192D01*
X183750465Y-71898677D01*
X183750461Y-71898677D01*
X183634035Y-71918683D01*
X183553949Y-71932444D01*
X183551261Y-71933436D01*
X183551256Y-71933437D01*
X183366881Y-72001457D01*
X183366878Y-72001459D01*
X183364193Y-72002449D01*
X183361733Y-72003912D01*
X183361732Y-72003913D01*
X183344465Y-72014186D01*
X183190371Y-72105862D01*
X183038305Y-72239220D01*
X182913089Y-72398057D01*
X182911755Y-72400593D01*
X182826124Y-72563350D01*
X182818914Y-72577053D01*
X182818067Y-72579780D01*
X182818066Y-72579783D01*
X182777498Y-72710436D01*
X182758937Y-72770213D01*
X182735164Y-72971069D01*
X182748392Y-73172894D01*
X182798178Y-73368928D01*
X182824703Y-73426464D01*
X182826581Y-73474263D01*
X182812138Y-73496825D01*
X181477769Y-74831194D01*
X181433575Y-74849500D01*
X176471736Y-74849500D01*
X176458581Y-74848100D01*
X176442933Y-74844731D01*
X176437803Y-74845338D01*
X176437801Y-74845338D01*
X176406297Y-74849067D01*
X176398951Y-74849500D01*
X176393807Y-74849500D01*
X176391260Y-74849924D01*
X176391259Y-74849924D01*
X176373522Y-74852876D01*
X176370607Y-74853291D01*
X176354146Y-74855239D01*
X176318790Y-74859424D01*
X176314131Y-74861661D01*
X176310425Y-74862738D01*
X176306781Y-74863985D01*
X176301687Y-74864833D01*
X176297144Y-74867284D01*
X176297142Y-74867285D01*
X176255753Y-74889618D01*
X176253128Y-74890955D01*
X176206100Y-74913537D01*
X176203089Y-74916068D01*
X176203088Y-74916069D01*
X176202903Y-74916224D01*
X176202894Y-74916232D01*
X176201869Y-74917094D01*
X176201643Y-74917320D01*
X176198531Y-74919947D01*
X176196220Y-74921740D01*
X176191671Y-74924194D01*
X176188162Y-74927990D01*
X176154628Y-74964267D01*
X176152927Y-74966036D01*
X175286176Y-75832787D01*
X175241982Y-75851093D01*
X175235233Y-75850669D01*
X175232128Y-75849889D01*
X175228359Y-75849869D01*
X175228357Y-75849869D01*
X175153406Y-75849477D01*
X175074684Y-75849065D01*
X175071020Y-75849945D01*
X175071017Y-75849945D01*
X175017336Y-75862833D01*
X174921588Y-75885820D01*
X174863154Y-75915980D01*
X174785024Y-75956305D01*
X174785021Y-75956307D01*
X174781679Y-75958032D01*
X174778843Y-75960506D01*
X174688603Y-76039228D01*
X174663034Y-76061533D01*
X174572501Y-76190348D01*
X174547125Y-76255434D01*
X174520653Y-76323333D01*
X174515309Y-76337039D01*
X174514817Y-76340776D01*
X174499072Y-76460372D01*
X174494758Y-76493138D01*
X172324175Y-76493138D01*
X169898569Y-74067532D01*
X169890257Y-74057240D01*
X169884375Y-74048130D01*
X169884373Y-74048127D01*
X169881572Y-74043790D01*
X169852601Y-74020951D01*
X169847100Y-74016063D01*
X169843462Y-74012425D01*
X169839599Y-74009664D01*
X169826738Y-74000474D01*
X169824382Y-73998705D01*
X169787459Y-73969597D01*
X169783400Y-73966397D01*
X169778524Y-73964685D01*
X169775141Y-73962825D01*
X169771682Y-73961131D01*
X169767481Y-73958128D01*
X169762534Y-73956649D01*
X169762533Y-73956648D01*
X169739013Y-73949614D01*
X169717476Y-73943173D01*
X169714682Y-73942265D01*
X169669164Y-73926280D01*
X169669160Y-73926279D01*
X169665452Y-73924977D01*
X169659945Y-73924500D01*
X169659621Y-73924500D01*
X169655563Y-73924156D01*
X169652660Y-73923789D01*
X169647713Y-73922310D01*
X169593198Y-73924452D01*
X169590744Y-73924500D01*
X169382463Y-73924500D01*
X169338269Y-73906194D01*
X169319963Y-73862000D01*
X169338269Y-73817806D01*
X169342498Y-73813948D01*
X169379301Y-73783339D01*
X169379307Y-73783333D01*
X169381505Y-73781505D01*
X169449696Y-73699515D01*
X169509006Y-73628203D01*
X169509008Y-73628200D01*
X169510837Y-73626001D01*
X169609664Y-73449531D01*
X169674678Y-73258007D01*
X169703700Y-73057842D01*
X169705215Y-73000000D01*
X169704908Y-72996652D01*
X169702557Y-72971069D01*
X170035164Y-72971069D01*
X170048392Y-73172894D01*
X170061233Y-73223456D01*
X170097472Y-73366148D01*
X170098178Y-73368928D01*
X170099375Y-73371525D01*
X170099376Y-73371527D01*
X170109471Y-73393425D01*
X170182856Y-73552607D01*
X170299588Y-73717780D01*
X170444466Y-73858913D01*
X170612637Y-73971282D01*
X170708400Y-74012425D01*
X170795830Y-74049988D01*
X170795832Y-74049989D01*
X170798470Y-74051122D01*
X170898502Y-74073757D01*
X170992950Y-74095129D01*
X170992953Y-74095129D01*
X170995740Y-74095760D01*
X171084802Y-74099259D01*
X171194982Y-74103588D01*
X171194986Y-74103588D01*
X171197842Y-74103700D01*
X171398007Y-74074678D01*
X171589531Y-74009664D01*
X171766001Y-73910837D01*
X171772284Y-73905612D01*
X171919307Y-73783333D01*
X171921505Y-73781505D01*
X171989696Y-73699515D01*
X172049006Y-73628203D01*
X172049008Y-73628200D01*
X172050837Y-73626001D01*
X172149664Y-73449531D01*
X172214678Y-73258007D01*
X172243700Y-73057842D01*
X172245215Y-73000000D01*
X172244908Y-72996652D01*
X172242557Y-72971069D01*
X172575164Y-72971069D01*
X172588392Y-73172894D01*
X172601233Y-73223456D01*
X172637472Y-73366148D01*
X172638178Y-73368928D01*
X172639375Y-73371525D01*
X172639376Y-73371527D01*
X172649471Y-73393425D01*
X172722856Y-73552607D01*
X172839588Y-73717780D01*
X172984466Y-73858913D01*
X173152637Y-73971282D01*
X173248400Y-74012425D01*
X173335830Y-74049988D01*
X173335832Y-74049989D01*
X173338470Y-74051122D01*
X173438502Y-74073757D01*
X173532950Y-74095129D01*
X173532953Y-74095129D01*
X173535740Y-74095760D01*
X173624802Y-74099259D01*
X173734982Y-74103588D01*
X173734986Y-74103588D01*
X173737842Y-74103700D01*
X173938007Y-74074678D01*
X174129531Y-74009664D01*
X174306001Y-73910837D01*
X174312284Y-73905612D01*
X174459307Y-73783333D01*
X174461505Y-73781505D01*
X174529696Y-73699515D01*
X174589006Y-73628203D01*
X174589008Y-73628200D01*
X174590837Y-73626001D01*
X174689664Y-73449531D01*
X174754678Y-73258007D01*
X174783700Y-73057842D01*
X174785215Y-73000000D01*
X174784908Y-72996652D01*
X174782557Y-72971069D01*
X175115164Y-72971069D01*
X175128392Y-73172894D01*
X175141233Y-73223456D01*
X175177472Y-73366148D01*
X175178178Y-73368928D01*
X175179375Y-73371525D01*
X175179376Y-73371527D01*
X175189471Y-73393425D01*
X175262856Y-73552607D01*
X175379588Y-73717780D01*
X175524466Y-73858913D01*
X175692637Y-73971282D01*
X175788400Y-74012425D01*
X175875830Y-74049988D01*
X175875832Y-74049989D01*
X175878470Y-74051122D01*
X175978502Y-74073757D01*
X176072950Y-74095129D01*
X176072953Y-74095129D01*
X176075740Y-74095760D01*
X176164802Y-74099259D01*
X176274982Y-74103588D01*
X176274986Y-74103588D01*
X176277842Y-74103700D01*
X176478007Y-74074678D01*
X176669531Y-74009664D01*
X176846001Y-73910837D01*
X176852284Y-73905612D01*
X176999307Y-73783333D01*
X177001505Y-73781505D01*
X177069696Y-73699515D01*
X177129006Y-73628203D01*
X177129008Y-73628200D01*
X177130837Y-73626001D01*
X177229664Y-73449531D01*
X177294678Y-73258007D01*
X177323700Y-73057842D01*
X177325215Y-73000000D01*
X177324908Y-72996652D01*
X177322557Y-72971069D01*
X177655164Y-72971069D01*
X177668392Y-73172894D01*
X177681233Y-73223456D01*
X177717472Y-73366148D01*
X177718178Y-73368928D01*
X177719375Y-73371525D01*
X177719376Y-73371527D01*
X177729471Y-73393425D01*
X177802856Y-73552607D01*
X177919588Y-73717780D01*
X178064466Y-73858913D01*
X178232637Y-73971282D01*
X178328400Y-74012425D01*
X178415830Y-74049988D01*
X178415832Y-74049989D01*
X178418470Y-74051122D01*
X178518502Y-74073757D01*
X178612950Y-74095129D01*
X178612953Y-74095129D01*
X178615740Y-74095760D01*
X178704802Y-74099259D01*
X178814982Y-74103588D01*
X178814986Y-74103588D01*
X178817842Y-74103700D01*
X179018007Y-74074678D01*
X179209531Y-74009664D01*
X179386001Y-73910837D01*
X179392284Y-73905612D01*
X179539307Y-73783333D01*
X179541505Y-73781505D01*
X179609696Y-73699515D01*
X179669006Y-73628203D01*
X179669008Y-73628200D01*
X179670837Y-73626001D01*
X179769664Y-73449531D01*
X179834678Y-73258007D01*
X179863700Y-73057842D01*
X179865215Y-73000000D01*
X179864908Y-72996652D01*
X179862557Y-72971069D01*
X180195164Y-72971069D01*
X180208392Y-73172894D01*
X180221233Y-73223456D01*
X180257472Y-73366148D01*
X180258178Y-73368928D01*
X180259375Y-73371525D01*
X180259376Y-73371527D01*
X180269471Y-73393425D01*
X180342856Y-73552607D01*
X180459588Y-73717780D01*
X180604466Y-73858913D01*
X180772637Y-73971282D01*
X180868400Y-74012425D01*
X180955830Y-74049988D01*
X180955832Y-74049989D01*
X180958470Y-74051122D01*
X181058502Y-74073757D01*
X181152950Y-74095129D01*
X181152953Y-74095129D01*
X181155740Y-74095760D01*
X181244802Y-74099259D01*
X181354982Y-74103588D01*
X181354986Y-74103588D01*
X181357842Y-74103700D01*
X181558007Y-74074678D01*
X181749531Y-74009664D01*
X181926001Y-73910837D01*
X181932284Y-73905612D01*
X182079307Y-73783333D01*
X182081505Y-73781505D01*
X182149696Y-73699515D01*
X182209006Y-73628203D01*
X182209008Y-73628200D01*
X182210837Y-73626001D01*
X182309664Y-73449531D01*
X182374678Y-73258007D01*
X182403700Y-73057842D01*
X182405215Y-73000000D01*
X182404908Y-72996652D01*
X182396169Y-72901558D01*
X182386708Y-72798591D01*
X182378705Y-72770213D01*
X182332585Y-72606683D01*
X182332583Y-72606679D01*
X182331807Y-72603926D01*
X182242351Y-72422527D01*
X182225972Y-72400593D01*
X182123052Y-72262766D01*
X182123051Y-72262764D01*
X182121335Y-72260467D01*
X181972812Y-72123174D01*
X181801757Y-72015246D01*
X181613898Y-71940298D01*
X181611092Y-71939740D01*
X181611089Y-71939739D01*
X181418332Y-71901397D01*
X181418330Y-71901397D01*
X181415526Y-71900839D01*
X181320350Y-71899593D01*
X181216148Y-71898229D01*
X181216143Y-71898229D01*
X181213286Y-71898192D01*
X181210465Y-71898677D01*
X181210461Y-71898677D01*
X181094035Y-71918683D01*
X181013949Y-71932444D01*
X181011261Y-71933436D01*
X181011256Y-71933437D01*
X180826881Y-72001457D01*
X180826878Y-72001459D01*
X180824193Y-72002449D01*
X180821733Y-72003912D01*
X180821732Y-72003913D01*
X180804465Y-72014186D01*
X180650371Y-72105862D01*
X180498305Y-72239220D01*
X180373089Y-72398057D01*
X180371755Y-72400593D01*
X180286124Y-72563350D01*
X180278914Y-72577053D01*
X180278067Y-72579780D01*
X180278066Y-72579783D01*
X180237498Y-72710436D01*
X180218937Y-72770213D01*
X180195164Y-72971069D01*
X179862557Y-72971069D01*
X179856169Y-72901558D01*
X179846708Y-72798591D01*
X179838705Y-72770213D01*
X179792585Y-72606683D01*
X179792583Y-72606679D01*
X179791807Y-72603926D01*
X179702351Y-72422527D01*
X179685972Y-72400593D01*
X179583052Y-72262766D01*
X179583051Y-72262764D01*
X179581335Y-72260467D01*
X179432812Y-72123174D01*
X179261757Y-72015246D01*
X179073898Y-71940298D01*
X179071092Y-71939740D01*
X179071089Y-71939739D01*
X178878332Y-71901397D01*
X178878330Y-71901397D01*
X178875526Y-71900839D01*
X178780350Y-71899593D01*
X178676148Y-71898229D01*
X178676143Y-71898229D01*
X178673286Y-71898192D01*
X178670465Y-71898677D01*
X178670461Y-71898677D01*
X178554035Y-71918683D01*
X178473949Y-71932444D01*
X178471261Y-71933436D01*
X178471256Y-71933437D01*
X178286881Y-72001457D01*
X178286878Y-72001459D01*
X178284193Y-72002449D01*
X178281733Y-72003912D01*
X178281732Y-72003913D01*
X178264465Y-72014186D01*
X178110371Y-72105862D01*
X177958305Y-72239220D01*
X177833089Y-72398057D01*
X177831755Y-72400593D01*
X177746124Y-72563350D01*
X177738914Y-72577053D01*
X177738067Y-72579780D01*
X177738066Y-72579783D01*
X177697498Y-72710436D01*
X177678937Y-72770213D01*
X177655164Y-72971069D01*
X177322557Y-72971069D01*
X177316169Y-72901558D01*
X177306708Y-72798591D01*
X177298705Y-72770213D01*
X177252585Y-72606683D01*
X177252583Y-72606679D01*
X177251807Y-72603926D01*
X177162351Y-72422527D01*
X177145972Y-72400593D01*
X177043052Y-72262766D01*
X177043051Y-72262764D01*
X177041335Y-72260467D01*
X176892812Y-72123174D01*
X176721757Y-72015246D01*
X176533898Y-71940298D01*
X176531092Y-71939740D01*
X176531089Y-71939739D01*
X176338332Y-71901397D01*
X176338330Y-71901397D01*
X176335526Y-71900839D01*
X176240350Y-71899593D01*
X176136148Y-71898229D01*
X176136143Y-71898229D01*
X176133286Y-71898192D01*
X176130465Y-71898677D01*
X176130461Y-71898677D01*
X176014035Y-71918683D01*
X175933949Y-71932444D01*
X175931261Y-71933436D01*
X175931256Y-71933437D01*
X175746881Y-72001457D01*
X175746878Y-72001459D01*
X175744193Y-72002449D01*
X175741733Y-72003912D01*
X175741732Y-72003913D01*
X175724465Y-72014186D01*
X175570371Y-72105862D01*
X175418305Y-72239220D01*
X175293089Y-72398057D01*
X175291755Y-72400593D01*
X175206124Y-72563350D01*
X175198914Y-72577053D01*
X175198067Y-72579780D01*
X175198066Y-72579783D01*
X175157498Y-72710436D01*
X175138937Y-72770213D01*
X175115164Y-72971069D01*
X174782557Y-72971069D01*
X174776169Y-72901558D01*
X174766708Y-72798591D01*
X174758705Y-72770213D01*
X174712585Y-72606683D01*
X174712583Y-72606679D01*
X174711807Y-72603926D01*
X174622351Y-72422527D01*
X174605972Y-72400593D01*
X174503052Y-72262766D01*
X174503051Y-72262764D01*
X174501335Y-72260467D01*
X174352812Y-72123174D01*
X174181757Y-72015246D01*
X173993898Y-71940298D01*
X173991092Y-71939740D01*
X173991089Y-71939739D01*
X173798332Y-71901397D01*
X173798330Y-71901397D01*
X173795526Y-71900839D01*
X173700350Y-71899593D01*
X173596148Y-71898229D01*
X173596143Y-71898229D01*
X173593286Y-71898192D01*
X173590465Y-71898677D01*
X173590461Y-71898677D01*
X173474035Y-71918683D01*
X173393949Y-71932444D01*
X173391261Y-71933436D01*
X173391256Y-71933437D01*
X173206881Y-72001457D01*
X173206878Y-72001459D01*
X173204193Y-72002449D01*
X173201733Y-72003912D01*
X173201732Y-72003913D01*
X173184465Y-72014186D01*
X173030371Y-72105862D01*
X172878305Y-72239220D01*
X172753089Y-72398057D01*
X172751755Y-72400593D01*
X172666124Y-72563350D01*
X172658914Y-72577053D01*
X172658067Y-72579780D01*
X172658066Y-72579783D01*
X172617498Y-72710436D01*
X172598937Y-72770213D01*
X172575164Y-72971069D01*
X172242557Y-72971069D01*
X172236169Y-72901558D01*
X172226708Y-72798591D01*
X172218705Y-72770213D01*
X172172585Y-72606683D01*
X172172583Y-72606679D01*
X172171807Y-72603926D01*
X172082351Y-72422527D01*
X172065972Y-72400593D01*
X171963052Y-72262766D01*
X171963051Y-72262764D01*
X171961335Y-72260467D01*
X171812812Y-72123174D01*
X171641757Y-72015246D01*
X171453898Y-71940298D01*
X171451092Y-71939740D01*
X171451089Y-71939739D01*
X171258332Y-71901397D01*
X171258330Y-71901397D01*
X171255526Y-71900839D01*
X171160350Y-71899593D01*
X171056148Y-71898229D01*
X171056143Y-71898229D01*
X171053286Y-71898192D01*
X171050465Y-71898677D01*
X171050461Y-71898677D01*
X170934035Y-71918683D01*
X170853949Y-71932444D01*
X170851261Y-71933436D01*
X170851256Y-71933437D01*
X170666881Y-72001457D01*
X170666878Y-72001459D01*
X170664193Y-72002449D01*
X170661733Y-72003912D01*
X170661732Y-72003913D01*
X170644465Y-72014186D01*
X170490371Y-72105862D01*
X170338305Y-72239220D01*
X170213089Y-72398057D01*
X170211755Y-72400593D01*
X170126124Y-72563350D01*
X170118914Y-72577053D01*
X170118067Y-72579780D01*
X170118066Y-72579783D01*
X170077498Y-72710436D01*
X170058937Y-72770213D01*
X170035164Y-72971069D01*
X169702557Y-72971069D01*
X169696169Y-72901558D01*
X169686708Y-72798591D01*
X169678705Y-72770213D01*
X169632585Y-72606683D01*
X169632583Y-72606679D01*
X169631807Y-72603926D01*
X169542351Y-72422527D01*
X169525972Y-72400593D01*
X169423052Y-72262766D01*
X169423051Y-72262764D01*
X169421335Y-72260467D01*
X169272812Y-72123174D01*
X169101757Y-72015246D01*
X168913898Y-71940298D01*
X168911092Y-71939740D01*
X168911089Y-71939739D01*
X168718332Y-71901397D01*
X168718330Y-71901397D01*
X168715526Y-71900839D01*
X168620350Y-71899593D01*
X168516148Y-71898229D01*
X168516143Y-71898229D01*
X168513286Y-71898192D01*
X168510465Y-71898677D01*
X168510461Y-71898677D01*
X168394035Y-71918683D01*
X168313949Y-71932444D01*
X168311261Y-71933436D01*
X168311256Y-71933437D01*
X168126881Y-72001457D01*
X168126878Y-72001459D01*
X168124193Y-72002449D01*
X168121733Y-72003912D01*
X168121732Y-72003913D01*
X168104465Y-72014186D01*
X167950371Y-72105862D01*
X167798305Y-72239220D01*
X167673089Y-72398057D01*
X167671755Y-72400593D01*
X167586124Y-72563350D01*
X167578914Y-72577053D01*
X167578067Y-72579780D01*
X167578066Y-72579783D01*
X167537498Y-72710436D01*
X167518937Y-72770213D01*
X167495164Y-72971069D01*
X167508392Y-73172894D01*
X167521233Y-73223456D01*
X167557472Y-73366148D01*
X167558178Y-73368928D01*
X167559375Y-73371525D01*
X167559376Y-73371527D01*
X167569471Y-73393425D01*
X167642856Y-73552607D01*
X167759588Y-73717780D01*
X167761642Y-73719781D01*
X167761643Y-73719782D01*
X167861678Y-73817231D01*
X167880561Y-73861182D01*
X167862835Y-73905612D01*
X167818066Y-73924500D01*
X167664169Y-73924500D01*
X167619975Y-73906194D01*
X167612661Y-73897401D01*
X167593663Y-73869759D01*
X167591531Y-73866657D01*
X167473976Y-73761919D01*
X167334831Y-73688245D01*
X167182128Y-73649889D01*
X167178363Y-73649869D01*
X167178361Y-73649869D01*
X167064112Y-73649271D01*
X167020014Y-73630734D01*
X167001940Y-73586445D01*
X167009907Y-73556235D01*
X167069664Y-73449531D01*
X167134678Y-73258007D01*
X167163700Y-73057842D01*
X167165215Y-73000000D01*
X167164908Y-72996652D01*
X167156169Y-72901558D01*
X167146708Y-72798591D01*
X167138705Y-72770213D01*
X167092585Y-72606683D01*
X167092583Y-72606679D01*
X167091807Y-72603926D01*
X167002351Y-72422527D01*
X166985972Y-72400593D01*
X166883052Y-72262766D01*
X166883051Y-72262764D01*
X166881335Y-72260467D01*
X166732812Y-72123174D01*
X166561757Y-72015246D01*
X166373898Y-71940298D01*
X166371092Y-71939740D01*
X166371089Y-71939739D01*
X166178332Y-71901397D01*
X166178330Y-71901397D01*
X166175526Y-71900839D01*
X166080350Y-71899593D01*
X165976148Y-71898229D01*
X165976143Y-71898229D01*
X165973286Y-71898192D01*
X165970465Y-71898677D01*
X165970461Y-71898677D01*
X165854035Y-71918683D01*
X165773949Y-71932444D01*
X165771261Y-71933436D01*
X165771256Y-71933437D01*
X165586881Y-72001457D01*
X165586878Y-72001459D01*
X165584193Y-72002449D01*
X165581733Y-72003912D01*
X165581732Y-72003913D01*
X165564465Y-72014186D01*
X165410371Y-72105862D01*
X165258305Y-72239220D01*
X165133089Y-72398057D01*
X165131755Y-72400593D01*
X165046124Y-72563350D01*
X165038914Y-72577053D01*
X165038067Y-72579780D01*
X165038066Y-72579783D01*
X164997498Y-72710436D01*
X164978937Y-72770213D01*
X164955164Y-72971069D01*
X164968392Y-73172894D01*
X164981233Y-73223456D01*
X165017472Y-73366148D01*
X165018178Y-73368928D01*
X165019375Y-73371525D01*
X165019376Y-73371527D01*
X165029471Y-73393425D01*
X165102856Y-73552607D01*
X165219588Y-73717780D01*
X165364466Y-73858913D01*
X165532637Y-73971282D01*
X165535269Y-73972413D01*
X165535275Y-73972416D01*
X165646672Y-74020276D01*
X165680051Y-74054540D01*
X165684500Y-74077700D01*
X165684500Y-74613263D01*
X165683100Y-74626417D01*
X165679731Y-74642066D01*
X165680338Y-74647196D01*
X165680338Y-74647198D01*
X165684067Y-74678702D01*
X165684500Y-74686048D01*
X165684500Y-74691193D01*
X165686221Y-74701529D01*
X165687876Y-74711474D01*
X165688289Y-74714377D01*
X165694424Y-74766210D01*
X165696661Y-74770869D01*
X165697738Y-74774575D01*
X165698985Y-74778219D01*
X165699833Y-74783313D01*
X165702284Y-74787856D01*
X165702285Y-74787858D01*
X165724618Y-74829247D01*
X165725955Y-74831872D01*
X165748537Y-74878900D01*
X165751068Y-74881911D01*
X165751069Y-74881912D01*
X165751224Y-74882097D01*
X165751232Y-74882106D01*
X165752094Y-74883131D01*
X165752320Y-74883357D01*
X165754947Y-74886469D01*
X165756740Y-74888780D01*
X165759194Y-74893329D01*
X165762990Y-74896838D01*
X165799267Y-74930372D01*
X165801036Y-74932073D01*
X168436431Y-77567468D01*
X168444743Y-77577760D01*
X168450625Y-77586870D01*
X168450627Y-77586873D01*
X168453428Y-77591210D01*
X168457485Y-77594408D01*
X168482399Y-77614049D01*
X168487900Y-77618937D01*
X168491538Y-77622575D01*
X168493632Y-77624072D01*
X168493634Y-77624073D01*
X168508262Y-77634526D01*
X168510618Y-77636295D01*
X168551600Y-77668603D01*
X168556476Y-77670315D01*
X168559859Y-77672175D01*
X168563318Y-77673869D01*
X168567519Y-77676872D01*
X168572466Y-77678351D01*
X168572467Y-77678352D01*
X168591106Y-77683926D01*
X168617527Y-77691828D01*
X168620321Y-77692736D01*
X168665836Y-77708720D01*
X168665840Y-77708721D01*
X168669548Y-77710023D01*
X168673628Y-77710376D01*
X168673726Y-77710385D01*
X168673729Y-77710385D01*
X168675055Y-77710500D01*
X168675369Y-77710500D01*
X168679434Y-77710844D01*
X168682341Y-77711211D01*
X168687286Y-77712690D01*
X168741802Y-77710548D01*
X168744255Y-77710500D01*
X171146587Y-77710500D01*
X171190781Y-77728806D01*
X171209087Y-77773000D01*
X171204818Y-77795703D01*
X171180170Y-77858923D01*
X171165309Y-77897039D01*
X171164817Y-77900776D01*
X171145548Y-78047141D01*
X171144758Y-78053138D01*
X171154496Y-78141344D01*
X171141150Y-78187280D01*
X171136567Y-78192396D01*
X171067532Y-78261431D01*
X171057240Y-78269743D01*
X171048130Y-78275625D01*
X171048127Y-78275627D01*
X171043790Y-78278428D01*
X171040592Y-78282485D01*
X171020951Y-78307399D01*
X171016063Y-78312900D01*
X171012425Y-78316538D01*
X171010928Y-78318632D01*
X171010927Y-78318634D01*
X171000474Y-78333262D01*
X170998705Y-78335618D01*
X170966397Y-78376600D01*
X170964685Y-78381476D01*
X170962825Y-78384859D01*
X170961131Y-78388318D01*
X170958128Y-78392519D01*
X170947772Y-78427149D01*
X170943176Y-78442516D01*
X170942265Y-78445318D01*
X170926280Y-78490836D01*
X170926279Y-78490840D01*
X170924977Y-78494548D01*
X170924500Y-78500055D01*
X170924500Y-78500379D01*
X170924156Y-78504437D01*
X170923789Y-78507340D01*
X170922310Y-78512287D01*
X170922513Y-78517446D01*
X170924452Y-78566802D01*
X170924500Y-78569256D01*
X170924500Y-87928575D01*
X170906194Y-87972769D01*
X169126530Y-89752433D01*
X169082336Y-89770739D01*
X169059176Y-89766289D01*
X168946565Y-89721361D01*
X168946555Y-89721358D01*
X168943898Y-89720298D01*
X168941092Y-89719740D01*
X168941089Y-89719739D01*
X168748332Y-89681397D01*
X168748330Y-89681397D01*
X168745526Y-89680839D01*
X168650350Y-89679593D01*
X168546148Y-89678229D01*
X168546143Y-89678229D01*
X168543286Y-89678192D01*
X168540465Y-89678677D01*
X168540461Y-89678677D01*
X168424884Y-89698537D01*
X168343949Y-89712444D01*
X168341263Y-89713435D01*
X168341256Y-89713437D01*
X168156881Y-89781457D01*
X168156878Y-89781459D01*
X168154193Y-89782449D01*
X167980371Y-89885862D01*
X167889416Y-89965627D01*
X167846753Y-90003042D01*
X167828305Y-90019220D01*
X167703089Y-90178057D01*
X167608914Y-90357053D01*
X167608067Y-90359780D01*
X167608066Y-90359783D01*
X167574101Y-90469171D01*
X167548937Y-90550213D01*
X167525164Y-90751069D01*
X167538392Y-90952894D01*
X167539099Y-90955677D01*
X167559288Y-91035171D01*
X167588178Y-91148928D01*
X167672856Y-91332607D01*
X167789588Y-91497780D01*
X167791642Y-91499781D01*
X167791643Y-91499782D01*
X167809555Y-91517231D01*
X167828438Y-91561182D01*
X167810712Y-91605612D01*
X167765943Y-91624500D01*
X166952385Y-91624500D01*
X166908191Y-91606194D01*
X166889885Y-91562000D01*
X166904332Y-91522035D01*
X166999006Y-91408203D01*
X166999008Y-91408200D01*
X167000837Y-91406001D01*
X167099664Y-91229531D01*
X167164678Y-91038007D01*
X167193700Y-90837842D01*
X167195215Y-90780000D01*
X167194459Y-90771764D01*
X167176970Y-90581446D01*
X167176708Y-90578591D01*
X167168705Y-90550213D01*
X167122585Y-90386683D01*
X167122583Y-90386679D01*
X167121807Y-90383926D01*
X167070818Y-90280531D01*
X167033619Y-90205098D01*
X167033618Y-90205097D01*
X167032351Y-90202527D01*
X167030633Y-90200226D01*
X166913052Y-90042766D01*
X166913051Y-90042764D01*
X166911335Y-90040467D01*
X166762812Y-89903174D01*
X166591757Y-89795246D01*
X166410498Y-89722931D01*
X166406555Y-89721358D01*
X166403898Y-89720298D01*
X166401092Y-89719740D01*
X166401089Y-89719739D01*
X166208332Y-89681397D01*
X166208330Y-89681397D01*
X166205526Y-89680839D01*
X166110350Y-89679593D01*
X166006148Y-89678229D01*
X166006143Y-89678229D01*
X166003286Y-89678192D01*
X166000465Y-89678677D01*
X166000461Y-89678677D01*
X165884884Y-89698537D01*
X165803949Y-89712444D01*
X165658518Y-89766097D01*
X165610719Y-89764219D01*
X165592691Y-89751654D01*
X164243806Y-88402769D01*
X164225500Y-88358575D01*
X164225500Y-79946741D01*
X164226900Y-79933586D01*
X164229182Y-79922986D01*
X164230270Y-79917934D01*
X164229264Y-79909429D01*
X164225933Y-79881290D01*
X164225500Y-79873944D01*
X164225500Y-79868807D01*
X164222127Y-79848542D01*
X164221712Y-79845626D01*
X164216777Y-79803931D01*
X164215577Y-79793791D01*
X164213340Y-79789133D01*
X164212267Y-79785439D01*
X164211015Y-79781782D01*
X164210167Y-79776687D01*
X164185384Y-79730757D01*
X164184047Y-79728132D01*
X164163166Y-79684647D01*
X164161463Y-79681100D01*
X164158931Y-79678088D01*
X164158776Y-79677903D01*
X164158768Y-79677894D01*
X164157906Y-79676869D01*
X164157680Y-79676643D01*
X164155053Y-79673531D01*
X164153260Y-79671220D01*
X164150806Y-79666671D01*
X164118464Y-79636774D01*
X164110733Y-79629628D01*
X164108964Y-79627927D01*
X162328569Y-77847532D01*
X162320257Y-77837240D01*
X162314375Y-77828130D01*
X162314373Y-77828127D01*
X162311572Y-77823790D01*
X162282601Y-77800951D01*
X162277100Y-77796063D01*
X162273462Y-77792425D01*
X162266628Y-77787541D01*
X162256738Y-77780474D01*
X162254382Y-77778705D01*
X162217459Y-77749597D01*
X162213400Y-77746397D01*
X162208524Y-77744685D01*
X162205141Y-77742825D01*
X162201682Y-77741131D01*
X162197481Y-77738128D01*
X162192534Y-77736649D01*
X162192533Y-77736648D01*
X162153249Y-77724900D01*
X162147476Y-77723173D01*
X162144682Y-77722265D01*
X162099164Y-77706280D01*
X162099160Y-77706279D01*
X162095452Y-77704977D01*
X162089945Y-77704500D01*
X162089621Y-77704500D01*
X162085563Y-77704156D01*
X162082660Y-77703789D01*
X162077713Y-77702310D01*
X162023198Y-77704452D01*
X162020744Y-77704500D01*
X160880818Y-77704500D01*
X160836624Y-77686194D01*
X160824763Y-77669643D01*
X160824251Y-77668603D01*
X160742351Y-77502527D01*
X160725972Y-77480593D01*
X160623052Y-77342766D01*
X160623051Y-77342764D01*
X160621335Y-77340467D01*
X160472812Y-77203174D01*
X160301757Y-77095246D01*
X160171671Y-77043347D01*
X160116555Y-77021358D01*
X160113898Y-77020298D01*
X160111092Y-77019740D01*
X160111089Y-77019739D01*
X159918332Y-76981397D01*
X159918330Y-76981397D01*
X159915526Y-76980839D01*
X159820350Y-76979593D01*
X159716148Y-76978229D01*
X159716143Y-76978229D01*
X159713286Y-76978192D01*
X159710465Y-76978677D01*
X159710461Y-76978677D01*
X159594035Y-76998683D01*
X159513949Y-77012444D01*
X159511261Y-77013436D01*
X159511256Y-77013437D01*
X159326881Y-77081457D01*
X159326878Y-77081459D01*
X159324193Y-77082449D01*
X159150371Y-77185862D01*
X159070413Y-77255983D01*
X159000652Y-77317162D01*
X158998305Y-77319220D01*
X158981555Y-77340467D01*
X158878212Y-77471559D01*
X158873089Y-77478057D01*
X158860215Y-77502527D01*
X158793121Y-77630051D01*
X158778914Y-77657053D01*
X158778067Y-77659780D01*
X158778066Y-77659783D01*
X158736880Y-77792425D01*
X158718937Y-77850213D01*
X158695164Y-78051069D01*
X158699834Y-78122314D01*
X158706370Y-78222036D01*
X158708392Y-78252894D01*
X158716639Y-78285368D01*
X158756907Y-78443923D01*
X158758178Y-78448928D01*
X158759375Y-78451525D01*
X158759376Y-78451527D01*
X158771366Y-78477534D01*
X158842856Y-78632607D01*
X158959588Y-78797780D01*
X158961642Y-78799781D01*
X158961643Y-78799782D01*
X158987943Y-78825402D01*
X159104466Y-78938913D01*
X159272637Y-79051282D01*
X159386613Y-79100250D01*
X159455830Y-79129988D01*
X159455832Y-79129989D01*
X159458470Y-79131122D01*
X159558502Y-79153757D01*
X159652950Y-79175129D01*
X159652953Y-79175129D01*
X159655740Y-79175760D01*
X159744802Y-79179259D01*
X159854982Y-79183588D01*
X159854986Y-79183588D01*
X159857842Y-79183700D01*
X159884265Y-79179869D01*
X159916956Y-79175129D01*
X160058007Y-79154678D01*
X160249531Y-79089664D01*
X160426001Y-78990837D01*
X160446562Y-78973737D01*
X160579307Y-78863333D01*
X160581505Y-78861505D01*
X160654067Y-78774259D01*
X160709006Y-78708203D01*
X160709008Y-78708200D01*
X160710837Y-78706001D01*
X160809664Y-78529531D01*
X160818486Y-78503542D01*
X160820398Y-78497910D01*
X160851938Y-78461945D01*
X160879581Y-78455500D01*
X161848575Y-78455500D01*
X161892769Y-78473806D01*
X163456194Y-80037232D01*
X163474500Y-80081426D01*
X163474500Y-88493263D01*
X163473100Y-88506417D01*
X163469731Y-88522066D01*
X163470338Y-88527196D01*
X163470338Y-88527198D01*
X163474067Y-88558702D01*
X163474500Y-88566048D01*
X163474500Y-88571193D01*
X163474924Y-88573738D01*
X163477876Y-88591474D01*
X163478289Y-88594377D01*
X163484424Y-88646210D01*
X163486661Y-88650869D01*
X163487738Y-88654575D01*
X163488985Y-88658219D01*
X163489833Y-88663313D01*
X163492284Y-88667856D01*
X163492285Y-88667858D01*
X163514618Y-88709247D01*
X163515955Y-88711872D01*
X163538537Y-88758900D01*
X163541068Y-88761911D01*
X163541069Y-88761912D01*
X163541224Y-88762097D01*
X163541232Y-88762106D01*
X163542094Y-88763131D01*
X163542320Y-88763357D01*
X163544947Y-88766469D01*
X163546740Y-88768780D01*
X163549194Y-88773329D01*
X163552990Y-88776838D01*
X163589267Y-88810372D01*
X163591036Y-88812073D01*
X165059494Y-90280531D01*
X165077800Y-90324725D01*
X165071117Y-90351776D01*
X165071344Y-90351870D01*
X165070724Y-90353366D01*
X165070610Y-90353829D01*
X165068914Y-90357053D01*
X165068067Y-90359780D01*
X165068066Y-90359783D01*
X165034101Y-90469171D01*
X165008937Y-90550213D01*
X164985164Y-90751069D01*
X164998392Y-90952894D01*
X164999099Y-90955677D01*
X165019288Y-91035171D01*
X165048178Y-91148928D01*
X165132856Y-91332607D01*
X165249588Y-91497780D01*
X165251642Y-91499781D01*
X165251643Y-91499782D01*
X165269555Y-91517231D01*
X165288438Y-91561182D01*
X165270712Y-91605612D01*
X165225943Y-91624500D01*
X164951425Y-91624500D01*
X164907231Y-91606194D01*
X164579772Y-91278735D01*
X164561466Y-91234541D01*
X164564783Y-91214451D01*
X164623757Y-91040720D01*
X164624678Y-91038007D01*
X164653700Y-90837842D01*
X164655215Y-90780000D01*
X164654459Y-90771764D01*
X164636970Y-90581446D01*
X164636708Y-90578591D01*
X164628705Y-90550213D01*
X164582585Y-90386683D01*
X164582583Y-90386679D01*
X164581807Y-90383926D01*
X164530818Y-90280531D01*
X164493619Y-90205098D01*
X164493618Y-90205097D01*
X164492351Y-90202527D01*
X164490633Y-90200226D01*
X164373052Y-90042766D01*
X164373051Y-90042764D01*
X164371335Y-90040467D01*
X164222812Y-89903174D01*
X164051757Y-89795246D01*
X163870498Y-89722931D01*
X163866555Y-89721358D01*
X163863898Y-89720298D01*
X163861092Y-89719740D01*
X163861089Y-89719739D01*
X163668332Y-89681397D01*
X163668330Y-89681397D01*
X163665526Y-89680839D01*
X163570350Y-89679593D01*
X163466148Y-89678229D01*
X163466143Y-89678229D01*
X163463286Y-89678192D01*
X163460465Y-89678677D01*
X163460461Y-89678677D01*
X163344884Y-89698537D01*
X163263949Y-89712444D01*
X163261263Y-89713435D01*
X163261256Y-89713437D01*
X163076881Y-89781457D01*
X163076878Y-89781459D01*
X163074193Y-89782449D01*
X162900371Y-89885862D01*
X162809416Y-89965627D01*
X162766753Y-90003042D01*
X162748305Y-90019220D01*
X162623089Y-90178057D01*
X162528914Y-90357053D01*
X162528067Y-90359780D01*
X162528066Y-90359783D01*
X162494101Y-90469171D01*
X162468937Y-90550213D01*
X162445164Y-90751069D01*
X162458392Y-90952894D01*
X162459099Y-90955677D01*
X162479288Y-91035171D01*
X162508178Y-91148928D01*
X162592856Y-91332607D01*
X162709588Y-91497780D01*
X162711642Y-91499781D01*
X162711643Y-91499782D01*
X162772748Y-91559307D01*
X162854466Y-91638913D01*
X163022637Y-91751282D01*
X163123889Y-91794783D01*
X163205830Y-91829988D01*
X163205832Y-91829989D01*
X163208470Y-91831122D01*
X163308502Y-91853757D01*
X163402950Y-91875129D01*
X163402953Y-91875129D01*
X163405740Y-91875760D01*
X163494802Y-91879259D01*
X163604982Y-91883588D01*
X163604986Y-91883588D01*
X163607842Y-91883700D01*
X163808007Y-91854678D01*
X163984451Y-91794783D01*
X164032184Y-91797911D01*
X164048735Y-91809772D01*
X164381769Y-92142806D01*
X164400075Y-92187000D01*
X164381769Y-92231194D01*
X164337575Y-92249500D01*
X159530829Y-92249500D01*
X159518636Y-92248299D01*
X159518149Y-92248202D01*
X159500000Y-92244592D01*
X159490104Y-92246560D01*
X159473459Y-92247602D01*
X159255476Y-92232012D01*
X159246655Y-92230743D01*
X159011472Y-92179582D01*
X159002918Y-92177070D01*
X158777420Y-92092963D01*
X158769309Y-92089259D01*
X158558074Y-91973916D01*
X158550572Y-91969095D01*
X158357897Y-91824861D01*
X158351158Y-91819021D01*
X158180979Y-91648842D01*
X158175139Y-91642103D01*
X158030905Y-91449428D01*
X158026084Y-91441926D01*
X157910741Y-91230691D01*
X157907037Y-91222580D01*
X157822930Y-90997082D01*
X157820417Y-90988525D01*
X157813272Y-90955677D01*
X157769257Y-90753345D01*
X157767988Y-90744522D01*
X157756325Y-90581446D01*
X157752398Y-90526541D01*
X157753440Y-90509896D01*
X157755408Y-90500000D01*
X157751701Y-90481364D01*
X157750500Y-90469171D01*
X157750500Y-89136396D01*
X158442001Y-89136396D01*
X158442183Y-89139766D01*
X158448325Y-89196310D01*
X158450124Y-89203878D01*
X158498264Y-89332291D01*
X158502499Y-89340026D01*
X158584428Y-89449344D01*
X158590656Y-89455572D01*
X158699974Y-89537501D01*
X158707709Y-89541736D01*
X158836125Y-89589877D01*
X158843689Y-89591675D01*
X158900230Y-89597817D01*
X158903598Y-89598000D01*
X159533569Y-89598000D01*
X159542359Y-89594359D01*
X159546000Y-89585569D01*
X159546000Y-89585568D01*
X160054000Y-89585568D01*
X160057641Y-89594358D01*
X160066431Y-89597999D01*
X160696396Y-89597999D01*
X160699766Y-89597817D01*
X160756310Y-89591675D01*
X160763878Y-89589876D01*
X160892291Y-89541736D01*
X160900026Y-89537501D01*
X161009344Y-89455572D01*
X161015572Y-89449344D01*
X161097501Y-89340026D01*
X161101736Y-89332291D01*
X161149877Y-89203875D01*
X161151675Y-89196311D01*
X161157817Y-89139770D01*
X161158000Y-89136402D01*
X161158000Y-88506431D01*
X161154359Y-88497641D01*
X161145569Y-88494000D01*
X160066431Y-88494000D01*
X160057641Y-88497641D01*
X160054000Y-88506431D01*
X160054000Y-89585568D01*
X159546000Y-89585568D01*
X159546000Y-88506431D01*
X159542359Y-88497641D01*
X159533569Y-88494000D01*
X158454432Y-88494000D01*
X158445642Y-88497641D01*
X158442001Y-88506431D01*
X158442001Y-89136396D01*
X157750500Y-89136396D01*
X157750500Y-87973569D01*
X158442000Y-87973569D01*
X158445641Y-87982359D01*
X158454431Y-87986000D01*
X159533569Y-87986000D01*
X159542359Y-87982359D01*
X159546000Y-87973569D01*
X160054000Y-87973569D01*
X160057641Y-87982359D01*
X160066431Y-87986000D01*
X161145568Y-87986000D01*
X161154358Y-87982359D01*
X161157999Y-87973569D01*
X161157999Y-87343604D01*
X161157817Y-87340234D01*
X161151675Y-87283690D01*
X161149876Y-87276122D01*
X161101736Y-87147709D01*
X161097501Y-87139974D01*
X161015572Y-87030656D01*
X161009344Y-87024428D01*
X160900026Y-86942499D01*
X160892291Y-86938264D01*
X160763875Y-86890123D01*
X160756311Y-86888325D01*
X160699770Y-86882183D01*
X160696402Y-86882000D01*
X160066431Y-86882000D01*
X160057641Y-86885641D01*
X160054000Y-86894431D01*
X160054000Y-87973569D01*
X159546000Y-87973569D01*
X159546000Y-86894432D01*
X159542359Y-86885642D01*
X159533569Y-86882001D01*
X158903604Y-86882001D01*
X158900234Y-86882183D01*
X158843690Y-86888325D01*
X158836122Y-86890124D01*
X158707709Y-86938264D01*
X158699974Y-86942499D01*
X158590656Y-87024428D01*
X158584428Y-87030656D01*
X158502499Y-87139974D01*
X158498264Y-87147709D01*
X158450123Y-87276125D01*
X158448325Y-87283689D01*
X158442183Y-87340230D01*
X158442000Y-87343598D01*
X158442000Y-87973569D01*
X157750500Y-87973569D01*
X157750500Y-83131069D01*
X158695164Y-83131069D01*
X158698963Y-83189034D01*
X158707416Y-83317996D01*
X158708392Y-83332894D01*
X158709099Y-83335677D01*
X158756541Y-83522482D01*
X158758178Y-83528928D01*
X158759375Y-83531525D01*
X158759376Y-83531527D01*
X158775488Y-83566477D01*
X158842856Y-83712607D01*
X158959588Y-83877780D01*
X158961642Y-83879781D01*
X158961643Y-83879782D01*
X158963918Y-83881998D01*
X159104466Y-84018913D01*
X159272637Y-84131282D01*
X159371086Y-84173579D01*
X159455830Y-84209988D01*
X159455832Y-84209989D01*
X159458470Y-84211122D01*
X159558502Y-84233757D01*
X159652950Y-84255129D01*
X159652953Y-84255129D01*
X159655740Y-84255760D01*
X159744802Y-84259259D01*
X159854982Y-84263588D01*
X159854986Y-84263588D01*
X159857842Y-84263700D01*
X159863988Y-84262809D01*
X159934392Y-84252601D01*
X160058007Y-84234678D01*
X160249531Y-84169664D01*
X160426001Y-84070837D01*
X160437185Y-84061536D01*
X160579307Y-83943333D01*
X160581505Y-83941505D01*
X160629589Y-83883691D01*
X160709006Y-83788203D01*
X160709008Y-83788200D01*
X160710837Y-83786001D01*
X160809664Y-83609531D01*
X160874678Y-83418007D01*
X160895640Y-83273432D01*
X160903437Y-83219658D01*
X160903437Y-83219653D01*
X160903700Y-83217842D01*
X160905215Y-83160000D01*
X160904929Y-83156880D01*
X160895181Y-83050806D01*
X160886708Y-82958591D01*
X160878218Y-82928487D01*
X160832585Y-82766683D01*
X160832583Y-82766679D01*
X160831807Y-82763926D01*
X160795536Y-82690375D01*
X160743619Y-82585098D01*
X160743618Y-82585097D01*
X160742351Y-82582527D01*
X160737983Y-82576677D01*
X160623052Y-82422766D01*
X160623051Y-82422764D01*
X160621335Y-82420467D01*
X160472812Y-82283174D01*
X160301757Y-82175246D01*
X160113898Y-82100298D01*
X160111092Y-82099740D01*
X160111089Y-82099739D01*
X159918332Y-82061397D01*
X159918330Y-82061397D01*
X159915526Y-82060839D01*
X159820350Y-82059593D01*
X159716148Y-82058229D01*
X159716143Y-82058229D01*
X159713286Y-82058192D01*
X159710465Y-82058677D01*
X159710461Y-82058677D01*
X159594035Y-82078683D01*
X159513949Y-82092444D01*
X159511261Y-82093436D01*
X159511256Y-82093437D01*
X159326881Y-82161457D01*
X159326878Y-82161459D01*
X159324193Y-82162449D01*
X159321733Y-82163912D01*
X159321732Y-82163913D01*
X159291334Y-82181998D01*
X159150371Y-82265862D01*
X159078876Y-82328561D01*
X159004415Y-82393862D01*
X158998305Y-82399220D01*
X158964804Y-82441716D01*
X158880443Y-82548729D01*
X158873089Y-82558057D01*
X158778914Y-82737053D01*
X158778067Y-82739780D01*
X158778066Y-82739783D01*
X158764846Y-82782359D01*
X158718937Y-82930213D01*
X158695164Y-83131069D01*
X157750500Y-83131069D01*
X157750500Y-80591069D01*
X158695164Y-80591069D01*
X158699444Y-80656374D01*
X158705689Y-80751647D01*
X158708392Y-80792894D01*
X158711941Y-80806869D01*
X158757389Y-80985820D01*
X158758178Y-80988928D01*
X158759375Y-80991525D01*
X158759376Y-80991527D01*
X158780880Y-81038171D01*
X158842856Y-81172607D01*
X158959588Y-81337780D01*
X159104466Y-81478913D01*
X159272637Y-81591282D01*
X159386613Y-81640250D01*
X159455830Y-81669988D01*
X159455832Y-81669989D01*
X159458470Y-81671122D01*
X159558502Y-81693757D01*
X159652950Y-81715129D01*
X159652953Y-81715129D01*
X159655740Y-81715760D01*
X159744802Y-81719259D01*
X159854982Y-81723588D01*
X159854986Y-81723588D01*
X159857842Y-81723700D01*
X160058007Y-81694678D01*
X160249531Y-81629664D01*
X160426001Y-81530837D01*
X160446222Y-81514020D01*
X160579307Y-81403333D01*
X160581505Y-81401505D01*
X160645550Y-81324500D01*
X160709006Y-81248203D01*
X160709008Y-81248200D01*
X160710837Y-81246001D01*
X160809664Y-81069531D01*
X160874678Y-80878007D01*
X160887434Y-80790029D01*
X160903437Y-80679658D01*
X160903437Y-80679653D01*
X160903700Y-80677842D01*
X160905215Y-80620000D01*
X160904946Y-80617067D01*
X160893004Y-80487114D01*
X160886708Y-80418591D01*
X160878166Y-80388304D01*
X160832585Y-80226683D01*
X160832583Y-80226679D01*
X160831807Y-80223926D01*
X160742351Y-80042527D01*
X160725972Y-80020593D01*
X160623052Y-79882766D01*
X160623051Y-79882764D01*
X160621335Y-79880467D01*
X160472812Y-79743174D01*
X160301757Y-79635246D01*
X160146658Y-79573368D01*
X160116555Y-79561358D01*
X160113898Y-79560298D01*
X160111092Y-79559740D01*
X160111089Y-79559739D01*
X159918332Y-79521397D01*
X159918330Y-79521397D01*
X159915526Y-79520839D01*
X159820350Y-79519593D01*
X159716148Y-79518229D01*
X159716143Y-79518229D01*
X159713286Y-79518192D01*
X159710465Y-79518677D01*
X159710461Y-79518677D01*
X159615718Y-79534957D01*
X159513949Y-79552444D01*
X159511261Y-79553436D01*
X159511256Y-79553437D01*
X159326881Y-79621457D01*
X159326878Y-79621459D01*
X159324193Y-79622449D01*
X159150371Y-79725862D01*
X159128408Y-79745123D01*
X159025427Y-79835435D01*
X158998305Y-79859220D01*
X158981555Y-79880467D01*
X158877210Y-80012830D01*
X158873089Y-80018057D01*
X158861425Y-80040226D01*
X158789104Y-80177686D01*
X158778914Y-80197053D01*
X158778067Y-80199780D01*
X158778066Y-80199783D01*
X158736015Y-80335213D01*
X158718937Y-80390213D01*
X158704522Y-80512000D01*
X158696754Y-80577639D01*
X158695164Y-80591069D01*
X157750500Y-80591069D01*
X157750500Y-75511069D01*
X158695164Y-75511069D01*
X158701054Y-75600933D01*
X158703274Y-75634799D01*
X158708392Y-75712894D01*
X158715166Y-75739565D01*
X158752086Y-75884940D01*
X158758178Y-75908928D01*
X158759375Y-75911525D01*
X158759376Y-75911527D01*
X158767232Y-75928568D01*
X158842856Y-76092607D01*
X158959588Y-76257780D01*
X158961642Y-76259781D01*
X158961643Y-76259782D01*
X158994203Y-76291500D01*
X159104466Y-76398913D01*
X159272637Y-76511282D01*
X159373456Y-76554597D01*
X159455830Y-76589988D01*
X159455832Y-76589989D01*
X159458470Y-76591122D01*
X159558502Y-76613757D01*
X159652950Y-76635129D01*
X159652953Y-76635129D01*
X159655740Y-76635760D01*
X159744802Y-76639259D01*
X159854982Y-76643588D01*
X159854986Y-76643588D01*
X159857842Y-76643700D01*
X160058007Y-76614678D01*
X160249531Y-76549664D01*
X160426001Y-76450837D01*
X160435492Y-76442944D01*
X160579307Y-76323333D01*
X160581505Y-76321505D01*
X160647409Y-76242265D01*
X160709006Y-76168203D01*
X160709008Y-76168200D01*
X160710837Y-76166001D01*
X160809664Y-75989531D01*
X160874678Y-75798007D01*
X160891801Y-75679912D01*
X160903437Y-75599658D01*
X160903437Y-75599653D01*
X160903700Y-75597842D01*
X160905215Y-75540000D01*
X160905047Y-75538166D01*
X160891277Y-75388315D01*
X160886708Y-75338591D01*
X160879506Y-75313053D01*
X160832585Y-75146683D01*
X160832583Y-75146679D01*
X160831807Y-75143926D01*
X160766770Y-75012043D01*
X160743619Y-74965098D01*
X160743618Y-74965097D01*
X160742351Y-74962527D01*
X160733629Y-74950847D01*
X160623052Y-74802766D01*
X160623051Y-74802764D01*
X160621335Y-74800467D01*
X160472812Y-74663174D01*
X160301757Y-74555246D01*
X160113898Y-74480298D01*
X160111092Y-74479740D01*
X160111089Y-74479739D01*
X159918332Y-74441397D01*
X159918330Y-74441397D01*
X159915526Y-74440839D01*
X159820350Y-74439593D01*
X159716148Y-74438229D01*
X159716143Y-74438229D01*
X159713286Y-74438192D01*
X159710465Y-74438677D01*
X159710461Y-74438677D01*
X159594035Y-74458683D01*
X159513949Y-74472444D01*
X159511261Y-74473436D01*
X159511256Y-74473437D01*
X159326881Y-74541457D01*
X159326878Y-74541459D01*
X159324193Y-74542449D01*
X159150371Y-74645862D01*
X159115638Y-74676322D01*
X159003602Y-74774575D01*
X158998305Y-74779220D01*
X158981555Y-74800467D01*
X158876659Y-74933529D01*
X158873089Y-74938057D01*
X158778914Y-75117053D01*
X158778067Y-75119780D01*
X158778066Y-75119783D01*
X158753354Y-75199370D01*
X158718937Y-75310213D01*
X158695164Y-75511069D01*
X157750500Y-75511069D01*
X157750500Y-73280829D01*
X157751701Y-73268636D01*
X157754207Y-73256038D01*
X157755408Y-73250000D01*
X157753440Y-73240104D01*
X157752398Y-73223456D01*
X157755146Y-73185045D01*
X157767988Y-73005476D01*
X157769257Y-72996652D01*
X157774822Y-72971069D01*
X162415164Y-72971069D01*
X162428392Y-73172894D01*
X162441233Y-73223456D01*
X162477472Y-73366148D01*
X162478178Y-73368928D01*
X162479375Y-73371525D01*
X162479376Y-73371527D01*
X162489471Y-73393425D01*
X162562856Y-73552607D01*
X162679588Y-73717780D01*
X162824466Y-73858913D01*
X162992637Y-73971282D01*
X163088400Y-74012425D01*
X163175830Y-74049988D01*
X163175832Y-74049989D01*
X163178470Y-74051122D01*
X163278502Y-74073757D01*
X163372950Y-74095129D01*
X163372953Y-74095129D01*
X163375740Y-74095760D01*
X163464802Y-74099259D01*
X163574982Y-74103588D01*
X163574986Y-74103588D01*
X163577842Y-74103700D01*
X163778007Y-74074678D01*
X163969531Y-74009664D01*
X164146001Y-73910837D01*
X164152284Y-73905612D01*
X164299307Y-73783333D01*
X164301505Y-73781505D01*
X164369696Y-73699515D01*
X164429006Y-73628203D01*
X164429008Y-73628200D01*
X164430837Y-73626001D01*
X164529664Y-73449531D01*
X164594678Y-73258007D01*
X164623700Y-73057842D01*
X164625215Y-73000000D01*
X164624908Y-72996652D01*
X164616169Y-72901558D01*
X164606708Y-72798591D01*
X164598705Y-72770213D01*
X164552585Y-72606683D01*
X164552583Y-72606679D01*
X164551807Y-72603926D01*
X164462351Y-72422527D01*
X164445972Y-72400593D01*
X164343052Y-72262766D01*
X164343051Y-72262764D01*
X164341335Y-72260467D01*
X164192812Y-72123174D01*
X164021757Y-72015246D01*
X163833898Y-71940298D01*
X163831092Y-71939740D01*
X163831089Y-71939739D01*
X163638332Y-71901397D01*
X163638330Y-71901397D01*
X163635526Y-71900839D01*
X163540350Y-71899593D01*
X163436148Y-71898229D01*
X163436143Y-71898229D01*
X163433286Y-71898192D01*
X163430465Y-71898677D01*
X163430461Y-71898677D01*
X163314035Y-71918683D01*
X163233949Y-71932444D01*
X163231261Y-71933436D01*
X163231256Y-71933437D01*
X163046881Y-72001457D01*
X163046878Y-72001459D01*
X163044193Y-72002449D01*
X163041733Y-72003912D01*
X163041732Y-72003913D01*
X163024465Y-72014186D01*
X162870371Y-72105862D01*
X162718305Y-72239220D01*
X162593089Y-72398057D01*
X162591755Y-72400593D01*
X162506124Y-72563350D01*
X162498914Y-72577053D01*
X162498067Y-72579780D01*
X162498066Y-72579783D01*
X162457498Y-72710436D01*
X162438937Y-72770213D01*
X162415164Y-72971069D01*
X157774822Y-72971069D01*
X157811722Y-72801446D01*
X157820418Y-72761472D01*
X157822930Y-72752918D01*
X157826929Y-72742198D01*
X157877473Y-72606683D01*
X157907037Y-72527420D01*
X157910741Y-72519309D01*
X158026084Y-72308074D01*
X158030905Y-72300572D01*
X158175139Y-72107897D01*
X158180979Y-72101158D01*
X158351158Y-71930979D01*
X158357897Y-71925139D01*
X158550572Y-71780905D01*
X158558074Y-71776084D01*
X158769309Y-71660741D01*
X158777420Y-71657037D01*
X159002918Y-71572930D01*
X159011472Y-71570418D01*
X159246655Y-71519257D01*
X159255476Y-71517988D01*
X159473459Y-71502398D01*
X159490104Y-71503440D01*
X159500000Y-71505408D01*
X159518636Y-71501701D01*
X159530829Y-71500500D01*
X193869171Y-71500500D01*
X193881364Y-71501701D01*
G37*
G04 #@! TD.AperFunction*
G04 #@! TA.AperFunction,Conductor*
G36*
X188071162Y-85633809D02*
G01*
X188071724Y-85632452D01*
X188104431Y-85646000D01*
X189279000Y-85646000D01*
X189323194Y-85664306D01*
X189341500Y-85708500D01*
X189341500Y-86870569D01*
X189345141Y-86879359D01*
X189353931Y-86883000D01*
X189385422Y-86883000D01*
X189388635Y-86882834D01*
X189410681Y-86880546D01*
X189456529Y-86894192D01*
X189479298Y-86936261D01*
X189465652Y-86982109D01*
X189444187Y-86999053D01*
X189411854Y-87014579D01*
X189393921Y-87023191D01*
X189390491Y-87026362D01*
X189388807Y-87027506D01*
X189388253Y-87027837D01*
X189385369Y-87029781D01*
X189382211Y-87031421D01*
X189377172Y-87035725D01*
X189339048Y-87073849D01*
X189337279Y-87075550D01*
X189294444Y-87115146D01*
X189292097Y-87119186D01*
X189289177Y-87122831D01*
X189288876Y-87122590D01*
X189284102Y-87128795D01*
X188757513Y-87655384D01*
X188697366Y-87736816D01*
X188657444Y-87850500D01*
X188656193Y-87854061D01*
X188641417Y-87877546D01*
X188462769Y-88056194D01*
X188418575Y-88074500D01*
X187966292Y-88074500D01*
X187922098Y-88056194D01*
X187903792Y-88012000D01*
X187907769Y-87990061D01*
X187913952Y-87973569D01*
X187941951Y-87898878D01*
X187942642Y-87897036D01*
X187944017Y-87893368D01*
X187950500Y-87833691D01*
X187950499Y-87266310D01*
X187950317Y-87264628D01*
X187944440Y-87210529D01*
X187944440Y-87210528D01*
X187944017Y-87206632D01*
X187942642Y-87202964D01*
X187942641Y-87202960D01*
X187896513Y-87079912D01*
X187896512Y-87079910D01*
X187894949Y-87075741D01*
X187811116Y-86963884D01*
X187699259Y-86880051D01*
X187695090Y-86878488D01*
X187695088Y-86878487D01*
X187578561Y-86834804D01*
X187543605Y-86802150D01*
X187538000Y-86776281D01*
X187538000Y-86673719D01*
X187556306Y-86629525D01*
X187578561Y-86615196D01*
X187695088Y-86571513D01*
X187695090Y-86571512D01*
X187699259Y-86569949D01*
X187811116Y-86486116D01*
X187894949Y-86374259D01*
X187896994Y-86368806D01*
X187942642Y-86247036D01*
X187944017Y-86243368D01*
X187950312Y-86185422D01*
X188092000Y-86185422D01*
X188092166Y-86188635D01*
X188102434Y-86287589D01*
X188103869Y-86294235D01*
X188156654Y-86452448D01*
X188159714Y-86458981D01*
X188247368Y-86600630D01*
X188251847Y-86606281D01*
X188369741Y-86723970D01*
X188375402Y-86728441D01*
X188517203Y-86815847D01*
X188523737Y-86818894D01*
X188682056Y-86871406D01*
X188688684Y-86872827D01*
X188786384Y-86882838D01*
X188789565Y-86883000D01*
X188821069Y-86883000D01*
X188829859Y-86879359D01*
X188833500Y-86870569D01*
X188833500Y-86166431D01*
X188829859Y-86157641D01*
X188821069Y-86154000D01*
X188104431Y-86154000D01*
X188095641Y-86157641D01*
X188092000Y-86166431D01*
X188092000Y-86185422D01*
X187950312Y-86185422D01*
X187950500Y-86183691D01*
X187950499Y-85718926D01*
X187968805Y-85674732D01*
X188001833Y-85641704D01*
X188046027Y-85623398D01*
X188071162Y-85633809D01*
G37*
G04 #@! TD.AperFunction*
G04 #@! TA.AperFunction,Conductor*
G36*
X172508712Y-78274444D02*
G01*
X174652555Y-80418287D01*
X174660867Y-80428579D01*
X174666749Y-80437689D01*
X174666751Y-80437692D01*
X174669552Y-80442029D01*
X174673609Y-80445227D01*
X174698523Y-80464868D01*
X174704024Y-80469756D01*
X174707662Y-80473394D01*
X174709756Y-80474891D01*
X174709758Y-80474892D01*
X174724386Y-80485345D01*
X174726742Y-80487114D01*
X174767724Y-80519422D01*
X174772600Y-80521134D01*
X174775981Y-80522993D01*
X174779442Y-80524688D01*
X174783643Y-80527691D01*
X174788590Y-80529170D01*
X174788593Y-80529172D01*
X174809510Y-80535427D01*
X174843478Y-80560447D01*
X174876194Y-80609133D01*
X174879458Y-80613991D01*
X174995910Y-80719954D01*
X174999220Y-80721751D01*
X174999224Y-80721754D01*
X175028037Y-80737398D01*
X175058141Y-80774573D01*
X175053141Y-80822146D01*
X175026881Y-80847863D01*
X175007179Y-80858032D01*
X174984281Y-80878007D01*
X174901818Y-80949945D01*
X174888534Y-80961533D01*
X174886368Y-80964615D01*
X174886367Y-80964616D01*
X174869760Y-80988245D01*
X174798001Y-81090348D01*
X174775582Y-81147850D01*
X174742311Y-81233187D01*
X174740809Y-81237039D01*
X174740317Y-81240776D01*
X174721933Y-81380419D01*
X174720258Y-81393138D01*
X174737535Y-81549633D01*
X174738829Y-81553170D01*
X174738830Y-81553173D01*
X174765631Y-81626409D01*
X174791643Y-81697490D01*
X174813121Y-81729452D01*
X174870855Y-81815369D01*
X174879458Y-81828172D01*
X174975632Y-81915683D01*
X174979563Y-81919260D01*
X175000000Y-81965487D01*
X175000000Y-82422126D01*
X174981694Y-82466320D01*
X174937500Y-82484626D01*
X174908254Y-82477361D01*
X174835029Y-82438590D01*
X174835028Y-82438590D01*
X174831701Y-82436828D01*
X174678998Y-82398472D01*
X174675233Y-82398452D01*
X174675231Y-82398452D01*
X174597420Y-82398045D01*
X174521554Y-82397648D01*
X174517890Y-82398528D01*
X174517887Y-82398528D01*
X174461594Y-82412043D01*
X174402589Y-82426209D01*
X174355344Y-82418726D01*
X174327227Y-82380026D01*
X174325500Y-82365436D01*
X174325500Y-81076736D01*
X174326900Y-81063581D01*
X174329181Y-81052985D01*
X174330269Y-81047933D01*
X174327968Y-81028487D01*
X174325933Y-81011297D01*
X174325500Y-81003951D01*
X174325500Y-80998807D01*
X174323626Y-80987549D01*
X174322124Y-80978522D01*
X174321709Y-80975607D01*
X174316183Y-80928921D01*
X174315576Y-80923790D01*
X174313339Y-80919131D01*
X174312262Y-80915425D01*
X174311015Y-80911781D01*
X174310167Y-80906687D01*
X174305177Y-80897438D01*
X174285382Y-80860753D01*
X174284045Y-80858128D01*
X174279515Y-80848695D01*
X174261463Y-80811100D01*
X174258931Y-80808088D01*
X174258776Y-80807903D01*
X174258768Y-80807894D01*
X174257906Y-80806869D01*
X174257680Y-80806643D01*
X174255053Y-80803531D01*
X174253260Y-80801220D01*
X174250806Y-80796671D01*
X174210733Y-80759628D01*
X174208964Y-80757927D01*
X173413466Y-79962429D01*
X173395160Y-79918235D01*
X173395783Y-79909429D01*
X173404847Y-79845742D01*
X173404847Y-79845737D01*
X173405134Y-79843723D01*
X173405278Y-79830000D01*
X173405033Y-79827979D01*
X173405033Y-79827971D01*
X173386816Y-79677439D01*
X173386363Y-79673694D01*
X173383849Y-79667039D01*
X173343303Y-79559739D01*
X173330710Y-79526412D01*
X173241531Y-79396657D01*
X173123976Y-79291919D01*
X172984831Y-79218245D01*
X172832128Y-79179889D01*
X172828363Y-79179869D01*
X172828361Y-79179869D01*
X172750550Y-79179462D01*
X172674684Y-79179065D01*
X172671020Y-79179945D01*
X172671017Y-79179945D01*
X172598136Y-79197442D01*
X172521588Y-79215820D01*
X172455978Y-79249684D01*
X172385024Y-79286305D01*
X172385021Y-79286307D01*
X172381679Y-79288032D01*
X172378843Y-79290506D01*
X172309051Y-79351390D01*
X172263034Y-79391533D01*
X172260868Y-79394615D01*
X172260867Y-79394616D01*
X172253971Y-79404428D01*
X172172501Y-79520348D01*
X172152504Y-79571639D01*
X172116821Y-79663162D01*
X172115309Y-79667039D01*
X172114817Y-79670776D01*
X172097287Y-79803931D01*
X172094758Y-79823138D01*
X172112035Y-79979633D01*
X172113329Y-79983170D01*
X172113330Y-79983173D01*
X172143047Y-80064377D01*
X172166143Y-80127490D01*
X172203665Y-80183329D01*
X172250388Y-80252859D01*
X172253958Y-80258172D01*
X172370410Y-80364135D01*
X172373719Y-80365932D01*
X172373721Y-80365933D01*
X172448364Y-80406461D01*
X172508776Y-80439262D01*
X172512423Y-80440219D01*
X172512426Y-80440220D01*
X172651433Y-80476687D01*
X172661069Y-80479215D01*
X172745067Y-80480535D01*
X172814726Y-80481629D01*
X172814728Y-80481629D01*
X172818495Y-80481688D01*
X172827232Y-80479687D01*
X172874398Y-80487665D01*
X172885379Y-80496416D01*
X172917642Y-80528679D01*
X172935948Y-80572873D01*
X172917642Y-80617067D01*
X172902115Y-80628410D01*
X172854404Y-80653036D01*
X172770475Y-80696354D01*
X172770472Y-80696356D01*
X172767130Y-80698081D01*
X172764294Y-80700555D01*
X172654115Y-80796671D01*
X172648485Y-80801582D01*
X172646319Y-80804664D01*
X172646318Y-80804665D01*
X172629899Y-80828027D01*
X172557952Y-80930397D01*
X172532274Y-80996259D01*
X172503491Y-81070084D01*
X172500760Y-81077088D01*
X172500268Y-81080825D01*
X172481659Y-81222177D01*
X172480209Y-81233187D01*
X172497486Y-81389682D01*
X172498780Y-81393219D01*
X172498781Y-81393222D01*
X172514816Y-81437039D01*
X172551594Y-81537539D01*
X172587708Y-81591282D01*
X172614119Y-81630585D01*
X172639409Y-81668221D01*
X172755861Y-81774184D01*
X172759170Y-81775981D01*
X172759172Y-81775982D01*
X172831714Y-81815369D01*
X172894227Y-81849311D01*
X172897874Y-81850268D01*
X172897877Y-81850269D01*
X173033834Y-81885936D01*
X173046520Y-81889264D01*
X173055386Y-81889403D01*
X173062983Y-81889523D01*
X173106884Y-81908522D01*
X173124500Y-81952015D01*
X173124500Y-82310848D01*
X173111082Y-82349542D01*
X173088267Y-82378482D01*
X173086555Y-82383358D01*
X173084695Y-82386741D01*
X173083001Y-82390200D01*
X173079998Y-82394401D01*
X173078519Y-82399348D01*
X173078518Y-82399349D01*
X173065046Y-82444398D01*
X173064135Y-82447200D01*
X173048150Y-82492718D01*
X173048149Y-82492722D01*
X173046847Y-82496430D01*
X173046370Y-82501937D01*
X173046370Y-82502261D01*
X173046026Y-82506319D01*
X173045659Y-82509222D01*
X173044180Y-82514169D01*
X173046004Y-82560593D01*
X173046322Y-82568684D01*
X173046370Y-82571138D01*
X173046370Y-83488547D01*
X173044970Y-83501701D01*
X173041601Y-83517350D01*
X173042208Y-83522480D01*
X173042208Y-83522482D01*
X173045937Y-83553986D01*
X173046370Y-83561332D01*
X173046370Y-83566477D01*
X173046794Y-83569022D01*
X173049746Y-83586758D01*
X173050159Y-83589661D01*
X173056294Y-83641494D01*
X173058531Y-83646153D01*
X173059608Y-83649859D01*
X173060855Y-83653503D01*
X173061703Y-83658597D01*
X173064154Y-83663140D01*
X173064155Y-83663142D01*
X173086488Y-83704531D01*
X173087825Y-83707156D01*
X173110407Y-83754184D01*
X173112939Y-83757196D01*
X173114505Y-83759621D01*
X173124500Y-83793525D01*
X173124500Y-85118575D01*
X173106194Y-85162769D01*
X171782194Y-86486769D01*
X171738000Y-86505075D01*
X171693806Y-86486769D01*
X171675500Y-86442575D01*
X171675500Y-78772145D01*
X171693806Y-78727951D01*
X171738981Y-78709653D01*
X171827068Y-78711037D01*
X171864726Y-78711629D01*
X171864728Y-78711629D01*
X171868495Y-78711688D01*
X172021968Y-78676538D01*
X172025332Y-78674846D01*
X172025335Y-78674845D01*
X172159259Y-78607488D01*
X172159260Y-78607488D01*
X172162625Y-78605795D01*
X172165489Y-78603349D01*
X172165492Y-78603347D01*
X172279483Y-78505989D01*
X172282348Y-78503542D01*
X172321592Y-78448928D01*
X172372024Y-78378745D01*
X172372025Y-78378743D01*
X172374224Y-78375683D01*
X172397158Y-78318634D01*
X172406528Y-78295326D01*
X172439997Y-78261149D01*
X172487830Y-78260648D01*
X172508712Y-78274444D01*
G37*
G04 #@! TD.AperFunction*
G04 #@! TA.AperFunction,Conductor*
G36*
X169462769Y-74693806D02*
G01*
X171621769Y-76852806D01*
X171640075Y-76897000D01*
X171621769Y-76941194D01*
X171577575Y-76959500D01*
X168916425Y-76959500D01*
X168872231Y-76941194D01*
X166987274Y-75056237D01*
X166968968Y-75012043D01*
X166987274Y-74967849D01*
X167032450Y-74949551D01*
X167164726Y-74951629D01*
X167164728Y-74951629D01*
X167168495Y-74951688D01*
X167321968Y-74916538D01*
X167325332Y-74914846D01*
X167325335Y-74914845D01*
X167459259Y-74847488D01*
X167459260Y-74847488D01*
X167462625Y-74845795D01*
X167465489Y-74843349D01*
X167465492Y-74843347D01*
X167579483Y-74745989D01*
X167582348Y-74743542D01*
X167612538Y-74701529D01*
X167653191Y-74676322D01*
X167663292Y-74675500D01*
X169418575Y-74675500D01*
X169462769Y-74693806D01*
G37*
G04 #@! TD.AperFunction*
M02*
